<svg width="352" height="376" viewBox="0 0 352 376" fill="none" xmlns="http://www.w3.org/2000/svg">
<path d="M170.351 74.4883H181.351L190.865 75.3786L199.486 76.8624L207.513 78.9397L215.54 81.6106L223.27 84.875L229.811 88.1394L237.243 92.5909L242.297 96.1521L246.459 99.4165L250.324 102.681L254.189 106.242L258.946 110.99L261.027 113.364L264.892 118.113L268.757 123.454L272.027 128.499L276.189 135.918L279.757 143.634L282.73 151.647L285.108 160.253L286.892 168.859L288.081 179.543V193.787L287.189 202.394L285.703 210.703L283.621 218.716L280.946 226.728L277.081 235.631L273.513 242.457L269.649 248.689L266.676 252.843L263.703 256.701L261.027 259.966L257.459 263.824L255.081 266.495L252.703 268.572L250.622 270.649L247.351 273.32L242.892 276.881L236.946 281.036L230.405 284.894L223.567 288.455L216.432 291.423L205.73 294.984L196.811 297.061L189.081 298.248L182.243 298.842H169.162L160.243 297.952L151.919 296.468L144.784 294.687L135.865 291.72L128.135 288.455L121.594 285.191L116.54 282.223L111.189 278.662L106.432 275.101L103.162 272.43L100.189 269.759L97.8107 267.682L92.7566 262.637L90.081 259.372L87.7026 256.701L83.5404 251.063L79.6756 245.128L76.108 238.896L72.5404 231.476L69.5675 223.761L66.8918 215.154L65.108 207.142L63.9188 199.129L63.3242 191.117V182.214L63.9188 174.498L65.108 166.188L67.1891 157.285L69.5675 149.57L72.8377 141.26L75.5134 135.622L79.3783 128.796L82.9458 123.158L85.0269 120.783L87.9999 119.3L89.1891 119.003H91.8648L94.8377 119.893L97.5134 121.971L99.2972 124.641L99.8918 126.422V131.17L98.7026 134.138L95.135 140.073L92.1621 145.415L89.4864 151.35L86.5134 159.66L84.4323 167.969L83.2431 175.388L82.6485 182.51V190.82L83.2431 197.942L84.7296 206.845L86.8107 214.561L88.8918 220.496L92.1621 227.915L95.135 233.554L99.2972 240.083L103.162 245.128L106.73 249.282L110.892 253.734L113.865 256.405L117.73 259.669L123.081 263.527L128.73 267.088L136.757 271.243L144.784 274.507L152.811 276.881L161.432 278.662L169.757 279.552H181.649L187.892 278.959L195.027 277.772L202.162 275.991L210.784 273.023L217.919 269.759L223.865 266.495L230.108 262.34L233.676 259.669L237.54 256.405L240.513 253.734L244.973 249.282L247.649 246.018L251.216 241.566L254.189 237.115L256.865 232.663L260.432 225.838L263.405 218.419L265.189 213.077L266.973 205.955L268.162 199.129L268.757 193.194V180.136L267.865 172.124L266.081 163.517L263.703 155.802L260.73 148.383L258.351 143.634L255.676 138.589L251.513 132.357L248.54 128.499L244.973 124.345L240.811 119.893L236.946 116.332L232.784 113.068L228.324 109.803L222.676 106.242L214.649 102.087L206.622 98.8229L198.594 96.4488L191.459 94.965L184.622 94.0747L180.757 93.7779H170.649L162.027 94.6682L154.297 96.1521L146.865 98.2294L140.324 100.604L132.594 104.165L126.351 107.726L122.784 110.1L120.108 111.584L118.027 112.177H114.162L110.892 110.99L108.216 108.616L106.73 105.945L106.432 104.758V100.9L107.622 97.9326L110 95.5585L116.243 91.4038L122.486 87.8427L127.243 85.4685L132.297 83.0944L139.432 80.4236L147.162 78.0494L155.189 76.2689L163.216 75.0818L170.351 74.4883Z" fill="#030A3E"/>
<path d="M123.676 143.93H228.027L228.324 144.226V197.05L228.027 197.347H123.676V143.93Z" fill="#030A3E"/>
<path d="M117.135 130.574H234.567L237.837 131.761L239.621 133.245L240.81 135.026L241.405 136.806V215.152L239.918 218.12L238.432 219.603L236.648 220.79L233.973 221.384H117.729L114.756 220.494L112.973 219.307L111.189 217.229L110.297 214.855V137.103L111.486 134.135L112.973 132.652L114.459 131.465L117.135 130.574ZM118.324 138.587V202.391H233.675V138.884L233.378 138.587H118.324ZM174.513 208.03L172.729 209.217L171.837 210.997L172.135 213.668L173.324 215.152L174.513 215.745H177.189L178.973 214.558L179.864 213.075V210.701L178.675 208.92L177.486 208.03H174.513Z" fill="#030A3E"/>
<path d="M158.758 226.43H192.947L195.028 229.397L199.487 237.41L204.541 237.707L206.028 238.597L206.92 240.674L206.623 242.455L205.136 244.236L204.244 244.532H147.758L145.974 243.642L145.082 242.455V239.784L146.569 238.003L147.163 237.707L152.217 237.41L156.677 229.694L158.46 226.726L158.758 226.43Z" fill="#030A3E"/>
<path d="M61.838 36.7969H64.2164L67.4867 37.3904L71.0543 39.171L74.0272 41.8419L75.5137 44.216L76.4056 46.8869L76.7029 48.3707V51.9318L75.5137 56.3833L73.7299 59.6477L71.3516 62.3186L68.0813 64.3959L65.7029 65.2862L62.1353 65.583L58.5678 64.6927L56.1894 63.5056L53.2164 60.8348L51.1353 57.8671L49.6489 53.7124L49.3516 52.2286V48.0739L50.2435 45.1063L52.0272 42.1386L53.5137 40.358L56.1894 38.5775L58.8651 37.3904L61.838 36.7969Z" fill="#030A3E"/>
<path d="M292.243 286.676H296.405L300.27 287.863L303.243 289.643L305.324 291.721L306.811 294.095L307.702 296.766L308 300.92L307.108 305.075L305.027 309.23L302.351 312.197L299.675 313.978L296.405 315.165H291.946L288.675 313.978L286 312.197L283.621 309.527L282.135 307.152L280.946 303.888L280.648 302.404V297.656L281.54 294.688L283.324 291.721L285.702 289.347L289.865 287.269L292.243 286.676Z" fill="#030A3E"/>
<path fill-rule="evenodd" clip-rule="evenodd" d="M167.378 11.2773H184.324L195.622 12.1676L206.027 13.6515L216.135 15.7288L226.243 18.3997L236.946 21.9608L246.459 25.8188L255.973 30.2702L262.514 33.8314L267.568 36.7991L270.243 38.5796L271.432 38.2829L274.108 35.3152L277.378 31.7541L280.054 28.7864L283.027 27.3026L286.297 27.0058L289.568 28.1929L291.946 30.2702L293.135 32.0508L297 40.3602L301.757 50.4502L305.919 59.3531L310.676 69.4431L314.541 78.0493L315.73 80.1266L319.297 84.8748L325.243 93.7778L329.108 100.307L332.973 107.429L336.838 115.442L340.108 123.454L343.081 131.764L345.459 139.479L347.838 148.976L349.919 160.253L351.108 169.453L351.703 177.168V196.458L350.811 206.845L349.324 217.232L346.946 228.509L343.973 239.192L340.703 248.689L337.432 256.701L333.568 265.011L329.703 272.43L326.432 278.068L328.216 280.146L331.189 283.707L333.865 287.861L336.243 292.61L338.324 298.248L339.514 303.887L339.811 306.558V314.867L338.919 320.505L337.432 325.847L335.351 330.595L332.973 335.047L330 339.202L326.432 343.06L324.351 345.137L320.487 348.105L316.622 350.479L311.865 352.853L305.622 354.93L301.162 355.82L298.784 356.117H289.568L284.216 355.227L278.27 353.446L273.514 351.369L269.351 348.995L264.595 345.434L261.027 342.169L260.432 341.279L258.649 341.872L253 344.84L243.784 348.995L236.054 351.962L225.351 355.524L212.27 358.788L202.459 360.569L192.946 361.756L184.919 362.349H167.081L156.081 361.459L145.676 359.975L135.568 357.898L125.459 355.227L113.27 351.072L104.649 347.511L96.027 343.356L88.5946 339.498L84.1351 336.828L82.946 337.421L78.1892 342.466L76.1081 344.84L74.6216 346.621L71.6487 348.401L70.7568 348.698H66.8919L63.9189 347.511L61.8378 345.434L59.4595 340.685L54.1081 329.408L50.2432 321.099L45.1892 310.415L41.3243 302.106L38.9459 297.061L35.973 293.5L32.1081 288.158L26.7568 280.146L23.1892 274.21L19.6216 267.681L15.7568 259.966L11.8919 250.766L8.91892 242.457L6.24324 233.85L3.56757 222.87L1.78378 212.78L0.594595 202.987L0 194.381V179.246L0.891892 167.672L2.37838 156.988L4.45946 146.899L6.83784 137.699L10.4054 127.015L13.3784 119.299L17.2432 110.693L20.5135 104.164L24.3784 97.3389L28.2432 91.1069L27.6487 89.9198L24.3784 85.4684L21.7027 80.7201L19.3243 74.4881L17.8378 68.256L17.5405 66.1787V55.7919L18.7297 49.2631L20.5135 43.9214L22.8919 38.8764L25.5676 34.7217L27.9459 31.7541L30.6216 28.7864L33 26.4123L36.8649 23.4447L40.7297 21.0706L46.973 18.1029L53.2162 16.3223L58.5676 15.432H67.4865L72.8378 16.3223L79.0811 18.1029L85.9189 21.3673L90.3784 24.335L94.5406 27.8961L96.3243 29.6767L97.8108 29.3799L104.649 26.1155L112.676 22.8511L121 19.8835L129.919 17.2126L138.243 15.1353L149.541 13.0579L159.351 11.8709L167.378 11.2773ZM168.27 27.0058L157.27 27.8961L147.162 29.3799L136.459 31.7541L128.135 34.1282L120.108 36.7991L111.486 40.3602L105.541 43.0311L105.243 43.9214L107.027 49.5599L107.919 53.7146L108.216 56.0887V65.8819L107.027 72.4107L105.243 77.7525L102.27 83.9845L99 88.7328L95.1351 93.1842L92.1622 95.8551L87.1081 99.4163L82.946 101.79L78.4865 103.571L72.2433 105.352L68.6757 105.945L65.1081 106.242H60.9459L55.2973 105.648L50.2432 104.461L44.5946 102.384L41.6216 100.9H40.7297L36.2703 108.319L31.8108 116.629L27.9459 125.235L24.973 132.951L21.7027 143.041L19.3243 152.537L17.5405 162.033L16.3514 171.53L15.7568 180.136V193.49L16.3514 202.097L17.5405 211.593L19.3243 221.09L21.7027 230.586L25.2703 241.566L29.1351 251.063L33.2973 259.966L36.8649 266.494L41.027 273.32L44.8919 278.958L49.0541 284.597L51.7297 287.861L53.2162 288.752L68.973 294.39L88 301.216L97.8108 304.777L100.486 306.558L101.973 308.932L102.568 311.009V313.383L101.378 316.648L97.8108 320.802L94.5406 324.363L96.027 325.55L103.162 329.408L111.189 333.266L120.108 336.828L130.811 340.389L142.703 343.356L150.73 344.84L159.946 346.027L167.973 346.621H184.027L194.73 345.73L206.324 343.95L215.541 341.872L223.865 339.498L233.378 336.234L242.595 332.376L251.514 327.925L251.811 327.034L250.027 321.099L249.135 316.351L248.838 313.086V308.338L249.432 302.996L250.919 296.764L253.297 290.829L256.568 285.191L259.541 281.333L263.108 277.475L266.378 274.804L270.243 272.133L276.487 268.869L282.73 266.791L286.892 265.901L292.838 265.307H295.811L301.757 265.901L308 267.385L312.757 269.165H313.351L317.216 262.34L319.595 257.591L322.865 250.766L326.432 241.863L329.405 232.96L332.081 222.87L334.162 212.187L335.351 203.284L335.946 195.568V178.059L335.054 167.672L333.568 157.879L331.189 147.195L328.811 138.886L325.541 129.389L322.27 121.674L318.108 113.067L314.243 105.945L309.784 98.8227L306.514 94.0745L303.838 90.5133L301.46 87.5457L297.892 86.0619L281.243 80.1266L265.487 74.4881L255.676 70.9269L253.297 69.1463L251.811 66.4755L251.514 65.2884V62.024L252.703 59.0564L256.865 54.6049L258.946 52.2308L259.838 51.3405V50.4502L253 46.5923L244.973 42.4376L236.351 38.5796L227.432 35.3152L218.811 32.6444L210.487 30.567L200.973 28.7864L191.757 27.5994L183.432 27.0058H168.27ZM59.4595 28.7864L53.5135 29.9735L49.0541 31.7541L45.7838 33.5346L42.2162 36.2055L39.5405 38.5796L36.2703 42.7343L33.8919 46.889L32.4054 50.4502L31.2162 54.9017L30.9189 56.6822V65.2884L32.1081 70.6302L34.4865 76.2687L36.5676 79.5331L38.0541 81.3137L39.2432 80.7201L41.6216 78.346L45.7838 75.3784L51.4324 72.7075L56.4865 71.2237L60.3514 70.6302H66.2973L71.6487 71.5204L77 73.301L82.6487 76.2687L86.5135 79.5331L88.2973 81.0169L90.6757 77.7525L93.0541 73.0043L94.5406 68.256L95.1351 64.9916V56.979L94.2433 52.2308L92.4595 47.4826L90.3784 43.6246L87.7027 40.0635L83.2433 35.612L78.7838 32.6444L74.3243 30.567L68.6757 29.0832L66.5946 28.7864H59.4595ZM293.73 278.365L288.081 278.958L283.622 280.146L278.865 282.223L275.595 284.3L272.622 286.674L269.351 289.939L266.676 293.797L264.297 298.248L262.514 304.183L261.919 308.932V312.493L262.514 317.241L264 322.286L266.378 327.034L268.757 330.595L269.649 331.189L272.027 328.815L275.892 325.847L281.541 322.88L286 321.396L290.757 320.505H298.487L303.243 321.396L307.703 322.88L312.46 325.254L316.324 327.925L319.297 330.892L320.487 329.705L323.162 325.254L324.946 321.099L326.135 316.351L326.432 314.273V307.151L325.243 301.216L323.459 296.764L321.676 293.5L319 289.939L316.324 286.971L312.162 283.707L306.514 280.739L301.757 279.255L298.784 278.662L293.73 278.365ZM56.4841 300.029H58.5652L77.2949 306.854L86.2138 310.119L87.7003 311.603L87.9976 312.196V314.867L84.43 319.022L82.3489 321.099L80.2679 323.473L76.7003 327.331L74.0246 330.299L72.2408 332.376L71.0516 332.97H68.9706L67.1868 331.783L64.8084 327.331L60.9435 319.022L55.8895 308.635L54.1057 304.777V302.403L54.9976 300.919L56.4841 300.029ZM285.403 43.0312H282.727L281.538 43.9215L278.268 47.4826L274.7 51.3406L272.619 53.7147L267.862 58.7597L266.078 61.1338L265.781 62.9143L266.673 64.9917L268.16 65.882L279.457 70.0367L294.024 75.3784L296.7 75.972L298.781 75.0817L299.97 73.3011L299.673 70.6302L295.808 62.6176L291.943 54.3082L287.187 44.515L285.403 43.0312Z" fill="#030A3E"/>
</svg>
