<svg width="1440" height="423" viewBox="0 0 1440 423" fill="none" xmlns="http://www.w3.org/2000/svg">
<path d="M804.065 23.2661C804.065 10.4166 814.481 0 827.331 0H1212.61C1225.46 0 1235.88 10.4166 1235.88 23.2661C1235.88 36.1156 1246.3 46.5322 1259.15 46.5322H1300.87C1313.56 46.5322 1323.84 56.8152 1323.84 69.5C1323.84 82.1848 1334.12 92.4678 1346.81 92.4678H1378.36C1391.21 92.4678 1401.63 102.884 1401.63 115.734C1401.63 128.583 1391.21 139 1378.36 139H993.078C980.228 139 969.812 128.583 969.812 115.734C969.812 102.884 959.395 92.4678 946.546 92.4678H914.995C902.31 92.4678 892.027 82.1848 892.027 69.5C892.027 56.8152 881.744 46.5322 869.059 46.5322H827.331C814.481 46.5322 804.065 36.1156 804.065 23.2661Z" fill="#70BCFF"/>
<path d="M1362.37 23.2661C1362.37 10.4166 1372.79 0 1385.64 0H1416.89C1429.74 0 1440.16 10.4166 1440.16 23.2661C1440.16 36.1156 1429.74 46.5322 1416.89 46.5322H1385.64C1372.79 46.5322 1362.37 36.1156 1362.37 23.2661Z" fill="#70BCFF"/>
<path d="M879.669 115.734C879.669 102.884 869.252 92.4678 856.402 92.4678H766.266C753.417 92.4678 743 102.884 743 115.734C743 128.583 753.417 139 766.266 139H856.402C869.252 139 879.669 128.583 879.669 115.734Z" fill="#70BCFF"/>
<path d="M1056.66 90.4294L1056.78 90.5027C1055.05 91.4194 1050.08 94.3733 1050.08 98.1385C1050.08 99.4081 1050.81 100.632 1051.49 101.782C1052.09 102.795 1052.66 103.746 1052.66 104.619C1052.66 106.813 1050.52 108.515 1049.31 109.299L1049.08 109.166C1049.54 108.609 1050.1 107.676 1050.1 106.682C1050.1 105.311 1049.4 104.216 1048.68 103.105C1047.95 101.956 1047.2 100.79 1047.2 99.2775C1047.2 94.025 1054.34 91.2063 1056.66 90.4294ZM1047.27 93.2069C1050.14 90.6402 1053.28 87.8352 1053.28 83.6163C1053.28 81.7073 1052.5 80.4881 1052.11 80L1051.99 80.071C1052.08 80.4515 1052.21 81.1527 1052.21 82.0694C1052.21 85.9102 1048.96 88.6006 1045.8 91.2085C1042.84 93.656 1039.98 96.0256 1039.98 99.1973C1039.98 103.746 1044.46 106.544 1046.36 107.727L1046.5 107.819L1046.62 107.75C1046.52 107.637 1046.41 107.521 1046.29 107.401C1044.84 105.85 1042.62 103.496 1042.62 99.8962C1042.62 97.3685 1044.85 95.3725 1047.27 93.2069ZM1046.24 115.913C1050.28 115.913 1053.11 115.333 1054.36 114.978L1056.27 116.078C1054.45 117.001 1050.42 117.705 1046.23 117.705C1041.29 117.705 1035.9 116.646 1035.88 115.234C1035.87 114.455 1037.64 113.937 1039.54 113.603L1039.65 113.669C1039.65 113.669 1039.01 113.901 1039.02 114.432C1039.03 115.234 1042.27 115.913 1046.24 115.913M1038.15 120.888C1038.15 119.953 1040.07 119.513 1040.95 119.336L1041.07 119.405C1040.91 119.518 1040.83 119.671 1040.83 119.802C1040.83 120.414 1042.96 120.973 1046.23 120.973C1049.16 120.973 1050.79 120.613 1051.75 120.381L1054.02 121.695C1053.92 121.768 1051.69 123.173 1046.23 123.173C1042.26 123.173 1038.15 122.183 1038.15 120.888ZM1057.69 116.928C1060.4 115.386 1063.1 113.561 1063.26 110.633C1063.36 108.71 1061.59 107.301 1059.66 107.676L1059.76 107.42V107.415C1060.25 107.269 1060.85 107.149 1061.52 107.149C1063.68 107.149 1065.34 108.444 1065.55 110.257C1065.98 113.891 1060.82 116.256 1057.94 117.07L1057.69 116.928ZM1062.22 123.775C1062.24 126.273 1053.75 127.758 1046.15 127.825C1039.59 127.882 1029.02 126.642 1029 124.147C1028.99 122.421 1033.58 121.225 1036.08 120.881L1036.34 121.032C1036.34 121.032 1032.62 121.896 1032.63 123.466C1032.65 125.031 1040.48 126.386 1046.14 126.338C1054.91 126.26 1060.84 124.832 1061.54 122.895L1061.66 122.824C1061.92 123.012 1062.21 123.322 1062.22 123.775ZM1035.55 128.863C1038.8 129.381 1042.08 129.63 1045.36 129.608C1059.59 129.484 1063.6 125.987 1064.22 125.226L1064.33 125.29C1064.18 128.059 1056.66 130.359 1047.38 130.44C1042.66 130.481 1038.36 129.935 1035.27 129.03L1035.55 128.863ZM1041.52 107.589C1039.04 107.78 1033.73 108.566 1033.73 109.964C1033.73 111.022 1038.6 112.514 1046.23 112.514C1053.09 112.514 1057.42 111.219 1058.43 110.727L1056.96 109.867C1055.9 110.154 1051.99 111.027 1046.23 111.027C1042.84 111.027 1036.99 110.401 1036.99 109.446C1036.99 108.589 1040.64 107.926 1041.69 107.738L1041.75 107.727L1041.52 107.589Z" fill="#027BDF"/>
<mask id="mask0_4656_8788" style="mask-type:luminance" maskUnits="userSpaceOnUse" x="910" y="23" width="54" height="54">
<path d="M910 23H964V77H910V23Z" fill="white"/>
</mask>
<g mask="url(#mask0_4656_8788)">
<path d="M936.806 23C923.095 23 923.95 28.976 923.95 28.976L923.966 35.168H937.047V37.0265H918.775C918.775 37.0265 910 36.0253 910 49.9303C910 63.8353 917.657 63.3403 917.657 63.3403H922.224V56.8895C922.224 56.8895 921.979 49.1945 929.762 49.1945H942.735C942.735 49.1945 950.025 49.3115 950.025 42.1115V30.2045C950.025 30.2045 951.132 23 936.806 23ZM929.593 27.1625C930.894 27.1625 931.946 28.22 931.946 29.5295C931.946 30.8368 930.894 31.8942 929.593 31.8942C928.292 31.8942 927.24 30.8368 927.24 29.5295C927.24 28.22 928.29 27.1625 929.593 27.1625Z" fill="#027BDF"/>
<path d="M937.196 77.0006C950.903 77.0006 950.048 71.0246 950.048 71.0246L950.032 64.8326H936.95V62.9741H955.227C955.227 62.9741 964.002 63.9754 964.002 50.0704C964.002 36.1654 956.343 36.6604 956.343 36.6604H951.776V43.1111C951.776 43.1111 952.021 50.8061 944.238 50.8061H931.267C931.267 50.8061 923.977 50.6891 923.977 57.8891V69.7961C923.977 69.7961 922.87 77.0006 937.196 77.0006ZM944.409 72.8381C943.106 72.8381 942.056 71.7806 942.056 70.4711C942.056 69.1639 943.106 68.1064 944.409 68.1064C945.71 68.1064 946.763 69.1639 946.763 70.4711C946.763 71.7806 945.71 72.8381 944.409 72.8381Z" fill="#027BDF"/>
</g>
<path d="M1076.96 38.8939C1076.71 37.2422 1076.01 35.9007 1074.32 35.2519C1073.66 34.9988 1073.09 34.5369 1072.44 34.2458C1071.7 33.9135 1070.95 33.5971 1070.16 33.3915C1069.57 33.2333 1069.02 33.499 1068.67 34.018C1068.34 34.5052 1068.58 34.964 1068.86 35.3722C1069.17 35.831 1069.52 36.2676 1069.87 36.6979C1070.45 37.413 1071.07 38.0996 1071.64 38.8243C1072.18 39.5172 1072.64 40.2861 1072.56 41.2036C1072.39 43.216 1071.47 44.8835 1070.01 46.2408C1069.84 46.3864 1069.56 46.4908 1069.35 46.4718C1068.41 46.3706 1067.56 46.0162 1066.88 45.3612C1066.09 44.6113 1066.21 43.7286 1067.15 43.1812C1067.38 43.0515 1067.61 42.9312 1067.82 42.773C1068.39 42.3395 1068.59 41.5991 1068.27 40.9568C1068.12 40.6468 1067.96 40.3114 1067.71 40.0867C1066.5 38.9888 1065.32 37.856 1064.03 36.8562C1060.9 34.4261 1059.29 31.2115 1059.05 27.3196C1058.77 22.9974 1059.77 18.9632 1062.05 15.2707C1062.92 13.869 1063.92 12.5336 1065.47 11.8408C1066.52 11.3694 1067.67 11.1036 1068.79 10.8093C1071.88 9.99618 1075 9.38551 1078.22 9.92973C1080.99 10.3948 1083.02 11.8218 1083.95 14.5461C1084.56 16.3275 1084.71 18.169 1084.52 20.0548C1084.14 23.7601 1081.41 27.0728 1077.84 28.0537C1076.29 28.4777 1075.44 28.2404 1074.51 26.9526C1073.85 26.0255 1073.29 25.0162 1072.7 24.0384C1072.61 23.8928 1072.54 23.7252 1072.47 23.5701C1072.39 23.4151 1072.32 23.2664 1072.24 23.1113C1072.46 24.7187 1072.84 26.266 1073.71 27.6454C1074.19 28.3953 1074.82 28.949 1075.75 29.0313C1079.16 29.3382 1082.04 28.2181 1084.08 25.4748C1086.37 22.4055 1086.87 18.8744 1086.21 15.1567C1086.08 14.4226 1085.86 13.7044 1085.71 12.9735C1085.6 12.502 1085.79 12.154 1086.26 11.9894C1086.47 11.9167 1086.69 11.8565 1086.91 11.8122C1089.7 11.2111 1092.52 11.0117 1095.37 11.2997C1098.59 11.6224 1101.65 12.5083 1104.38 14.3025C1108.65 17.1153 1111.3 21.118 1112.74 25.9591C1112.95 26.6615 1112.98 27.4304 1113 28.1709C1113.01 28.6645 1112.7 28.7942 1112.32 28.4841C1111.9 28.1456 1111.53 27.7595 1111.17 27.3609C1110.84 26.9843 1110.57 26.554 1110.25 26.1585C1110 25.8484 1109.78 25.8959 1109.66 26.2819C1109.58 26.5161 1109.52 26.747 1109.45 26.9812C1108.7 29.6453 1107.53 32.0753 1105.62 34.1226C1105.35 34.4105 1105.11 34.8377 1105.08 35.2173C1105 36.2678 1104.94 37.3404 1105.04 38.3877C1105.25 40.6375 1105.58 42.8775 1105.83 45.1241C1105.97 46.3929 1105.56 47.1396 1104.37 47.5795C1103.53 47.8865 1102.63 48.1111 1101.75 48.1744C1100.34 48.2725 1098.91 48.2029 1097.5 48.2029C1097.46 46.6208 1097.59 45.0672 1096.11 44.2192C1096.39 43.0453 1096.73 41.9316 1096.93 40.7925C1097.09 39.8465 1096.95 38.9162 1096.29 38.141C1095.66 37.4101 1094.88 37.2108 1094.17 37.6285C1092.01 38.8846 1089.77 38.8909 1087.49 38.0683C1086.44 37.6886 1085.71 37.9037 1085.13 38.8593C1084.51 39.8876 1084.25 41.0425 1084.32 42.2101C1084.41 43.6814 1084.66 45.1369 1084.86 46.6018C1084.97 47.4213 1084.87 47.6333 1084.06 47.8422C1082.25 48.3009 1080.42 48.3516 1078.57 48.2029C1078.47 48.1934 1078.37 48.1522 1078.31 48.1364C1078.22 46.6018 1078.38 45.0071 1076.55 44.1907C1077.36 42.4726 1077.25 40.6913 1076.97 38.9099L1076.96 38.8941V38.8939ZM1066.04 32.8727C1066.31 32.6195 1066.53 32.224 1066.6 31.8602C1066.79 30.9489 1066.11 29.7276 1065.32 29.389C1064.9 29.2055 1064.53 29.272 1064.23 29.6074C1063.51 30.4268 1062.79 31.2558 1062.08 32.0881C1061.96 32.2305 1061.85 32.3982 1061.77 32.5659C1061.48 33.1132 1061.65 33.5119 1062.26 33.6606C1062.62 33.7524 1063 33.7714 1063.38 33.8252C1064.36 33.7302 1065.31 33.5657 1066.04 32.8759L1066.04 32.8727ZM1066.12 23.7632C1066.12 23.1114 1065.58 22.5672 1064.93 22.564C1064.27 22.5609 1063.7 23.1526 1063.73 23.8044C1063.75 24.4593 1064.3 24.9846 1064.95 24.9719C1065.61 24.9624 1066.13 24.4245 1066.13 23.7664L1066.12 23.7632Z" fill="#027BDF"/>
<path d="M1395.5 11.25C1394.37 11.25 1393.29 11.6978 1392.49 12.4948C1391.7 13.2918 1391.25 14.3728 1391.25 15.5V32.5C1391.25 33.6272 1391.7 34.7082 1392.49 35.5052C1393.29 36.3022 1394.37 36.75 1395.5 36.75H1412.5C1413.63 36.75 1414.71 36.3022 1415.51 35.5052C1416.3 34.7082 1416.75 33.6272 1416.75 32.5V15.5C1416.75 14.3728 1416.3 13.2918 1415.51 12.4948C1414.71 11.6978 1413.63 11.25 1412.5 11.25H1395.5ZM1405.89 29.7446C1406.91 30.5662 1407.93 30.9714 1408.94 30.9601C1409.57 30.9601 1410.05 30.8458 1410.38 30.6172C1410.53 30.5168 1410.66 30.3777 1410.74 30.2138C1410.83 30.0498 1410.87 29.8666 1410.86 29.6822C1410.86 29.4811 1410.82 29.282 1410.74 29.0989C1410.65 28.9158 1410.53 28.7532 1410.38 28.6226C1410.05 28.3326 1409.42 28.0417 1408.49 27.7499C1407.38 27.4288 1406.52 27.0132 1405.92 26.5033C1405.33 25.9932 1405.03 25.2816 1405.02 24.3683C1405.02 23.5061 1405.39 22.784 1406.14 22.2022C1406.87 21.6205 1407.8 21.3296 1408.93 21.3296C1410.51 21.3296 1411.78 21.714 1412.73 22.4827L1411.64 24.1813C1411.25 23.8759 1410.8 23.6533 1410.32 23.5268C1409.88 23.382 1409.43 23.3031 1408.98 23.2931C1408.44 23.2931 1408.01 23.3918 1407.68 23.5892C1407.36 23.7875 1407.2 24.0472 1407.2 24.3683C1407.2 24.7216 1407.4 25.0228 1407.79 25.2722C1408.19 25.5121 1408.86 25.777 1409.82 26.0669C1410.97 26.4097 1411.79 26.8669 1412.28 27.4382C1412.77 28.0096 1413.01 28.7369 1413.01 29.6199C1413.01 30.5238 1412.66 31.3029 1411.97 31.9574C1411.28 32.6015 1410.28 32.9392 1408.98 32.9703C1407.26 32.9703 1405.83 32.4561 1404.67 31.4276L1405.89 29.7446ZM1398.06 30.6484C1398.39 30.8562 1398.79 30.9601 1399.26 30.9601C1399.74 30.9601 1400.15 30.8198 1400.47 30.5393C1400.79 30.2484 1400.95 29.7446 1400.95 29.0278V21.5166H1403.06V29.4329C1403.03 30.6588 1402.67 31.5419 1402 32.0821C1401.63 32.3945 1401.2 32.6278 1400.74 32.7677C1400.31 32.8985 1399.86 32.9668 1399.41 32.9703C1398.63 32.9703 1397.94 32.8353 1397.34 32.5652C1396.69 32.2752 1396.15 31.761 1395.72 31.0224L1397.18 29.8225C1397.45 30.1861 1397.74 30.4614 1398.06 30.6484Z" fill="#027BDF"/>
<path d="M812.5 114.9C813.916 114.9 815.071 116.055 815.071 117.499C815.071 118.874 813.916 120.043 812.5 120.043C811.084 120.043 809.929 118.874 809.929 117.499C809.929 116.055 811.084 114.9 812.5 114.9ZM806.134 128.499C807 129.021 808.898 128.224 811.084 126.161C810.369 125.35 809.668 124.47 809.008 123.549C807.9 123.442 806.798 123.277 805.708 123.054C805.006 125.996 805.268 128.018 806.134 128.499ZM807.11 120.606L806.711 119.905C806.56 120.304 806.409 120.703 806.313 121.088C806.684 121.17 807.096 121.239 807.523 121.308L807.11 120.606ZM816.103 119.561L817.216 117.499L816.103 115.436C815.69 114.708 815.25 114.061 814.851 113.415C814.109 113.374 813.325 113.374 812.5 113.374C811.675 113.374 810.891 113.374 810.149 113.415C809.75 114.061 809.31 114.708 808.898 115.436L807.784 117.499L808.898 119.561C809.31 120.29 809.75 120.936 810.149 121.583C810.891 121.624 811.675 121.624 812.5 121.624C813.325 121.624 814.109 121.624 814.851 121.583C815.25 120.936 815.69 120.29 816.103 119.561ZM812.5 110.321C812.239 110.624 811.964 110.94 811.689 111.311H813.311C813.036 110.94 812.761 110.624 812.5 110.321ZM812.5 124.676C812.761 124.374 813.036 124.058 813.311 123.686H811.689C811.964 124.058 812.239 124.374 812.5 124.676ZM818.853 106.499C818 105.976 816.103 106.774 813.916 108.836C814.631 109.648 815.333 110.528 815.993 111.449C817.12 111.559 818.234 111.724 819.293 111.944C819.994 109.001 819.733 106.98 818.853 106.499ZM817.89 114.391L818.289 115.093C818.44 114.694 818.591 114.295 818.688 113.91C818.316 113.828 817.904 113.759 817.478 113.69L817.89 114.391ZM819.884 104.698C821.905 105.853 822.125 108.891 821.273 112.439C824.765 113.47 827.281 115.175 827.281 117.499C827.281 119.823 824.765 121.528 821.273 122.559C822.125 126.106 821.905 129.145 819.884 130.3C817.876 131.455 815.14 130.135 812.5 127.619C809.86 130.135 807.124 131.455 805.103 130.3C803.095 129.145 802.875 126.106 803.728 122.559C800.235 121.528 797.719 119.823 797.719 117.499C797.719 115.175 800.235 113.47 803.728 112.439C802.875 108.891 803.095 105.853 805.103 104.698C807.124 103.543 809.86 104.863 812.5 107.379C815.14 104.863 817.876 103.543 819.884 104.698ZM819.485 117.499C819.953 118.53 820.365 119.561 820.709 120.606C823.596 119.74 825.219 118.503 825.219 117.499C825.219 116.495 823.596 115.258 820.709 114.391C820.365 115.436 819.953 116.468 819.485 117.499ZM805.515 117.499C805.048 116.468 804.635 115.436 804.291 114.391C801.404 115.258 799.781 116.495 799.781 117.499C799.781 118.503 801.404 119.74 804.291 120.606C804.635 119.561 805.048 118.53 805.515 117.499ZM817.89 120.606L817.478 121.308C817.904 121.239 818.316 121.17 818.688 121.088C818.591 120.703 818.44 120.304 818.289 119.905L817.89 120.606ZM813.916 126.161C816.103 128.224 818 129.021 818.853 128.499C819.733 128.018 819.994 125.996 819.293 123.054C818.234 123.274 817.12 123.439 815.993 123.549C815.333 124.47 814.631 125.35 813.916 126.161ZM807.11 114.391L807.523 113.69C807.096 113.759 806.684 113.828 806.313 113.91C806.409 114.295 806.56 114.694 806.711 115.093L807.11 114.391ZM811.084 108.836C808.898 106.774 807 105.976 806.134 106.499C805.268 106.98 805.006 109.001 805.708 111.944C806.798 111.721 807.9 111.556 809.008 111.449C809.668 110.528 810.369 109.648 811.084 108.836Z" fill="#027BDF"/>
<line y1="347" x2="1440.11" y2="347" stroke="#3AA3FC" stroke-width="30"/>
<line y1="376" x2="1440.11" y2="376" stroke="#2076BE" stroke-width="30"/>
<line y1="408" x2="1440.11" y2="408" stroke="#02185E" stroke-width="30"/>
</svg>
