<svg width="472" height="514" viewBox="0 0 472 514" fill="none" xmlns="http://www.w3.org/2000/svg">
<path d="M337.12 83.158C299.847 31.9051 245.661 8.01953 189.036 8.01953C189.036 8.01953 50.5601 8.01953 9.55085 131.938C-5.59414 177.607 -2.2286 227.194 16.1137 271.669C23.0001 288.576 31.6765 304.698 41.9947 319.759C77.8211 371.399 189.154 512.374 189.154 512.374H213.352C244.416 469.246 322.615 325.983 346.039 280.045C375.403 222.401 379.913 141.997 337.12 83.158ZM212.208 312.375C188.81 312.375 165.937 305.439 146.482 292.445C127.028 279.451 111.865 260.982 102.912 239.373C93.9585 217.765 91.6168 193.988 96.1827 171.049C100.749 148.11 112.017 127.04 128.563 110.503C145.11 93.9664 166.19 82.7055 189.139 78.1447C212.088 73.5839 235.874 75.9281 257.49 84.8807C279.106 93.8334 297.581 108.992 310.578 128.441C323.575 147.889 330.51 170.753 330.507 194.142C330.502 225.501 318.037 255.574 295.852 277.746C273.667 299.919 243.58 312.375 212.208 312.375Z" fill="#3AA3FC"/>
<path opacity="0.4" d="M337.12 83.158C299.847 31.9051 245.661 8.01953 189.036 8.01953C189.036 8.01953 50.5601 8.01953 9.55085 131.938C-5.59414 177.607 -2.2286 227.194 16.1137 271.669C23.0001 288.576 31.6765 304.698 41.9947 319.759C77.8211 371.399 189.154 512.374 189.154 512.374H213.352C244.416 469.246 322.615 325.983 346.039 280.045C375.403 222.401 379.913 141.997 337.12 83.158ZM212.208 312.375C188.81 312.375 165.937 305.439 146.482 292.445C127.028 279.451 111.865 260.982 102.912 239.373C93.9585 217.765 91.6168 193.988 96.1827 171.049C100.749 148.11 112.017 127.04 128.563 110.503C145.11 93.9664 166.19 82.7055 189.139 78.1447C212.088 73.5839 235.874 75.9281 257.49 84.8807C279.106 93.8334 297.581 108.992 310.578 128.441C323.575 147.889 330.51 170.753 330.507 194.142C330.502 225.501 318.037 255.574 295.852 277.746C273.667 299.919 243.58 312.375 212.208 312.375Z" fill="black"/>
<path d="M361.47 84.1178C324.197 32.8816 270.011 8.99609 213.386 8.99609C213.386 8.99609 74.9104 8.99611 33.9011 132.915C18.7561 178.583 22.1217 228.171 40.4808 272.645C47.3579 289.553 56.0289 305.676 66.345 320.736C102.171 372.359 213.453 513.401 213.453 513.401C213.453 513.401 342.034 336.598 370.339 281.089C399.754 223.344 404.28 142.974 361.47 84.1178ZM212.36 313.352C188.962 313.352 166.09 306.416 146.636 293.423C127.182 280.429 112.019 261.961 103.065 240.354C94.1116 218.746 91.7688 194.97 96.3334 172.032C100.898 149.094 112.165 128.023 128.709 111.486C145.254 94.9483 166.333 83.6861 189.281 79.1234C212.228 74.5606 236.014 76.9024 257.631 85.8525C279.247 94.8025 297.723 109.959 310.722 129.405C323.721 148.851 330.659 171.714 330.659 195.101C330.775 210.663 327.795 226.092 321.891 240.491C315.987 254.89 307.278 267.973 296.269 278.976C285.261 289.98 272.173 298.686 257.768 304.587C243.363 310.489 227.927 313.468 212.36 313.352Z" fill="#3AA3FC"/>
<path d="M212.204 75.8906C187.757 75.8904 163.911 83.4607 143.945 97.5605C123.978 111.66 108.872 131.597 100.703 154.629C109.83 134.465 125.312 117.843 144.782 107.304C164.252 96.7656 186.639 92.8896 208.52 96.269C230.402 99.6484 250.574 110.097 265.954 126.018C281.334 141.939 291.076 162.456 293.689 184.434C296.303 206.411 291.645 228.639 280.428 247.72C269.21 266.802 252.05 281.687 231.571 290.099C211.092 298.512 188.42 299.991 167.021 294.308C145.622 288.626 126.674 276.095 113.072 258.632C124.253 275.8 139.706 289.769 157.914 299.171C176.123 308.573 196.463 313.084 216.941 312.262C237.419 311.441 257.332 305.315 274.729 294.485C292.125 283.655 306.408 268.492 316.177 250.483C325.946 232.475 330.867 212.238 330.456 191.756C330.046 171.274 324.318 151.25 313.835 133.647C303.352 116.044 288.474 101.465 270.657 91.3405C252.841 81.2156 232.698 75.8917 212.204 75.8906Z" fill="#3AA3FC"/>
<path opacity="0.4" d="M212.204 75.8906C187.757 75.8904 163.911 83.4607 143.945 97.5605C123.978 111.66 108.872 131.597 100.703 154.629C109.83 134.465 125.312 117.843 144.782 107.304C164.252 96.7656 186.639 92.8896 208.52 96.269C230.402 99.6484 250.574 110.097 265.954 126.018C281.334 141.939 291.076 162.456 293.689 184.434C296.303 206.411 291.645 228.639 280.428 247.72C269.21 266.802 252.05 281.687 231.571 290.099C211.092 298.512 188.42 299.991 167.021 294.308C145.622 288.626 126.674 276.095 113.072 258.632C124.253 275.8 139.706 289.769 157.914 299.171C176.123 308.573 196.463 313.084 216.941 312.262C237.419 311.441 257.332 305.315 274.729 294.485C292.125 283.655 306.408 268.492 316.177 250.483C325.946 232.475 330.867 212.238 330.456 191.756C330.046 171.274 324.318 151.25 313.835 133.647C303.352 116.044 288.474 101.465 270.657 91.3405C252.841 81.2156 232.698 75.8917 212.204 75.8906Z" fill="black"/>
<path d="M448.079 248.355C443.321 245.086 437.546 243.636 431.807 244.267C422.114 245.377 408.063 246.807 408.063 246.807V247.261L340.197 251.433L319.414 209.297L287.93 230.037C287.93 230.037 292.069 236.664 309.722 269.246C313.167 275.606 318.483 280.755 324.95 283.997C331.417 287.24 338.725 288.421 345.885 287.379L425.8 275.604V275.453C434.062 274.999 442.998 274.225 444.31 273.031C446.801 270.777 449.056 262.535 449.056 262.535C449.056 262.535 463.292 270.945 466.035 271.181C468.778 271.416 469.282 269.078 470.982 266.656C472.194 265.159 457.52 254.78 448.079 248.355Z" fill="#FFBE9D"/>
<path d="M323.655 206.607C323.655 206.607 310.462 181.224 298.413 157.255C283.571 127.835 250.841 121.931 250.841 121.931L203.42 115.707C203.42 115.707 163.74 97.793 126.888 142.284L96.5977 176.111L103.043 181.914L133.08 208.827L139.02 214.176L152.617 200.181L146.307 235.623L135.15 285.042L159.264 282.132L175.57 182.469L267.517 189.786L260.18 252.679C261.661 252.46 272.784 250.274 276.402 235.168C277.565 230.348 277.565 225.321 276.402 220.501L281.72 234.109L323.655 206.607Z" fill="#1B1B1F"/>
<path d="M175.455 182.518L159.149 282.181L135.035 285.091C151.143 298.982 170.704 308.268 191.653 311.969C212.602 315.67 234.163 313.648 254.058 306.117L260.183 252.677L267.402 189.835L175.455 182.518Z" fill="#263238"/>
<path d="M180.9 110.762L178.914 191.721L194.194 194.143L196.247 112.091C196.247 112.091 190.912 109.568 180.9 110.762Z" fill="#263238"/>
<path d="M245.797 192.123L258.435 122.586C259.158 121.812 269.524 125.529 272.654 129.062L261.312 193.569L245.797 192.123Z" fill="#263238"/>
<path d="M194.811 182.232C194.974 182.673 195.053 183.141 195.047 183.611C195.162 184.887 195.162 186.17 195.047 187.446C194.929 189.404 194.27 191.29 193.145 192.896C192.452 193.855 191.533 194.629 190.47 195.15C189.294 195.68 187.985 195.839 186.717 195.604C185.529 195.353 184.405 194.861 183.415 194.158C182.425 193.455 181.59 192.556 180.962 191.517C179.988 189.836 179.412 187.954 179.279 186.016C179.167 184.74 179.167 183.457 179.279 182.181C179.271 181.704 179.356 181.229 179.531 180.785C179.683 180.785 179.531 182.804 179.885 185.949C180.12 187.735 180.721 189.453 181.652 190.995C182.234 191.924 182.998 192.726 183.897 193.353C184.796 193.98 185.812 194.42 186.885 194.646C187.948 194.833 189.043 194.715 190.041 194.304C191.04 193.893 191.9 193.206 192.523 192.324C193.596 190.839 194.264 189.1 194.458 187.278C194.828 184.25 194.643 182.232 194.811 182.232Z" fill="#455A64"/>
<path d="M185.795 189.381C184.931 189.037 184.239 188.365 183.872 187.512C183.504 186.658 183.491 185.694 183.834 184.831C184.178 183.968 184.851 183.276 185.704 182.909C186.558 182.541 187.523 182.528 188.386 182.871C188.814 183.041 189.204 183.294 189.534 183.615C189.864 183.935 190.127 184.318 190.309 184.74C190.491 185.163 190.588 185.617 190.595 186.077C190.601 186.537 190.517 186.994 190.347 187.421C190.176 187.849 189.924 188.238 189.603 188.568C189.282 188.898 188.899 189.161 188.477 189.343C188.054 189.525 187.6 189.622 187.139 189.629C186.679 189.635 186.222 189.551 185.795 189.381Z" fill="#455A64"/>
<path d="M257.682 189.817C257.686 190.513 257.482 191.194 257.098 191.775C256.713 192.355 256.165 192.808 255.523 193.077C254.881 193.346 254.173 193.418 253.49 193.284C252.806 193.15 252.178 192.817 251.685 192.326C251.191 191.835 250.854 191.208 250.717 190.526C250.58 189.844 250.649 189.136 250.915 188.492C251.18 187.849 251.631 187.299 252.21 186.912C252.788 186.525 253.469 186.318 254.165 186.318C255.095 186.318 255.987 186.686 256.646 187.342C257.305 187.998 257.678 188.888 257.682 189.817Z" fill="#455A64"/>
<path d="M262.367 187.395C262.339 188.793 262.072 190.175 261.576 191.483C261.104 192.969 260.305 194.331 259.237 195.469C258.556 196.175 257.724 196.717 256.803 197.055C255.882 197.393 254.896 197.518 253.92 197.42C251.971 197.209 250.171 196.28 248.871 194.813C247.86 193.615 247.186 192.169 246.919 190.625C246.724 189.61 246.69 188.571 246.818 187.546C246.839 187.164 246.942 186.791 247.121 186.453C247.144 187.813 247.279 189.169 247.525 190.507C247.853 191.905 248.524 193.2 249.477 194.275C250.663 195.552 252.271 196.358 254.004 196.546C254.86 196.635 255.725 196.53 256.535 196.239C257.345 195.948 258.079 195.478 258.682 194.864C259.7 193.839 260.491 192.613 261.004 191.264C261.879 188.926 262.216 187.345 262.367 187.395Z" fill="#455A64"/>
<path d="M185.504 220.718C185.386 220.718 185.336 220.045 185.37 219.036C185.37 218.514 185.37 217.875 185.454 217.185C185.454 216.815 185.454 216.445 185.538 216.092V215.52V215.217V214.931L186.026 214.494C188.003 214.561 189.959 214.918 191.831 215.554C189.863 215.774 187.873 215.706 185.925 215.352C185.824 215.453 186.85 214.528 186.413 214.931V215.184V215.487V216.075C186.413 216.445 186.329 216.799 186.278 217.185C186.278 217.892 186.093 218.514 186.009 219.053C185.79 220.011 185.622 220.718 185.504 220.718Z" fill="#455A64"/>
<path d="M183.044 243.83C182.822 241.885 182.885 239.919 183.229 237.993C183.291 236.034 183.642 234.096 184.272 232.24C184.515 234.183 184.458 236.151 184.104 238.077C184.027 240.035 183.67 241.973 183.044 243.83Z" fill="#455A64"/>
<path d="M186.453 263.897C184.53 263.424 182.687 262.67 180.984 261.66C180.984 261.761 180.529 260.836 180.731 261.223V260.97V260.668V260.079L180.883 258.986C180.984 258.296 181.085 257.657 181.169 257.135C181.371 256.092 181.539 255.453 181.657 255.453C181.775 255.453 181.825 256.143 181.792 257.135C181.792 257.673 181.758 258.296 181.691 259.002C181.691 259.389 181.691 259.742 181.59 260.112V260.684V260.987V261.256C181.808 261.643 181.304 260.718 181.354 260.819C183.195 261.59 184.913 262.627 186.453 263.897Z" fill="#455A64"/>
<path d="M202.003 271.618C199.173 270.885 196.518 269.592 194.195 267.816C195.643 268.055 197.028 268.581 198.268 269.364C199.65 269.861 200.92 270.627 202.003 271.618Z" fill="#455A64"/>
<path d="M220.526 275.875C218.898 277.005 217.111 277.889 215.225 278.499H214.805H214.67L214.401 278.364L213.879 278.095L212.903 277.59L211.22 276.665C210.312 276.127 209.773 275.74 209.824 275.622C209.874 275.505 210.514 275.622 211.506 276.11C211.994 276.312 212.583 276.564 213.189 276.867L214.182 277.338L214.72 277.59L214.99 277.708H215.124H214.838C216.633 276.818 218.55 276.2 220.526 275.875Z" fill="#455A64"/>
<path d="M233.082 270.778C233.166 271.013 231.837 271.753 230.103 272.46C228.37 273.166 226.889 273.553 226.738 273.335C226.586 273.116 227.983 272.359 229.716 271.653C231.45 270.946 232.981 270.559 233.082 270.778Z" fill="#455A64"/>
<path d="M245.438 260.162C245.66 262.128 245.603 264.116 245.27 266.066L244.983 266.436H244.849L244.563 266.554L244.024 266.773L242.998 267.16C242.325 267.395 241.736 267.614 241.214 267.765C240.204 268.102 239.531 268.253 239.531 268.135C239.531 268.017 240.07 267.681 241.012 267.193L242.695 266.403L243.721 265.965L244.26 265.747L244.529 265.629H244.681L244.411 265.999C244.459 264.013 244.805 262.045 245.438 260.162Z" fill="#455A64"/>
<path d="M247.673 238.363C247.896 242.034 247.515 245.716 246.546 249.263C246.311 247.439 246.357 245.59 246.681 243.78C246.727 241.933 247.062 240.106 247.673 238.363Z" fill="#455A64"/>
<path d="M243.562 220.988C245.531 220.767 247.521 220.835 249.469 221.189L249.856 221.66V221.93V222.232V222.804C249.856 223.174 249.772 223.528 249.721 223.898C249.621 224.604 249.536 225.226 249.435 225.765C249.25 226.808 249.065 227.447 248.947 227.447C248.83 227.447 248.796 226.757 248.813 225.765C248.813 225.226 248.813 224.587 248.914 223.881L248.998 222.787V222.199V221.644L249.385 222.115C247.399 222.027 245.437 221.648 243.562 220.988Z" fill="#455A64"/>
<path d="M222.906 218.766C226.388 218.55 229.882 218.925 233.239 219.877C231.505 220.122 229.743 220.082 228.022 219.759C226.275 219.702 224.548 219.367 222.906 218.766Z" fill="#455A64"/>
<path d="M202.263 216.531C203.996 216.286 205.758 216.326 207.479 216.649C209.204 216.713 210.907 217.048 212.528 217.641C209.045 217.858 205.552 217.482 202.195 216.531H202.263Z" fill="#455A64"/>
<path d="M94.0746 188.036C93.9568 190.055 93.9063 192.09 93.9063 194.142C93.9006 202.131 94.7068 210.1 96.3126 217.927V218.162C96.5146 219.138 96.7502 220.097 96.9858 221.055C97.8945 224.857 98.9883 228.608 100.2 232.308C100.351 232.763 100.503 233.234 100.671 233.688C105.013 232.712 117.6 221.812 132.088 208.204L102.068 181.291C97.9113 185.395 95.4376 187.565 94.0746 188.036Z" fill="#FFBE9D"/>
<path d="M283.595 13.334C284.638 24.9572 297.881 34.7469 309.56 34.3936C315.988 34.1918 322.5 31.3322 328.676 33.1152C339.042 36.1262 343.232 50.5752 353.918 52.5096C361.861 53.9562 369.181 47.4634 377.241 47.0933C383.164 46.7737 388.751 49.7342 393.665 53.0647C398.579 56.3952 403.257 60.2472 408.81 62.1479C414.363 64.0487 419.58 60.6845 425.251 58.952C426.647 62.5516 427.573 66.9923 429.374 70.7266C431.174 74.4608 433.362 81.3741 430.164 82.8543C430.164 82.8543 421.229 87.4801 416.063 87.2278C418.149 89.3309 420.754 90.846 423.615 91.6199C426.475 92.3937 429.489 92.3988 432.352 91.6348C433.782 100.281 434.859 110.255 428.986 116.765C426.242 119.587 422.733 121.546 418.89 122.4C400.144 127.244 380.539 114.141 361.507 117.707C353.699 119.187 346.547 123.392 338.655 124.435C334.763 124.918 330.814 124.617 327.039 123.551C323.265 122.485 319.742 120.675 316.678 118.228C309.173 112.156 304.007 101.996 294.482 100.398C290.258 99.7088 285.984 100.92 281.844 102.081C277.705 103.241 273.431 104.351 269.207 103.46C264.983 102.568 261.079 99.0023 261.264 94.7298" fill="#263238"/>
<path d="M246.375 126.219C248.478 114.445 250.901 102.216 250.901 102.216C250.901 102.216 266.45 102.367 273.064 83.2085C279.357 64.9411 283.901 20.9715 283.901 20.9715C273.927 14.7655 262.291 11.7612 250.559 12.3626C238.826 12.964 227.559 17.1424 218.272 24.3357L202.774 119.794C200.973 130.879 209.068 141.24 220.948 143.074C232.913 145.025 244.305 137.388 246.375 126.219Z" fill="#FFBE9D"/>
<path d="M272.265 53.9052C272.157 54.5641 271.796 55.1546 271.258 55.5507C270.72 55.9467 270.049 56.1168 269.388 56.0246C269.06 55.9954 268.741 55.9007 268.45 55.746C268.16 55.5912 267.903 55.3797 267.696 55.124C267.489 54.8682 267.335 54.5734 267.244 54.2571C267.153 53.9409 267.127 53.6095 267.166 53.2828C267.278 52.6226 267.643 52.0319 268.183 51.6362C268.724 51.2404 269.397 51.0708 270.061 51.1634C270.387 51.1946 270.704 51.2909 270.993 51.4466C271.281 51.6022 271.536 51.8141 271.741 52.0696C271.947 52.3251 272.099 52.6192 272.189 52.9344C272.279 53.2497 272.305 53.5798 272.265 53.9052Z" fill="#263238"/>
<path d="M276.852 51.8033C276.482 52.0725 274.816 50.3231 272.09 49.8521C269.363 49.3811 267.142 50.3736 266.907 50.0035C266.671 49.6335 267.21 49.2802 268.186 48.8092C269.509 48.1944 270.991 48.0063 272.426 48.271C273.834 48.5272 275.128 49.215 276.128 50.239C276.852 51.0296 277.037 51.6688 276.852 51.8033Z" fill="#263238"/>
<path d="M244.336 49.4813C244.224 50.1416 243.859 50.7323 243.319 51.128C242.778 51.5237 242.105 51.6933 241.441 51.6008C241.115 51.5695 240.798 51.4732 240.509 51.3176C240.221 51.1619 239.966 50.9501 239.761 50.6946C239.555 50.439 239.403 50.145 239.313 49.8297C239.223 49.5145 239.197 49.1844 239.237 48.859C239.349 48.1987 239.713 47.608 240.254 47.2123C240.794 46.8166 241.468 46.647 242.131 46.7396C242.458 46.7708 242.775 46.8671 243.063 47.0228C243.352 47.1784 243.606 47.3902 243.812 47.6457C244.017 47.9013 244.169 48.1953 244.259 48.5106C244.349 48.8259 244.375 49.1559 244.336 49.4813Z" fill="#263238"/>
<path d="M248.296 47.7838C247.926 48.0529 246.26 46.3035 243.534 45.8325C240.808 45.3616 238.587 46.3708 238.334 45.9839C238.082 45.597 238.637 45.2775 239.63 44.7897C240.952 44.1893 242.425 44.0074 243.854 44.2682C245.272 44.5101 246.575 45.1998 247.573 46.2362C248.296 47.0268 248.481 47.666 248.296 47.7838Z" fill="#263238"/>
<path d="M254.609 69.7018C256.123 69.5084 257.656 69.5084 259.17 69.7018C259.876 69.7018 260.566 69.7018 260.768 69.2813C260.949 68.5751 260.914 67.8311 260.667 67.145C260.314 65.3452 259.944 63.4613 259.54 61.4932C258.009 53.4697 257.049 46.9096 257.369 46.8423C257.689 46.775 259.187 53.251 260.735 61.2914C261.088 63.2594 261.441 65.1434 261.761 66.9432C262.057 67.8581 262.015 68.8487 261.643 69.7354C261.5 69.9619 261.307 70.1533 261.08 70.2959C260.853 70.4385 260.597 70.5286 260.331 70.5596C259.928 70.6046 259.522 70.6046 259.119 70.5596C257.586 70.4608 256.071 70.1727 254.609 69.7018Z" fill="#263238"/>
<path d="M250.829 102.216C241.514 100.698 232.803 96.6217 225.672 90.4414C225.672 90.4414 229.694 105.109 249.752 106.724L250.829 102.216Z" fill="#EB996E"/>
<path d="M252.295 76.0592C251.887 75.3218 251.3 74.6984 250.589 74.2459C249.878 73.7934 249.064 73.5263 248.223 73.4688C247.616 73.4218 247.007 73.4958 246.429 73.6864C245.851 73.877 245.317 74.1803 244.857 74.5789C244.414 74.97 244.101 75.4882 243.963 76.0631C243.824 76.638 243.866 77.2416 244.083 77.7917C244.434 78.3474 244.939 78.7884 245.537 79.0604C246.135 79.3324 246.8 79.4235 247.449 79.3224C248.81 79.0847 250.112 78.5879 251.286 77.859C251.633 77.6938 251.947 77.4657 252.211 77.1862C252.337 77.0543 252.421 76.8875 252.451 76.7075C252.481 76.5275 252.456 76.3426 252.379 76.1769" fill="#EB996E"/>
<path d="M246.371 70.1725C246.826 70.1725 246.371 73.1666 248.458 75.7065C250.545 78.2464 253.826 78.4819 253.776 78.9025C253.725 79.323 252.968 79.3398 251.639 79.1548C249.906 78.8744 248.327 77.993 247.179 76.6653C246.071 75.3884 245.508 73.727 245.614 72.0396C245.631 70.7948 246.085 70.1052 246.371 70.1725Z" fill="#263238"/>
<path d="M231.609 10.2388C236.876 21.862 253.94 35.9914 267.133 41.004C265.921 38.6155 258.517 31.8703 257.322 29.4818C262.64 35.2513 270.33 43.0898 278.458 45.0578C279.394 45.3678 280.4 45.397 281.352 45.142C281.878 44.8738 282.334 44.4887 282.688 44.0163C283.041 43.5438 283.28 42.9967 283.388 42.417C284.965 36.5584 285.901 30.5463 286.182 24.486C286.459 19.3751 284.774 14.3512 281.47 10.4406C276.977 5.3944 269.691 2.97221 262.589 1.45834C256.745 -0.0492138 250.661 -0.392146 244.685 0.449096C238.845 1.55927 233.393 4.92343 231.643 9.88556" fill="#263238"/>
<path d="M200.167 53.9921C200.07 49.5006 200.239 45.0072 200.672 40.5355C202.002 30.2748 205.216 -7.0169 239.645 2.57096L235.977 12.142C235.977 12.142 238.619 36.1453 220.95 49.03C220.95 49.03 221.034 72.9996 208.783 81.6455C208.783 81.6455 200.251 65.3966 200.167 54.0594" fill="#263238"/>
<path d="M221.682 47.3469C219.646 46.5221 217.422 46.2719 215.254 46.6236C213.088 46.9989 211.155 48.2063 209.869 49.9877C208.701 51.863 208.286 54.1104 208.708 56.2787C209.142 58.4306 210.051 60.4588 211.366 62.2165C212.219 63.538 213.372 64.6389 214.732 65.4292C215.425 65.8017 216.2 65.9967 216.987 65.9967C217.774 65.9967 218.549 65.8017 219.242 65.4292" fill="#FFBE9D"/>
<path d="M218.262 59.9103C218.48 60.028 217.336 61.1382 215.502 60.2803C215.02 60.018 214.595 59.6629 214.252 59.2357C213.908 58.8084 213.652 58.3173 213.499 57.7908C213.11 56.6043 212.961 55.3519 213.062 54.1071C213.132 52.7759 213.682 51.5152 214.61 50.5579C214.996 50.1469 215.472 49.8301 216 49.6318C216.528 49.4335 217.094 49.359 217.656 49.4141C219.658 49.7169 220.029 51.1971 219.793 51.1971C219.557 51.1971 218.968 50.4738 217.605 50.5579C216.761 50.7254 216.004 51.1883 215.471 51.8635C214.937 52.5386 214.662 53.3818 214.694 54.2417C214.543 56.462 215.031 58.5982 216.091 59.2879C217.151 59.9776 218.161 59.7084 218.262 59.9103Z" fill="#EB996E"/>
<path d="M421.03 48.9616C420.8 49.4693 420.487 49.9354 420.105 50.3409C419.002 51.5097 417.58 52.3287 416.016 52.6959C413.533 53.3175 410.917 53.1349 408.544 52.1744C405.498 50.8323 402.663 49.0529 400.13 46.8927C397.236 44.706 394.005 42.1156 389.865 41.2241C387.725 40.8197 385.52 40.9117 383.42 41.4932C381.18 42.1455 379.009 43.0188 376.942 44.1004C374.788 45.1938 372.6 46.4049 370.211 47.4646C367.832 48.6295 365.248 49.3154 362.604 49.4831C359.816 49.5751 357.07 48.78 354.763 47.2123C352.482 45.555 350.492 43.5316 348.873 41.2241C345.507 36.7497 342.781 31.8885 338.675 28.7094C336.683 27.1444 334.305 26.145 331.793 25.8162C329.362 25.5424 326.904 25.6502 324.506 26.1358C319.795 27.0105 315.386 28.5075 311.044 29.0626C307.016 29.5488 302.93 29.1937 299.046 28.0197C293.411 26.3431 288.373 23.0925 284.524 18.6506C283.11 17.048 281.931 15.2526 281.023 13.3184C281.124 13.4168 281.21 13.5303 281.276 13.6548C281.444 13.9407 281.663 14.2771 281.932 14.6977C285.94 20.9091 292.09 25.4341 299.214 27.4142C303.034 28.5347 307.045 28.8497 310.994 28.3393C315.234 27.7674 319.609 26.2536 324.456 25.3452C326.933 24.8206 329.479 24.7014 331.995 24.992C334.651 25.332 337.167 26.3776 339.281 28.0197C343.589 31.3839 346.332 36.2956 349.664 40.7026C351.219 42.9337 353.135 44.8894 355.335 46.489C357.486 47.9592 360.05 48.7074 362.655 48.6252C365.193 48.4681 367.675 47.8107 369.958 46.6908C372.264 45.6816 374.434 44.4873 376.605 43.3267C378.725 42.2181 380.952 41.3277 383.252 40.669C385.448 40.0768 387.749 39.9906 389.983 40.4167C393.879 41.5789 397.467 43.596 400.484 46.3208C402.955 48.4733 405.72 50.2631 408.696 51.6361C410.971 52.5912 413.487 52.8203 415.898 52.2922C417.419 51.952 418.82 51.2082 419.953 50.1391C420.728 49.4494 420.997 48.9448 421.03 48.9616Z" fill="#263238"/>
<path d="M204.36 257.186L201.476 250.111L211.122 237.591L213.033 242.244L206.445 250.838L209.338 257.852L204.36 257.186Z" fill="white"/>
<path d="M231.567 252.032L226.863 258.092L211.204 255.996L214.419 251.855L225.042 253.277L229.717 247.387L231.567 252.032Z" fill="white"/>
<path d="M213.29 231.068L220.877 232.083L226.832 246.691L221.915 246.033L217.75 236.062L210.223 235.055L213.29 231.068Z" fill="white"/>
<path d="M216.276 238.28L211.122 237.591L214.145 244.994L209.287 251.28L211.204 255.996L216.039 249.768L223.437 250.758L226.832 246.691L219.122 245.66L216.276 238.28Z" fill="#00B3FE"/>
</svg>
