<svg width="412" height="140" viewBox="0 0 412 140" fill="none" xmlns="http://www.w3.org/2000/svg">
<path d="M2.8494 77.0008L11.1654 20.3031L9.06543 20.3026L10.4692 7.00295L33.7692 7.00954L44.0494 77.0124L30.5494 77.0086L29.0522 67.0082L17.8522 67.005L16.3494 77.0046L2.8494 77.0008ZM19.756 53.7056L27.156 53.7077L23.4631 28.7066L19.756 53.7056ZM80.2959 48.0227L80.2915 63.5227C80.2901 68.5894 79.1557 72.2557 76.8884 74.5217C74.6878 76.7211 71.0208 77.8201 65.8875 77.8186L61.4875 77.8174C56.3541 77.8159 52.6544 76.7149 50.3884 74.5142C48.189 72.247 47.0901 68.58 47.0915 63.5133L47.1037 20.5133C47.1051 15.38 48.2061 11.7136 50.4068 9.51424C52.6741 7.31489 56.3744 6.21593 61.5077 6.21738L65.9077 6.21863C71.041 6.22008 74.7074 7.32112 76.9068 9.52174C79.1728 11.7224 80.3051 15.3894 80.3037 20.5227L80.299 37.0227L66.6994 35.5189L66.7038 20.0188C66.7039 19.6855 66.5373 19.5188 66.2039 19.5187L61.2039 19.5173C60.8706 19.5172 60.7039 19.6838 60.7038 20.0172L60.6914 64.0172C60.6913 64.3505 60.8579 64.5172 61.1912 64.5173L66.1912 64.5187C66.5245 64.5188 66.6913 64.3522 66.6914 64.0188L66.6959 48.0188L80.2959 48.0227ZM83.3181 77.0236L91.6342 20.3259L89.5342 20.3253L90.9379 7.0257L114.238 7.03229L124.518 77.0352L111.018 77.0314L109.521 67.031L98.321 67.0278L96.8181 77.0274L83.3181 77.0236ZM100.225 53.7283L107.625 53.7304L103.932 28.7294L100.225 53.7283ZM130.433 77.1369L130.449 20.4369L128.549 20.4363L129.953 7.13673L144.053 7.14072L144.037 63.7407L163.137 63.7461L162.333 77.0459L144.033 77.0407L144.033 77.1407L130.433 77.1369ZM200.311 63.1566C200.31 68.2233 199.175 71.8896 196.908 74.1557C194.707 76.355 191.04 77.454 185.907 77.4526L181.507 77.4513C176.374 77.4499 172.674 76.3488 170.408 74.1482C168.209 71.8809 167.11 68.2139 167.111 63.1472L167.123 20.9472C167.125 15.8139 168.226 12.1476 170.426 9.94818C172.693 7.74882 176.394 6.64986 181.527 6.65131L185.927 6.65256C191.06 6.65401 194.727 7.75505 196.926 9.95567C199.192 12.1563 200.325 15.8233 200.323 20.9566L200.311 63.1566ZM181.223 19.9512C180.89 19.9511 180.723 20.1178 180.723 20.4511L180.711 63.6511C180.711 63.9844 180.878 64.1511 181.211 64.1512L186.211 64.1526C186.544 64.1527 186.711 63.9861 186.711 63.6528L186.723 20.4528C186.723 20.1195 186.557 19.9527 186.223 19.9526L181.223 19.9512ZM240.406 63.168C240.405 68.2346 239.271 71.901 237.003 74.167C234.803 76.3664 231.136 77.4653 226.002 77.4639L220.602 77.4624C215.469 77.4609 211.769 76.3599 209.503 74.1592C207.304 71.8919 206.205 68.225 206.206 63.1583L206.219 20.3583L204.319 20.3578L205.722 7.05815L219.822 7.06214L219.806 63.6621C219.806 63.9955 219.973 64.1622 220.306 64.1623L226.306 64.164C226.639 64.1641 226.806 63.9975 226.806 63.6641L226.822 7.06412L240.422 7.06797L240.406 63.168ZM245.265 77.0693L245.281 20.3693L243.381 20.3688L244.785 7.0692L263.085 7.07437C268.218 7.07582 271.884 8.2102 274.084 10.4775C276.35 12.6781 277.482 16.3118 277.481 21.3784L277.474 44.1784C277.473 49.3118 276.372 52.9781 274.171 55.1775L280.365 77.0793L266.765 77.0754L261.57 58.474L258.87 58.4732L258.865 77.0732L245.265 77.0693ZM263.381 20.3745L258.881 20.3732L258.874 45.1732L263.374 45.1745C263.707 45.1746 263.874 45.0079 263.874 44.6746L263.881 20.8746C263.881 20.5413 263.714 20.3746 263.381 20.3745ZM283.904 77.0803L292.22 20.3826L290.12 20.382L291.524 7.08241L314.824 7.089L325.104 77.0919L311.604 77.0881L310.107 67.0877L298.907 67.0845L297.404 77.0841L283.904 77.0803ZM300.811 53.785L308.211 53.7871L304.518 28.7861L300.811 53.785ZM363.735 62.8028C363.733 67.8695 362.599 71.5358 360.332 73.8019C358.131 76.0013 354.464 77.1002 349.331 77.0988L330.531 77.0934L330.547 20.3934L328.647 20.3929L330.05 7.09331L349.35 7.09876C354.484 7.10022 358.15 8.20125 360.349 10.4019C362.616 12.6025 363.748 16.2695 363.746 21.4028L363.735 62.8028ZM349.634 63.7989C349.968 63.7989 350.134 63.6323 350.135 63.299L350.147 20.899C350.147 20.5657 349.98 20.3989 349.647 20.3988L344.147 20.3973L344.134 63.7973L349.634 63.7989ZM367.693 77.104L376.009 20.4063L373.909 20.4057L375.313 7.1061L398.613 7.11269L408.893 77.1156L395.393 77.1118L393.896 67.1114L382.696 67.1082L381.193 77.1078L367.693 77.104ZM384.6 53.8087L392 53.8108L388.307 28.8098L384.6 53.8087Z" fill="#030A3E"/>
<path d="M20.8087 114.111L20.8063 122.481C20.8055 125.217 20.193 127.197 18.9686 128.421C17.7803 129.609 15.8001 130.202 13.0281 130.201L10.6521 130.2C7.88013 130.2 5.8823 129.605 4.65863 128.417C3.47098 127.192 2.87754 125.212 2.87831 122.476L2.88488 99.2563C2.88566 96.4843 3.48022 94.5045 4.66856 93.3168C5.89289 92.1291 7.89106 91.5357 10.6631 91.5365L13.0391 91.5372C15.8111 91.538 17.7909 92.1325 18.9786 93.3208C20.2022 94.5092 20.8137 96.4894 20.8129 99.2614L20.8104 108.171L13.4666 107.359L13.469 98.9893C13.469 98.8093 13.379 98.7193 13.199 98.7192L10.499 98.7184C10.319 98.7184 10.229 98.8084 10.229 98.9884L10.2222 122.748C10.2222 122.928 10.3122 123.018 10.4922 123.018L13.1922 123.019C13.3722 123.019 13.4622 122.929 13.4622 122.749L13.4647 114.109L20.8087 114.111ZM23.994 129.772L24.0027 99.1543L22.9767 99.154L23.7347 91.9722L31.3487 91.9743L31.338 129.774L23.994 129.772ZM36.6581 90.3558L38.9275 85.2805L44.9215 85.2822L47.1881 90.3588L42.8681 90.3576L41.9507 88.2513L40.9781 90.3571L36.6581 90.3558ZM34.5409 129.775L34.5496 99.1572L33.5236 99.157L34.2816 91.9752L49.7256 91.9795L49.2916 99.1614L41.8936 99.1593L41.8913 107.259L48.5333 107.261L48.0993 114.443L41.8893 114.441L41.887 122.595L49.717 122.598L49.2829 129.779L34.5409 129.775ZM51.8378 129.78L51.8465 99.1621L50.8205 99.1618L51.5785 91.9801L59.1925 91.9822L65.3427 112.504L65.3485 91.984L72.6925 91.986L72.6818 129.786L65.3378 129.784L59.1876 109.262L59.1818 129.782L51.8378 129.78ZM92.7911 114.132L92.7887 122.502C92.788 125.238 92.1754 127.218 90.9511 128.441C89.7627 129.629 87.7825 130.222 85.0105 130.222L82.6345 130.221C79.8625 130.22 77.8647 129.625 76.6411 128.437C75.4534 127.213 74.86 125.233 74.8607 122.497L74.8673 99.2766C74.8681 96.5046 75.4626 94.5248 76.651 93.3372C77.8753 92.1495 79.8735 91.5561 82.6455 91.5568L85.0215 91.5575C87.7935 91.5583 89.7733 92.1529 90.961 93.3412C92.1846 94.5295 92.7961 96.5097 92.7953 99.2817L92.7928 108.192L85.449 107.38L85.4514 99.0096C85.4514 98.8296 85.3614 98.7396 85.1814 98.7396L82.4814 98.7388C82.3014 98.7387 82.2114 98.8287 82.2114 99.0087L82.2047 122.769C82.2046 122.949 82.2946 123.039 82.4746 123.039L85.1746 123.04C85.3546 123.04 85.4446 122.95 85.4447 122.77L85.4471 114.13L92.7911 114.132ZM95.9765 129.793L95.9851 99.1746L94.9591 99.1743L95.7172 91.9925L103.331 91.9947L103.32 129.795L95.9765 129.793ZM105.497 129.795L109.988 99.1786L108.854 99.1783L109.612 91.9965L122.194 92L127.745 129.802L120.455 129.8L119.647 124.399L113.599 124.398L112.787 129.797L105.497 129.795ZM114.627 117.216L118.623 117.217L116.629 103.716L114.627 117.216ZM158.573 122.088C158.572 124.824 157.959 126.804 156.735 128.028C155.547 129.215 153.566 129.809 150.794 129.808L140.642 129.805L140.651 99.1872L139.625 99.187L140.383 92.0052L150.805 92.0081C153.577 92.0089 155.557 92.6035 156.745 93.7918C157.968 94.9801 158.58 96.9603 158.579 99.7323L158.573 122.088ZM150.959 122.626C151.139 122.626 151.229 122.536 151.229 122.356L151.235 99.4602C151.235 99.2802 151.145 99.1902 150.965 99.1902L147.995 99.1893L147.989 122.625L150.959 122.626ZM160.71 129.811L165.201 99.1942L164.067 99.1939L164.825 92.0121L177.407 92.0156L182.958 129.817L175.668 129.815L174.86 124.415L168.812 124.413L168 129.813L160.71 129.811ZM169.84 117.232L173.836 117.233L171.842 103.732L169.84 117.232ZM212.498 114.166L212.496 122.536C212.495 125.272 211.882 127.251 210.658 128.475C209.47 129.663 207.49 130.256 204.718 130.255L202.342 130.255C199.57 130.254 197.572 129.659 196.348 128.471C195.16 127.247 194.567 125.266 194.568 122.53L194.574 99.3105C194.575 96.5385 195.17 94.5587 196.358 93.371C197.582 92.1833 199.581 91.5899 202.353 91.5907L204.729 91.5914C207.501 91.5922 209.48 92.1867 210.668 93.375C211.892 94.5634 212.503 96.5436 212.502 99.3156L212.5 108.226L205.156 107.413L205.158 99.0435C205.158 98.8635 205.068 98.7735 204.888 98.7734L202.188 98.7726C202.008 98.7726 201.918 98.8626 201.918 99.0426L201.912 122.803C201.912 122.983 202.002 123.073 202.182 123.073L204.882 123.073C205.062 123.073 205.152 122.983 205.152 122.803L205.154 114.163L212.498 114.166ZM232.588 122.325C232.587 125.061 231.974 127.041 230.75 128.265C229.562 129.452 227.581 130.046 224.809 130.045L222.433 130.044C219.661 130.044 217.664 129.449 216.44 128.261C215.252 127.036 214.659 125.056 214.66 122.32L214.666 99.5322C214.667 96.7602 215.261 94.7803 216.45 93.5927C217.674 92.405 219.672 91.8116 222.444 91.8124L224.82 91.813C227.592 91.8138 229.572 92.4084 230.76 93.5967C231.983 94.7851 232.595 96.7652 232.594 99.5372L232.588 122.325ZM222.28 98.9943C222.1 98.9943 222.01 99.0843 222.01 99.2643L222.004 122.592C222.003 122.772 222.093 122.862 222.273 122.862L224.973 122.863C225.153 122.863 225.243 122.773 225.244 122.593L225.25 99.2652C225.25 99.0852 225.16 98.9951 224.98 98.9951L222.28 98.9943ZM235.775 129.832L235.784 99.2141L234.758 99.2139L235.516 92.0321L240.592 92.0335L245.938 91.981L248.524 112.394L251.176 92.0365L261.328 92.0394L261.317 129.839L253.973 129.837L253.98 107.265L251.113 124.436L245.983 124.435L243.126 107.262L243.119 129.834L235.775 129.832ZM264.516 129.84L264.524 99.2223L263.498 99.222L264.256 92.0402L274.138 92.043C276.91 92.0438 278.89 92.6563 280.078 93.8807C281.301 95.069 281.913 97.0312 281.912 99.7672L281.909 112.079C281.908 114.815 281.295 116.795 280.071 118.019C278.883 119.206 276.902 119.8 274.13 119.799L271.862 119.798L271.86 129.842L264.516 129.84ZM274.298 99.225L271.868 99.2243L271.864 112.616L274.294 112.617C274.474 112.617 274.564 112.527 274.564 112.347L274.568 99.4951C274.568 99.3151 274.478 99.2251 274.298 99.225ZM303.282 122.345C303.281 125.081 302.669 127.061 301.444 128.285C300.256 129.472 298.276 130.066 295.504 130.065L292.588 130.064C289.816 130.063 287.818 129.469 286.594 128.281C285.407 127.056 284.813 125.076 284.814 122.34L284.821 99.228L283.795 99.2277L284.553 92.0459L292.167 92.0481L292.158 122.612C292.158 122.792 292.248 122.882 292.428 122.882L295.668 122.883C295.848 122.883 295.938 122.793 295.938 122.613L295.947 92.0492L303.291 92.0512L303.282 122.345ZM310.435 129.853L310.444 99.2353L305.422 99.2338L305.424 92.0518L322.758 92.0567L322.756 99.2387L317.788 99.2373L317.779 129.855L310.435 129.853ZM322.763 129.857L327.254 99.24L326.12 99.2397L326.878 92.0579L339.46 92.0615L345.011 129.863L337.721 129.861L336.912 124.461L330.864 124.459L330.053 129.859L322.763 129.857ZM331.893 117.277L335.889 117.278L333.894 103.778L331.893 117.277ZM364.584 114.209L364.582 122.579C364.581 125.315 363.968 127.294 362.744 128.518C361.556 129.706 359.575 130.299 356.803 130.298L354.427 130.298C351.655 130.297 349.658 129.702 348.434 128.514C347.246 127.29 346.653 125.309 346.654 122.573L346.66 99.3535C346.661 96.5815 347.256 94.6017 348.444 93.414C349.668 92.2263 351.666 91.6329 354.438 91.6337L356.814 91.6344C359.586 91.6352 361.566 92.2297 362.754 93.418C363.978 94.6064 364.589 96.5866 364.588 99.3586L364.586 108.269L357.242 107.456L357.244 99.0865C357.244 98.9065 357.154 98.8165 356.974 98.8164L354.274 98.8156C354.094 98.8156 354.004 98.9056 354.004 99.0856L353.998 122.846C353.998 123.026 354.088 123.116 354.268 123.116L356.968 123.116C357.148 123.116 357.238 123.026 357.238 122.846L357.24 114.206L364.584 114.209ZM357.236 129.812L357.235 130.784L357.289 130.785C357.793 130.785 358.243 130.947 358.639 131.271C359.035 131.631 359.233 132.063 359.233 132.567L359.232 134.241C359.232 134.637 359.016 134.961 358.584 135.213C358.188 135.465 357.684 135.591 357.072 135.59L352.59 135.589L352.591 132.835L355.183 132.836L355.183 133.646L356.641 133.646L356.641 132.566L356.317 132.566C355.201 132.566 354.643 132.08 354.643 131.108L354.644 129.812L357.236 129.812ZM366.743 129.869L371.234 99.2524L370.1 99.2521L370.858 92.0703L383.44 92.0739L388.991 129.875L381.701 129.873L380.893 124.473L374.845 124.471L374.033 129.871L366.743 129.869ZM375.873 117.29L379.869 117.291L377.875 103.79L375.873 117.29ZM382.47 84.9456L382.469 89.5896C382.073 90.2015 381.335 90.5433 380.255 90.615C379.175 90.6507 378.167 90.4164 377.231 89.9121C376.439 89.4799 375.539 89.3177 374.531 89.4254C373.523 89.5331 372.821 89.9109 372.425 90.5588L372.426 85.9148C372.858 85.3389 373.614 85.0151 374.694 84.9434C375.774 84.8717 376.764 85.088 377.664 85.5923C378.492 86.0605 379.41 86.2408 380.418 86.133C381.426 86.0253 382.11 85.6295 382.47 84.9456ZM409.09 122.375C409.089 125.111 408.476 127.091 407.252 128.315C406.064 129.502 404.083 130.096 401.311 130.095L398.935 130.094C396.163 130.093 394.166 129.499 392.942 128.311C391.754 127.086 391.161 125.106 391.162 122.37L391.168 99.5821C391.169 96.8101 391.763 94.8302 392.952 93.6426C394.176 92.4549 396.174 91.8615 398.946 91.8623L401.322 91.8629C404.094 91.8637 406.074 92.4583 407.262 93.6466C408.485 94.835 409.097 96.8151 409.096 99.5871L409.09 122.375ZM398.782 99.0442C398.602 99.0442 398.512 99.1342 398.512 99.3142L398.505 122.642C398.505 122.822 398.595 122.912 398.775 122.912L401.475 122.913C401.655 122.913 401.745 122.823 401.745 122.643L401.752 99.3151C401.752 99.1351 401.662 99.045 401.482 99.045L398.782 99.0442Z" fill="#030A3E"/>
</svg>
