<svg width="160" height="64" viewBox="0 0 160 64" fill="none" xmlns="http://www.w3.org/2000/svg">
<path d="M8.21953 30L11.1245 10.155H10.3895L10.8795 5.5H19.0345L22.6395 30H17.9145L17.3895 26.5H13.4695L12.9445 30H8.21953ZM14.1345 21.845H16.7245L15.4295 13.095L14.1345 21.845ZM35.3229 19.85V25.275C35.3229 27.0483 34.9263 28.3317 34.1329 29.125C33.3629 29.895 32.0796 30.28 30.2829 30.28H28.7429C26.9463 30.28 25.6513 29.895 24.8579 29.125C24.0879 28.3317 23.7029 27.0483 23.7029 25.275V10.225C23.7029 8.42833 24.0879 7.145 24.8579 6.375C25.6513 5.605 26.9463 5.22 28.7429 5.22H30.2829C32.0796 5.22 33.3629 5.605 34.1329 6.375C34.9263 7.145 35.3229 8.42833 35.3229 10.225V16L30.5629 15.475V10.05C30.5629 9.93333 30.5046 9.875 30.3879 9.875H28.6379C28.5213 9.875 28.4629 9.93333 28.4629 10.05V25.45C28.4629 25.5667 28.5213 25.625 28.6379 25.625H30.3879C30.5046 25.625 30.5629 25.5667 30.5629 25.45V19.85H35.3229ZM36.3836 30L39.2886 10.155H38.5536L39.0436 5.5H47.1986L50.8036 30H46.0786L45.5536 26.5H41.6336L41.1086 30H36.3836ZM42.2986 21.845H44.8886L43.5936 13.095L42.2986 21.845ZM52.8738 30.035V10.19H52.2088L52.6988 5.535H57.6338V25.345H64.3188L64.0388 30H57.6338V30.035H52.8738ZM77.3298 25.135C77.3298 26.9083 76.9331 28.1917 76.1398 28.985C75.3698 29.755 74.0864 30.14 72.2898 30.14H70.7498C68.9531 30.14 67.6581 29.755 66.8648 28.985C66.0948 28.1917 65.7098 26.9083 65.7098 25.135V10.365C65.7098 8.56833 66.0948 7.285 66.8648 6.515C67.6581 5.745 68.9531 5.36 70.7498 5.36H72.2898C74.0864 5.36 75.3698 5.745 76.1398 6.515C76.9331 7.285 77.3298 8.56833 77.3298 10.365V25.135ZM70.6448 10.015C70.5281 10.015 70.4698 10.0733 70.4698 10.19V25.31C70.4698 25.4267 70.5281 25.485 70.6448 25.485H72.3948C72.5114 25.485 72.5698 25.4267 72.5698 25.31V10.19C72.5698 10.0733 72.5114 10.015 72.3948 10.015H70.6448ZM91.3631 25.135C91.3631 26.9083 90.9665 28.1917 90.1731 28.985C89.4031 29.755 88.1198 30.14 86.3231 30.14H84.4331C82.6365 30.14 81.3415 29.755 80.5481 28.985C79.7781 28.1917 79.3931 26.9083 79.3931 25.135V10.155H78.7281L79.2181 5.5H84.1531V25.31C84.1531 25.4267 84.2115 25.485 84.3281 25.485H86.4281C86.5448 25.485 86.6031 25.4267 86.6031 25.31V5.5H91.3631V25.135ZM93.065 30V10.155H92.4L92.89 5.5H99.295C101.092 5.5 102.375 5.89667 103.145 6.69C103.938 7.46 104.335 8.73167 104.335 10.505V18.485C104.335 20.2817 103.95 21.565 103.18 22.335L105.35 30H100.59L98.77 23.49H97.825V30H93.065ZM99.4 10.155H97.825V18.835H99.4C99.5167 18.835 99.575 18.7767 99.575 18.66V10.33C99.575 10.2133 99.5167 10.155 99.4 10.155ZM106.589 30L109.494 10.155H108.759L109.249 5.5H117.404L121.009 30H116.284L115.759 26.5H111.839L111.314 30H106.589ZM112.504 21.845H115.094L113.799 13.095L112.504 21.845ZM134.528 24.995C134.528 26.7683 134.131 28.0517 133.338 28.845C132.568 29.615 131.285 30 129.488 30H122.908V10.155H122.243L122.733 5.5H129.488C131.285 5.5 132.568 5.885 133.338 6.655C134.131 7.425 134.528 8.70833 134.528 10.505V24.995ZM129.593 25.345C129.71 25.345 129.768 25.2867 129.768 25.17V10.33C129.768 10.2133 129.71 10.155 129.593 10.155H127.668V25.345H129.593ZM135.915 30L138.82 10.155H138.085L138.575 5.5H146.73L150.335 30H145.61L145.085 26.5H141.165L140.64 30H135.915ZM141.83 21.845H144.42L143.125 13.095L141.83 21.845Z" fill="white"/>
<path d="M4.6356 45.61C4.04893 45.61 3.5026 45.5147 2.9966 45.324C2.49793 45.126 2.0616 44.851 1.6876 44.499C1.32093 44.1397 1.03493 43.718 0.829598 43.234C0.624264 42.75 0.521598 42.222 0.521598 41.65C0.521598 41.078 0.624264 40.55 0.829598 40.066C1.03493 39.582 1.3246 39.164 1.6986 38.812C2.0726 38.4527 2.50893 38.1777 3.0076 37.987C3.50626 37.789 4.0526 37.69 4.6466 37.69C5.27726 37.69 5.85293 37.8 6.3736 38.02C6.89426 38.2327 7.33426 38.5517 7.6936 38.977L6.7696 39.846C6.49093 39.5453 6.17926 39.3217 5.8346 39.175C5.48993 39.021 5.11593 38.944 4.7126 38.944C4.30926 38.944 3.93893 39.01 3.6016 39.142C3.2716 39.274 2.98193 39.461 2.7326 39.703C2.4906 39.945 2.29993 40.231 2.1606 40.561C2.0286 40.891 1.9626 41.254 1.9626 41.65C1.9626 42.046 2.0286 42.409 2.1606 42.739C2.29993 43.069 2.4906 43.355 2.7326 43.597C2.98193 43.839 3.2716 44.026 3.6016 44.158C3.93893 44.29 4.30926 44.356 4.7126 44.356C5.11593 44.356 5.48993 44.2827 5.8346 44.136C6.17926 43.982 6.49093 43.751 6.7696 43.443L7.6936 44.323C7.33426 44.741 6.89426 45.06 6.3736 45.28C5.85293 45.5 5.2736 45.61 4.6356 45.61ZM8.96711 45.5V37.8H10.3971V45.5H8.96711ZM12.4798 45.5V37.8H18.1008V38.999H13.9098V44.301H18.2548V45.5H12.4798ZM13.7998 42.178V41.001H17.6278V42.178H13.7998ZM13.1948 37.173L14.6688 35.666H15.9228L17.3968 37.173H16.2638L14.7678 35.908H15.8238L14.3278 37.173H13.1948ZM19.8489 45.5V37.8H21.0259L25.8549 43.729H25.2719V37.8H26.6909V45.5H25.5139L20.6849 39.571H21.2679V45.5H19.8489ZM32.3182 45.61C31.7315 45.61 31.1852 45.5147 30.6792 45.324C30.1805 45.126 29.7442 44.851 29.3702 44.499C29.0035 44.1397 28.7175 43.718 28.5122 43.234C28.3069 42.75 28.2042 42.222 28.2042 41.65C28.2042 41.078 28.3069 40.55 28.5122 40.066C28.7175 39.582 29.0072 39.164 29.3812 38.812C29.7552 38.4527 30.1915 38.1777 30.6902 37.987C31.1889 37.789 31.7352 37.69 32.3292 37.69C32.9599 37.69 33.5355 37.8 34.0562 38.02C34.5769 38.2327 35.0169 38.5517 35.3762 38.977L34.4522 39.846C34.1735 39.5453 33.8619 39.3217 33.5172 39.175C33.1725 39.021 32.7985 38.944 32.3952 38.944C31.9919 38.944 31.6215 39.01 31.2842 39.142C30.9542 39.274 30.6645 39.461 30.4152 39.703C30.1732 39.945 29.9825 40.231 29.8432 40.561C29.7112 40.891 29.6452 41.254 29.6452 41.65C29.6452 42.046 29.7112 42.409 29.8432 42.739C29.9825 43.069 30.1732 43.355 30.4152 43.597C30.6645 43.839 30.9542 44.026 31.2842 44.158C31.6215 44.29 31.9919 44.356 32.3952 44.356C32.7985 44.356 33.1725 44.2827 33.5172 44.136C33.8619 43.982 34.1735 43.751 34.4522 43.443L35.3762 44.323C35.0169 44.741 34.5769 45.06 34.0562 45.28C33.5355 45.5 32.9562 45.61 32.3182 45.61ZM36.6497 45.5V37.8H38.0797V45.5H36.6497ZM39.0734 45.5L42.5384 37.8H43.9464L47.4224 45.5H45.9264L42.9454 38.559H43.5174L40.5474 45.5H39.0734ZM40.6684 43.718L41.0534 42.596H45.2114L45.5964 43.718H40.6684ZM51.4417 45.5V37.8H54.8077C55.6437 37.8 56.377 37.9613 57.0077 38.284C57.6384 38.6067 58.1297 39.054 58.4817 39.626C58.8337 40.198 59.0097 40.8727 59.0097 41.65C59.0097 42.42 58.8337 43.0947 58.4817 43.674C58.1297 44.246 57.6384 44.6933 57.0077 45.016C56.377 45.3387 55.6437 45.5 54.8077 45.5H51.4417ZM52.8717 44.29H54.7417C55.3137 44.29 55.8124 44.18 56.2377 43.96C56.663 43.74 56.9894 43.432 57.2167 43.036C57.4514 42.64 57.5687 42.178 57.5687 41.65C57.5687 41.1147 57.4514 40.6527 57.2167 40.264C56.9894 39.868 56.663 39.56 56.2377 39.34C55.8124 39.12 55.3137 39.01 54.7417 39.01H52.8717V44.29ZM59.3332 45.5L62.7982 37.8H64.2062L67.6822 45.5H66.1862L63.2052 38.559H63.7772L60.8072 45.5H59.3332ZM60.9282 43.718L61.3132 42.596H65.4712L65.8562 43.718H60.9282ZM75.2655 45.61C74.6788 45.61 74.1325 45.5147 73.6265 45.324C73.1278 45.126 72.6915 44.851 72.3175 44.499C71.9508 44.1397 71.6648 43.718 71.4595 43.234C71.2541 42.75 71.1515 42.222 71.1515 41.65C71.1515 41.078 71.2541 40.55 71.4595 40.066C71.6648 39.582 71.9545 39.164 72.3285 38.812C72.7025 38.4527 73.1388 38.1777 73.6375 37.987C74.1361 37.789 74.6825 37.69 75.2765 37.69C75.9071 37.69 76.4828 37.8 77.0035 38.02C77.5241 38.2327 77.9641 38.5517 78.3235 38.977L77.3995 39.846C77.1208 39.5453 76.8091 39.3217 76.4645 39.175C76.1198 39.021 75.7458 38.944 75.3425 38.944C74.9391 38.944 74.5688 39.01 74.2315 39.142C73.9015 39.274 73.6118 39.461 73.3625 39.703C73.1205 39.945 72.9298 40.231 72.7905 40.561C72.6585 40.891 72.5925 41.254 72.5925 41.65C72.5925 42.046 72.6585 42.409 72.7905 42.739C72.9298 43.069 73.1205 43.355 73.3625 43.597C73.6118 43.839 73.9015 44.026 74.2315 44.158C74.5688 44.29 74.9391 44.356 75.3425 44.356C75.7458 44.356 76.1198 44.2827 76.4645 44.136C76.8091 43.982 77.1208 43.751 77.3995 43.443L78.3235 44.323C77.9641 44.741 77.5241 45.06 77.0035 45.28C76.4828 45.5 75.9035 45.61 75.2655 45.61ZM82.829 45.61C82.2277 45.61 81.674 45.511 81.168 45.313C80.662 45.115 80.222 44.84 79.848 44.488C79.474 44.1287 79.1843 43.7107 78.979 43.234C78.7737 42.75 78.671 42.222 78.671 41.65C78.671 41.078 78.7737 40.5537 78.979 40.077C79.1843 39.593 79.474 39.175 79.848 38.823C80.222 38.4637 80.662 38.185 81.168 37.987C81.674 37.789 82.224 37.69 82.818 37.69C83.4193 37.69 83.9693 37.789 84.468 37.987C84.974 38.185 85.414 38.4637 85.788 38.823C86.162 39.175 86.4517 39.593 86.657 40.077C86.8623 40.5537 86.965 41.078 86.965 41.65C86.965 42.222 86.8623 42.75 86.657 43.234C86.4517 43.718 86.162 44.136 85.788 44.488C85.414 44.84 84.974 45.115 84.468 45.313C83.9693 45.511 83.423 45.61 82.829 45.61ZM82.818 44.356C83.2067 44.356 83.566 44.29 83.896 44.158C84.226 44.026 84.512 43.839 84.754 43.597C84.996 43.3477 85.183 43.0617 85.315 42.739C85.4543 42.409 85.524 42.046 85.524 41.65C85.524 41.254 85.4543 40.8947 85.315 40.572C85.183 40.242 84.996 39.956 84.754 39.714C84.512 39.4647 84.226 39.274 83.896 39.142C83.566 39.01 83.2067 38.944 82.818 38.944C82.4293 38.944 82.07 39.01 81.74 39.142C81.4173 39.274 81.1313 39.4647 80.882 39.714C80.64 39.956 80.4493 40.242 80.31 40.572C80.178 40.8947 80.112 41.254 80.112 41.65C80.112 42.0387 80.178 42.398 80.31 42.728C80.4493 43.058 80.64 43.3477 80.882 43.597C81.124 43.839 81.41 44.026 81.74 44.158C82.07 44.29 82.4293 44.356 82.818 44.356ZM88.4808 45.5V37.8H89.6578L93.0238 43.421H92.4078L95.7188 37.8H96.8958L96.9068 45.5H95.5538L95.5428 39.923H95.8288L93.0128 44.62H92.3748L89.5148 39.923H89.8448V45.5H88.4808ZM98.9866 45.5V37.8H102.155C102.837 37.8 103.42 37.91 103.904 38.13C104.395 38.35 104.773 38.6653 105.037 39.076C105.301 39.4867 105.433 39.9743 105.433 40.539C105.433 41.1037 105.301 41.5913 105.037 42.002C104.773 42.4127 104.395 42.728 103.904 42.948C103.42 43.168 102.837 43.278 102.155 43.278H99.7786L100.417 42.607V45.5H98.9866ZM100.417 42.761L99.7786 42.068H102.089C102.719 42.068 103.192 41.936 103.508 41.672C103.83 41.4007 103.992 41.023 103.992 40.539C103.992 40.0477 103.83 39.67 103.508 39.406C103.192 39.142 102.719 39.01 102.089 39.01H99.7786L100.417 38.306V42.761ZM110.161 45.61C109.105 45.61 108.276 45.313 107.675 44.719C107.081 44.125 106.784 43.267 106.784 42.145V37.8H108.214V42.09C108.214 42.882 108.383 43.4577 108.72 43.817C109.065 44.1763 109.549 44.356 110.172 44.356C110.795 44.356 111.276 44.1763 111.613 43.817C111.95 43.4577 112.119 42.882 112.119 42.09V37.8H113.527V42.145C113.527 43.267 113.226 44.125 112.625 44.719C112.031 45.313 111.21 45.61 110.161 45.61ZM116.952 45.5V39.01H114.4V37.8H120.934V39.01H118.382V45.5H116.952ZM120.531 45.5L123.996 37.8H125.404L128.88 45.5H127.384L124.403 38.559H124.975L122.005 45.5H120.531ZM122.126 43.718L122.511 42.596H126.669L127.054 43.718H122.126ZM133.316 45.61C132.73 45.61 132.183 45.5147 131.677 45.324C131.179 45.126 130.742 44.851 130.368 44.499C130.002 44.1397 129.716 43.718 129.51 43.234C129.305 42.75 129.202 42.222 129.202 41.65C129.202 41.078 129.305 40.55 129.51 40.066C129.716 39.582 130.005 39.164 130.379 38.812C130.753 38.4527 131.19 38.1777 131.688 37.987C132.187 37.789 132.733 37.69 133.327 37.69C133.958 37.69 134.534 37.8 135.054 38.02C135.575 38.2327 136.015 38.5517 136.374 38.977L135.45 39.846C135.172 39.5453 134.86 39.3217 134.515 39.175C134.171 39.021 133.797 38.944 133.393 38.944C132.99 38.944 132.62 39.01 132.282 39.142C131.952 39.274 131.663 39.461 131.413 39.703C131.171 39.945 130.981 40.231 130.841 40.561C130.709 40.891 130.643 41.254 130.643 41.65C130.643 42.046 130.709 42.409 130.841 42.739C130.981 43.069 131.171 43.355 131.413 43.597C131.663 43.839 131.952 44.026 132.282 44.158C132.62 44.29 132.99 44.356 133.393 44.356C133.797 44.356 134.171 44.2827 134.515 44.136C134.86 43.982 135.172 43.751 135.45 43.443L136.374 44.323C136.015 44.741 135.575 45.06 135.054 45.28C134.534 45.5 133.954 45.61 133.316 45.61ZM132.931 48.008C132.733 48.008 132.55 47.986 132.381 47.942C132.213 47.9053 132.059 47.8503 131.919 47.777L132.172 47.128C132.29 47.1867 132.407 47.2307 132.524 47.26C132.649 47.2893 132.781 47.304 132.92 47.304C133.133 47.304 133.283 47.2673 133.371 47.194C133.459 47.1207 133.503 47.0253 133.503 46.908C133.503 46.798 133.456 46.71 133.36 46.644C133.272 46.578 133.126 46.545 132.92 46.545H132.579L132.876 45.423H133.624L133.47 46.039C133.793 46.0757 134.031 46.1783 134.185 46.347C134.347 46.523 134.427 46.7283 134.427 46.963C134.427 47.2857 134.292 47.5387 134.02 47.722C133.749 47.9127 133.386 48.008 132.931 48.008ZM136.398 45.5L139.863 37.8H141.271L144.747 45.5H143.251L140.27 38.559H140.842L137.872 45.5H136.398ZM137.993 43.718L138.378 42.596H142.536L142.921 43.718H137.993ZM141.436 37.228C141.238 37.228 141.062 37.1877 140.908 37.107C140.754 37.0263 140.614 36.9383 140.49 36.843C140.372 36.7403 140.255 36.6487 140.138 36.568C140.02 36.4873 139.903 36.447 139.786 36.447C139.624 36.447 139.496 36.5167 139.401 36.656C139.305 36.7953 139.254 36.9603 139.247 37.151H138.444C138.451 36.7037 138.565 36.3333 138.785 36.04C139.012 35.7393 139.316 35.589 139.698 35.589C139.903 35.589 140.083 35.6293 140.237 35.71C140.391 35.7833 140.526 35.8713 140.644 35.974C140.768 36.0767 140.889 36.1683 141.007 36.249C141.124 36.3223 141.241 36.359 141.359 36.359C141.52 36.359 141.645 36.293 141.733 36.161C141.828 36.0217 141.879 35.8603 141.887 35.677H142.668C142.66 36.117 142.547 36.4873 142.327 36.788C142.114 37.0813 141.817 37.228 141.436 37.228ZM149.226 45.61C148.625 45.61 148.071 45.511 147.565 45.313C147.059 45.115 146.619 44.84 146.245 44.488C145.871 44.1287 145.582 43.7107 145.376 43.234C145.171 42.75 145.068 42.222 145.068 41.65C145.068 41.078 145.171 40.5537 145.376 40.077C145.582 39.593 145.871 39.175 146.245 38.823C146.619 38.4637 147.059 38.185 147.565 37.987C148.071 37.789 148.621 37.69 149.215 37.69C149.817 37.69 150.367 37.789 150.865 37.987C151.371 38.185 151.811 38.4637 152.185 38.823C152.559 39.175 152.849 39.593 153.054 40.077C153.26 40.5537 153.362 41.078 153.362 41.65C153.362 42.222 153.26 42.75 153.054 43.234C152.849 43.718 152.559 44.136 152.185 44.488C151.811 44.84 151.371 45.115 150.865 45.313C150.367 45.511 149.82 45.61 149.226 45.61ZM149.215 44.356C149.604 44.356 149.963 44.29 150.293 44.158C150.623 44.026 150.909 43.839 151.151 43.597C151.393 43.3477 151.58 43.0617 151.712 42.739C151.852 42.409 151.921 42.046 151.921 41.65C151.921 41.254 151.852 40.8947 151.712 40.572C151.58 40.242 151.393 39.956 151.151 39.714C150.909 39.4647 150.623 39.274 150.293 39.142C149.963 39.01 149.604 38.944 149.215 38.944C148.827 38.944 148.467 39.01 148.137 39.142C147.815 39.274 147.529 39.4647 147.279 39.714C147.037 39.956 146.847 40.242 146.707 40.572C146.575 40.8947 146.509 41.254 146.509 41.65C146.509 42.0387 146.575 42.398 146.707 42.728C146.847 43.058 147.037 43.3477 147.279 43.597C147.521 43.839 147.807 44.026 148.137 44.158C148.467 44.29 148.827 44.356 149.215 44.356ZM6.35783 58.621L1.95783 54.397C1.70849 54.155 1.50683 53.9313 1.35283 53.726C1.19883 53.5207 1.08883 53.3227 1.02283 53.132C0.956828 52.934 0.923828 52.7323 0.923828 52.527C0.923828 52.1677 1.01549 51.8523 1.19883 51.581C1.38216 51.3023 1.64249 51.0897 1.97983 50.943C2.31716 50.789 2.70949 50.712 3.15683 50.712C3.57483 50.712 3.93416 50.7817 4.23483 50.921C4.54283 51.053 4.78116 51.2473 4.94983 51.504C5.12583 51.7533 5.21383 52.054 5.21383 52.406C5.21383 52.714 5.13683 53 4.98283 53.264C4.82883 53.5207 4.58683 53.7663 4.25683 54.001C3.93416 54.2357 3.50149 54.4813 2.95883 54.738C2.55549 54.936 2.23649 55.123 2.00183 55.299C1.76716 55.475 1.59849 55.651 1.49583 55.827C1.39316 56.003 1.34183 56.1973 1.34183 56.41C1.34183 56.6227 1.40416 56.8097 1.52883 56.971C1.66083 57.1323 1.84416 57.2607 2.07883 57.356C2.31349 57.444 2.58849 57.488 2.90383 57.488C3.37316 57.488 3.7985 57.3853 4.17983 57.18C4.5685 56.9673 4.89483 56.652 5.15883 56.234C5.42283 55.816 5.61349 55.299 5.73083 54.683L6.84183 55.046C6.68783 55.7867 6.42016 56.4247 6.03883 56.96C5.66483 57.488 5.20283 57.895 4.65283 58.181C4.10283 58.467 3.48683 58.61 2.80483 58.61C2.26949 58.61 1.78916 58.522 1.36383 58.346C0.938495 58.17 0.604828 57.928 0.362828 57.62C0.120828 57.312 -0.000171863 56.9563 -0.000171863 56.553C-0.000171863 56.1863 0.0804948 55.8563 0.241828 55.563C0.403161 55.2697 0.659828 54.991 1.01183 54.727C1.36383 54.4557 1.81483 54.1843 2.36483 53.913C2.7975 53.7003 3.13483 53.5133 3.37683 53.352C3.62616 53.1907 3.7985 53.0367 3.89383 52.89C3.99649 52.7433 4.04783 52.5893 4.04783 52.428C4.04783 52.208 3.97083 52.032 3.81683 51.9C3.66283 51.7607 3.44283 51.691 3.15683 51.691C2.84883 51.691 2.60683 51.768 2.43083 51.922C2.26216 52.0687 2.17783 52.263 2.17783 52.505C2.17783 52.6297 2.19983 52.7507 2.24383 52.868C2.29516 52.9853 2.38316 53.1173 2.50783 53.264C2.63249 53.4107 2.81216 53.5977 3.04683 53.825L7.11683 57.73L6.35783 58.621ZM11.3895 58.5V50.8H12.8195V58.5H11.3895ZM14.9022 58.5V50.8H16.0792L20.9082 56.729H20.3252V50.8H21.7442V58.5H20.5672L15.7382 52.571H16.3212V58.5H14.9022ZM25.3694 58.5V52.01H22.8174V50.8H29.3514V52.01H26.7994V58.5H25.3694ZM30.4246 58.5V50.8H36.0456V51.999H31.8546V57.301H36.1996V58.5H30.4246ZM31.7446 55.178V54.001H35.5726V55.178H31.7446ZM37.7938 58.5V50.8H39.2238V57.29H43.2498V58.5H37.7938ZM44.3787 58.5V50.8H45.8087V58.5H44.3787ZM51.4884 58.61C50.8871 58.61 50.3334 58.5147 49.8274 58.324C49.3288 58.126 48.8924 57.851 48.5184 57.499C48.1444 57.1397 47.8548 56.718 47.6494 56.234C47.4441 55.75 47.3414 55.222 47.3414 54.65C47.3414 54.078 47.4441 53.55 47.6494 53.066C47.8548 52.582 48.1444 52.164 48.5184 51.812C48.8998 51.4527 49.3434 51.1777 49.8494 50.987C50.3554 50.789 50.9091 50.69 51.5104 50.69C52.1631 50.69 52.7498 50.7963 53.2704 51.009C53.7984 51.2217 54.2421 51.5333 54.6014 51.944L53.6994 52.824C53.3988 52.5233 53.0724 52.3033 52.7204 52.164C52.3758 52.0173 51.9944 51.944 51.5764 51.944C51.1731 51.944 50.7991 52.01 50.4544 52.142C50.1098 52.274 49.8128 52.461 49.5634 52.703C49.3141 52.945 49.1198 53.231 48.9804 53.561C48.8484 53.891 48.7824 54.254 48.7824 54.65C48.7824 55.0387 48.8484 55.398 48.9804 55.728C49.1198 56.058 49.3141 56.3477 49.5634 56.597C49.8128 56.839 50.1061 57.026 50.4434 57.158C50.7808 57.29 51.1548 57.356 51.5654 57.356C51.9468 57.356 52.3134 57.2973 52.6654 57.18C53.0248 57.0553 53.3658 56.85 53.6884 56.564L54.5024 57.631C54.0991 57.9537 53.6298 58.1993 53.0944 58.368C52.5664 58.5293 52.0311 58.61 51.4884 58.61ZM54.5024 57.631L53.1494 57.444V54.562H54.5024V57.631ZM56.3885 58.5V50.8H62.0095V51.999H57.8185V57.301H62.1635V58.5H56.3885ZM57.7085 55.178V54.001H61.5365V55.178H57.7085ZM57.1035 50.173L58.5775 48.666H59.8315L61.3055 50.173H60.1725L58.6765 48.908H59.7325L58.2365 50.173H57.1035ZM63.7576 58.5V50.8H64.9346L69.7636 56.729H69.1806V50.8H70.5996V58.5H69.4226L64.5936 52.571H65.1766V58.5H63.7576ZM76.2269 58.61C75.6402 58.61 75.0939 58.5147 74.5879 58.324C74.0892 58.126 73.6529 57.851 73.2789 57.499C72.9122 57.1397 72.6262 56.718 72.4209 56.234C72.2156 55.75 72.1129 55.222 72.1129 54.65C72.1129 54.078 72.2156 53.55 72.4209 53.066C72.6262 52.582 72.9159 52.164 73.2899 51.812C73.6639 51.4527 74.1002 51.1777 74.5989 50.987C75.0976 50.789 75.6439 50.69 76.2379 50.69C76.8686 50.69 77.4442 50.8 77.9649 51.02C78.4856 51.2327 78.9256 51.5517 79.2849 51.977L78.3609 52.846C78.0822 52.5453 77.7706 52.3217 77.4259 52.175C77.0812 52.021 76.7072 51.944 76.3039 51.944C75.9006 51.944 75.5302 52.01 75.1929 52.142C74.8629 52.274 74.5732 52.461 74.3239 52.703C74.0819 52.945 73.8912 53.231 73.7519 53.561C73.6199 53.891 73.5539 54.254 73.5539 54.65C73.5539 55.046 73.6199 55.409 73.7519 55.739C73.8912 56.069 74.0819 56.355 74.3239 56.597C74.5732 56.839 74.8629 57.026 75.1929 57.158C75.5302 57.29 75.9006 57.356 76.3039 57.356C76.7072 57.356 77.0812 57.2827 77.4259 57.136C77.7706 56.982 78.0822 56.751 78.3609 56.443L79.2849 57.323C78.9256 57.741 78.4856 58.06 77.9649 58.28C77.4442 58.5 76.8649 58.61 76.2269 58.61ZM80.5584 58.5V50.8H81.9884V58.5H80.5584ZM82.9821 58.5L86.4471 50.8H87.8551L91.3311 58.5H89.8351L86.8541 51.559H87.4261L84.4561 58.5H82.9821ZM84.5771 56.718L84.9621 55.596H89.1201L89.5051 56.718H84.5771ZM94.2614 58.5L97.7264 50.8H99.1344L102.61 58.5H101.114L98.1334 51.559H98.7054L95.7354 58.5H94.2614ZM95.8564 56.718L96.2414 55.596H100.399L100.784 56.718H95.8564ZM103.59 58.5V50.8H106.747C107.773 50.8 108.576 51.042 109.156 51.526C109.742 52.01 110.036 52.681 110.036 53.539C110.036 54.1037 109.904 54.5913 109.64 55.002C109.376 55.4053 108.998 55.717 108.507 55.937C108.023 56.1497 107.44 56.256 106.758 56.256H104.382L105.02 55.607V58.5H103.59ZM108.628 58.5L106.681 55.706H108.21L110.168 58.5H108.628ZM105.02 55.761L104.382 55.079H106.692C107.322 55.079 107.795 54.9433 108.111 54.672C108.433 54.4007 108.595 54.023 108.595 53.539C108.595 53.0477 108.433 52.67 108.111 52.406C107.795 52.142 107.322 52.01 106.692 52.01H104.382L105.02 51.306V55.761ZM113.09 58.5V52.01H110.538V50.8H117.072V52.01H114.52V58.5H113.09ZM118.145 58.5V50.8H119.575V58.5H118.145ZM121.658 58.5V50.8H127.279V51.999H123.088V58.5H121.658ZM122.967 55.552V54.342H126.806V55.552H122.967ZM128.662 58.5V50.8H130.092V58.5H128.662ZM135.739 58.61C135.152 58.61 134.606 58.5147 134.1 58.324C133.601 58.126 133.165 57.851 132.791 57.499C132.424 57.1397 132.138 56.718 131.933 56.234C131.727 55.75 131.625 55.222 131.625 54.65C131.625 54.078 131.727 53.55 131.933 53.066C132.138 52.582 132.428 52.164 132.802 51.812C133.176 51.4527 133.612 51.1777 134.111 50.987C134.609 50.789 135.156 50.69 135.75 50.69C136.38 50.69 136.956 50.8 137.477 51.02C137.997 51.2327 138.437 51.5517 138.797 51.977L137.873 52.846C137.594 52.5453 137.282 52.3217 136.938 52.175C136.593 52.021 136.219 51.944 135.816 51.944C135.412 51.944 135.042 52.01 134.705 52.142C134.375 52.274 134.085 52.461 133.836 52.703C133.594 52.945 133.403 53.231 133.264 53.561C133.132 53.891 133.066 54.254 133.066 54.65C133.066 55.046 133.132 55.409 133.264 55.739C133.403 56.069 133.594 56.355 133.836 56.597C134.085 56.839 134.375 57.026 134.705 57.158C135.042 57.29 135.412 57.356 135.816 57.356C136.219 57.356 136.593 57.2827 136.938 57.136C137.282 56.982 137.594 56.751 137.873 56.443L138.797 57.323C138.437 57.741 137.997 58.06 137.477 58.28C136.956 58.5 136.377 58.61 135.739 58.61ZM140.07 58.5V50.8H141.5V58.5H140.07ZM142.494 58.5L145.959 50.8H147.367L150.843 58.5H149.347L146.366 51.559H146.938L143.968 58.5H142.494ZM144.089 56.718L144.474 55.596H148.632L149.017 56.718H144.089ZM151.822 58.5V50.8H153.252V57.29H157.278V58.5H151.822Z" fill="#027BFD"/>
</svg>
