<svg width="81" height="81" viewBox="0 0 81 81" fill="none" xmlns="http://www.w3.org/2000/svg">
<path d="M80.0583 40.0291C80.0583 62.1366 62.1366 80.0583 40.0291 80.0583C17.9217 80.0583 0 62.1366 0 40.0291C0 17.9217 17.9217 0 40.0291 0C62.1366 0 80.0583 17.9217 80.0583 40.0291Z" fill="white"/>
<path fill-rule="evenodd" clip-rule="evenodd" d="M58.2281 64.7559C57.5047 64.6827 56.8886 64.7295 56.2151 64.9088C55.7897 65.022 55.4568 65.1566 55.0202 65.3918C54.6757 65.5774 54.6009 65.6437 54.5524 65.8067C54.4991 65.9856 54.558 66.1745 54.7033 66.2908C54.7656 66.3406 54.7984 66.3556 54.8862 66.3745C55.0312 66.4057 55.0997 66.3871 55.3484 66.2493C56.1428 65.809 56.8851 65.6169 57.7155 65.6366C58.0378 65.6443 58.1935 65.6651 58.5865 65.7532C58.9795 65.8413 59.1291 65.8889 59.4239 66.0196C60.1796 66.3545 60.7699 66.845 61.2971 67.5761C61.4703 67.8163 61.5228 67.8613 61.6674 67.8936C61.8552 67.9356 62.0011 67.8817 62.1314 67.7222C62.1929 67.6469 62.2118 67.6113 62.2276 67.5408C62.2384 67.4926 62.2414 67.4518 62.2343 67.4502C62.2272 67.4486 62.2165 67.414 62.2106 67.3732C62.1844 67.1941 61.7072 66.5687 61.3138 66.1981C60.8197 65.7327 60.2505 65.3666 59.6315 65.1159C59.2613 64.966 58.5817 64.7916 58.2281 64.7559ZM58.0618 66.2348C57.6047 66.185 56.9995 66.2323 56.5872 66.3499C56.2514 66.4457 55.7862 66.6496 55.5803 66.7912C55.4386 66.8887 55.3897 66.9504 55.3519 67.079C55.325 67.1702 55.3238 67.1966 55.3419 67.285C55.3747 67.4453 55.461 67.5475 55.6224 67.6172C55.7731 67.6823 55.8787 67.6573 56.2293 67.4738C56.8686 67.1391 57.5517 67.0469 58.2485 67.2011C58.9862 67.3644 59.5728 67.7529 60.0404 68.388C60.1961 68.5995 60.2743 68.6643 60.4106 68.6948C60.6483 68.7481 60.8655 68.6156 60.9365 68.3741C60.9628 68.2845 60.9646 68.2558 60.9485 68.1805C60.9246 68.0683 60.8455 67.9307 60.6893 67.7296C60.2795 67.2021 59.7871 66.8159 59.1795 66.5455C58.8681 66.4069 58.3698 66.2684 58.0618 66.2348ZM54.5467 65.837C54.5347 65.8904 54.5325 65.9129 54.5418 65.8869C54.5511 65.8609 54.5609 65.8172 54.5636 65.7897C54.5663 65.7623 54.5587 65.7835 54.5467 65.837ZM57.8331 67.7111C57.3553 67.6743 56.8793 67.7726 56.4774 67.9911C56.2616 68.1083 56.1796 68.1998 56.1427 68.3641C56.0899 68.6 56.2224 68.8149 56.4645 68.8859C56.5582 68.9133 56.5818 68.9145 56.659 68.8955C56.7073 68.8836 56.8329 68.8328 56.9382 68.7827C57.2771 68.6214 57.5376 68.5839 57.8828 68.6468C58.2788 68.7189 58.5411 68.8865 58.8321 69.2531C58.8793 69.3126 58.9495 69.3868 58.9882 69.418C59.1274 69.5303 59.3661 69.5275 59.5212 69.4116C59.654 69.3125 59.724 69.1225 59.6861 68.9643C59.6344 68.7482 59.3168 68.3674 59.007 68.15C58.6674 67.9116 58.2082 67.74 57.8331 67.7111ZM57.6102 69.3113C57.4062 69.3166 57.1592 69.4298 57.0341 69.5754C56.7618 69.8922 56.7938 70.396 57.103 70.661C57.5542 71.0477 58.2367 70.8254 58.3647 70.25C58.44 69.9115 58.2818 69.5639 57.9816 69.4082C57.8657 69.3481 57.7142 69.3086 57.6102 69.3113Z" fill="#030A3E"/>
<path d="M67.2562 55.9117L70.3867 57.0463L70.7323 57.2561L70.978 57.4507L71.2644 57.7657L71.4576 58.0469L71.5831 58.2824L71.6425 58.4095L71.7476 58.701L71.8206 59.0231L71.8615 59.3758L71.8515 59.7523L71.7907 60.1526L71.7265 60.446L71.6217 60.8515L71.321 62.2629L71.2855 62.419L71.1367 62.8296L70.9674 63.0639L70.7304 63.2525L70.6407 63.3256L70.4121 63.4328L70.0971 63.4876L69.8092 63.4677L69.3992 63.3191L69.1841 63.1567L69.0925 63.0601L68.9417 62.8365L68.8467 62.6332L68.7686 62.267L68.7006 61.7567L68.6937 61.543L68.6189 61.0513L68.5832 60.7427L68.5967 60.7054L66.2861 59.868L66.2083 59.9664L65.8545 60.3028L65.6107 60.5101L65.4685 60.6697L65.1536 60.9568L64.9166 61.1454L64.6813 61.2713L64.4662 61.3412L64.3273 61.3753L64.0953 61.3757L63.9954 61.3606L63.5854 61.212L63.3516 61.0428L63.1872 60.8565L63.0618 60.621L63.0143 60.5193L62.9769 60.2735L62.9565 60.0971L62.975 59.8716L63.1238 59.4609L63.8108 58.1473L63.936 57.9181L64.1221 57.521L64.3522 57.1187L64.5993 56.7859L64.8566 56.5413L65.0936 56.3527L65.3933 56.1657L65.6981 56.0228L66.052 55.9187L66.411 55.8588L66.7125 55.8414L67.0191 55.868L67.2562 55.9117ZM70.1298 57.9879L69.9977 58.0034L69.8318 58.1122L69.7539 58.2107L69.7116 58.3854L69.727 58.5177L69.8049 58.6515L69.8846 58.7226L70.0523 58.7834L70.2284 58.7628L70.3876 58.6726L70.4587 58.5928L70.5077 58.3994L70.4737 58.2604L70.3839 58.1012L70.3348 58.0622L70.1298 57.9879ZM66.3574 56.9375L66.1477 57.5161L65.57 57.3067L65.3671 57.8667L65.9447 58.076L65.7283 58.6733L66.2873 58.8759L66.5156 58.304L67.1001 58.4947L67.303 57.9348L66.7067 57.7187L66.9164 57.1401L66.3574 56.9375ZM69.1257 58.4898L68.9563 58.4918L68.765 58.6125L68.7261 58.6617L68.6517 58.867L68.667 58.9993L68.7568 59.1586L68.8551 59.2364L69.0482 59.2853L69.1871 59.2511L69.3208 59.1729L69.3852 59.1118L69.446 58.9438L69.4256 58.7675L69.3358 58.6082L69.2375 58.5303L69.1257 58.4898ZM70.6723 59.0504L70.4776 59.0642L70.3116 59.173L70.2659 59.2409L70.2051 59.4089L70.2255 59.5853L70.3035 59.7191L70.4017 59.797L70.5948 59.8458L70.7777 59.8065L70.925 59.691L70.9994 59.4857L70.9841 59.3534L70.8824 59.1687L70.7841 59.0909L70.6723 59.0504ZM69.5869 59.5439L69.4108 59.5645L69.2703 59.6614L69.1924 59.7599L69.1434 59.9533L69.1655 60.0669L69.2028 60.0804L69.213 60.1685L69.3045 60.2651L69.5094 60.3394L69.6415 60.3239L69.7685 60.2643L69.8515 60.2099L69.9378 60.03L69.9241 59.835L69.8343 59.6758L69.7546 59.6047L69.5869 59.5439Z" fill="#030A3E"/>
<path fill-rule="evenodd" clip-rule="evenodd" d="M26.5292 23.1083C16.6293 28.0477 13.4367 29.6895 13.211 29.9572C13.0478 30.1508 12.881 30.486 12.8403 30.7019C12.7342 31.2671 12.8699 31.8275 13.211 32.2321C13.4367 32.4999 16.6293 34.1416 26.5292 39.081C37.1717 44.3909 39.6325 45.5777 40.0001 45.5777C40.3662 45.5777 42.4245 44.5924 51.1084 40.2602L61.7673 34.9426V40.543C61.7673 43.6233 61.7264 46.1435 61.6763 46.1435C61.4553 46.1435 60.575 47.1609 60.3057 47.7276C60.0621 48.2403 60.0107 48.5091 60.0138 49.2551C60.0171 50.0641 60.0583 50.2361 60.4011 50.8732C60.8281 51.6668 61.1836 52.0098 62.0386 52.4532C62.5323 52.7093 62.7594 52.7535 63.5812 52.7535C64.403 52.7535 64.6301 52.7093 65.1238 52.4532C65.9789 52.0098 66.3343 51.6668 66.7613 50.8732C67.1041 50.2361 67.1453 50.0641 67.1486 49.2551C67.1516 48.5111 67.1 48.239 66.8583 47.7276C66.5838 47.1469 65.7204 46.1435 65.4951 46.1435C65.4385 46.1435 65.3951 43.3219 65.3951 39.6393V33.1352L65.9472 32.8559C66.2508 32.7024 66.6314 32.42 66.7929 32.2284C67.3318 31.5892 67.3304 30.5984 66.7898 29.9572C66.5641 29.6895 63.3715 28.0477 53.4716 23.1083C42.8234 17.7956 40.3684 16.6116 40.0004 16.6116C39.6324 16.6116 37.1774 17.7956 26.5292 23.1083ZM23.6752 47.4483C23.6752 52.0243 23.7062 53.2398 23.83 53.5357C24.0296 54.0125 25.0216 54.8935 26.4654 55.8761C33.5849 60.7218 42.7261 61.3893 50.4944 57.6305C52.9879 56.424 55.8156 54.3842 56.1708 53.5357C56.2946 53.2398 56.3256 52.0243 56.3256 47.4483C56.3256 44.3036 56.2999 41.7307 56.2685 41.7307C56.2371 41.7307 52.9952 43.3358 49.0643 45.2977C45.1333 47.2595 41.6282 48.9397 41.275 49.0316C40.9219 49.1234 40.3483 49.1985 40.0004 49.1985C39.6525 49.1985 39.0789 49.1234 38.7258 49.0316C38.3726 48.9397 34.8675 47.2595 30.9365 45.2977C27.0056 43.3358 23.7637 41.7307 23.7323 41.7307C23.7009 41.7307 23.6752 44.3036 23.6752 47.4483Z" fill="#030A3E"/>
<path fill-rule="evenodd" clip-rule="evenodd" d="M6.48203 21.5574C6.41087 21.5977 6.35102 21.659 6.32203 21.7212C6.27179 21.8289 6.26015 21.7503 6.59213 23.543L6.90031 25.2071L13.4969 23.9854L13.1889 22.322C12.8452 20.4663 12.8749 20.5916 12.7576 20.4996C12.7227 20.4722 12.6657 20.4444 12.6232 20.4339L12.5494 20.4158L9.54686 20.9689C6.69084 21.495 6.54131 21.5237 6.48203 21.5574ZM6.9761 25.6163C6.9982 25.7357 7.01916 25.814 7.0399 25.8546C7.07753 25.9282 7.16107 25.998 7.25045 26.0304L7.3171 26.0545L13.4113 24.9259L13.4648 24.8795C13.5367 24.8173 13.5897 24.7222 13.5985 24.64C13.6033 24.5946 13.5948 24.514 13.5727 24.3947L13.5398 24.217L6.94319 25.4386L6.9761 25.6163ZM9.81478 26.949L9.09125 27.0963L9.06362 27.1339C9.04842 27.1545 9.03352 27.1941 9.0305 27.2218C9.02589 27.2642 9.0303 27.2793 9.05824 27.3164C9.0765 27.3407 9.11003 27.3695 9.13274 27.3804C9.17393 27.4002 9.17838 27.3994 10.7095 27.1159C11.954 26.8854 12.25 26.8273 12.2716 26.8091C12.3341 26.7564 12.344 26.6448 12.292 26.578C12.2381 26.5086 12.2319 26.5087 11.7971 26.5854L11.3995 26.6555L11.1939 25.5827L9.6226 25.8737L9.81478 26.949Z" fill="#030A3E"/>
<path d="M70.5081 22.4836L73.6387 23.6182L73.9843 23.8279L74.23 24.0225L74.5164 24.3375L74.7096 24.6187L74.8351 24.8542L74.8944 24.9813L74.9996 25.2728L75.0726 25.5949L75.1134 25.9476L75.1034 26.3241L75.0427 26.7244L74.9785 27.0179L74.8737 27.4234L74.5729 28.8348L74.5375 28.9908L74.3886 29.4015L74.2194 29.6358L73.9824 29.8244L73.8927 29.8974L73.6641 30.0047L73.3491 30.0594L73.0611 30.0395L72.6512 29.891L72.436 29.7285L72.3445 29.632L72.1936 29.4084L72.0987 29.205L72.0206 28.8388L71.9526 28.3285L71.9457 28.1148L71.8709 27.6232L71.8352 27.3146L71.8487 27.2773L69.5381 26.4398L69.4602 26.5383L69.1064 26.8746L68.8626 27.0819L68.7205 27.2415L68.4056 27.5286L68.1686 27.7173L67.9332 27.8431L67.7181 27.913L67.5793 27.9471L67.3473 27.9475L67.2473 27.9324L66.8374 27.7838L66.6036 27.6146L66.4392 27.4283L66.3137 27.1928L66.2662 27.0911L66.2288 26.8453L66.2084 26.669L66.2269 26.4434L66.3758 26.0328L67.0627 24.7191L67.1879 24.49L67.374 24.0928L67.6041 23.6906L67.8512 23.3578L68.1085 23.1132L68.3456 22.9246L68.6452 22.7375L68.95 22.5946L69.3039 22.4906L69.663 22.4307L69.9644 22.4132L70.271 22.4399L70.5081 22.4836ZM73.3817 24.5598L73.2496 24.5753L73.0837 24.6841L73.0058 24.7825L72.9636 24.9573L72.9789 25.0895L73.0569 25.2234L73.1365 25.2945L73.3042 25.3552L73.4804 25.3346L73.6395 25.2445L73.7106 25.1647L73.7596 24.9713L73.7257 24.8323L73.6358 24.673L73.5867 24.6341L73.3817 24.5598ZM69.6093 23.5093L69.3996 24.0879L68.822 23.8785L68.619 24.4385L69.1967 24.6479L68.9802 25.2451L69.5392 25.4477L69.7676 24.8759L70.352 25.0666L70.5549 24.5066L69.9587 24.2905L70.1684 23.7119L69.6093 23.5093ZM72.3776 25.0617L72.2083 25.0636L72.017 25.1843L71.978 25.2336L71.9036 25.4389L71.9189 25.5711L72.0088 25.7304L72.107 25.8083L72.3001 25.8571L72.439 25.823L72.5728 25.7448L72.6371 25.6836L72.698 25.5156L72.6776 25.3393L72.5877 25.18L72.4894 25.1022L72.3776 25.0617ZM73.9243 25.6222L73.7295 25.6361L73.5636 25.7449L73.5179 25.8128L73.457 25.9808L73.4774 26.1571L73.5554 26.2909L73.6537 26.3688L73.8468 26.4177L74.0297 26.3784L74.177 26.2628L74.2514 26.0575L74.2361 25.9253L74.1343 25.7406L74.0361 25.6627L73.9243 25.6222ZM72.8389 26.1157L72.6627 26.1364L72.5222 26.2332L72.4444 26.3317L72.3953 26.5251L72.4174 26.6387L72.4547 26.6522L72.4649 26.7404L72.5564 26.8369L72.7614 26.9112L72.8935 26.8957L73.0205 26.8362L73.1034 26.7818L73.1897 26.6019L73.1761 26.4069L73.0862 26.2476L73.0066 26.1765L72.8389 26.1157Z" fill="#030A3E"/>
<path fill-rule="evenodd" clip-rule="evenodd" d="M6.97781 41.9591C6.86969 41.9933 6.72677 42.1474 6.69833 42.2604C6.68438 42.3158 6.67458 42.5095 6.67458 42.7298V43.1049H7.58426V42.7143C7.58426 42.253 7.56759 42.1803 7.43328 42.0565C7.30638 41.9396 7.14695 41.9055 6.97781 41.9591ZM8.53197 41.989C8.46457 42.0242 8.40092 42.0781 8.36289 42.1321L8.3019 42.2188L8.28961 43.1049H9.18345L9.17116 42.2188L9.11039 42.1313C9.07063 42.074 9.01172 42.0245 8.93998 41.9881C8.79342 41.9138 8.67544 41.914 8.53197 41.989ZM10.2074 41.9601C10.101 41.9997 10.0407 42.0426 9.98391 42.119C9.89976 42.2324 9.8888 42.3009 9.8888 42.7137V43.1049H10.8014L10.7949 42.6855C10.7879 42.2377 10.7798 42.1982 10.6698 42.0771C10.5654 41.9622 10.3489 41.9075 10.2074 41.9601ZM6.25238 43.4508C5.96438 43.4994 5.7713 43.703 5.72424 44.0078C5.69159 44.2193 5.70704 48.9321 5.74071 49.0311C5.80407 49.2173 5.99156 49.4006 6.17601 49.4567C6.29886 49.494 11.1742 49.494 11.2971 49.4567C11.4873 49.3988 11.6753 49.2109 11.7331 49.0206C11.7531 48.9547 11.7587 48.3991 11.7587 46.4603C11.7587 44.5215 11.7531 43.9659 11.7331 43.9C11.6771 43.7156 11.4938 43.5281 11.3075 43.4647C11.2169 43.4339 6.43098 43.4207 6.25238 43.4508ZM10.7128 44.3782C10.749 44.4003 10.7967 44.448 10.8188 44.4843C10.8581 44.5488 10.859 44.5898 10.859 46.4603C10.859 48.3308 10.8581 48.3719 10.8188 48.4364C10.7967 48.4726 10.749 48.5203 10.7128 48.5424C10.6482 48.5817 10.6072 48.5826 8.73653 48.5826C6.86589 48.5826 6.82482 48.5817 6.76031 48.5424C6.72406 48.5203 6.67636 48.4726 6.65426 48.4364C6.61492 48.3719 6.61407 48.3308 6.61407 46.4603C6.61407 44.5898 6.61492 44.5488 6.65426 44.4843C6.67636 44.448 6.72406 44.4003 6.76031 44.3782C6.82482 44.3389 6.86589 44.338 8.73653 44.338C10.6072 44.338 10.6482 44.3389 10.7128 44.3782ZM4.52283 44.4238C4.41765 44.4516 4.26585 44.6037 4.23302 44.7142C4.17929 44.8952 4.21562 45.0396 4.34693 45.167C4.47872 45.2949 4.53946 45.3082 4.994 45.3082H5.3808V44.3985L4.99166 44.4006C4.77762 44.4018 4.56665 44.4122 4.52283 44.4238ZM12.0923 45.3082H12.4791C12.9356 45.3082 12.9961 45.2949 13.1238 45.1672C13.3119 44.9792 13.3116 44.7277 13.1232 44.5385C12.9991 44.4138 12.9275 44.3985 12.4674 44.3985H12.0923V45.3082ZM6.93738 48.2593H10.5357V44.6613H6.93738V48.2593ZM4.45377 46.0593C4.35817 46.1066 4.26464 46.2196 4.22722 46.3329C4.17126 46.5024 4.25766 46.7355 4.4151 46.8398L4.49835 46.8949L5.3808 46.9072V46.0156L4.96134 46.0156C4.57239 46.0157 4.53546 46.0188 4.45377 46.0593ZM12.0923 46.905H12.5075C12.9774 46.905 13.013 46.8962 13.148 46.7468C13.3409 46.5333 13.2686 46.1921 13.0015 46.0558C12.9304 46.0196 12.8821 46.0156 12.5075 46.0156H12.0923V46.905ZM4.51219 47.6389C4.41106 47.6712 4.25752 47.8276 4.23066 47.9258C4.18135 48.1061 4.21915 48.2509 4.34982 48.3821C4.47399 48.5068 4.54559 48.5221 5.00567 48.5221H5.3808V47.6125L4.98155 47.6145C4.75197 47.6157 4.5525 47.6261 4.51219 47.6389ZM12.0923 48.525L12.5117 48.5185C12.9595 48.5115 12.9991 48.5034 13.1201 48.3934C13.3101 48.2208 13.2964 47.8865 13.0924 47.7184C12.9801 47.6258 12.9028 47.6125 12.4791 47.6125H12.0923V48.525ZM6.67818 50.2352C6.6838 50.5979 6.6898 50.6642 6.72243 50.7254C6.81281 50.8948 6.94492 50.9762 7.12942 50.9762C7.32405 50.9762 7.4596 50.8872 7.54213 50.7052C7.57913 50.6236 7.58341 50.573 7.58382 50.215L7.58426 49.8158H6.67165L6.67818 50.2352ZM8.3019 50.7018L8.36289 50.7885C8.44258 50.9018 8.6042 50.9881 8.73653 50.9881C8.86886 50.9881 9.03048 50.9018 9.11017 50.7885L9.17116 50.7018L9.18345 49.8158H8.28961L8.3019 50.7018ZM9.88892 50.2049C9.88898 50.4269 9.89865 50.6287 9.9114 50.6748C9.94112 50.7821 10.0949 50.9358 10.2021 50.9655C10.3818 51.0153 10.5271 50.9774 10.6585 50.8466C10.7832 50.7225 10.7985 50.6509 10.7985 50.1909V49.8158H9.8888L9.88892 50.2049Z" fill="#030A3E"/>
<path fill-rule="evenodd" clip-rule="evenodd" d="M73.0829 38.3204C72.6215 38.393 72.2093 38.6118 71.8862 38.9555C71.5318 39.3326 71.3481 39.768 71.3228 40.291C71.2876 41.0215 71.6458 41.7198 72.2633 42.1245C72.567 42.3236 72.86 42.4247 73.2148 42.4528C73.8726 42.505 74.4334 42.2981 74.8861 41.8363C75.2446 41.4707 75.4278 41.0729 75.4725 40.5638C75.5321 39.8838 75.2764 39.2504 74.7638 38.8085C74.4333 38.5235 74.1283 38.3828 73.708 38.3212C73.506 38.2916 73.2679 38.2914 73.0829 38.3204ZM71.5485 42.4907C70.7845 42.5714 70.2551 43.1201 70.0082 44.087C69.8436 44.7317 69.8012 45.5064 69.9075 45.93C69.9928 46.2702 70.2743 46.6156 70.6003 46.78C70.7484 46.8546 70.96 46.9166 71.1364 46.9369C71.2409 46.9489 72.0388 46.953 73.5644 46.9494L75.8366 46.944L75.9802 46.9046C76.5133 46.7581 76.8792 46.4006 77.0124 45.8962C77.0817 45.6334 77.0728 45.008 76.9927 44.5139C76.8146 43.4155 76.3653 42.756 75.6546 42.5499C75.4921 42.5028 75.2014 42.4669 75.1152 42.4834C75.0328 42.4992 74.9175 42.5608 74.6573 42.7282C74.3802 42.9065 74.3418 42.9268 74.1343 43.0047C73.8939 43.0948 73.6956 43.1327 73.4653 43.1328C73.2274 43.1328 73.0454 43.1002 72.8055 43.0145C72.5788 42.9336 72.569 42.9284 72.2151 42.7035C72.0285 42.5848 71.8904 42.5088 71.8355 42.4946C71.7417 42.4703 71.7418 42.4703 71.5485 42.4907Z" fill="#030A3E"/>
<path fill-rule="evenodd" clip-rule="evenodd" d="M58.4822 11.6573C57.7588 11.5841 57.1427 11.6309 56.4691 11.8102C56.0438 11.9234 55.7109 12.058 55.2743 12.2931C54.9297 12.4788 54.855 12.5451 54.8064 12.7081C54.7532 12.887 54.812 13.0758 54.9574 13.1921C55.0197 13.242 55.0525 13.257 55.1403 13.2759C55.2853 13.3071 55.3538 13.2885 55.6025 13.1507C56.3969 12.7104 57.1392 12.5182 57.9695 12.538C58.2919 12.5457 58.4475 12.5665 58.8406 12.6546C59.2336 12.7427 59.3832 12.7903 59.678 12.921C60.4337 13.2559 61.0239 13.7464 61.5512 14.4774C61.7244 14.7177 61.7769 14.7627 61.9215 14.795C62.1093 14.837 62.2552 14.7831 62.3855 14.6236C62.447 14.5483 62.4659 14.5127 62.4817 14.4422C62.4925 14.394 62.4955 14.3532 62.4884 14.3516C62.4813 14.35 62.4706 14.3154 62.4646 14.2746C62.4385 14.0954 61.9612 13.47 61.5678 13.0995C61.0738 12.6341 60.5046 12.268 59.8856 12.0173C59.5154 11.8674 58.8358 11.693 58.4822 11.6573ZM58.3158 13.1362C57.8588 13.0864 57.2536 13.1336 56.8413 13.2513C56.5054 13.3471 56.0402 13.551 55.8344 13.6926C55.6927 13.7901 55.6437 13.8517 55.6059 13.9804C55.5791 14.0716 55.5778 14.098 55.5959 14.1864C55.6287 14.3467 55.7151 14.4489 55.8765 14.5186C56.0272 14.5837 56.1328 14.5587 56.4834 14.3751C57.1227 14.0405 57.8058 13.9483 58.5026 14.1025C59.2403 14.2658 59.8268 14.6543 60.2945 15.2894C60.4502 15.5009 60.5284 15.5656 60.6646 15.5962C60.9024 15.6495 61.1196 15.517 61.1906 15.2755C61.2169 15.1859 61.2187 15.1572 61.2026 15.0819C61.1786 14.9697 61.0995 14.8321 60.9433 14.631C60.5335 14.1035 60.0412 13.7173 59.4336 13.4469C59.1221 13.3083 58.6239 13.1698 58.3158 13.1362ZM54.8008 12.7383C54.7888 12.7918 54.7866 12.8143 54.7959 12.7883C54.8052 12.7623 54.815 12.7186 54.8177 12.6911C54.8204 12.6636 54.8127 12.6849 54.8008 12.7383ZM58.0872 14.6125C57.6094 14.5757 57.1334 14.674 56.7314 14.8924C56.5156 15.0097 56.4336 15.1011 56.3968 15.2654C56.3439 15.5014 56.4765 15.7163 56.7186 15.7873C56.8123 15.8147 56.8359 15.8159 56.913 15.7969C56.9614 15.785 57.087 15.7342 57.1922 15.6841C57.5312 15.5228 57.7917 15.4853 58.1369 15.5482C58.5329 15.6203 58.7952 15.7879 59.0862 16.1545C59.1334 16.214 59.2036 16.2882 59.2423 16.3193C59.3815 16.4317 59.6202 16.4289 59.7752 16.313C59.908 16.2138 59.9781 16.0238 59.9402 15.8657C59.8885 15.6496 59.5709 15.2688 59.2611 15.0514C58.9215 14.813 58.4623 14.6413 58.0872 14.6125ZM57.8643 16.2127C57.6603 16.218 57.4133 16.3312 57.2881 16.4768C57.0159 16.7936 57.0479 17.2974 57.3571 17.5624C57.8083 17.9491 58.4908 17.7268 58.6188 17.1514C58.694 16.8129 58.5358 16.4653 58.2357 16.3096C58.1198 16.2495 57.9683 16.2099 57.8643 16.2127Z" fill="#030A3E"/>
<path fill-rule="evenodd" clip-rule="evenodd" d="M39.6099 4.57707C38.8118 4.69322 38.107 5.19863 37.746 5.9136C37.6829 6.03855 37.6733 6.04798 37.6205 6.03639C37.4506 5.99905 37.141 5.9596 37.0198 5.95983C36.8032 5.96026 36.4739 6.01464 36.2554 6.08607C34.9505 6.51282 34.2376 7.93533 34.6801 9.22934C34.9271 9.95187 35.5424 10.5527 36.2701 10.7821C36.6609 10.9053 36.5293 10.9015 40.3449 10.9013C43.7217 10.9011 43.8585 10.8996 44.0499 10.8601C44.422 10.7833 44.7809 10.5683 45.0396 10.267C45.1785 10.1053 45.3536 9.77107 45.4104 9.55953C45.4625 9.36523 45.4634 8.89686 45.412 8.70999C45.3201 8.37572 45.2002 8.15856 44.9738 7.91667C44.7988 7.72973 44.6009 7.58875 44.3818 7.49497C44.2149 7.4235 44.2303 7.47365 44.2571 7.08838C44.2769 6.80433 44.2204 6.53996 44.0779 6.24991C43.8944 5.87628 43.6412 5.62039 43.2757 5.43901C43.0235 5.3139 42.8795 5.27737 42.5811 5.26282C42.3152 5.24984 42.1215 5.27345 41.9236 5.34296L41.8063 5.38418L41.6991 5.28092C41.2842 4.8816 40.8267 4.65636 40.2662 4.57545C40.0882 4.54974 39.7926 4.55049 39.6099 4.57707Z" fill="#030A3E"/>
<path fill-rule="evenodd" clip-rule="evenodd" d="M39.6777 68.0204C38.8796 68.1366 38.1748 68.642 37.8138 69.357C37.7507 69.4819 37.741 69.4913 37.6882 69.4798C37.5183 69.4424 37.2087 69.403 37.0875 69.4032C36.8709 69.4036 36.5416 69.458 36.3232 69.5294C35.0183 69.9562 34.3053 71.3787 34.7478 72.6727C34.9949 73.3952 35.6101 73.996 36.3378 74.2255C36.7286 74.3487 36.5971 74.3448 40.4126 74.3446C43.7894 74.3444 43.9263 74.3429 44.1177 74.3034C44.4898 74.2267 44.8486 74.0117 45.1074 73.7103C45.2463 73.5486 45.4214 73.2144 45.4781 73.0029C45.5302 72.8086 45.5312 72.3402 45.4798 72.1534C45.3879 71.8191 45.2679 71.6019 45.0415 71.36C44.8665 71.1731 44.6686 71.0321 44.4496 70.9383C44.2826 70.8669 44.298 70.917 44.3249 70.5317C44.3446 70.2477 44.2881 69.9833 44.1457 69.6933C43.9622 69.3196 43.709 69.0638 43.3434 68.8824C43.0913 68.7573 42.9473 68.7207 42.6488 68.7062C42.383 68.6932 42.1893 68.7168 41.9914 68.7863L41.8741 68.8275L41.7668 68.7243C41.3519 68.325 40.8945 68.0997 40.3339 68.0188C40.1559 67.9931 39.8604 67.9938 39.6777 68.0204Z" fill="#030A3E"/>
<path d="M19.2665 17.24L14.1665 15.39V13.61L19.2665 11.76V13.46L14.8065 14.99V14.01L19.2665 15.54V17.24Z" fill="#030A3E"/>
<path d="M19.4176 19L22.7176 9.58H24.7176L21.4176 19H19.4176Z" fill="#030A3E"/>
<path d="M24.7719 17.24V15.54L29.2319 14.01V14.99L24.7719 13.46V11.76L29.8719 13.61V15.39L24.7719 17.24Z" fill="#030A3E"/>
<path d="M19.2665 67.24L14.1665 65.39V63.61L19.2665 61.76V63.46L14.8065 64.99V64.01L19.2665 65.54V67.24Z" fill="#030A3E"/>
<path d="M19.4176 69L22.7176 59.58H24.7176L21.4176 69H19.4176Z" fill="#030A3E"/>
<path d="M24.7719 67.24V65.54L29.2319 64.01V64.99L24.7719 63.46V61.76L29.8719 63.61V65.39L24.7719 67.24Z" fill="#030A3E"/>
</svg>
