<svg width="353" height="345" viewBox="0 0 353 345" fill="none" xmlns="http://www.w3.org/2000/svg">
<path d="M331 155.5C331 182.9 324.946 206.96 312.505 229.317C285.953 277.033 233.98 311 175.5 311C115.904 311 64.1379 277.474 38.0339 228.253C26.5212 206.545 20 181.784 20 155.5C20 69.6197 89.6197 0 175.5 0C261.38 0 331 69.6197 331 155.5Z" fill="#00032D"/>
<rect x="3" y="240" width="346" height="87" fill="white"/>
<path fill-rule="evenodd" clip-rule="evenodd" d="M123.24 89.2794C84.8358 108.499 72.4508 114.888 71.5751 115.929C70.9418 116.683 70.2949 117.987 70.137 118.827C69.7254 121.026 70.2518 123.207 71.5751 124.781C72.4508 125.823 84.8358 132.212 123.24 151.431C164.526 172.093 174.072 176.711 175.498 176.711C176.919 176.711 184.903 172.877 218.591 156.02L259.94 135.328V157.12C259.94 169.106 259.781 178.912 259.587 178.912C258.729 178.912 255.314 182.871 254.27 185.076C253.325 187.071 253.126 188.117 253.137 191.02C253.15 194.168 253.31 194.837 254.64 197.316C256.296 200.404 257.675 201.739 260.992 203.464C262.907 204.461 263.788 204.633 266.976 204.633C270.164 204.633 271.045 204.461 272.961 203.464C276.278 201.739 277.656 200.404 279.313 197.316C280.643 194.837 280.803 194.168 280.815 191.02C280.827 188.125 280.627 187.066 279.689 185.076C278.624 182.817 275.275 178.912 274.401 178.912C274.182 178.912 274.013 167.933 274.013 153.604V128.295L276.155 127.209C277.333 126.611 278.809 125.512 279.436 124.767C281.526 122.28 281.521 118.424 279.423 115.929C278.548 114.888 266.163 108.499 227.758 89.2794C186.451 68.6071 176.927 64 175.499 64C174.072 64 164.548 68.6071 123.24 89.2794ZM112.169 183.989C112.169 201.795 112.289 206.525 112.769 207.676C113.544 209.532 117.392 212.96 122.993 216.783C150.612 235.638 186.073 238.235 216.209 223.609C225.882 218.915 236.851 210.978 238.229 207.676C238.71 206.525 238.83 201.795 238.83 183.989C238.83 171.753 238.73 161.741 238.608 161.741C238.487 161.741 225.91 167.987 210.661 175.621C195.411 183.255 181.814 189.793 180.444 190.15C179.074 190.507 176.849 190.8 175.499 190.8C174.15 190.8 171.925 190.507 170.555 190.15C169.185 189.793 155.587 183.255 140.338 175.621C125.088 167.987 112.512 161.741 112.39 161.741C112.268 161.741 112.169 171.753 112.169 183.989Z" fill="white"/>
<path fill-rule="evenodd" clip-rule="evenodd" d="M45.3205 83.7179C45.0442 83.8746 44.8117 84.1126 44.6992 84.354C44.504 84.7722 44.4588 84.4672 45.7481 91.4288L46.9449 97.8913L59.7537 95.5192L72.5626 93.1471L71.3663 86.6872C70.0317 79.4808 70.1468 79.9671 69.6915 79.61C69.5559 79.5038 69.3345 79.3956 69.1695 79.3551L68.8828 79.2847L57.2227 81.4326C46.1314 83.4757 45.5507 83.5872 45.3205 83.7179ZM47.2392 99.4807C47.325 99.9442 47.4064 100.248 47.487 100.406C47.6331 100.692 47.9575 100.963 48.3046 101.089L48.5635 101.182L60.3967 98.9909L72.2299 96.7995L72.4379 96.6193C72.717 96.3776 72.9229 96.0085 72.9569 95.689C72.9756 95.513 72.9428 95.2 72.857 94.7365L72.7291 94.0463L59.9203 96.4184L47.1114 98.7905L47.2392 99.4807ZM57.89 102.568L58.2631 104.656L56.8582 104.942L55.4533 105.228L55.346 105.374C55.287 105.454 55.2291 105.608 55.2174 105.716C55.1995 105.88 55.2166 105.939 55.3251 106.083C55.396 106.177 55.5262 106.289 55.6145 106.331C55.7744 106.408 55.7917 106.405 61.7378 105.304C66.5708 104.409 67.7203 104.183 67.8039 104.113C68.0468 103.908 68.0851 103.475 67.8833 103.215C67.6738 102.946 67.6497 102.946 65.9612 103.244L64.4174 103.516L64.0181 101.433L63.6188 99.35L60.5678 99.9151L57.5168 100.48L57.89 102.568Z" fill="white"/>
<path d="M290.64 87.3141L302.798 91.7203L304.14 92.5348L305.094 93.2907L306.206 94.5138L306.956 95.6059L307.444 96.5205L307.674 97.014L308.083 98.1461L308.366 99.397L308.525 100.767L308.486 102.229L308.25 103.783L308.001 104.923L307.594 106.498L306.426 111.979L306.288 112.585L305.71 114.18L305.053 115.089L304.132 115.822L303.784 116.106L302.896 116.522L301.673 116.735L300.555 116.657L298.963 116.08L298.127 115.449L297.772 115.075L297.186 114.206L296.817 113.417L296.514 111.995L296.25 110.013L296.223 109.183L295.932 107.274L295.794 106.075L295.846 105.93L286.873 102.678L286.571 103.06L285.197 104.367L284.25 105.172L283.698 105.792L282.475 106.906L281.555 107.639L280.641 108.128L279.805 108.399L279.266 108.532L278.365 108.533L277.977 108.474L276.385 107.897L275.477 107.24L274.839 106.517L274.351 105.602L274.167 105.207L274.022 104.253L273.942 103.568L274.014 102.692L274.592 101.097L277.26 95.9957L277.746 95.1058L278.469 93.5636L279.363 92.0014L280.322 90.7091L281.322 89.7591L282.242 89.0266L283.406 88.3004L284.195 87.9303L284.589 87.7453L285.964 87.3414L287.358 87.1086L288.529 87.0409L289.719 87.1444L290.64 87.3141ZM301.8 95.377L301.287 95.4371L300.642 95.8596L300.34 96.242L300.176 96.9206L300.235 97.4342L300.538 97.954L300.848 98.2301L301.499 98.4662L302.183 98.386L302.801 98.036L303.077 97.726L303.267 96.975L303.135 96.4352L302.787 95.8167L302.596 95.6655L301.8 95.377ZM287.15 91.2975L286.335 93.5445L284.092 92.7314L283.304 94.906L285.547 95.719L284.707 98.0385L286.878 98.8254L287.764 96.6046L290.034 97.3451L290.822 95.1706L288.506 94.3313L289.321 92.0843L287.15 91.2975ZM297.9 97.326L297.243 97.3336L296.5 97.8024L296.349 97.9936L296.06 98.791L296.119 99.3045L296.468 99.923L296.85 100.225L297.599 100.415L298.139 100.283L298.658 99.9788L298.908 99.7413L299.144 99.089L299.065 98.4042L298.716 97.7857L298.335 97.4834L297.9 97.326ZM303.907 99.5029L303.15 99.5568L302.506 99.9793L302.328 100.243L302.092 100.895L302.171 101.58L302.474 102.1L302.856 102.402L303.606 102.592L304.316 102.439L304.888 101.991L305.177 101.193L305.118 100.68L304.722 99.9626L304.341 99.6602L303.907 99.5029ZM299.692 101.419L299.008 101.5L298.462 101.876L298.16 102.258L297.969 103.009L298.055 103.45L298.2 103.503L298.239 103.845L298.595 104.22L299.391 104.509L299.904 104.449L300.397 104.217L300.719 104.006L301.054 103.307L301.001 102.55L300.652 101.932L300.343 101.655L299.692 101.419Z" fill="white"/>
<path fill-rule="evenodd" clip-rule="evenodd" d="M47.0068 163.102C46.577 163.235 46.0089 163.83 45.8958 164.267C45.8403 164.481 45.8013 165.23 45.8013 166.081V167.531H47.6096H49.4178V166.022C49.4178 164.239 49.3515 163.958 48.8175 163.479C48.3131 163.027 47.6792 162.895 47.0068 163.102ZM53.1853 163.218C52.9174 163.354 52.6643 163.562 52.5132 163.771L52.2707 164.107L52.2463 165.819L52.2218 167.531H53.9985H55.7752L55.7508 165.819L55.7264 164.107L55.4848 163.768C55.3267 163.547 55.0925 163.355 54.8073 163.215C54.2247 162.927 53.7557 162.928 53.1853 163.218ZM59.8458 163.106C59.4231 163.259 59.1831 163.425 58.9574 163.721C58.6229 164.159 58.5793 164.424 58.5793 166.019V167.531H60.3933H62.2074L62.1814 165.91C62.1538 164.179 62.1215 164.027 61.6841 163.559C61.2691 163.115 60.4083 162.903 59.8458 163.106ZM44.1229 168.868C42.978 169.056 42.2104 169.843 42.0233 171.021C41.8935 171.838 41.9549 190.054 42.0888 190.436C42.3407 191.156 43.0861 191.864 43.8193 192.081C44.3077 192.225 63.6894 192.225 64.1778 192.081C64.9342 191.857 65.6815 191.131 65.9114 190.395C65.991 190.141 66.0131 187.993 66.0131 180.5C66.0131 173.006 65.991 170.859 65.9114 170.604C65.6885 169.891 64.96 169.167 64.2195 168.922C63.8591 168.803 44.833 168.752 44.1229 168.868ZM61.8549 172.453C61.999 172.538 62.1887 172.722 62.2765 172.862C62.4329 173.112 62.4363 173.27 62.4363 180.5C62.4363 187.729 62.4329 187.888 62.2765 188.137C62.1887 188.277 61.999 188.462 61.8549 188.547C61.5985 188.699 61.4352 188.703 53.9985 188.703C46.5619 188.703 46.3986 188.699 46.1422 188.547C45.9981 188.462 45.8084 188.277 45.7206 188.137C45.5642 187.888 45.5608 187.729 45.5608 180.5C45.5608 173.27 45.5642 173.112 45.7206 172.862C45.8084 172.722 45.9981 172.538 46.1422 172.453C46.3986 172.301 46.5619 172.297 53.9985 172.297C61.4352 172.297 61.5985 172.301 61.8549 172.453ZM37.2472 172.629C36.829 172.736 36.2256 173.324 36.0951 173.751C35.8815 174.451 36.0259 175.009 36.5479 175.501C37.0718 175.996 37.3133 176.047 39.1203 176.047H40.658V174.289V172.531L39.111 172.539C38.2601 172.544 37.4214 172.584 37.2472 172.629ZM67.3391 174.289V176.047H68.8768C70.6919 176.047 70.9321 175.996 71.4399 175.502C72.1875 174.775 72.1866 173.803 71.4377 173.072C70.9441 172.59 70.6594 172.531 68.8304 172.531H67.3391V174.289ZM46.8461 180.5V187.453H53.9985H61.151V180.5V173.547H53.9985H46.8461V180.5ZM36.9727 178.95C36.5926 179.133 36.2208 179.569 36.072 180.007C35.8496 180.663 36.193 181.563 36.8189 181.966L37.1499 182.18L38.904 182.203L40.658 182.227V180.504V178.781L38.9904 178.781C37.4442 178.781 37.2974 178.794 36.9727 178.95ZM67.3391 180.5V182.219H68.9898C70.8578 182.219 70.9994 182.185 71.536 181.607C72.303 180.782 72.0155 179.463 70.9538 178.937C70.6711 178.796 70.4789 178.781 68.9898 178.781H67.3391V180.5ZM37.2049 185.055C36.8028 185.18 36.1925 185.784 36.0857 186.164C35.8897 186.861 36.0399 187.42 36.5594 187.928C37.053 188.41 37.3377 188.469 39.1667 188.469H40.658V186.711V184.953L39.0708 184.961C38.1581 184.966 37.3652 185.006 37.2049 185.055ZM67.3391 186.716V188.48L69.0066 188.455C70.7869 188.428 70.944 188.396 71.4254 187.971C72.1806 187.304 72.1259 186.012 71.3149 185.362C70.8686 185.005 70.5612 184.953 68.8768 184.953H67.3391V186.716ZM45.8157 195.09C45.838 196.492 45.8619 196.748 45.9916 196.984C46.3509 197.639 46.8761 197.954 47.6096 197.954C48.3833 197.954 48.9221 197.61 49.2503 196.906C49.3973 196.591 49.4144 196.396 49.416 195.012L49.4178 193.469H47.6038H45.7897L45.8157 195.09ZM52.2463 195.181L52.2707 196.893L52.5132 197.228C52.83 197.666 53.4725 198 53.9985 198C54.5246 198 55.1671 197.666 55.4839 197.228L55.7264 196.893L55.7508 195.181L55.7752 193.469H53.9985H52.2218L52.2463 195.181ZM58.5798 194.973C58.5801 195.831 58.6185 196.611 58.6692 196.789C58.7873 197.204 59.3985 197.798 59.825 197.913C60.5394 198.105 61.117 197.959 61.6392 197.453C62.135 196.973 62.1957 196.697 62.1957 194.918V193.469H60.3875H58.5793L58.5798 194.973Z" fill="white"/>
<path fill-rule="evenodd" clip-rule="evenodd" d="M300.558 149.082C298.766 149.359 297.165 150.194 295.911 151.505C294.534 152.943 293.821 154.604 293.723 156.599C293.586 159.385 294.977 162.048 297.375 163.592C298.555 164.351 299.692 164.737 301.071 164.844C303.625 165.043 305.803 164.254 307.561 162.493C308.953 161.098 309.665 159.581 309.838 157.639C310.07 155.045 309.077 152.63 307.086 150.944C305.802 149.857 304.618 149.32 302.986 149.085C302.201 148.973 301.276 148.971 300.558 149.082ZM294.599 164.989C291.632 165.297 289.576 167.389 288.617 171.077C287.978 173.536 287.814 176.491 288.226 178.107C288.558 179.405 289.651 180.722 290.917 181.349C291.492 181.634 292.314 181.87 292.999 181.947C293.405 181.993 296.503 182.009 302.428 181.995L311.252 181.975L311.81 181.824C313.881 181.266 315.301 179.902 315.818 177.978C316.088 176.976 316.053 174.59 315.742 172.706C315.051 168.516 313.306 166.001 310.546 165.214C309.914 165.035 308.785 164.898 308.451 164.961C308.131 165.021 307.683 165.256 306.673 165.895C305.596 166.575 305.447 166.652 304.641 166.949C303.708 167.293 302.937 167.438 302.043 167.438C301.119 167.438 300.413 167.313 299.481 166.987C298.601 166.678 298.562 166.658 297.188 165.8C296.463 165.348 295.927 165.058 295.714 165.004C295.35 164.911 295.35 164.911 294.599 164.989Z" fill="white"/>
<path d="M101.125 57.1L88.375 52.475V48.025L101.125 43.4V47.65L89.975 51.475V49.025L101.125 52.85V57.1ZM101.503 61.5L109.753 37.95H114.753L106.503 61.5H101.503ZM114.889 57.1V52.85L126.039 49.025V51.475L114.889 47.65V43.4L127.639 48.025V52.475L114.889 57.1Z" fill="white"/>
<path fill-rule="evenodd" clip-rule="evenodd" d="M243.939 45.2704C241.129 44.9862 238.737 45.1679 236.121 45.8641C234.469 46.3039 233.176 46.8265 231.481 47.7398C230.143 48.4607 229.853 48.7181 229.664 49.3512C229.457 50.0461 229.686 50.7794 230.25 51.231C230.492 51.4247 230.62 51.483 230.961 51.5563C231.524 51.6774 231.79 51.6052 232.756 51.0699C235.841 49.3601 238.723 48.614 241.948 48.6907C243.2 48.7205 243.804 48.8015 245.331 49.1436C246.857 49.4857 247.438 49.6705 248.583 50.1779C251.517 51.4787 253.81 53.3834 255.857 56.2224C256.53 57.1554 256.734 57.3302 257.295 57.4557C258.024 57.6187 258.591 57.4093 259.097 56.79C259.336 56.4976 259.409 56.3593 259.471 56.0856C259.513 55.8983 259.524 55.74 259.497 55.7338C259.469 55.7276 259.428 55.593 259.404 55.4348C259.303 54.7389 257.45 52.3103 255.922 50.8712C254.003 49.064 251.793 47.642 249.389 46.6686C247.951 46.0864 245.312 45.4093 243.939 45.2704ZM243.293 51.0139C241.518 50.8205 239.168 51.0039 237.566 51.4606C236.262 51.8328 234.456 52.6246 233.656 53.1745C233.106 53.5532 232.916 53.7926 232.769 54.292C232.665 54.6464 232.66 54.7488 232.73 55.092C232.858 55.7145 233.193 56.1115 233.82 56.3822C234.405 56.6349 234.815 56.5381 236.177 55.8252C238.659 54.5256 241.312 54.1674 244.018 54.7663C246.883 55.4004 249.161 56.9092 250.977 59.3755C251.581 60.1968 251.885 60.4484 252.414 60.5671C253.338 60.774 254.181 60.2596 254.457 59.3215C254.559 58.9737 254.566 58.8622 254.503 58.5698C254.41 58.1339 254.103 57.5996 253.497 56.8188C251.905 54.7701 249.993 53.2704 247.633 52.2203C246.424 51.6821 244.489 51.1443 243.293 51.0139ZM229.642 49.4687C229.596 49.6763 229.587 49.7636 229.623 49.6627C229.659 49.5618 229.697 49.3919 229.708 49.2853C229.718 49.1786 229.689 49.2611 229.642 49.4687ZM242.405 56.7468C240.549 56.604 238.701 56.9857 237.14 57.8341C236.302 58.2895 235.983 58.6445 235.84 59.2826C235.635 60.1988 236.15 61.0334 237.09 61.3091C237.454 61.4157 237.546 61.4203 237.845 61.3464C238.033 61.3002 238.521 61.1031 238.929 60.9085C240.246 60.2819 241.257 60.1363 242.598 60.3806C244.136 60.6608 245.154 61.3115 246.284 62.7351C246.468 62.9662 246.74 63.2543 246.891 63.3754C247.431 63.8117 248.358 63.8008 248.96 63.3508C249.476 62.9657 249.748 62.2278 249.601 61.6137C249.4 60.7745 248.167 59.2958 246.964 58.4514C245.645 57.5257 243.862 56.8589 242.405 56.7468ZM241.539 62.9611C240.747 62.9817 239.788 63.4215 239.302 63.9869C238.244 65.217 238.369 67.1735 239.569 68.2027C241.322 69.7045 243.972 68.8411 244.469 66.6066C244.761 65.2921 244.147 63.9423 242.981 63.3375C242.531 63.1041 241.943 62.9505 241.539 62.9611Z" fill="white"/>
<path fill-rule="evenodd" clip-rule="evenodd" d="M174.035 17.0805C171.034 17.5382 168.383 19.5296 167.025 22.3469C166.788 22.8392 166.752 22.8764 166.553 22.8307C165.914 22.6835 164.75 22.5281 164.294 22.529C163.479 22.5307 162.241 22.745 161.419 23.0264C156.511 24.7079 153.83 30.3131 155.494 35.4119C156.423 38.2589 158.737 40.6263 161.474 41.5303C162.944 42.0157 162.449 42.0006 176.8 41.9998C189.5 41.999 190.014 41.9931 190.734 41.8375C192.134 41.5351 193.483 40.6878 194.457 39.5005C194.979 38.8633 195.638 37.5465 195.851 36.713C196.047 35.9473 196.05 34.1018 195.857 33.3655C195.512 32.0484 195.06 31.1927 194.209 30.2395C193.551 29.503 192.806 28.9474 191.983 28.5779C191.355 28.2963 191.413 28.4939 191.513 26.9758C191.588 25.8566 191.375 24.8149 190.84 23.672C190.149 22.1998 189.197 21.1915 187.822 20.4768C186.874 19.9838 186.332 19.8399 185.21 19.7826C184.21 19.7314 183.481 19.8244 182.737 20.0983L182.296 20.2608L181.893 19.8539C180.332 18.2804 178.612 17.3929 176.504 17.0741C175.834 16.9728 174.722 16.9757 174.035 17.0805Z" fill="white"/>
<path d="M114.788 303.12C113.948 303.12 113.194 303.02 112.528 302.82C111.861 302.62 111.288 302.253 110.808 301.72C110.328 301.187 109.961 300.42 109.708 299.42C109.454 298.42 109.328 297.12 109.328 295.52C109.328 293.973 109.461 292.707 109.728 291.72C109.994 290.733 110.368 289.973 110.848 289.44C111.341 288.893 111.921 288.52 112.588 288.32C113.254 288.107 113.988 288 114.788 288C115.614 288 116.341 288.047 116.968 288.14C117.608 288.22 118.148 288.32 118.588 288.44C119.041 288.56 119.401 288.68 119.668 288.8V291.82C119.414 291.767 119.088 291.713 118.688 291.66C118.288 291.607 117.828 291.567 117.308 291.54C116.801 291.5 116.248 291.48 115.648 291.48C115.194 291.48 114.808 291.527 114.488 291.62C114.181 291.713 113.934 291.9 113.748 292.18C113.561 292.46 113.421 292.873 113.328 293.42C113.248 293.953 113.208 294.667 113.208 295.56C113.208 296.36 113.241 297.027 113.308 297.56C113.374 298.093 113.494 298.513 113.668 298.82C113.841 299.113 114.088 299.327 114.408 299.46C114.741 299.58 115.168 299.64 115.688 299.64C116.701 299.64 117.521 299.627 118.148 299.6C118.788 299.56 119.294 299.513 119.668 299.46V302.48C119.334 302.613 118.941 302.727 118.488 302.82C118.048 302.913 117.528 302.987 116.928 303.04C116.328 303.093 115.614 303.12 114.788 303.12ZM127.27 303.12C126.216 303.12 125.29 303.02 124.49 302.82C123.703 302.607 123.043 302.233 122.51 301.7C121.976 301.167 121.576 300.407 121.31 299.42C121.043 298.42 120.91 297.133 120.91 295.56C120.91 293.987 121.043 292.707 121.31 291.72C121.576 290.72 121.976 289.953 122.51 289.42C123.043 288.887 123.703 288.52 124.49 288.32C125.29 288.107 126.216 288 127.27 288C128.323 288 129.243 288.107 130.03 288.32C130.83 288.52 131.496 288.887 132.03 289.42C132.563 289.953 132.963 290.72 133.23 291.72C133.496 292.707 133.63 293.987 133.63 295.56C133.63 297.133 133.496 298.42 133.23 299.42C132.963 300.407 132.563 301.167 132.03 301.7C131.496 302.233 130.83 302.607 130.03 302.82C129.243 303.02 128.323 303.12 127.27 303.12ZM127.27 299.64C127.776 299.64 128.19 299.58 128.51 299.46C128.83 299.34 129.076 299.133 129.25 298.84C129.436 298.547 129.563 298.133 129.63 297.6C129.71 297.067 129.75 296.387 129.75 295.56C129.75 294.693 129.71 293.993 129.63 293.46C129.563 292.927 129.436 292.52 129.25 292.24C129.076 291.947 128.83 291.747 128.51 291.64C128.19 291.533 127.776 291.48 127.27 291.48C126.776 291.48 126.363 291.533 126.03 291.64C125.71 291.747 125.456 291.947 125.27 292.24C125.096 292.52 124.97 292.927 124.89 293.46C124.823 293.993 124.79 294.693 124.79 295.56C124.79 296.387 124.823 297.067 124.89 297.6C124.97 298.133 125.096 298.547 125.27 298.84C125.456 299.133 125.71 299.34 126.03 299.46C126.363 299.58 126.776 299.64 127.27 299.64ZM134.659 303L136.419 288.14H140.059L143.119 298.58L146.179 288.14H149.779L151.559 303H147.819L146.679 293.44L147.239 293.46L144.899 303H141.259L138.899 293.46L139.519 293.44L138.399 303H134.659ZM153.36 303V288.14H159.88C160.387 288.14 160.907 288.2 161.44 288.32C161.973 288.427 162.46 288.66 162.9 289.02C163.353 289.367 163.713 289.9 163.98 290.62C164.26 291.327 164.4 292.273 164.4 293.46C164.4 294.66 164.267 295.627 164 296.36C163.733 297.08 163.387 297.627 162.96 298C162.533 298.36 162.067 298.607 161.56 298.74C161.067 298.86 160.58 298.92 160.1 298.92C159.847 298.92 159.58 298.907 159.3 298.88C159.033 298.853 158.767 298.82 158.5 298.78C158.247 298.727 158.007 298.68 157.78 298.64C157.567 298.587 157.387 298.547 157.24 298.52V303H153.36ZM157.24 295.44H159.48C159.747 295.44 159.953 295.367 160.1 295.22C160.26 295.073 160.367 294.86 160.42 294.58C160.487 294.287 160.52 293.927 160.52 293.5C160.52 293.087 160.48 292.74 160.4 292.46C160.333 292.18 160.227 291.973 160.08 291.84C159.933 291.693 159.733 291.62 159.48 291.62H157.24V295.44ZM171.836 303.1C171.023 303.1 170.25 303.033 169.516 302.9C168.796 302.767 168.156 302.52 167.596 302.16C167.036 301.8 166.596 301.293 166.276 300.64C165.97 299.987 165.816 299.14 165.816 298.1V288.14H169.696V298.08C169.696 298.427 169.776 298.713 169.936 298.94C170.11 299.167 170.356 299.34 170.676 299.46C170.996 299.567 171.383 299.62 171.836 299.62C172.29 299.62 172.676 299.567 172.996 299.46C173.316 299.34 173.556 299.167 173.716 298.94C173.89 298.713 173.976 298.427 173.976 298.08V288.14H177.856V298.1C177.856 299.14 177.696 299.987 177.376 300.64C177.07 301.293 176.636 301.8 176.076 302.16C175.516 302.52 174.876 302.767 174.156 302.9C173.436 303.033 172.663 303.1 171.836 303.1ZM182.824 303V291.62H179.084V288.14H190.444V291.62H186.704V303H182.824ZM189.86 303L194.26 288.14H199.1L203.5 303H199.48L198.88 300.64H194.42L193.84 303H189.86ZM195.32 297.16H197.98L196.64 291.44L195.32 297.16ZM209.592 303.12C208.752 303.12 207.999 303.02 207.332 302.82C206.666 302.62 206.092 302.253 205.612 301.72C205.132 301.187 204.766 300.42 204.512 299.42C204.259 298.42 204.132 297.12 204.132 295.52C204.132 293.973 204.266 292.707 204.532 291.72C204.799 290.733 205.172 289.973 205.652 289.44C206.146 288.893 206.726 288.52 207.392 288.32C208.059 288.107 208.792 288 209.592 288C210.419 288 211.146 288.047 211.772 288.14C212.412 288.22 212.952 288.32 213.392 288.44C213.846 288.56 214.206 288.68 214.472 288.8V291.82C214.219 291.767 213.892 291.713 213.492 291.66C213.092 291.607 212.632 291.567 212.112 291.54C211.606 291.5 211.052 291.48 210.452 291.48C209.999 291.48 209.612 291.527 209.292 291.62C208.986 291.713 208.739 291.9 208.552 292.18C208.366 292.46 208.226 292.873 208.132 293.42C208.052 293.953 208.012 294.667 208.012 295.56C208.012 296.36 208.046 297.027 208.112 297.56C208.179 298.093 208.299 298.513 208.472 298.82C208.646 299.113 208.892 299.327 209.212 299.46C209.546 299.58 209.972 299.64 210.492 299.64C211.506 299.64 212.326 299.627 212.952 299.6C213.592 299.56 214.099 299.513 214.472 299.46V302.48C214.139 302.613 213.746 302.727 213.292 302.82C212.852 302.913 212.332 302.987 211.732 303.04C211.132 303.093 210.419 303.12 209.592 303.12ZM208.632 307.06V305.48L208.932 305.42C209.159 305.38 209.319 305.313 209.412 305.22C209.519 305.127 209.572 305.013 209.572 304.88C209.572 304.747 209.526 304.62 209.432 304.5C209.339 304.393 209.172 304.307 208.932 304.24L210.432 303.94C210.832 303.94 211.206 304.047 211.552 304.26C211.899 304.473 212.072 304.833 212.072 305.34C212.072 305.873 211.886 306.293 211.512 306.6C211.152 306.907 210.586 307.06 209.812 307.06H208.632ZM208.932 304.24L209.932 302.6H211.652L210.652 304.24H208.932ZM215.29 303L219.69 288.14H224.53L228.93 303H224.91L224.31 300.64H219.85L219.27 303H215.29ZM220.75 297.16H223.41L222.07 291.44L220.75 297.16ZM218.11 287.46C218.163 286.74 218.29 286.173 218.49 285.76C218.69 285.333 218.95 285.027 219.27 284.84C219.59 284.653 219.943 284.56 220.33 284.56C220.676 284.56 220.976 284.6 221.23 284.68C221.483 284.747 221.71 284.833 221.91 284.94C222.123 285.033 222.323 285.12 222.51 285.2C222.696 285.267 222.903 285.3 223.13 285.3C223.33 285.3 223.476 285.227 223.57 285.08C223.676 284.92 223.736 284.7 223.75 284.42H225.67C225.616 285.447 225.403 286.207 225.03 286.7C224.67 287.18 224.163 287.42 223.51 287.42C223.176 287.42 222.876 287.387 222.61 287.32C222.343 287.24 222.096 287.153 221.87 287.06C221.656 286.953 221.45 286.867 221.25 286.8C221.063 286.72 220.876 286.68 220.69 286.68C220.476 286.68 220.316 286.76 220.21 286.92C220.116 287.067 220.056 287.247 220.03 287.46H218.11ZM235.922 303.12C234.869 303.12 233.942 303.02 233.142 302.82C232.355 302.607 231.695 302.233 231.162 301.7C230.629 301.167 230.229 300.407 229.962 299.42C229.695 298.42 229.562 297.133 229.562 295.56C229.562 293.987 229.695 292.707 229.962 291.72C230.229 290.72 230.629 289.953 231.162 289.42C231.695 288.887 232.355 288.52 233.142 288.32C233.942 288.107 234.869 288 235.922 288C236.975 288 237.895 288.107 238.682 288.32C239.482 288.52 240.149 288.887 240.682 289.42C241.215 289.953 241.615 290.72 241.882 291.72C242.149 292.707 242.282 293.987 242.282 295.56C242.282 297.133 242.149 298.42 241.882 299.42C241.615 300.407 241.215 301.167 240.682 301.7C240.149 302.233 239.482 302.607 238.682 302.82C237.895 303.02 236.975 303.12 235.922 303.12ZM235.922 299.64C236.429 299.64 236.842 299.58 237.162 299.46C237.482 299.34 237.729 299.133 237.902 298.84C238.089 298.547 238.215 298.133 238.282 297.6C238.362 297.067 238.402 296.387 238.402 295.56C238.402 294.693 238.362 293.993 238.282 293.46C238.215 292.927 238.089 292.52 237.902 292.24C237.729 291.947 237.482 291.747 237.162 291.64C236.842 291.533 236.429 291.48 235.922 291.48C235.429 291.48 235.015 291.533 234.682 291.64C234.362 291.747 234.109 291.947 233.922 292.24C233.749 292.52 233.622 292.927 233.542 293.46C233.475 293.993 233.442 294.693 233.442 295.56C233.442 296.387 233.475 297.067 233.542 297.6C233.622 298.133 233.749 298.547 233.922 298.84C234.109 299.133 234.362 299.34 234.682 299.46C235.015 299.58 235.429 299.64 235.922 299.64Z" fill="#00032D"/>
<path d="M44.2408 277L53.0408 247.28H62.7208L71.5208 277H63.4808L62.2808 272.28H53.3608L52.2008 277H44.2408ZM55.1608 265.32H60.4808L57.8008 253.88L55.1608 265.32ZM83.7055 277.24C82.0255 277.24 80.5188 277.04 79.1855 276.64C77.8522 276.24 76.7055 275.507 75.7455 274.44C74.7855 273.373 74.0522 271.84 73.5455 269.84C73.0388 267.84 72.7855 265.24 72.7855 262.04C72.7855 258.947 73.0522 256.413 73.5855 254.44C74.1188 252.467 74.8655 250.947 75.8255 249.88C76.8122 248.787 77.9722 248.04 79.3055 247.64C80.6388 247.213 82.1055 247 83.7055 247C85.3588 247 86.8122 247.093 88.0655 247.28C89.3455 247.44 90.4255 247.64 91.3055 247.88C92.2122 248.12 92.9322 248.36 93.4655 248.6V254.64C92.9588 254.533 92.3055 254.427 91.5055 254.32C90.7055 254.213 89.7855 254.133 88.7455 254.08C87.7322 254 86.6255 253.96 85.4255 253.96C84.5188 253.96 83.7455 254.053 83.1055 254.24C82.4922 254.427 81.9988 254.8 81.6255 255.36C81.2522 255.92 80.9722 256.747 80.7855 257.84C80.6255 258.907 80.5455 260.333 80.5455 262.12C80.5455 263.72 80.6122 265.053 80.7455 266.12C80.8788 267.187 81.1188 268.027 81.4655 268.64C81.8122 269.227 82.3055 269.653 82.9455 269.92C83.6122 270.16 84.4655 270.28 85.5055 270.28C87.5322 270.28 89.1722 270.253 90.4255 270.2C91.7055 270.12 92.7188 270.027 93.4655 269.92V275.96C92.7988 276.227 92.0122 276.453 91.1055 276.64C90.2255 276.827 89.1855 276.973 87.9855 277.08C86.7855 277.187 85.3588 277.24 83.7055 277.24ZM95.1002 277L103.9 247.28H113.58L122.38 277H114.34L113.14 272.28H104.22L103.06 277H95.1002ZM106.02 265.32H111.34L108.66 253.88L106.02 265.32ZM132.515 277C130.729 277 129.262 276.733 128.115 276.2C126.969 275.667 126.129 274.827 125.595 273.68C125.062 272.533 124.795 271.067 124.795 269.28V247.28H132.555V267.96C132.555 268.413 132.622 268.8 132.755 269.12C132.915 269.44 133.155 269.68 133.475 269.84C133.795 269.973 134.182 270.04 134.635 270.04H143.275V277H132.515ZM158.045 277.24C155.938 277.24 154.085 277.04 152.485 276.64C150.911 276.213 149.591 275.467 148.525 274.4C147.458 273.333 146.658 271.813 146.125 269.84C145.591 267.84 145.325 265.267 145.325 262.12C145.325 258.973 145.591 256.413 146.125 254.44C146.658 252.44 147.458 250.907 148.525 249.84C149.591 248.773 150.911 248.04 152.485 247.64C154.085 247.213 155.938 247 158.045 247C160.151 247 161.991 247.213 163.565 247.64C165.165 248.04 166.498 248.773 167.565 249.84C168.631 250.907 169.431 252.44 169.965 254.44C170.498 256.413 170.765 258.973 170.765 262.12C170.765 265.267 170.498 267.84 169.965 269.84C169.431 271.813 168.631 273.333 167.565 274.4C166.498 275.467 165.165 276.213 163.565 276.64C161.991 277.04 160.151 277.24 158.045 277.24ZM158.045 270.28C159.058 270.28 159.885 270.16 160.525 269.92C161.165 269.68 161.658 269.267 162.005 268.68C162.378 268.093 162.631 267.267 162.765 266.2C162.925 265.133 163.005 263.773 163.005 262.12C163.005 260.387 162.925 258.987 162.765 257.92C162.631 256.853 162.378 256.04 162.005 255.48C161.658 254.893 161.165 254.493 160.525 254.28C159.885 254.067 159.058 253.96 158.045 253.96C157.058 253.96 156.231 254.067 155.565 254.28C154.925 254.493 154.418 254.893 154.045 255.48C153.698 256.04 153.445 256.853 153.285 257.92C153.151 258.987 153.085 260.387 153.085 262.12C153.085 263.773 153.151 265.133 153.285 266.2C153.445 267.267 153.698 268.093 154.045 268.68C154.418 269.267 154.925 269.68 155.565 269.92C156.231 270.16 157.058 270.28 158.045 270.28ZM186.045 277.2C184.418 277.2 182.872 277.067 181.405 276.8C179.965 276.533 178.685 276.04 177.565 275.32C176.445 274.6 175.565 273.587 174.925 272.28C174.312 270.973 174.005 269.28 174.005 267.2V247.28H181.765V267.16C181.765 267.853 181.925 268.427 182.245 268.88C182.592 269.333 183.085 269.68 183.725 269.92C184.365 270.133 185.138 270.24 186.045 270.24C186.952 270.24 187.725 270.133 188.365 269.92C189.005 269.68 189.485 269.333 189.805 268.88C190.152 268.427 190.325 267.853 190.325 267.16V247.28H198.085V267.2C198.085 269.28 197.765 270.973 197.125 272.28C196.512 273.587 195.645 274.6 194.525 275.32C193.405 276.04 192.125 276.533 190.685 276.8C189.245 277.067 187.698 277.2 186.045 277.2ZM202.1 277V247.28H214.78C216.087 247.28 217.287 247.44 218.38 247.76C219.474 248.08 220.42 248.627 221.22 249.4C222.02 250.147 222.634 251.16 223.06 252.44C223.514 253.72 223.74 255.333 223.74 257.28C223.74 258.507 223.634 259.573 223.42 260.48C223.207 261.387 222.914 262.16 222.54 262.8C222.194 263.413 221.767 263.933 221.26 264.36C220.78 264.787 220.26 265.16 219.7 265.48L224.86 277H216.98L212.82 266.76C212.58 266.76 212.327 266.76 212.06 266.76C211.82 266.76 211.58 266.76 211.34 266.76C211.1 266.76 210.847 266.76 210.58 266.76C210.34 266.76 210.1 266.76 209.86 266.76V277H202.1ZM209.86 260.6H213.38C213.807 260.6 214.18 260.547 214.5 260.44C214.82 260.307 215.087 260.107 215.3 259.84C215.54 259.573 215.714 259.24 215.82 258.84C215.927 258.413 215.98 257.907 215.98 257.32C215.98 256.733 215.927 256.24 215.82 255.84C215.714 255.44 215.54 255.133 215.3 254.92C215.087 254.68 214.82 254.507 214.5 254.4C214.18 254.293 213.807 254.24 213.38 254.24H209.86V260.6ZM225.686 277L234.486 247.28H244.166L252.966 277H244.926L243.726 272.28H234.806L233.646 277H225.686ZM236.606 265.32H241.926L239.246 253.88L236.606 265.32ZM255.381 277V247.28H268.501C270.661 247.28 272.435 247.667 273.821 248.44C275.208 249.187 276.301 250.24 277.101 251.6C277.901 252.96 278.461 254.547 278.781 256.36C279.101 258.147 279.261 260.08 279.261 262.16C279.261 265.653 278.861 268.493 278.061 270.68C277.288 272.84 276.101 274.44 274.501 275.48C272.928 276.493 270.928 277 268.501 277H255.381ZM263.141 270.04H267.701C268.688 270.04 269.448 269.773 269.981 269.24C270.541 268.707 270.928 267.867 271.141 266.72C271.381 265.547 271.501 264.027 271.501 262.16C271.501 260.4 271.408 259 271.221 257.96C271.061 256.893 270.808 256.093 270.461 255.56C270.141 255.027 269.741 254.68 269.261 254.52C268.808 254.333 268.288 254.24 267.701 254.24H263.141V270.04ZM280.53 277L289.33 247.28H299.01L307.81 277H299.77L298.57 272.28H289.65L288.49 277H280.53ZM291.45 265.32H296.77L294.09 253.88L291.45 265.32Z" fill="#00032D"/>
</svg>
