<svg id="Camada_1" data-name="Camada 1" xmlns="http://www.w3.org/2000/svg" viewBox="0 0 1009.59 1009.59"><defs><style>.cls-1{fill:#e21423;stroke-width:24px;}.cls-1,.cls-2,.cls-3,.cls-4{stroke:#381460;stroke-miterlimit:10;}.cls-2,.cls-4{fill:none;}.cls-2{stroke-width:40px;}.cls-3{fill:#381460;stroke-width:22px;}.cls-4{stroke-width:30px;}</style></defs><path class="cls-1" d="M987.64,241.07a314.27,314.27,0,0,0-187.56,61.59,8.52,8.52,0,0,0-.93,12.91l.13.13a9.4,9.4,0,0,0,12.24.88,290.87,290.87,0,0,1,175.32-58.36c160.59,0,290.77,129.14,290.77,288.44S1147.43,835.1,986.84,835.1,696.06,706,696.06,546.66A285.37,285.37,0,0,1,750.5,378.71a8.09,8.09,0,0,0-4.18-12.47l-.11,0-.08,0a12.06,12.06,0,0,0-13.33,4.43,302.07,302.07,0,0,0-57.59,177.62c0,169.64,139.88,307.17,312.43,307.17s312.42-137.53,312.42-307.17S1160.19,241.07,987.64,241.07Z" transform="translate(-487.2 -37.12)"/><path class="cls-2" d="M1358.91,225l-100.56-20.5a8,8,0,0,1-3.89-13.66l34.31-32.34A485.14,485.14,0,0,0,751,121.19,131.1,131.1,0,0,1,571.28,300.87,485,485,0,0,0,626.15,860a8,8,0,0,1,8.57-3.91l85.75,17.56a8,8,0,0,1,3.84,13.7l-35.46,32.9a485.11,485.11,0,0,0,541.22,44.06,131.09,131.09,0,0,1,181.6-179.55A485,485,0,0,0,1358.91,225Z" transform="translate(-487.2 -37.12)"/><path class="cls-3" d="M1078,720.94l-35.23-24.81h-104l-35.23,24.81c-15.16,10.68-7.61,34.53,10.94,34.53H1067C1085.55,755.47,1093.11,731.62,1078,720.94Z" transform="translate(-487.2 -37.12)"/><line class="cls-4" x1="309.51" y1="419.7" x2="686.87" y2="419.7"/><line class="cls-4" x1="309.51" y1="607.05" x2="686.87" y2="607.05"/><ellipse class="cls-4" cx="853.11" cy="841.58" rx="55.24" ry="65.88"/><path class="cls-4" d="M1235,961.26s28.43-47.26,57-50.48" transform="translate(-487.2 -37.12)"/><path class="cls-4" d="M1445,976.31s-20.5-59.26-61.52-56.55" transform="translate(-487.2 -37.12)"/><ellipse class="cls-4" cx="151.28" cy="138.07" rx="55.24" ry="65.88"/><path class="cls-4" d="M533.19,257.75s28.42-47.26,57-50.48" transform="translate(-487.2 -37.12)"/><path class="cls-4" d="M743.21,272.8s-20.5-59.26-61.53-56.55" transform="translate(-487.2 -37.12)"/><rect class="cls-4" x="309.51" y="362.55" width="377.36" height="296.46" rx="9"/><circle class="cls-2" cx="151.08" cy="151.08" r="131.08"/><circle class="cls-2" cx="854.52" cy="858.52" r="131.08"/><path class="cls-2" d="M1320.87,128.28l-66.41,62.6a8,8,0,0,0,3.89,13.66l103,21a8,8,0,0,0,8.93-11l-36.61-83.59A8,8,0,0,0,1320.87,128.28Z" transform="translate(-487.2 -37.12)"/><path class="cls-2" d="M625.18,865l11.1,86.83a8,8,0,0,0,13.38,4.85l74.65-69.27a8,8,0,0,0-3.84-13.7L634.72,856.1A8,8,0,0,0,625.18,865Z" transform="translate(-487.2 -37.12)"/></svg>