<svg width="75" height="58" viewBox="0 0 75 58" fill="none" xmlns="http://www.w3.org/2000/svg">
<path fill-rule="evenodd" clip-rule="evenodd" d="M0 37.8488C0 40.7662 1.15893 43.5641 3.22183 45.627C5.28473 47.6899 8.08262 48.8488 11 48.8488H12.0956C13.4464 54.296 15.356 57.2 18.4976 57.2C21.1508 57.2 25.1812 54.472 31.4336 48.8488H63.8C66.7174 48.8488 69.5153 47.6899 71.5782 45.627C73.6411 43.5641 74.8 40.7662 74.8 37.8488V11C74.8 8.08262 73.6411 5.28473 71.5782 3.22183C69.5153 1.15893 66.7174 0 63.8 0H11C8.08262 0 5.28473 1.15893 3.22183 3.22183C1.15893 5.28473 0 8.08262 0 11V37.8488ZM4.4 37.8488V11C4.4 9.24957 5.09536 7.57083 6.3331 6.33309C7.57084 5.09535 9.24957 4.4 11 4.4H63.8C65.5504 4.4 67.2292 5.09535 68.4669 6.33309C69.7046 7.57083 70.4 9.24957 70.4 11V37.8488C70.4 39.5992 69.7046 41.278 68.4669 42.5157C67.2292 43.7534 65.5504 44.4488 63.8 44.4488H29.7308L29.1016 45.0208C23.4696 50.1512 19.624 52.8 18.4976 52.8C18.0928 52.8 16.9576 50.7628 16.0028 46.2L15.6376 44.4488H11C9.24957 44.4488 7.57084 43.7534 6.3331 42.5157C5.09536 41.278 4.4 39.5992 4.4 37.8488Z" fill="white"/>
<path d="M24.2008 28.6C26.6308 28.6 28.6008 26.63 28.6008 24.2C28.6008 21.7699 26.6308 19.8 24.2008 19.8C21.7707 19.8 19.8008 21.7699 19.8008 24.2C19.8008 26.63 21.7707 28.6 24.2008 28.6Z" fill="white"/>
<path d="M37.4 28.6C39.8301 28.6 41.8 26.63 41.8 24.2C41.8 21.7699 39.8301 19.8 37.4 19.8C34.9699 19.8 33 21.7699 33 24.2C33 26.63 34.9699 28.6 37.4 28.6Z" fill="white"/>
<path d="M50.5992 28.6C53.0293 28.6 54.9992 26.63 54.9992 24.2C54.9992 21.7699 53.0293 19.8 50.5992 19.8C48.1692 19.8 46.1992 21.7699 46.1992 24.2C46.1992 26.63 48.1692 28.6 50.5992 28.6Z" fill="white"/>
</svg>
