<svg width="20" height="20" viewBox="0 0 20 20" fill="none" xmlns="http://www.w3.org/2000/svg">
<path d="M13.2083 0.749756H6.70833C3.41764 0.749756 0.75 3.41739 0.75 6.70809V13.2081C0.75 16.4988 3.41764 19.1664 6.70833 19.1664H13.2083C16.499 19.1664 19.1667 16.4988 19.1667 13.2081V6.70809C19.1667 3.41739 16.499 0.749756 13.2083 0.749756Z" stroke="white" stroke-width="1.5" stroke-linecap="round" stroke-linejoin="round"/>
<path d="M9.96119 13.8645C12.1187 13.8645 13.8677 12.1155 13.8677 9.95801C13.8677 7.80051 12.1187 6.05151 9.96119 6.05151C7.80369 6.05151 6.05469 7.80051 6.05469 9.95801C6.05469 12.1155 7.80369 13.8645 9.96119 13.8645Z" stroke="white" stroke-width="1.5" stroke-linecap="round" stroke-linejoin="round"/>
<path d="M15.2568 4.04053C15.5968 4.04073 15.8721 4.31675 15.8721 4.65674C15.8719 4.99655 15.5967 5.27177 15.2568 5.27197C14.9168 5.27197 14.6408 4.99668 14.6406 4.65674C14.6406 4.31662 14.9167 4.04053 15.2568 4.04053Z" fill="black" stroke="white"/>
</svg>
