<svg width="1440" height="478" viewBox="0 0 1440 478" fill="none" xmlns="http://www.w3.org/2000/svg">
<g opacity="0.9">
<path d="M92.2655 346.101C92.2655 353.548 86.2292 359.584 78.7831 359.584C71.337 359.584 65.3008 353.548 65.3008 346.101C65.3008 338.655 71.337 332.619 78.7831 332.619C86.2292 332.619 92.2655 338.655 92.2655 346.101ZM69.0927 346.101C69.0927 351.453 73.4313 355.792 78.7831 355.792C84.135 355.792 88.4735 351.453 88.4735 346.101C88.4735 340.75 84.135 336.411 78.7831 336.411C73.4313 336.411 69.0927 340.75 69.0927 346.101Z" fill="#5AACF3"/>
<path d="M73.1209 357.771C73.1209 365.218 67.0847 371.254 59.6386 371.254C52.1925 371.254 46.1562 365.218 46.1562 357.771C46.1562 350.325 52.1925 344.289 59.6386 344.289C67.0847 344.289 73.1209 350.325 73.1209 357.771ZM49.9482 357.771C49.9482 363.123 54.2867 367.462 59.6386 367.462C64.9904 367.462 69.329 363.123 69.329 357.771C69.329 352.42 64.9904 348.081 59.6386 348.081C54.2867 348.081 49.9482 352.42 49.9482 357.771Z" fill="#5AACF3"/>
<path d="M49.66 370.805C49.66 378.251 43.6238 384.287 36.1777 384.287C28.7316 384.287 22.6953 378.251 22.6953 370.805C22.6953 363.359 28.7316 357.322 36.1777 357.322C43.6238 357.322 49.66 363.359 49.66 370.805ZM26.4873 370.805C26.4873 376.156 30.8258 380.495 36.1777 380.495C41.5295 380.495 45.868 376.156 45.868 370.805C45.868 365.453 41.5295 361.114 36.1777 361.114C30.8258 361.114 26.4873 365.453 26.4873 370.805Z" fill="#5AACF3"/>
<path d="M26.9647 364.221C26.9647 371.667 20.9284 377.703 13.4823 377.703C6.03625 377.703 0 371.667 0 364.221C0 356.775 6.03625 350.738 13.4823 350.738C20.9284 350.738 26.9647 356.775 26.9647 364.221ZM3.79197 364.221C3.79197 369.572 8.1305 373.911 13.4823 373.911C18.8342 373.911 23.1727 369.572 23.1727 364.221C23.1727 358.869 18.8342 354.53 13.4823 354.53C8.1305 354.53 3.79197 358.869 3.79197 364.221Z" fill="#5AACF3"/>
<ellipse cx="1031.99" cy="327.827" rx="4.77641" ry="4.77624" fill="#5AACF3"/>
<ellipse cx="1031.99" cy="355.091" rx="4.77641" ry="4.77624" fill="#5AACF3"/>
<ellipse cx="1031.99" cy="382.358" rx="4.77641" ry="4.77624" fill="#5AACF3"/>
<ellipse cx="995.589" cy="382.358" rx="4.77641" ry="4.77624" fill="#5AACF3"/>
<ellipse cx="995.589" cy="355.091" rx="4.77641" ry="4.77624" fill="#5AACF3"/>
<ellipse cx="995.589" cy="327.827" rx="4.77641" ry="4.77624" fill="#5AACF3"/>
<ellipse cx="959.171" cy="327.827" rx="4.77641" ry="4.77624" fill="#5AACF3"/>
<ellipse cx="959.171" cy="355.091" rx="4.77641" ry="4.77624" fill="#5AACF3"/>
<ellipse cx="922.769" cy="355.091" rx="4.77641" ry="4.77624" fill="#5AACF3"/>
<ellipse cx="922.769" cy="382.358" rx="4.77641" ry="4.77624" fill="#5AACF3"/>
<ellipse cx="959.171" cy="382.358" rx="4.77641" ry="4.77624" fill="#5AACF3"/>
<ellipse cx="959.171" cy="409.626" rx="4.77641" ry="4.77624" fill="#5AACF3"/>
<ellipse cx="922.769" cy="409.626" rx="4.77641" ry="4.77624" fill="#5AACF3"/>
<ellipse cx="995.589" cy="409.626" rx="4.77641" ry="4.77624" fill="#5AACF3"/>
<rect x="1226.74" y="272.781" width="105.8" height="101.294" rx="7.72372" stroke="#5AACF3" stroke-width="3.86186"/>
<path d="M1323.53 425.579V397.465H1282.33V425.579C1282.33 426.645 1281.46 427.51 1280.4 427.51C1279.33 427.51 1278.47 426.645 1278.47 425.579V397.465H1236.51V425.579C1236.51 426.645 1235.65 427.51 1234.58 427.51C1233.51 427.51 1232.65 426.645 1232.65 425.579V397.465H1216.44C1210.04 397.465 1204.86 392.278 1204.86 385.88V368.923H1180.5C1179.43 368.923 1178.57 368.059 1178.57 366.992C1178.57 365.926 1179.43 365.062 1180.5 365.062H1204.86V334.372H1180.5C1179.43 334.372 1178.57 333.508 1178.57 332.441C1178.57 331.375 1179.43 330.51 1180.5 330.51H1204.86V289.306H1180.5C1179.43 289.306 1178.57 288.44 1178.57 287.374C1178.57 286.308 1179.43 285.443 1180.5 285.443H1204.86V259.474C1204.86 253.075 1210.04 247.888 1216.44 247.888H1232.65V220.525C1232.65 219.459 1233.51 218.595 1234.58 218.595C1235.65 218.595 1236.51 219.459 1236.51 220.525V247.888H1278.47V220.525C1278.47 219.459 1279.33 218.595 1280.4 218.595C1281.46 218.595 1282.33 219.459 1282.33 220.525V247.888H1323.53V220.525C1323.53 219.459 1324.4 218.595 1325.46 218.595C1326.53 218.595 1327.4 219.459 1327.4 220.525V247.888H1342.85C1349.25 247.888 1354.44 253.075 1354.44 259.474V276.43H1379.54C1380.61 276.43 1381.48 277.295 1381.48 278.361C1381.48 279.427 1380.61 280.292 1379.54 280.292H1354.44V321.497H1379.54C1380.61 321.497 1381.48 322.361 1381.48 323.428C1381.48 324.494 1380.61 325.358 1379.54 325.358H1354.44V366.563H1379.54C1380.61 366.564 1381.48 367.428 1381.48 368.494C1381.48 369.56 1380.61 370.425 1379.54 370.425H1354.44V385.88C1354.44 392.278 1349.25 397.465 1342.85 397.465H1327.4V425.579C1327.4 426.645 1326.53 427.51 1325.46 427.51C1324.4 427.51 1323.53 426.645 1323.53 425.579Z" stroke="#5AACF3" stroke-width="3.86186" stroke-linecap="round"/>
<path d="M1251.06 353.729H1243.57L1265.24 294.732H1272.61L1294.27 353.729H1286.78L1269.15 304.066H1268.69L1251.06 353.729ZM1253.83 330.683H1284.02V337.021H1253.83V330.683Z" fill="#5AACF3"/>
<path d="M1310.61 294.732V353.729H1303.46V294.732H1310.61Z" fill="#5AACF3"/>
<path d="M338.566 1.86914C418.548 7.67717 466.892 116.262 391.887 223.332" stroke="#5AACF3" stroke-width="3.75"/>
<path d="M391.89 223.332C263.267 402.002 630.398 586.823 820.59 392.522" stroke="#5AACF3" stroke-width="3.75"/>
<path d="M820.586 392.522C907.12 305.794 986.233 37.9799 1131.97 1.86914" stroke="#5AACF3" stroke-width="3.75"/>
<path d="M1188.04 144.727L1212.21 160.888L1188.04 179.07" stroke="#5AACF3" stroke-width="3.75"/>
<path d="M1118 144.727L1093.83 161.141L1118 177.302" stroke="#5AACF3" stroke-width="3.75"/>
<path d="M1170.97 133.869L1138.27 187.404" stroke="#5AACF3" stroke-width="3.75"/>
<path d="M1232.41 54.3789V70.9192M1232.41 87.4594V70.9192M1232.41 70.9192H1251.25M1232.41 70.9192H1212.15" stroke="#5AACF3" stroke-width="3.75"/>
<circle cx="1432.51" cy="30.3886" r="7.49019" fill="#5AACF3"/>
<path d="M132.387 36.0547H147.317" stroke="#5AACF3" stroke-width="3.75"/>
<path d="M154.43 53.4763L154.785 42.6191" stroke="#5AACF3" stroke-width="3.75"/>
<path d="M178.246 36.5586H162.605" stroke="#5AACF3" stroke-width="3.75"/>
<path d="M154.434 17.6191V29.7402" stroke="#5AACF3" stroke-width="3.75"/>
<path d="M67.8319 141.607C67.8319 146.571 63.8078 150.596 58.8437 150.596C53.8796 150.596 49.8555 146.571 49.8555 141.607C49.8555 136.643 53.8796 132.619 58.8437 132.619C63.8078 132.619 67.8319 136.643 67.8319 141.607ZM52.3834 141.607C52.3834 145.175 55.2758 148.068 58.8437 148.068C62.4116 148.068 65.304 145.175 65.304 141.607C65.304 138.039 62.4116 135.147 58.8437 135.147C55.2758 135.147 52.3834 138.039 52.3834 141.607Z" fill="#5AACF3"/>
<path d="M859.353 71.0048L867.481 56.2527L858.75 44.5112L872.298 31.5654L883.438 40.5974L897.588 34.275V20.125H918.662V34.275L931.307 40.5974L943.349 31.5654L955.994 45.1133L948.166 56.2527L955.994 71.0048H970.144V95.9932H955.994L948.166 113.154L957.499 125.196L943.048 138.443L931.608 130.917L918.662 136.938L916.555 150.185H898.19L896.685 136.938L884.04 130.917L872.298 138.443L859.353 126.1L866.578 113.154L858.148 95.9932H845.805V71.0048H859.353Z" stroke="#5AACF3" stroke-width="3.75"/>
<mask id="path-36-inside-1_4660_8784" fill="white">
<path d="M934.914 85.1563C934.914 100.121 922.783 112.252 907.818 112.252C892.854 112.252 880.723 100.121 880.723 85.1563C880.723 70.1917 892.854 58.0605 907.818 58.0605C922.783 58.0605 934.914 70.1917 934.914 85.1563ZM885.286 85.1563C885.286 97.6005 895.374 107.689 907.818 107.689C920.263 107.689 930.351 97.6005 930.351 85.1563C930.351 72.7121 920.263 62.6241 907.818 62.6241C895.374 62.6241 885.286 72.7121 885.286 85.1563Z"/>
</mask>
<path d="M934.914 85.1563C934.914 100.121 922.783 112.252 907.818 112.252C892.854 112.252 880.723 100.121 880.723 85.1563C880.723 70.1917 892.854 58.0605 907.818 58.0605C922.783 58.0605 934.914 70.1917 934.914 85.1563ZM885.286 85.1563C885.286 97.6005 895.374 107.689 907.818 107.689C920.263 107.689 930.351 97.6005 930.351 85.1563C930.351 72.7121 920.263 62.6241 907.818 62.6241C895.374 62.6241 885.286 72.7121 885.286 85.1563Z" fill="#5AACF3" stroke="#5AACF3" stroke-width="1.5" mask="url(#path-36-inside-1_4660_8784)"/>
</g>
</svg>
