<?xml version="1.0" encoding="UTF-8"?>
<svg width="153.26mm" height="44.605mm" version="1.1" viewBox="0 0 153.26 44.605" xmlns="http://www.w3.org/2000/svg">
 <g transform="translate(-44.985 -118.95)" fill="#4b0181">
  <g transform="matrix(.26458 0 0 .26458 8.4718 49.048)" style="shape-inside:url(#rect363);white-space:pre" aria-label="ACALOURADA VIRTUAL">
   <path transform="translate(138 264.21)" d="m166.42 55.201c-2.3644 0-4.5421 0.46706-6.5332 1.4004-1.96 0.90223-3.6725 2.1477-5.1348 3.7344-1.4311 1.5556-2.5662 3.343-3.4062 5.3652-0.80889 1.9911-1.2129 4.0919-1.2129 6.3008 0 2.1156 0.38823 4.1848 1.166 6.207 0.77778 1.9911 1.8676 3.7943 3.2676 5.4121 1.4311 1.5867 3.1259 2.8479 5.0859 3.7812 1.9911 0.93333 4.2003 1.4004 6.627 1.4004 2.3333 0 4.4794-0.4513 6.4394-1.3535 1.9911-0.90222 3.7037-2.1319 5.1348-3.6875 1.4622-1.5867 2.5974-3.3761 3.4062-5.3672 0.80889-2.0222 1.2129-4.121 1.2129-6.2988 0-2.1156-0.38824-4.169-1.166-6.1602s-1.8676-3.7963-3.2676-5.4141c-1.4-1.6178-3.0948-2.9086-5.0859-3.873-1.96-0.96445-4.1376-1.4473-6.5332-1.4473zm-88 0.04687c-2.5822 0-4.886 0.48282-6.9082 1.4473-2.0222 0.93333-3.7328 2.2084-5.1328 3.8262-1.4 1.5867-2.474 3.3603-3.2207 5.3203-0.71555 1.9289-1.0723 3.9036-1.0723 5.9258 0 2.0844 0.38824 4.1537 1.166 6.207 0.80889 2.0222 1.9145 3.8589 3.3145 5.5078 1.4311 1.6178 3.1259 2.9244 5.0859 3.9199 1.96 0.96445 4.1219 1.4453 6.4863 1.4453 1.8044 0 3.6254-0.2956 5.4609-0.88672 1.8356-0.59111 3.4831-1.4622 4.9453-2.6133 1.4933-1.1511 2.5674-2.5503 3.2207-4.1992l-5.2734-3.0332c-0.49778 1.1822-1.1974 2.1459-2.0996 2.8926-0.90223 0.74667-1.8817 1.2925-2.9395 1.6348-1.0578 0.34222-2.1003 0.51172-3.127 0.51172-1.4311 0-2.7535-0.29561-3.9668-0.88672-1.1822-0.62223-2.209-1.446-3.0801-2.4727-0.84-1.0578-1.4943-2.256-1.9609-3.5938-0.46667-1.3689-0.69922-2.7839-0.69922-4.2461 0-1.3067 0.18721-2.6132 0.56055-3.9199 0.40445-1.3067 1.0114-2.4891 1.8203-3.5469 0.80889-1.0578 1.8041-1.9131 2.9863-2.5664 1.2133-0.65333 2.6283-0.98047 4.2461-0.98047 0.99556 0 2.0065 0.15569 3.0332 0.4668 1.0267 0.28 1.9904 0.79435 2.8926 1.541 0.90223 0.71556 1.6334 1.695 2.1934 2.9395l4.9473-3.4062c-1.0889-2.1467-2.7522-3.8888-4.9922-5.2266-2.2089-1.3378-4.8378-2.0078-7.8867-2.0078zm-35.49 0.1875-12.227 33.133h6.627l3.0332-8.2598h11.572l3.0801 8.2598h6.627l-12.18-33.133zm61.705 0-12.227 33.133h6.627l3.0332-8.2598h11.574l3.0801 8.2598h6.627l-12.182-33.133zm22.348 0v33.133h23.334v-5.6465h-16.893v-27.486zm59.963 0v16.893c0 2.1467 0.26602 4.2159 0.79492 6.207 0.52888 1.96 1.3526 3.7179 2.4726 5.2734 1.1511 1.5556 2.6449 2.7853 4.4805 3.6875 1.8667 0.87111 4.1212 1.3066 6.7656 1.3066 2.5511 0 4.7445-0.42172 6.5801-1.2617 1.8356-0.87111 3.3294-2.0516 4.4805-3.5449 1.1822-1.5244 2.0375-3.2823 2.5664-5.2734 0.56-1.9911 0.83984-4.1234 0.83984-6.3945v-16.893h-6.3926v16.893c0 1.3378-0.13993 2.6601-0.41993 3.9668-0.28 1.2756-0.73129 2.4265-1.3535 3.4531-0.59111 1.0267-1.4149 1.8524-2.4727 2.4746-1.0267 0.59111-2.3194 0.88672-3.875 0.88672-1.5244 0-2.7995-0.2956-3.8262-0.88672-1.0267-0.59111-1.8504-1.4011-2.4727-2.4277-0.62222-1.0267-1.0735-2.1776-1.3535-3.4531-0.24889-1.3067-0.37305-2.6448-0.37305-4.0137v-16.893zm35.467 0v33.133h6.4414v-11.107h6.4394l6.8125 11.107h7.0938l-7.5606-12.459c1.2133-0.52889 2.2716-1.2758 3.1738-2.2402 0.90223-0.96445 1.588-2.0858 2.0547-3.3613 0.49778-1.3067 0.74609-2.6586 0.74609-4.0586 0-1.3689-0.26407-2.707-0.79296-4.0137-0.49778-1.3067-1.2289-2.4891-2.1934-3.5469-0.93334-1.0578-2.0547-1.8973-3.3613-2.5195-1.2756-0.62222-2.6748-0.93359-4.1992-0.93359zm39.449 0-12.227 33.133h6.627l3.0332-8.2598h11.574l3.0801 8.2598h6.627l-12.18-33.133zm22.348 0v33.133h12.041c3.3289 0 6.2062-0.68385 8.6328-2.0527 2.4578-1.3689 4.3556-3.2982 5.6934-5.7871 1.3378-2.4889 2.0078-5.4134 2.0078-8.7734 0-3.0489-0.60698-5.8177-1.8203-8.3066-1.2133-2.52-3.0343-4.5104-5.4609-5.9727-2.4267-1.4933-5.4438-2.2402-9.0527-2.2402zm41.273 0-12.227 33.133h6.627l3.0332-8.2598h11.572l3.0801 8.2598h6.627l-12.18-33.133zm27.189 0 12.602 33.133h6.2051l12.555-33.133h-6.7676l-8.8652 25.48-8.9609-25.48zm34.896 0v33.133h6.4414v-33.133zm13.309 0v33.133h6.4394v-11.107h6.4394l6.8145 11.107h7.0938l-7.5606-12.459c1.2133-0.52889 2.2716-1.2758 3.1738-2.2402 0.90222-0.96445 1.5861-2.0858 2.0527-3.3613 0.49778-1.3067 0.7461-2.6586 0.74609-4.0586 0-1.3689-0.26408-2.707-0.79296-4.0137-0.49778-1.3067-1.2289-2.4891-2.1934-3.5469-0.93334-1.0578-2.0527-1.8973-3.3594-2.5195-1.2756-0.62222-2.6767-0.93359-4.2012-0.93359zm27.643 0v5.6465h10.594v27.486h6.3926v-27.486h10.594v-5.6465zm31.227 0v16.893c0 2.1467 0.26407 4.2159 0.79297 6.207 0.52888 1.96 1.3526 3.7179 2.4726 5.2734 1.1511 1.5556 2.6449 2.7853 4.4805 3.6875 1.8667 0.87111 4.1231 1.3066 6.7676 1.3066 2.5511 0 4.7445-0.42172 6.5801-1.2617 1.8356-0.87111 3.3274-2.0516 4.4785-3.5449 1.1822-1.5244 2.0395-3.2823 2.5684-5.2734 0.56-1.9911 0.83985-4.1234 0.83985-6.3945v-16.893h-6.3945v16.893c0 1.3378-0.13992 2.6601-0.41992 3.9668-0.28 1.2756-0.73129 2.4265-1.3535 3.4531-0.59112 1.0267-1.4149 1.8524-2.4727 2.4746-1.0267 0.59111-2.3175 0.88672-3.873 0.88672-1.5244 0-2.7995-0.2956-3.8262-0.88672-1.0267-0.59111-1.8524-1.4011-2.4746-2.4277s-1.0735-2.1776-1.3535-3.4531c-0.24889-1.3067-0.37305-2.6448-0.37305-4.0137v-16.893zm43.105 0-12.227 33.133h6.627l3.0332-8.2598h11.574l3.0801 8.2598h6.625l-12.18-33.133zm22.348 0v33.133h23.334v-5.6465h-16.895v-27.486zm-358.87 5.5059c1.4933 0 2.8315 0.31137 4.0137 0.93359 1.2133 0.59111 2.2243 1.4149 3.0332 2.4727 0.84 1.0267 1.4766 2.2091 1.9121 3.5469 0.46667 1.3067 0.70117 2.6763 0.70117 4.1074 0 1.3378-0.21874 2.6759-0.6543 4.0137-0.40444 1.3067-1.0095 2.5049-1.8184 3.5938-0.80889 1.0578-1.8218 1.9131-3.0352 2.5664-1.2133 0.62223-2.5968 0.93359-4.1524 0.93359-1.5244 0-2.8941-0.2956-4.1074-0.88672-1.1822-0.62222-2.1932-1.4479-3.0332-2.4746-0.80889-1.0578-1.4297-2.256-1.8652-3.5938s-0.6543-2.7212-0.6543-4.1523c0-1.3689 0.20297-2.707 0.60742-4.0137 0.43555-1.3067 1.0564-2.4891 1.8652-3.5469 0.8089-1.0578 1.8061-1.8973 2.9883-2.5195 1.2133-0.65333 2.6126-0.98047 4.1992-0.98047zm62.527 0.14062h7.793c0.77778 0 1.4932 0.23255 2.1465 0.69922 0.68445 0.46667 1.2441 1.1052 1.6797 1.9141 0.43556 0.77778 0.6543 1.6961 0.6543 2.7539 0 0.99555-0.18722 1.8962-0.56055 2.7051-0.37334 0.80889-0.87192 1.4632-1.4941 1.9609-0.62222 0.46667-1.3376 0.69922-2.1465 0.69922h-8.0723zm61.797 0h5.5996c2.0844 0 3.8581 0.46706 5.3203 1.4004 1.4622 0.90222 2.5816 2.1773 3.3594 3.8262 0.77778 1.6178 1.166 3.4998 1.166 5.6465 0 2.0844-0.38824 3.9665-1.166 5.6465-0.74667 1.6489-1.8503 2.9555-3.3125 3.9199-1.4622 0.93333-3.2516 1.4004-5.3672 1.4004h-5.5996zm116.67 0h7.793c0.77777 0 1.4932 0.23255 2.1465 0.69922 0.68445 0.46667 1.2461 1.1052 1.6816 1.9141 0.43556 0.77778 0.65235 1.6961 0.65235 2.7539 0 0.99555-0.18722 1.8962-0.56055 2.7051-0.37333 0.80889-0.86996 1.4632-1.4922 1.9609-0.62222 0.46667-1.3376 0.69922-2.1465 0.69922h-8.0742zm-361.12 1.0273 4.5723 13.672h-9.334zm61.705 0 4.5742 13.672h-9.334zm157.23 0 4.5742 13.672h-9.334zm63.619 0 4.5742 13.672h-9.334zm177.37 0 4.5723 13.672h-9.332z"/>
  </g>
  <g transform="matrix(.26458 0 0 .26458 8.3161 63.329)" style="shape-inside:url(#rect10864);white-space:pre" aria-label="19 a 22 de outubro de 2021">
   <path transform="translate(138.59 210.23)" d="m217.16 105.35v9.5684c-0.57244-0.96089-1.3704-1.7804-2.3926-2.4551-1.0222-0.67466-2.1768-1.0117-3.4648-1.0117-1.4107 0-2.6675 0.37831-3.7715 1.1348-1.0836 0.75645-1.9424 1.7696-2.5762 3.0371-0.61333 1.2471-0.91992 2.6258-0.91992 4.1387 0 1.104 0.18278 2.1584 0.55078 3.1602 0.38844 0.98133 0.92104 1.8598 1.5957 2.6367 0.69511 0.77689 1.5019 1.3901 2.4219 1.8398 0.94045 0.42933 1.9624 0.64453 3.0664 0.64453 1.1449 0 2.2494-0.29773 3.3125-0.89062s1.9112-1.3996 2.5449-2.4219v1.3496c0 0.44978 0.19554 0.85856 0.58399 1.2266 0.40888 0.368 0.87859 0.55274 1.4102 0.55274 0.28622 0 0.6842-0.0413 1.1953-0.12305v-2.0859c-0.30666-0.0204-0.53071-0.10298-0.67382-0.24609-0.12267-0.16355-0.1836-0.40726-0.1836-0.73437v-19.32zm99.203 0v22.387h2.3926v-3.0059c0.59288 0.98134 1.3996 1.7792 2.4219 2.3926 1.0222 0.61333 2.1572 0.91992 3.4043 0.91992 1.0836 0 2.075-0.2152 2.9746-0.64453 0.92-0.42933 1.7287-1.0228 2.4238-1.7793 0.69511-0.77689 1.2258-1.6554 1.5938-2.6367 0.38844-1.0018 0.58203-2.065 0.58203-3.1895 0-1.0836-0.17197-2.1163-0.51953-3.0976-0.32711-1.0018-0.80763-1.8911-1.4414-2.668-0.61333-0.79734-1.3611-1.4213-2.2402-1.8711-0.87911-0.47022-1.8706-0.70507-2.9746-0.70507-1.3084 0-2.4523 0.31739-3.4336 0.95117-0.98133 0.63378-1.8097 1.473-2.4844 2.5156v-9.5684zm67.727 0v9.5684c-0.57245-0.96089-1.3704-1.7804-2.3926-2.4551-1.0222-0.67466-2.1768-1.0117-3.4648-1.0117-1.4107 0-2.6675 0.37831-3.7715 1.1348-1.0836 0.75645-1.9424 1.7696-2.5762 3.0371-0.61333 1.2471-0.91992 2.6258-0.91992 4.1387 0 1.104 0.18278 2.1584 0.55078 3.1602 0.38845 0.98133 0.92104 1.8598 1.5957 2.6367 0.6951 0.77689 1.5019 1.3901 2.4219 1.8398 0.94044 0.42933 1.9624 0.64453 3.0664 0.64453 1.1449 0 2.2494-0.29773 3.3125-0.89062 1.0631-0.59289 1.9111-1.3996 2.5449-2.4219v1.3496c0 0.44978 0.19554 0.85856 0.58398 1.2266 0.4089 0.368 0.87861 0.55274 1.4102 0.55274 0.28623 0 0.6842-0.0413 1.1953-0.12305v-2.0859c-0.30667-0.0204-0.53072-0.10298-0.67383-0.24609-0.12266-0.16355-0.18359-0.40726-0.18359-0.73437v-19.32zm-96.189 1.043v5.3359h-2.1758v2.1152h2.1758v10.764c0 0.75644 0.16507 1.3912 0.49218 1.9023 0.32712 0.49067 0.76636 0.85818 1.3184 1.1035 0.552 0.22489 1.1544 0.33789 1.8086 0.33789 0.57244 0 1.1139-0.0629 1.625-0.18555 0.5111-0.12267 0.96116-0.26418 1.3496-0.42774 0.38844-0.16355 0.69503-0.29817 0.91992-0.40039l-0.64258-2.1465c-0.14311 0.0818-0.44084 0.21444-0.89062 0.39844s-0.93915 0.27734-1.4707 0.27734c-0.47022 0-0.88096-0.13266-1.2285-0.39844-0.34758-0.28622-0.54117-0.71662-0.58203-1.2891v-9.9356h3.5879v-2.1152h-3.5879v-5.3359zm152.98 3.0352c-1.4924 0-2.821 0.40878-3.9863 1.2266-1.1653 0.79733-2.0851 1.9018-2.7598 3.3125-0.67467 1.3902-1.0117 2.9841-1.0117 4.7832 0 1.7991 0.33705 3.4038 1.0117 4.8145 0.67466 1.3902 1.5944 2.4839 2.7598 3.2812 1.1653 0.79733 2.4939 1.1973 3.9863 1.1973s2.821-0.39993 3.9863-1.1973c1.1653-0.79734 2.0851-1.891 2.7598-3.2812 0.67468-1.4107 1.0137-3.0153 1.0137-4.8145 0-1.7991-0.339-3.393-1.0137-4.7832-0.67466-1.4107-1.5944-2.5152-2.7598-3.3125-1.1653-0.81778-2.4939-1.2266-3.9863-1.2266zm-270.06 0.49023c-0.94044 0-1.8101 0.12381-2.6074 0.36914-0.77689 0.22489-1.4618 0.50101-2.0547 0.82813-0.59288 0.32711-1.0842 0.65336-1.4726 0.98047-0.38845 0.30666-0.66457 0.55233-0.82813 0.73632l1.6875 1.9004c0.20444-0.22489 0.4501-0.47055 0.73633-0.73633 0.30667-0.28623 0.65452-0.55154 1.043-0.79688 0.40889-0.26577 0.85894-0.47902 1.3496-0.64258 0.51111-0.16355 1.0722-0.24609 1.6856-0.24609 0.79733 0 1.4626 0.14347 1.9941 0.42969 0.552 0.26578 0.96078 0.62248 1.2266 1.0723 0.28623 0.42934 0.42969 0.87939 0.42969 1.3496 0 0.552-0.16508 1.0433-0.49219 1.4727-0.32711 0.40889-0.76636 0.78721-1.3184 1.1348-0.53155 0.34756-1.1143 0.67381-1.748 0.98047-0.61333 0.30667-1.2265 0.63487-1.8398 0.98243-1.0427 0.57244-1.8907 1.164-2.5449 1.7773-0.65422 0.59289-1.1652 1.2169-1.5332 1.8711-0.34756 0.65422-0.59321 1.3391-0.73632 2.0547-0.12267 0.71555-0.1836 1.483-0.1836 2.3008h13.646v-2.4531h-10.826c0.12267-0.53156 0.30741-0.99242 0.55274-1.3809 0.26578-0.38844 0.60283-0.75596 1.0117-1.1035 0.42933-0.368 0.97077-0.73551 1.625-1.1035 0.65422-0.368 1.4413-0.77874 2.3613-1.2285 0.44978-0.22489 0.9519-0.49021 1.5039-0.79687 0.57245-0.32712 1.1139-0.71429 1.625-1.1641 0.53156-0.44977 0.96-0.97156 1.2871-1.5644 0.34755-0.59289 0.52149-1.2886 0.52149-2.0859 0-0.92-0.24567-1.7484-0.73633-2.4844-0.49067-0.75644-1.1952-1.348-2.1152-1.7774-0.89956-0.44977-1.9824-0.67578-3.25-0.67578zm16.41 0c-0.94045 0-1.8081 0.12381-2.6055 0.36914-0.77689 0.22489-1.4618 0.50101-2.0547 0.82813-0.59289 0.32711-1.0842 0.65336-1.4726 0.98047-0.38845 0.30666-0.66457 0.55233-0.82813 0.73632l1.6875 1.9004c0.20445-0.22489 0.45011-0.47055 0.73633-0.73633 0.30667-0.28623 0.65257-0.55154 1.041-0.79688 0.40889-0.26577 0.85894-0.47902 1.3496-0.64258 0.51111-0.16355 1.0742-0.24609 1.6875-0.24609 0.79734 0 1.4606 0.14347 1.9922 0.42969 0.552 0.26578 0.96079 0.62248 1.2266 1.0723 0.28621 0.42934 0.42968 0.87939 0.42968 1.3496 0 0.552-0.16312 1.0433-0.49023 1.4727-0.32711 0.40889-0.76636 0.78721-1.3184 1.1348-0.53156 0.34756-1.1143 0.67381-1.748 0.98047-0.61333 0.30667-1.2265 0.63487-1.8398 0.98243-1.0427 0.57244-1.8907 1.164-2.5449 1.7773-0.65423 0.59289-1.1652 1.2169-1.5332 1.8711-0.34755 0.65422-0.59321 1.3391-0.73633 2.0547-0.12266 0.71555-0.18359 1.483-0.18359 2.3008h13.646v-2.4531h-10.826c0.12267-0.53156 0.3074-0.99242 0.55274-1.3809 0.26577-0.38844 0.60282-0.75596 1.0117-1.1035 0.42933-0.368 0.97078-0.73551 1.625-1.1035s1.4413-0.77874 2.3613-1.2285c0.44978-0.22489 0.94996-0.49021 1.502-0.79687 0.57244-0.32712 1.1158-0.71429 1.627-1.1641 0.53156-0.44977 0.96-0.97156 1.2871-1.5644 0.34756-0.59289 0.52148-1.2886 0.52148-2.0859 0-0.92-0.24566-1.7484-0.73632-2.4844-0.49067-0.75644-1.1952-1.348-2.1152-1.7774-0.89956-0.44977-1.9844-0.67578-3.252-0.67578zm236.35 0c-0.94045 0-1.8081 0.12381-2.6055 0.36914-0.77689 0.22489-1.4618 0.50101-2.0547 0.82813-0.59288 0.32711-1.0842 0.65336-1.4726 0.98047-0.38845 0.30666-0.66458 0.55233-0.82813 0.73632l1.6875 1.9004c0.20444-0.22489 0.44815-0.47055 0.73438-0.73633 0.30666-0.28623 0.65453-0.55154 1.043-0.79688 0.4089-0.26577 0.85895-0.47902 1.3496-0.64258 0.51112-0.16355 1.0742-0.24609 1.6875-0.24609 0.79734 0 1.4606 0.14347 1.9922 0.42969 0.552 0.26578 0.96078 0.62248 1.2266 1.0723 0.28622 0.42934 0.42969 0.87939 0.42969 1.3496 0 0.552-0.16313 1.0433-0.49023 1.4727-0.32712 0.40889-0.76636 0.78721-1.3184 1.1348-0.53156 0.34756-1.1143 0.67381-1.748 0.98047-0.61333 0.30667-1.2265 0.63487-1.8398 0.98243-1.0427 0.57244-1.8927 1.164-2.5469 1.7773-0.65422 0.59289-1.1652 1.2169-1.5332 1.8711-0.34755 0.65422-0.59126 1.3391-0.73438 2.0547-0.12266 0.71555-0.18554 1.483-0.18554 2.3008h13.646v-2.4531h-10.824c0.12267-0.53156 0.30545-0.99242 0.55078-1.3809 0.26578-0.38844 0.60479-0.75596 1.0137-1.1035 0.42933-0.368 0.97077-0.73551 1.625-1.1035 0.65422-0.368 1.4413-0.77874 2.3613-1.2285 0.44978-0.22489 0.94996-0.49021 1.502-0.79687 0.57244-0.32712 1.1139-0.71429 1.625-1.1641 0.53155-0.44977 0.96195-0.97156 1.2891-1.5644 0.34755-0.59289 0.52148-1.2886 0.52148-2.0859 0-0.92-0.24566-1.7484-0.73632-2.4844-0.49067-0.75644-1.1972-1.348-2.1172-1.7774-0.89956-0.44977-1.9824-0.67578-3.25-0.67578zm35.219 0c-0.94045 0-1.8081 0.12381-2.6055 0.36914-0.77689 0.22489-1.4618 0.50101-2.0547 0.82813-0.59288 0.32711-1.0842 0.65336-1.4726 0.98047-0.38845 0.30666-0.66458 0.55233-0.82813 0.73632l1.6875 1.9004c0.20444-0.22489 0.44815-0.47055 0.73438-0.73633 0.30666-0.28623 0.65453-0.55154 1.043-0.79688 0.40889-0.26577 0.85894-0.47902 1.3496-0.64258 0.51112-0.16355 1.0742-0.24609 1.6875-0.24609 0.79734 0 1.4606 0.14347 1.9922 0.42969 0.552 0.26578 0.96078 0.62248 1.2266 1.0723 0.28623 0.42934 0.42969 0.87939 0.42969 1.3496 0 0.552-0.16312 1.0433-0.49023 1.4727-0.32712 0.40889-0.76636 0.78721-1.3184 1.1348-0.53156 0.34756-1.1143 0.67381-1.748 0.98047-0.61333 0.30667-1.2265 0.63487-1.8398 0.98243-1.0427 0.57244-1.8927 1.164-2.5469 1.7773-0.65422 0.59289-1.1652 1.2169-1.5332 1.8711-0.34755 0.65422-0.59126 1.3391-0.73438 2.0547-0.12266 0.71555-0.18554 1.483-0.18554 2.3008h13.646v-2.4531h-10.824c0.12267-0.53156 0.30545-0.99242 0.55078-1.3809 0.26578-0.38844 0.60479-0.75596 1.0137-1.1035 0.42933-0.368 0.97077-0.73551 1.625-1.1035 0.65422-0.368 1.4413-0.77874 2.3613-1.2285 0.44978-0.22489 0.94996-0.49021 1.502-0.79687 0.57244-0.32712 1.1139-0.71429 1.625-1.1641 0.53155-0.44977 0.96195-0.97156 1.2891-1.5644 0.34755-0.59289 0.52148-1.2886 0.52148-2.0859 0-0.92-0.24566-1.7484-0.73632-2.4844-0.49067-0.75644-1.1952-1.348-2.1152-1.7774-0.89956-0.44977-1.9844-0.67578-3.252-0.67578zm-354.54 0.30664c-0.0613 0.12267-0.27653 0.33787-0.64453 0.64453-0.34756 0.30668-0.776 0.63292-1.2871 0.98047-0.51111 0.34756-1.0437 0.65415-1.5957 0.91992-0.53156 0.24534-1.0209 0.36915-1.4707 0.36915v2.5762c0.40889 0 0.85699-0.0717 1.3477-0.21485 0.49067-0.16356 0.98199-0.36794 1.4727-0.61328 0.49066-0.24533 0.92991-0.5018 1.3184-0.76758 0.38845-0.28622 0.67538-0.55154 0.85938-0.79687v11.961h-4.3555v2.4531h11.01v-2.4531h-3.8945v-15.059zm16.26 0c-1.4516 0-2.7693 0.33705-3.9551 1.0117s-2.1272 1.5856-2.8223 2.7305c-0.67467 1.1244-1.0117 2.3813-1.0117 3.7715 0 1.3698 0.32625 2.6069 0.98047 3.7109 0.67467 1.104 1.5856 1.9825 2.7305 2.6367 1.1449 0.65423 2.4125 0.98242 3.8027 0.98242 0.85866 0 1.6546-0.14346 2.3906-0.42968s1.3816-0.69501 1.9336-1.2266c0.57245-0.53156 1.0009-1.1447 1.2871-1.8398-0.0205 1.7991-0.26613 3.332-0.73632 4.5996-0.44978 1.2676-1.0934 2.2394-1.9316 2.9141-0.81778 0.67467-1.7896 1.0117-2.9141 1.0117-1.0631 0-2.0438-0.28693-2.9434-0.85937-0.87911-0.57245-1.5424-1.3291-1.9922-2.2695l-1.6562 1.625c0.65422 1.2062 1.5524 2.1476 2.6973 2.8223 1.1653 0.69511 2.4546 1.043 3.8652 1.043 1.6356 0 3.0663-0.48052 4.293-1.4414 1.2267-0.94044 2.1769-2.3623 2.8516-4.2637 0.67466-1.9013 1.0117-4.2823 1.0117-7.1445 0-1.9627-0.33705-3.6391-1.0117-5.0293-0.65423-1.4107-1.574-2.4847-2.7598-3.2207-1.1653-0.75645-2.5352-1.1348-4.1094-1.1348zm352.58 0c-0.0613 0.12267-0.27458 0.33787-0.64258 0.64453-0.34755 0.30668-0.77795 0.63292-1.2891 0.98047-0.51111 0.34756-1.0417 0.65415-1.5938 0.91992-0.53155 0.24534-1.0229 0.36915-1.4727 0.36915v2.5762c0.4089 0 0.85895-0.0717 1.3496-0.21485 0.49067-0.16356 0.98199-0.36794 1.4727-0.61328 0.49067-0.24533 0.92991-0.5018 1.3184-0.76758 0.38844-0.28622 0.67341-0.55154 0.85742-0.79687v11.961h-4.3535v2.4531h11.01v-2.4531h-3.8945v-15.059zm-327.38 1.2266c-1.1244 0-2.2093 0.18473-3.252 0.55273-1.0427 0.34756-2.0843 0.8782-3.127 1.5938l0.98047 1.9023c0.89955-0.59289 1.7476-1.0429 2.5449-1.3496 0.81778-0.32711 1.6678-0.49023 2.5469-0.49023 1.3493 0 2.391 0.35671 3.127 1.0723 0.736 0.69511 1.1035 1.6561 1.1035 2.8828v1.166c-0.61334-0.22488-1.3179-0.38801-2.1152-0.49023-0.79733-0.12267-1.554-0.18555-2.2695-0.18555-1.3493 0-2.5344 0.20635-3.5566 0.61524-1.0222 0.40888-1.8309 0.98964-2.4238 1.7461-0.57245 0.736-0.85742 1.6164-0.85742 2.6387 0 0.92 0.23485 1.7572 0.70508 2.5137 0.47022 0.736 1.1247 1.3295 1.9629 1.7793 0.83822 0.42933 1.7884 0.64453 2.8516 0.64453 1.104 0 2.2174-0.24566 3.3418-0.73633 1.1244-0.49066 2.0354-1.1864 2.7305-2.0859l0.0605 1.0117c0.0409 0.38844 0.21482 0.75791 0.52149 1.1055 0.32711 0.34756 0.80762 0.52149 1.4414 0.52149 0.12267 0 0.27694-0.0108 0.46094-0.0312 0.20444-0.0205 0.4393-0.0509 0.70508-0.0918v-2.0859c-0.30667-0.0204-0.53267-0.10298-0.67578-0.24609-0.12267-0.16355-0.1836-0.40726-0.1836-0.73437v-6.7774c0-2.024-0.59352-3.5982-1.7793-4.7226-1.1858-1.1449-2.7993-1.7188-4.8438-1.7188zm85.766 0c-1.5947 0-3.0166 0.37831-4.2637 1.1348-1.2267 0.75645-2.1877 1.7588-2.8828 3.0059-0.69512 1.2471-1.041 2.6277-1.041 4.1406 0 1.1244 0.19359 2.1877 0.58203 3.1894 0.4089 1.0018 0.97195 1.8911 1.6875 2.668 0.736 0.75644 1.5929 1.3588 2.5742 1.8086 1.0018 0.42933 2.1063 0.64453 3.3125 0.64453 1.0836 0 2.0859-0.17392 3.0059-0.52148 0.94045-0.34756 1.7472-0.82807 2.4219-1.4414 0.69511-0.61333 1.2169-1.309 1.5644-2.0859l-2.3301-0.64453c-0.32711 0.79734-0.93143 1.4429-1.8105 1.9336-0.85867 0.49066-1.7784 0.73437-2.7598 0.73437-0.92 0-1.7788-0.22405-2.5762-0.67383-0.79734-0.47022-1.4518-1.103-1.9629-1.9004-0.49068-0.81778-0.77565-1.7484-0.85743-2.791h13.279c0.0205-0.10222 0.0293-0.24569 0.0293-0.42969 0.0205-0.20445 0.0312-0.40883 0.0312-0.61328 0-1.4311-0.33705-2.7597-1.0117-3.9863-0.65422-1.2471-1.5848-2.2494-2.791-3.0059-1.1858-0.77689-2.586-1.166-4.2012-1.166zm25.812 0c-1.1858 0-2.2795 0.226-3.2812 0.67578-0.98133 0.42933-1.8294 1.0317-2.5449 1.8086-0.71555 0.75645-1.2678 1.6349-1.6562 2.6367-0.38844 1.0018-0.58398 2.065-0.58398 3.1894 0 1.104 0.19554 2.1584 0.58398 3.1602 0.38845 1.0018 0.9407 1.8911 1.6562 2.668 0.71556 0.75644 1.5636 1.3588 2.5449 1.8086 0.98134 0.42933 2.075 0.64453 3.2812 0.64453s2.2999-0.2152 3.2812-0.64453c1.0018-0.44978 1.8606-1.0522 2.5762-1.8086 0.71556-0.77689 1.2678-1.6662 1.6562-2.668 0.38845-1.0018 0.58204-2.0562 0.58204-3.1602 0-1.1244-0.19359-2.1877-0.58204-3.1894-0.38844-1.0018-0.9515-1.8803-1.6875-2.6367-0.71555-0.77689-1.5636-1.3793-2.5449-1.8086-0.98133-0.44978-2.075-0.67578-3.2812-0.67578zm95.533 0c-1.1858 0-2.2795 0.226-3.2812 0.67578-0.98134 0.42933-1.8294 1.0317-2.5449 1.8086-0.71555 0.75645-1.2678 1.6349-1.6562 2.6367-0.38844 1.0018-0.58203 2.065-0.58203 3.1894 0 1.104 0.19359 2.1584 0.58203 3.1602 0.38845 1.0018 0.9407 1.8911 1.6562 2.668 0.71556 0.75644 1.5636 1.3588 2.5449 1.8086 0.98133 0.42933 2.075 0.64453 3.2812 0.64453s2.2999-0.2152 3.2812-0.64453c1.0018-0.44978 1.8606-1.0522 2.5762-1.8086 0.71556-0.77689 1.2678-1.6662 1.6562-2.668 0.38844-1.0018 0.58203-2.0562 0.58203-3.1602 0-1.1244-0.19359-2.1877-0.58203-3.1894-0.38845-1.0018-0.9515-1.8803-1.6875-2.6367-0.71556-0.77689-1.5636-1.3793-2.5449-1.8086-0.98134-0.44978-2.075-0.67578-3.2812-0.67578zm45.584 0c-1.5947 0-3.0146 0.37831-4.2617 1.1348-1.2267 0.75645-2.1877 1.7588-2.8828 3.0059s-1.043 2.6277-1.043 4.1406c0 1.1244 0.19358 2.1877 0.58203 3.1894 0.40889 1.0018 0.97194 1.8911 1.6875 2.668 0.736 0.75644 1.5948 1.3588 2.5762 1.8086 1.0018 0.42933 2.1043 0.64453 3.3106 0.64453 1.0836 0 2.0859-0.17392 3.0059-0.52148 0.94045-0.34756 1.7472-0.82807 2.4219-1.4414 0.69512-0.61333 1.2169-1.309 1.5645-2.0859l-2.3301-0.64453c-0.32711 0.79734-0.92949 1.4429-1.8086 1.9336-0.85868 0.49066-1.7804 0.73437-2.7617 0.73437-0.92 0-1.7788-0.22405-2.5762-0.67383-0.79733-0.47022-1.4498-1.103-1.9609-1.9004-0.49067-0.81778-0.7776-1.7484-0.85938-2.791h13.279c0.0205-0.10222 0.0293-0.24569 0.0293-0.42969 0.0205-0.20445 0.0312-0.40883 0.0312-0.61328 0-1.4311-0.33706-2.7597-1.0117-3.9863-0.65423-1.2471-1.5848-2.2494-2.791-3.0059-1.1858-0.77689-2.5861-1.166-4.2012-1.166zm-55.363 0.15429c-1.0018 0.0818-1.9628 0.46895-2.8828 1.1641-0.89956 0.67467-1.6257 1.564-2.1777 2.668v-3.709h-2.5137v16.008h2.6992v-9.875c0.42933-1.1653 1.1536-2.0762 2.1758-2.7305 1.0427-0.67464 2.2386-1.0206 3.5879-1.041v-2.4531c-0.10223-0.0205-0.22408-0.0312-0.36719-0.0312zm-74.512 0.12305v9.5977c0 2.208 0.4304 3.8844 1.2891 5.0293 0.85868 1.1244 2.1243 1.6875 3.8008 1.6875 1.3902 0 2.6686-0.32819 3.834-0.98242 1.1858-0.65422 2.1272-1.574 2.8223-2.7598l0.0606 1.8711c0.0204 0.47022 0.21403 0.8682 0.58203 1.1953 0.368 0.30667 0.8092 0.46094 1.3203 0.46094 0.16356 0 0.32668-0.0108 0.49024-0.0312 0.184 0 0.42966-0.0197 0.73633-0.0605v-2.0859c-0.30667-0.0204-0.53267-0.10298-0.67578-0.24609-0.12267-0.16355-0.1836-0.40726-0.1836-0.73437v-12.941h-2.6992v10.027c-0.30666 0.81778-0.73511 1.5223-1.2871 2.1152-0.552 0.59288-1.176 1.0537-1.8711 1.3809-0.67467 0.30666-1.3792 0.45898-2.1152 0.45898-1.1244 0-1.9744-0.40878-2.5469-1.2266s-0.85742-2.0441-0.85742-3.6797v-9.0762zm29.229 0v9.5977c0 2.208 0.43039 3.8844 1.2891 5.0293 0.85866 1.1244 2.1263 1.6875 3.8027 1.6875 1.3902 0 2.6686-0.32819 3.834-0.98242 1.1858-0.65422 2.1252-1.574 2.8203-2.7598l0.0606 1.8711c0.0204 0.47022 0.21598 0.8682 0.58398 1.1953 0.368 0.30667 0.80725 0.46094 1.3184 0.46094 0.16355 0 0.32667-0.0108 0.49023-0.0312 0.184 0 0.42967-0.0197 0.73633-0.0605v-2.0859c-0.30666-0.0204-0.53071-0.10298-0.67383-0.24609-0.12266-0.16355-0.18554-0.40726-0.18554-0.73437v-12.941h-2.6973v10.027c-0.30666 0.81778-0.73706 1.5223-1.2891 2.1152-0.552 0.59288-1.176 1.0537-1.8711 1.3809-0.67467 0.30666-1.3792 0.45898-2.1152 0.45898-1.1244 0-1.9725-0.40878-2.5449-1.2266s-0.85938-2.0441-0.85938-3.6797v-9.0762zm143.12 0.21484c0.98133 0 1.851 0.28498 2.6074 0.85743 0.75645 0.57243 1.348 1.3704 1.7774 2.3926 0.42933 1.0222 0.64453 2.2073 0.64453 3.5566s-0.2152 2.5364-0.64453 3.5586c-0.42934 1.0018-1.0209 1.7889-1.7774 2.3613-0.75644 0.57244-1.6261 0.85742-2.6074 0.85742-1.0018 0-1.8803-0.28498-2.6367-0.85742-0.75644-0.57245-1.35-1.3596-1.7793-2.3613-0.42933-1.0222-0.64453-2.2093-0.64453-3.5586s0.2152-2.5344 0.64453-3.5566c0.42934-1.0222 1.0229-1.8201 1.7793-2.3926 0.75645-0.57245 1.6349-0.85743 2.6367-0.85743zm-320.4 0.61328c0.94044 0 1.7993 0.23486 2.5762 0.70508 0.79733 0.47022 1.4321 1.1031 1.9023 1.9004 0.47022 0.7769 0.70508 1.6357 0.70508 2.5762 0 0.94043-0.23486 1.7993-0.70508 2.5762-0.47023 0.77688-1.0942 1.4009-1.8711 1.8711-0.7769 0.47022-1.6465 0.70508-2.6074 0.70508-0.94045 0-1.8081-0.23486-2.6055-0.70508-0.77689-0.47023-1.4009-1.0942-1.8711-1.8711-0.47022-0.7769-0.70507-1.6357-0.70507-2.5762 0-0.9609 0.23485-1.8305 0.70507-2.6074 0.47023-0.77689 1.0942-1.3989 1.8711-1.8691 0.79733-0.47022 1.665-0.70508 2.6055-0.70508zm111 0.91993c0.9609 0 1.8394 0.22404 2.6367 0.67382s1.4518 1.0738 1.9629 1.8711c0.51112 0.79733 0.8069 1.7171 0.88867 2.7598h-10.916c0.0818-1.0427 0.36675-1.9624 0.85742-2.7598 0.51111-0.79734 1.1656-1.4213 1.9629-1.8711 0.79734-0.44978 1.667-0.67382 2.6074-0.67382zm166.93 0c0.96089 0 1.8394 0.22404 2.6367 0.67382 0.79733 0.44978 1.4518 1.0738 1.9629 1.8711 0.51111 0.79733 0.80884 1.7171 0.89062 2.7598h-10.918c0.0818-1.0427 0.3687-1.9624 0.85937-2.7598 0.51111-0.79734 1.1636-1.4213 1.9609-1.8711 0.79733-0.44978 1.667-0.67382 2.6074-0.67382zm-186.34 0.30664c0.67466 0 1.3507 0.17392 2.0254 0.52148 0.69511 0.32711 1.3171 0.77521 1.8691 1.3477 0.552 0.552 0.95193 1.176 1.1973 1.8711v4.5996c-0.10222 0.49067-0.31741 0.96233-0.64453 1.4121-0.32711 0.42933-0.72509 0.80765-1.1953 1.1348-0.47022 0.32711-0.97235 0.58162-1.5039 0.76562-0.51111 0.184-1.0113 0.27539-1.502 0.27539-0.77689 0-1.5031-0.15232-2.1777-0.45898-0.65423-0.30667-1.2369-0.73707-1.748-1.2891-0.49067-0.552-0.87784-1.1848-1.1641-1.9004-0.26578-0.71555-0.40039-1.4722-0.40039-2.2695 0-0.77688 0.1238-1.5227 0.36914-2.2383 0.24533-0.71556 0.59319-1.3503 1.043-1.9023 0.47022-0.57245 1.0225-1.0206 1.6562-1.3477 0.65423-0.34756 1.3784-0.52148 2.1758-0.52148zm45.223 0c0.98134 0 1.8706 0.26531 2.668 0.79687 0.81778 0.53156 1.4614 1.2469 1.9316 2.1465 0.49067 0.89956 0.73633 1.9019 0.73633 3.0059s-0.24566 2.1152-0.73633 3.0352c-0.47022 0.89956-1.1139 1.6149-1.9316 2.1465-0.79733 0.53156-1.6866 0.79687-2.668 0.79687-0.98133 0-1.8706-0.25451-2.668-0.76562-0.79734-0.53156-1.441-1.2469-1.9316-2.1465-0.47022-0.89955-0.70703-1.9018-0.70703-3.0059 0-1.1244 0.23681-2.1356 0.70703-3.0352 0.49067-0.89956 1.1343-1.6149 1.9316-2.1465 0.79734-0.552 1.6866-0.82812 2.668-0.82812zm66.861 0c1.0427 0 1.9536 0.28497 2.7305 0.85742 0.79734 0.552 1.4105 1.289 1.8398 2.209 0.44978 0.92 0.67383 1.9007 0.67383 2.9434 0 0.75645-0.13266 1.4934-0.39844 2.209-0.26578 0.71555-0.6441 1.3484-1.1348 1.9004-0.49067 0.552-1.0734 0.99124-1.748 1.3184-0.67467 0.32711-1.4097 0.49023-2.207 0.49023-0.49067 0-1.0016-0.0914-1.5332-0.27539-0.51112-0.184-1.0024-0.42966-1.4727-0.73633-0.47023-0.32711-0.86821-0.70543-1.1953-1.1348-0.32712-0.42934-0.54231-0.89905-0.64453-1.4102v-4.6309c0.3271-0.67467 0.73589-1.2878 1.2266-1.8398 0.51111-0.57245 1.0938-1.0314 1.748-1.3789 0.65422-0.34756 1.3588-0.52148 2.1152-0.52148zm28.672 0c0.98134 0 1.8706 0.26531 2.668 0.79687 0.81778 0.53156 1.4614 1.2469 1.9316 2.1465 0.49066 0.89956 0.73632 1.9019 0.73632 3.0059s-0.24566 2.1152-0.73632 3.0352c-0.47023 0.89956-1.1139 1.6149-1.9316 2.1465-0.79733 0.53156-1.6866 0.79687-2.668 0.79687s-1.8706-0.25451-2.668-0.76562c-0.79734-0.53156-1.441-1.2469-1.9316-2.1465-0.47023-0.89955-0.70508-1.9018-0.70508-3.0059 0-1.1244 0.23485-2.1356 0.70508-3.0352 0.49066-0.89956 1.1343-1.6149 1.9316-2.1465 0.79733-0.552 1.6866-0.82812 2.668-0.82812zm26.176 0c0.67466 0 1.3488 0.17392 2.0234 0.52148 0.69511 0.32711 1.3191 0.77521 1.8711 1.3477 0.552 0.552 0.94998 1.176 1.1953 1.8711v4.5996c-0.10223 0.49067-0.31742 0.96233-0.64453 1.4121-0.32711 0.42933-0.72509 0.80765-1.1953 1.1348-0.47022 0.32711-0.97236 0.58162-1.5039 0.76562-0.51111 0.184-1.0113 0.27539-1.502 0.27539-0.7769 0-1.5031-0.15232-2.1777-0.45898-0.65422-0.30667-1.2369-0.73707-1.748-1.2891-0.49067-0.552-0.87784-1.1848-1.1641-1.9004-0.26577-0.71555-0.39843-1.4722-0.39843-2.2695 0-0.77688 0.12185-1.5227 0.36718-2.2383 0.24534-0.71556 0.59319-1.3503 1.043-1.9023 0.47022-0.57245 1.0225-1.0206 1.6562-1.3477 0.65422-0.34756 1.3804-0.52148 2.1777-0.52148zm-233.41 6.0703c0.67467 0 1.3596 0.0717 2.0547 0.21484 0.69511 0.12268 1.3584 0.3074 1.9922 0.55274v1.9941c0 0.20444-0.0698 0.45896-0.21289 0.76562-0.14312 0.28622-0.33866 0.57315-0.58399 0.85938-0.44978 0.5111-1.0522 0.93955-1.8086 1.2871-0.75644 0.3271-1.5544 0.49023-2.3926 0.49023-0.79733 0-1.4714-0.15232-2.0234-0.45898-0.53155-0.30667-0.94033-0.6958-1.2266-1.166-0.26578-0.49066-0.39844-0.99084-0.39844-1.502 0-0.94045 0.41763-1.6774 1.2559-2.209 0.85867-0.552 1.974-0.82812 3.3438-0.82812z"/>
  </g>
 </g>
</svg>