<svg width="42" height="44" viewBox="0 0 42 44" fill="none" xmlns="http://www.w3.org/2000/svg">
<path fill-rule="evenodd" clip-rule="evenodd" d="M19.9276 0.0252415C15.4223 0.252266 11.0721 1.98421 7.57675 4.94249C6.88986 5.52384 5.99414 6.39986 5.4125 7.05922C4.09108 8.55711 2.89216 10.3758 2.07758 12.1181C0.899817 14.6371 0.259534 17.0936 0.0320966 19.9655C-0.0162776 20.5763 -0.00837878 22.5051 0.0450698 23.1363C0.291513 26.047 0.999485 28.627 2.24371 31.149L2.50643 31.6816H9.92849C14.0106 31.6816 17.346 31.6771 17.3406 31.6716C17.3351 31.6661 17.1906 31.615 17.0194 31.5582C15.7381 31.1325 14.3254 30.3698 13.2745 29.5363C12.9652 29.291 12.6169 28.9516 12.523 28.8038C12.4069 28.6213 12.4013 28.4612 12.4005 25.2992C12.4001 23.7079 12.4068 22.3987 12.4154 22.3899C12.424 22.3811 13.7435 23.0401 15.3475 23.8543C19.4957 25.9599 20.0869 26.2464 20.4413 26.3233C20.7122 26.382 21.1307 26.3862 21.4188 26.3331C21.6461 26.2911 21.8763 26.1936 22.752 25.7685C23.4614 25.424 25.5768 24.3586 27.6582 23.2975C29.3843 22.4175 29.4656 22.379 29.4842 22.4305C29.512 22.5074 29.5082 27.9813 29.4801 28.347C29.4629 28.5706 29.4434 28.6769 29.4047 28.7588C29.2703 29.0428 28.4942 29.6895 27.623 30.2436C26.7664 30.7883 26.0013 31.1605 25.0379 31.5011L24.5352 31.6788L31.9852 31.6802L39.4352 31.6816L39.7688 30.9899C40.2732 29.9442 40.5825 29.1707 40.9198 28.1122C41.4476 26.4558 41.7559 24.842 41.9055 22.9527C41.947 22.4285 41.947 20.4896 41.9055 19.9655C41.7498 17.9992 41.4177 16.326 40.8338 14.5646C38.5225 7.59267 32.8767 2.31995 25.8797 0.598655C23.9412 0.121761 21.905 -0.0743879 19.9276 0.0252415ZM21.243 2.48263C21.4315 2.53395 21.6453 2.64869 21.7808 2.77126L21.8986 2.87787L22.0202 2.84427C22.4412 2.72787 22.9068 2.95551 23.1033 3.37391C23.1562 3.48649 23.1699 3.555 23.1782 3.74951L23.1884 3.98743L23.2929 4.03916C23.4634 4.12359 23.6277 4.29288 23.7147 4.47372C23.7884 4.62678 23.7932 4.65286 23.7932 4.8945C23.7932 5.12627 23.7866 5.16591 23.7271 5.28981C23.6239 5.50476 23.4922 5.64021 23.2843 5.74533L23.1015 5.83768H21.1136H19.1258L18.9635 5.77116C18.4235 5.54986 18.1045 5.09408 18.1018 4.53998C18.0981 3.79921 18.6532 3.21101 19.3651 3.20109C19.4573 3.19982 19.5772 3.20655 19.6317 3.21608L19.7307 3.23339L19.816 3.08964C19.981 2.8118 20.25 2.59999 20.5739 2.49274C20.7375 2.43856 21.063 2.43363 21.243 2.48263ZM12.0282 5.40308C12.0279 5.41319 11.863 5.90073 11.6618 6.48654L11.296 7.55163L11.076 7.55868C10.955 7.56255 10.8558 7.55704 10.8555 7.54644C10.8553 7.53582 11.0196 7.04516 11.2206 6.45608L11.586 5.38501L11.8074 5.38486C11.9292 5.38479 12.0285 5.39296 12.0282 5.40308ZM10.8081 6.09211V6.28532L10.5627 6.37381C10.4278 6.42246 10.2746 6.47701 10.2223 6.49501L10.1271 6.52777L10.4676 6.64385L10.8081 6.75994V6.95378C10.8081 7.06039 10.8031 7.14763 10.7971 7.14763C10.7873 7.14763 9.80258 6.7842 9.70105 6.74311C9.66584 6.72886 9.65916 6.69368 9.65916 6.52268V6.31918L9.76089 6.28005C10.0676 6.16206 10.7747 5.90095 10.7901 5.9C10.8 5.89939 10.8081 5.98584 10.8081 6.09211ZM12.658 6.11965L13.2034 6.32246L13.1966 6.52892L13.1897 6.73535L12.6751 6.92567C12.392 7.03035 12.1362 7.12386 12.1066 7.13345C12.0538 7.15057 12.0527 7.14697 12.0527 6.9566V6.76229L12.3759 6.64613C12.5536 6.58225 12.699 6.52716 12.699 6.5237C12.699 6.52025 12.5536 6.46516 12.3759 6.40128L12.0527 6.28515V6.08939C12.0527 5.94295 12.0603 5.89657 12.0827 5.90526C12.0991 5.91163 12.358 6.00812 12.658 6.11965ZM30.8228 6.27929C31.2578 6.37268 31.5579 6.49736 31.8927 6.7238C32.2704 6.97917 32.7332 7.51865 32.7385 7.70966C32.7416 7.82239 32.632 7.93115 32.5153 7.93115C32.3828 7.93115 32.3623 7.91707 32.23 7.73444C32.0663 7.50854 31.7378 7.19486 31.5375 7.07315C31.1212 6.82014 30.726 6.71985 30.22 6.73883C29.8303 6.75342 29.6527 6.80014 29.2656 6.98978C29.1159 7.06313 28.9616 7.12315 28.9227 7.12315C28.7437 7.12315 28.6404 6.85144 28.7692 6.71961C28.8366 6.65073 29.2437 6.4384 29.425 6.37755C29.8252 6.24328 30.4504 6.19933 30.8228 6.27929ZM30.6547 7.05985C30.999 7.12777 31.3059 7.26516 31.5691 7.46912C31.756 7.61392 31.9749 7.8696 32.0426 8.02201C32.0839 8.11496 32.085 8.13335 32.0543 8.20859C31.9613 8.43625 31.7496 8.42293 31.5741 8.1784C31.2781 7.766 30.8224 7.53158 30.3157 7.53121C30.0534 7.53102 29.9015 7.56948 29.5905 7.71492C29.3658 7.82001 29.3168 7.82263 29.2084 7.73552C29.1286 7.67127 29.1068 7.56762 29.1505 7.46055C29.178 7.39319 29.222 7.35688 29.3733 7.27652C29.7928 7.05366 30.24 6.97805 30.6547 7.05985ZM30.6663 7.88453C30.7565 7.91276 30.8882 7.9694 30.9588 8.01038C31.112 8.09926 31.3232 8.31214 31.3803 8.4352C31.4637 8.61516 31.362 8.78813 31.1727 8.78813C31.0877 8.78813 31.0634 8.77182 30.9186 8.61805C30.7101 8.39661 30.5864 8.33775 30.3277 8.33701C30.1709 8.33657 30.1092 8.34857 29.9873 8.40315C29.7923 8.49051 29.7089 8.48941 29.6198 8.39825C29.4864 8.2618 29.5351 8.09449 29.741 7.98223C30.0261 7.82682 30.3667 7.79085 30.6663 7.88453ZM30.5094 8.74711C30.7934 8.90039 30.7926 9.32065 30.508 9.46758C30.329 9.56001 30.1429 9.52493 30.02 9.37554C29.8436 9.16113 29.9106 8.85169 30.1583 8.73661C30.2889 8.67593 30.3827 8.67875 30.5094 8.74711ZM21.1414 8.96297C21.6145 9.14203 23.1224 9.89519 28.2453 12.5112C33.5829 15.2369 34.8014 15.8789 34.9827 16.0612C35.1553 16.2347 35.2458 16.5531 35.1985 16.82C35.1306 17.203 34.9275 17.4338 34.4354 17.6871L34.2587 17.7781L34.2738 21.1122C34.2821 22.9459 34.2956 24.5152 34.3038 24.5993C34.3137 24.7002 34.3293 24.7523 34.3497 24.7523C34.4493 24.7523 34.9153 25.3358 35.0437 25.6216C35.1613 25.8828 35.1846 26.0186 35.1824 26.4296C35.1802 26.8415 35.1492 26.9774 34.9899 27.2743C34.7581 27.7064 34.5615 27.9007 34.1335 28.1206C33.8798 28.2509 33.8601 28.2568 33.5949 28.2808C33.411 28.2974 33.2286 28.2977 33.045 28.2815C32.7799 28.2581 32.761 28.2525 32.5064 28.122C32.0456 27.8858 31.8524 27.688 31.6187 27.2131C31.4577 26.886 31.4294 26.7323 31.4476 26.2827C31.4612 25.947 31.4905 25.8238 31.6197 25.5598C31.7401 25.3138 32.0814 24.8903 32.2642 24.7602L32.3336 24.7108L32.3525 23.4155C32.378 21.6586 32.3789 18.7535 32.3539 18.7535C32.3428 18.7535 30.6275 19.6251 28.5422 20.6903C22.2387 23.9103 21.1776 24.434 20.958 24.434C20.9158 24.434 20.8094 24.405 20.7216 24.3695C20.1558 24.1407 18.1799 23.1495 12.9144 20.4533C8.02607 17.9502 7.07395 17.4476 6.91332 17.2855C6.87936 17.2512 6.81818 17.1516 6.77734 17.0641C6.71039 16.9205 6.70309 16.882 6.70309 16.6718C6.70309 16.4591 6.7098 16.4247 6.77954 16.2798C6.8216 16.1924 6.88623 16.0919 6.92316 16.0564C7.10907 15.878 8.18005 15.3141 13.4889 12.5998C19.4675 9.54307 20.7362 8.91493 20.938 8.9116C20.9737 8.91104 21.0653 8.93415 21.1414 8.96297ZM6.64153 10.9786C6.6788 10.9983 6.71475 11.0291 6.72145 11.047C6.74354 11.1059 7.05792 12.8529 7.04794 12.8614C7.01962 12.8856 3.61727 13.5128 3.60348 13.4964C3.58093 13.4696 3.31314 11.9686 3.29861 11.7875C3.2883 11.6588 3.29332 11.6347 3.33918 11.5923C3.38109 11.5537 3.70325 11.4845 4.95157 11.246C5.80959 11.0821 6.52561 10.9468 6.54272 10.9454C6.55981 10.944 6.60429 10.9589 6.64153 10.9786ZM37.7631 12.3569C38.3507 12.576 38.6582 12.7035 38.7509 12.7665C39.1096 13.0101 39.3624 13.5161 39.3627 13.9912C39.3628 14.1424 39.3462 14.232 39.1635 15.0685C39.0276 15.6905 38.9981 15.774 38.8681 15.9071C38.6712 16.1085 38.4255 16.1617 38.1606 16.0603C37.918 15.9675 37.7836 15.7611 37.7379 15.4113C37.7238 15.3036 37.6951 15.0832 37.6741 14.9216C37.6532 14.76 37.6342 14.626 37.632 14.6237C37.6276 14.6191 36.5171 14.2066 36.4771 14.1948C36.4628 14.1905 36.2948 14.3358 36.1038 14.5176C35.7305 14.8728 35.5949 14.9614 35.399 14.978C35.0439 15.0081 34.7425 14.7461 34.7045 14.3743C34.684 14.1732 34.717 14.0866 35.1039 13.3282C35.4562 12.6374 35.5328 12.5205 35.7469 12.3473C36.0348 12.1143 36.3314 12.0149 36.6946 12.0298C36.9018 12.0383 36.9425 12.0507 37.7631 12.3569ZM36.4224 12.7634L36.3687 12.919L36.2169 12.8626L36.0652 12.8063L36.0117 12.9527C35.9822 13.0332 35.9623 13.1027 35.9674 13.1072C35.9724 13.1117 36.033 13.1342 36.1019 13.1573C36.1709 13.1803 36.2327 13.2081 36.2392 13.2189C36.2458 13.2298 36.2296 13.3026 36.2033 13.3808C36.1771 13.459 36.1637 13.5301 36.1738 13.5388C36.2172 13.5765 36.4251 13.6399 36.4422 13.6206C36.4525 13.6089 36.4801 13.5467 36.5035 13.4823C36.527 13.4179 36.554 13.3602 36.5637 13.3541C36.5734 13.348 36.6435 13.3649 36.7195 13.3916C36.7955 13.4184 36.8604 13.4403 36.8637 13.4403C36.867 13.4403 36.8918 13.3734 36.9188 13.2917L36.9678 13.1431L36.8859 13.108C36.8408 13.0888 36.7988 13.073 36.7927 13.073C36.7865 13.073 36.7538 13.0622 36.72 13.0491L36.6585 13.0252L36.7065 12.896C36.7328 12.825 36.7544 12.7547 36.7544 12.7397C36.7545 12.7197 36.5229 12.6078 36.4815 12.6078C36.4785 12.6078 36.4519 12.6778 36.4224 12.7634ZM7.10588 13.1593C7.11342 13.3586 7.19519 13.3339 5.41061 13.6724C4.39612 13.8649 3.7964 13.9684 3.7724 13.9552C3.69951 13.9153 3.65344 13.8422 3.63766 13.7412L3.62174 13.6395L3.7143 13.6216C6.05965 13.1683 7.064 12.9884 7.08195 13.0182C7.09286 13.0362 7.10363 13.0997 7.10588 13.1593ZM38.3128 13.242C38.1718 13.3767 38.2506 13.5872 38.4419 13.5872C38.6304 13.5872 38.7104 13.3806 38.5754 13.2425C38.4866 13.1516 38.4075 13.1515 38.3128 13.242ZM37.7579 13.5118C37.6686 13.6032 37.6644 13.7122 37.7467 13.7964C37.8134 13.8646 37.8987 13.8729 37.9973 13.8208C38.1098 13.7613 38.1253 13.628 38.0329 13.5156C37.9506 13.4156 37.8533 13.4143 37.7579 13.5118ZM5.91319 14.0466C5.94907 14.2513 5.96427 14.2959 5.99507 14.2872C6.01587 14.2813 6.11147 14.2628 6.20753 14.246C6.36421 14.2187 6.3863 14.2198 6.42254 14.2568C6.45351 14.2886 6.45691 14.308 6.43709 14.3406C6.40811 14.3882 6.32879 14.4064 5.38938 14.5819C4.79709 14.6925 4.76841 14.6957 4.73806 14.6532C4.68076 14.573 4.73497 14.5252 4.92191 14.4911C5.01612 14.4738 5.0976 14.4455 5.1043 14.4277C5.11093 14.41 5.09909 14.299 5.07793 14.1811C5.01667 13.8398 4.98022 13.8788 5.44048 13.7931C5.79562 13.7271 5.84299 13.7229 5.85526 13.7569C5.86288 13.778 5.88894 13.9084 5.91319 14.0466ZM38.63 13.7584C38.4332 13.8396 38.4805 14.1503 38.6897 14.1503C38.8613 14.1503 38.9503 14.0098 38.874 13.859C38.8165 13.7453 38.7391 13.7133 38.63 13.7584ZM38.0249 14.0668C37.9688 14.1151 37.9512 14.1504 37.9512 14.2148C37.9512 14.4356 38.2536 14.4964 38.3362 14.2923C38.3881 14.1643 38.2738 14.0034 38.1311 14.0034C38.1132 14.0034 38.0654 14.032 38.0249 14.0668ZM38.7868 20.5873C39.1432 20.7008 39.4261 20.9998 39.5178 21.3602C39.7006 22.0782 39.1858 22.7691 38.4681 22.7691C37.5127 22.7691 37.0206 21.6128 37.6695 20.8927C37.9458 20.5861 38.3962 20.463 38.7868 20.5873ZM3.86613 22.5468C3.94177 22.6017 3.95713 22.6611 3.96005 22.9098L3.96245 23.1118H3.72309H3.48373V22.8811C3.48373 22.6699 3.48885 22.6442 3.54438 22.5767C3.63343 22.4684 3.74403 22.4581 3.86613 22.5468ZM4.64225 22.5094C4.77416 22.5658 4.8002 22.6276 4.8002 22.8847V23.1118H4.56084H4.32148L4.32184 22.8976C4.32225 22.6491 4.34922 22.5777 4.46543 22.5181C4.5652 22.4669 4.54528 22.4679 4.64225 22.5094ZM5.56799 22.5713C5.63558 22.6404 5.63795 22.6508 5.63795 22.8773V23.1118H5.39859H5.15924V22.9152C5.15924 22.6061 5.2213 22.502 5.40642 22.5005C5.47634 22.4999 5.51459 22.5167 5.56799 22.5713ZM37.8675 22.914C38.1253 23.0747 38.2572 23.1183 38.4898 23.1196C38.7162 23.1209 38.8804 23.0675 39.1142 22.9164C39.3361 22.7731 39.3694 22.7636 39.5399 22.795C40.0178 22.8831 40.2941 23.3058 40.3699 24.0648C40.4164 24.5302 40.3566 24.7673 40.1426 24.9671C39.9212 25.1737 39.961 25.1689 38.4967 25.1687C37.2449 25.1686 37.2074 25.1672 37.0725 25.1165C36.888 25.0471 36.7055 24.8597 36.647 24.6797C36.612 24.572 36.607 24.4923 36.6172 24.2045C36.6456 23.3992 36.918 22.9109 37.4001 22.8014C37.5813 22.7603 37.6459 22.7759 37.8675 22.914ZM5.99486 23.3552C6.14718 23.4661 6.14242 23.4119 6.13519 24.9466L6.12863 26.3407L6.05798 26.4161C6.0191 26.4576 5.94663 26.5028 5.89691 26.5165C5.83935 26.5323 5.33433 26.5388 4.50641 26.5344C3.06201 26.5267 3.13161 26.5349 3.0279 26.3609C2.98316 26.2858 2.98125 26.2276 2.98118 24.9291C2.98108 23.4594 2.98146 23.4547 3.1128 23.3666C3.14794 23.3431 3.21615 23.3152 3.26438 23.3046C3.31261 23.294 3.92992 23.2888 4.63614 23.2931C5.9186 23.3008 5.92032 23.3008 5.99486 23.3552ZM3.56751 23.7896C3.46068 23.8163 3.4598 23.8256 3.4598 24.927V25.9738L3.513 26.0119C3.5591 26.045 3.70064 26.05 4.57444 26.05C5.56902 26.05 5.58328 26.0494 5.62826 25.9985C5.67158 25.9495 5.67385 25.8953 5.67385 24.9098C5.67385 23.947 5.67079 23.8695 5.63113 23.8289C5.59164 23.7885 5.51416 23.7849 4.60189 23.7814C4.05931 23.7793 3.59384 23.783 3.56751 23.7896ZM2.80841 24.0484L2.81525 24.2871H2.57319C2.33757 24.2871 2.32926 24.2852 2.26116 24.2156C2.1715 24.1238 2.16638 24.0011 2.24817 23.9038C2.30971 23.8306 2.44556 23.8001 2.68188 23.8065L2.80156 23.8097L2.80841 24.0484ZM6.72703 23.8212C6.92629 23.8683 6.99669 24.0763 6.86052 24.2156C6.79292 24.2847 6.78277 24.2871 6.56132 24.2871H6.33209V24.0423V23.7974L6.48169 23.798C6.56398 23.7983 6.67437 23.8088 6.72703 23.8212ZM5.51257 24.9176L5.51882 25.8787H4.5731H3.62735V24.9112V23.9438L4.56682 23.9502L5.5063 23.9566L5.51257 24.9176ZM2.81353 24.9115V25.1441H2.56433C2.31545 25.1441 2.31507 25.144 2.25317 25.0688C2.16647 24.9634 2.16947 24.8443 2.26116 24.7505C2.32924 24.6808 2.33766 24.6789 2.57233 24.6789H2.81353V24.9115ZM6.86052 24.7505C6.95222 24.8443 6.95521 24.9634 6.86851 25.0688C6.807 25.1436 6.80484 25.1441 6.56932 25.1441H6.33209V24.9115V24.6789H6.56132C6.78277 24.6789 6.79292 24.6813 6.86052 24.7505ZM2.81353 25.783V26.0301L2.57216 26.0217C2.33407 26.0134 2.32986 26.0122 2.261 25.9333C2.16705 25.8257 2.16693 25.7146 2.26064 25.6119C2.32945 25.5365 2.33225 25.5359 2.5718 25.5359H2.81353V25.783ZM6.86052 25.6074C6.90688 25.6549 6.93048 25.7039 6.93048 25.7527C6.93048 25.957 6.82833 26.0256 6.52434 26.0256H6.33209V25.7807V25.5359H6.56132C6.78277 25.5359 6.79292 25.5383 6.86052 25.6074ZM3.95871 26.9555C3.95101 27.184 3.94622 27.2042 3.88466 27.2671C3.78671 27.3672 3.64666 27.3621 3.5531 27.255C3.48689 27.1792 3.48373 27.165 3.48373 26.9434V26.7111H3.72534H3.96692L3.95871 26.9555ZM4.79943 26.9499C4.79864 27.2026 4.78763 27.2343 4.67463 27.3095C4.58976 27.366 4.46938 27.3449 4.39114 27.2598C4.33967 27.2038 4.33257 27.1708 4.32522 26.9541L4.31701 26.7111H4.55859H4.8002L4.79943 26.9499ZM5.63795 26.9327C5.63795 27.1865 5.60552 27.2762 5.49704 27.3221C5.40486 27.3612 5.29955 27.3367 5.22886 27.2597C5.17956 27.206 5.17166 27.1693 5.16323 26.9549L5.15366 26.7111H5.39582H5.63795V26.9327ZM6.7749 32.7956C6.20228 32.9265 5.88205 33.2673 5.72223 33.916C5.63297 34.2782 5.60626 34.6253 5.62038 35.2398C5.64207 36.1855 5.78051 36.6771 6.11786 37.0063C6.39748 37.2791 6.69005 37.3624 7.36631 37.3616C7.84069 37.3611 8.20885 37.3214 8.51015 37.2382L8.70173 37.1854V36.7227V36.26L8.49229 36.2785C8.37711 36.2887 8.0405 36.297 7.7443 36.297C7.23475 36.297 7.20043 36.2941 7.10703 36.243C6.97934 36.1731 6.89623 36.0703 6.84939 35.9244C6.73517 35.5683 6.73454 34.6068 6.84831 34.2065C6.90478 34.0078 7.03977 33.8766 7.22968 33.8359C7.44661 33.7894 8.19841 33.823 8.62394 33.8982L8.70173 33.912V33.4585V33.005L8.63421 32.9693C8.32192 32.8041 7.19744 32.6991 6.7749 32.7956ZM17.7691 32.7956C16.9876 32.9301 16.6363 33.3453 16.4996 34.2961C16.4534 34.6176 16.462 35.6201 16.5137 35.9297C16.6232 36.586 16.8646 36.9788 17.2835 37.1827C17.5694 37.3218 17.7387 37.3483 18.3478 37.3491C18.97 37.35 19.1568 37.3203 19.4489 37.1742C19.8853 36.956 20.1157 36.5526 20.2199 35.8249C20.2598 35.5461 20.2599 34.5758 20.2201 34.2977C20.0825 33.3366 19.7309 32.9272 18.9291 32.794C18.6698 32.751 18.0233 32.7518 17.7691 32.7956ZM1.99658 35.0544L1.33935 37.3254L1.92441 37.3319C2.2462 37.3355 2.51464 37.3332 2.52091 37.3268C2.52721 37.3204 2.56331 37.1797 2.60117 37.0142C2.63901 36.8487 2.68049 36.6885 2.69337 36.6582L2.71676 36.6031H3.37439H4.032L4.05335 36.6827C4.06511 36.7264 4.10553 36.8917 4.14319 37.0499L4.21167 37.3376H4.80793H5.40417L5.39342 37.2825C5.38751 37.2522 5.09312 36.2275 4.73923 35.0054L4.09582 32.7834H3.37482H2.65383L1.99658 35.0544ZM10.2485 32.8263C10.1401 33.205 8.96043 37.285 8.95298 37.307C8.94485 37.331 9.07197 37.3376 9.53742 37.3376H10.1323L10.2217 36.9703L10.3111 36.6031H10.9656C11.565 36.6031 11.622 36.6067 11.6416 36.6459C11.6533 36.6695 11.6981 36.8348 11.741 37.0132L11.8189 37.3376H12.4146C12.7421 37.3376 13.0103 37.3294 13.0105 37.3193C13.0107 37.3092 12.7172 36.2846 12.3583 35.0424L11.7057 32.7839L10.9832 32.7837C10.3157 32.7834 10.2599 32.7867 10.2485 32.8263ZM13.3931 34.592C13.3931 35.6088 13.4029 36.4533 13.4155 36.521C13.4932 36.9404 13.6865 37.1642 14.0743 37.2841C14.1713 37.3141 14.3863 37.3233 15.1704 37.3312L16.1458 37.3411V36.8143V36.2875L15.4456 36.28C14.6657 36.2717 14.6205 36.263 14.5686 36.1105C14.5502 36.0565 14.5421 35.5339 14.5421 34.408V32.7834H13.9676H13.3931V34.592ZM20.7513 32.8169C20.7442 32.8358 20.7426 33.6045 20.7477 34.5252C20.758 36.3692 20.7559 36.3418 20.9115 36.6572C21.0419 36.9214 21.3115 37.1406 21.639 37.2487C22.085 37.396 23.0121 37.396 23.4581 37.2487C23.9032 37.1018 24.1761 36.8057 24.3015 36.3337C24.34 36.1888 24.3438 36.0239 24.3438 34.4851V32.7957H23.7693H23.1948L23.1829 34.3994C23.1739 35.6028 23.1636 36.0163 23.1415 36.0556C23.0973 36.1347 22.9796 36.2277 22.8783 36.2638C22.8269 36.2821 22.6846 36.296 22.5486 36.296C22.4125 36.296 22.2702 36.2821 22.2189 36.2638C22.1175 36.2277 21.9999 36.1347 21.9556 36.0556C21.9336 36.0163 21.9233 35.6028 21.9143 34.3994L21.9023 32.7957L21.3333 32.7891C20.8627 32.7837 20.762 32.7885 20.7513 32.8169ZM24.9541 35.0588V37.3376H25.5286H26.103V36.5532V35.7688L26.3323 35.7758L26.5615 35.7828L26.8675 36.5541L27.1735 37.3254L27.7626 37.3319L28.3517 37.3385L28.3074 37.234C28.2831 37.1765 28.1154 36.7934 27.9347 36.3827C27.754 35.972 27.6015 35.6242 27.5958 35.6099C27.5901 35.5956 27.6501 35.5325 27.7293 35.4696C27.9207 35.3175 28.028 35.1627 28.1062 34.9259C28.1663 34.7439 28.1709 34.7004 28.1715 34.3137C28.172 33.9919 28.1626 33.8614 28.1301 33.7383C28.0004 33.247 27.7521 32.9707 27.3337 32.8522C27.1542 32.8014 27.087 32.7981 26.0492 32.7893L24.9541 32.7799V35.0588ZM29.7984 32.8124C29.7888 32.8283 29.489 33.8502 29.1322 35.0833L28.4834 37.3254L29.0688 37.3319C29.4681 37.3364 29.6592 37.3301 29.6701 37.3121C29.6789 37.2976 29.716 37.1514 29.7525 36.9872C29.7891 36.8231 29.8288 36.6695 29.8408 36.6459C29.8608 36.6067 29.9182 36.6031 30.5189 36.6031H31.1752L31.1965 36.6827C31.2083 36.7264 31.2487 36.8917 31.2864 37.0499L31.3548 37.3376H31.9562H32.5575L31.8986 35.0605L31.2397 32.7834H30.5278C30.006 32.7834 29.8112 32.7912 29.7984 32.8124ZM32.9247 35.0601V37.3406L34.0796 37.3317C35.0822 37.3239 35.2535 37.3172 35.3782 37.2807C35.9728 37.1065 36.2955 36.6789 36.4343 35.8808C36.4887 35.5685 36.4957 34.6691 36.4464 34.3382C36.4011 34.0347 36.3134 33.7358 36.2094 33.5311C36.1006 33.3167 35.8619 33.0676 35.6632 32.9609C35.3751 32.8062 35.3287 32.8013 34.0677 32.7899L32.9247 32.7797V35.0601ZM37.9897 32.8259C37.9751 32.8749 36.7699 37.0424 36.7186 37.2213L36.6852 37.3376H37.2796H37.8739L37.9508 37.0132C37.9931 36.8348 38.0327 36.6695 38.0389 36.6459C38.0493 36.6064 38.1017 36.6031 38.706 36.6031C39.3064 36.6031 39.3636 36.6067 39.3832 36.6459C39.3949 36.6695 39.4396 36.8348 39.4825 37.0132L39.5605 37.3376H40.158H40.7555L40.7403 37.2703C40.7319 37.2332 40.4376 36.2113 40.0862 34.9993L39.4472 32.7957L38.7249 32.7892C38.0523 32.7831 38.0017 32.7857 37.9897 32.8259ZM18.7713 33.8808C18.9822 33.9921 19.0541 34.1795 19.0912 34.7136C19.1203 35.1327 19.0884 35.6678 19.0212 35.8888C18.9618 36.0839 18.8971 36.171 18.7606 36.2398C18.6607 36.2902 18.6125 36.297 18.3592 36.297C18.0973 36.297 18.0605 36.2914 17.9523 36.2344C17.7322 36.1185 17.6619 35.9375 17.6297 35.4033C17.6013 34.9318 17.6329 34.3852 17.6999 34.1903C17.802 33.893 17.9666 33.8069 18.4077 33.8199C18.6207 33.8263 18.6901 33.8379 18.7713 33.8808ZM38.9236 34.7115C39.0253 35.1592 39.1027 35.5313 39.0957 35.5385C39.0887 35.5456 38.9109 35.5484 38.7005 35.5447L38.3181 35.538L38.5117 34.675C38.6293 34.1508 38.7118 33.8288 38.722 33.8548C38.7313 33.8783 38.822 34.2638 38.9236 34.7115ZM3.56901 34.7007L3.76203 35.538L3.38014 35.5447C3.1701 35.5484 2.99259 35.5457 2.9857 35.5386C2.96973 35.5223 3.34792 33.8365 3.36405 33.8519C3.37063 33.8582 3.46286 34.2402 3.56901 34.7007ZM11.1808 34.7074L11.374 35.5502H10.9746H10.5751L10.643 35.2503C10.6803 35.0853 10.7671 34.6999 10.8357 34.3938C10.9044 34.0877 10.9667 33.8434 10.9741 33.8509C10.9815 33.8584 11.0745 34.2439 11.1808 34.7074ZM30.7128 34.6874L30.9064 35.538L30.5239 35.5447C30.3136 35.5484 30.1358 35.5457 30.1289 35.5386C30.1143 35.5237 30.4893 33.8365 30.5072 33.8366C30.5138 33.8367 30.6063 34.2195 30.7128 34.6874ZM26.8618 33.9087C26.9823 33.9839 27.0215 34.0859 27.0222 34.3266C27.0229 34.5601 26.9771 34.6878 26.8607 34.7767C26.8029 34.8208 26.759 34.8263 26.4554 34.8271L26.115 34.8279L26.1085 34.3443L26.102 33.8608L26.4436 33.8609C26.7402 33.8609 26.7953 33.8672 26.8618 33.9087ZM35.0175 33.9095C35.198 33.9999 35.275 34.1989 35.321 34.6931C35.3656 35.1727 35.3091 35.7939 35.2012 36.0102C35.1455 36.1219 35.0321 36.2276 34.9395 36.2542C34.9043 36.2643 34.6978 36.2725 34.4806 36.2725H34.0856L34.0794 35.0666L34.0732 33.8608H34.4967C34.8711 33.8608 34.9315 33.8664 35.0175 33.9095ZM32.527 37.7722C32.4867 37.9459 32.3681 37.9673 32.1037 37.8486C31.8249 37.7234 31.5666 37.726 31.4055 37.8556C31.3215 37.9232 31.2352 38.1045 31.2035 38.2797C31.1891 38.359 31.1774 38.4275 31.1774 38.4317C31.1774 38.436 31.279 38.4394 31.4032 38.4394C31.6077 38.4394 31.6304 38.4348 31.6441 38.3906C31.6888 38.2467 31.811 38.2334 32.0665 38.3448C32.3929 38.4869 32.6835 38.4615 32.8197 38.2789C32.8938 38.1795 32.9726 37.9331 32.9726 37.8007V37.7049H32.7576C32.5429 37.7049 32.5426 37.705 32.527 37.7722ZM6.17253 38.6092C5.86898 38.659 5.64207 38.7781 5.48467 38.9705C5.39302 39.0824 5.2668 39.3773 5.22097 39.5865C5.15526 39.8863 5.12927 40.3853 5.15835 40.7885C5.22144 41.6635 5.43524 42.0559 5.93684 42.2173C6.08517 42.2651 6.15621 42.2713 6.54751 42.2706C6.98503 42.2698 7.23021 42.2438 7.47502 42.1721L7.60068 42.1353V41.767V41.3986L7.47502 41.4145C7.40592 41.4233 7.14471 41.4323 6.89458 41.4346C6.38092 41.4394 6.29973 41.4189 6.19503 41.2581C6.10479 41.1195 6.08794 41.0168 6.07598 40.5329C6.05905 39.8474 6.11791 39.6093 6.33173 39.4984C6.42642 39.4493 6.47319 39.4434 6.76202 39.4435C7.06213 39.4437 7.45932 39.4754 7.55942 39.507C7.59908 39.5196 7.6015 39.4952 7.59532 39.1462L7.58872 38.772L7.4451 38.7272C7.10778 38.6222 6.46017 38.5621 6.17253 38.6092ZM9.08245 38.6099C8.69757 38.6602 8.49452 38.7461 8.30713 38.9379C8.08378 39.1666 7.97636 39.4938 7.93083 40.0838C7.89979 40.4865 7.92702 40.987 7.99737 41.3064C8.11013 41.8183 8.37493 42.109 8.83584 42.2269C9.0689 42.2866 9.79356 42.2869 10.0257 42.2274C10.7224 42.049 10.9863 41.4845 10.9439 40.2636C10.908 39.2315 10.6511 38.7885 10.0062 38.6473C9.80112 38.6023 9.29653 38.582 9.08245 38.6099ZM28.8059 38.6226C28.5494 38.6726 28.4181 38.7374 28.259 38.8927C28.018 39.1278 27.8949 39.4852 27.8515 40.0758C27.8084 40.6613 27.8723 41.2847 28.0123 41.6454C28.0969 41.8636 28.3295 42.1062 28.5256 42.1811C28.6732 42.2374 28.909 42.2831 29.0531 42.2834C29.1025 42.2835 29.1429 42.2887 29.1429 42.295C29.1429 42.3012 29.1106 42.3585 29.0711 42.4222C29.0316 42.4859 28.9993 42.5443 28.9993 42.5519C28.9993 42.5596 29.0233 42.5767 29.0528 42.59C29.0822 42.6033 29.1164 42.6438 29.1287 42.68C29.1575 42.7646 29.1203 42.8126 28.9964 42.8505L28.9035 42.879V43.0587V43.2385H29.1341C29.4141 43.2385 29.5229 43.208 29.6241 43.1012C29.6874 43.0343 29.7033 42.9954 29.7123 42.8844C29.7278 42.6935 29.6896 42.6155 29.5471 42.5461L29.43 42.4892L29.4977 42.3801L29.5654 42.2709L29.8029 42.2414C29.9336 42.2252 30.097 42.1946 30.1661 42.1734L30.2918 42.1348V41.7667V41.3986L30.1661 41.4145C30.097 41.4233 29.8358 41.4323 29.5857 41.4346C29.072 41.4394 28.9908 41.4189 28.8861 41.2581C28.7975 41.122 28.7796 41.0189 28.7667 40.5696C28.7468 39.8799 28.8119 39.6069 29.0223 39.4984C29.1174 39.4494 29.1644 39.4434 29.4531 39.4435C29.7532 39.4437 30.1504 39.4754 30.2505 39.507C30.2902 39.5196 30.2926 39.4952 30.2864 39.1462L30.2798 38.772L30.1362 38.7272C29.7557 38.6087 29.1297 38.5595 28.8059 38.6226ZM35.067 38.6125C34.6243 38.6745 34.3506 38.8267 34.1773 39.1072C34.0904 39.2478 33.9847 39.6014 33.9559 39.8473C33.9226 40.1326 33.9229 40.7417 33.9566 41.0226C34.0308 41.642 34.2538 42.0102 34.6481 42.1642C34.943 42.2794 35.4677 42.3138 35.904 42.2465C36.5949 42.14 36.8833 41.733 36.946 40.7762C36.9699 40.4128 36.9431 39.8742 36.8883 39.6147C36.737 38.8986 36.3759 38.6255 35.5457 38.599C35.3746 38.5935 35.1591 38.5996 35.067 38.6125ZM11.6219 38.6618C11.6219 38.6764 11.5303 39.4772 11.4184 40.4414C11.3065 41.4057 11.215 42.2091 11.215 42.2268C11.215 42.2524 11.3073 42.2591 11.6578 42.2591C12.0222 42.2591 12.1006 42.253 12.1006 42.2247C12.1006 42.1736 12.29 40.5224 12.3073 40.4227C12.3193 40.3536 12.3667 40.5212 12.553 41.292L12.7838 42.2469L13.2165 42.2535L13.6492 42.2602L13.8583 41.3843C14.122 40.2803 14.1125 40.3179 14.1243 40.33C14.1344 40.3403 14.3506 42.1451 14.3506 42.2189C14.3506 42.2547 14.3989 42.2591 14.7966 42.2591H15.2427L15.2297 42.155C15.2226 42.0978 15.1272 41.2822 15.0177 40.3426L14.8187 38.6343L14.3882 38.6409L13.9576 38.6476L13.5989 39.9009C13.4016 40.5902 13.2336 41.1501 13.2257 41.1451C13.2177 41.14 13.0504 40.5733 12.8539 39.8856L12.4965 38.6353H12.0592C11.7617 38.6353 11.6219 38.6438 11.6219 38.6618ZM15.691 40.4459V42.2591H16.1458H16.6005V41.7082C16.6005 41.4052 16.6086 41.1577 16.6185 41.1582C16.6284 41.1586 16.7011 41.1751 16.7801 41.1948C16.859 41.2145 17.0314 41.2372 17.163 41.2454C17.8715 41.2892 18.2155 40.9804 18.3016 40.2232C18.3474 39.8195 18.2954 39.3899 18.1671 39.1124C18.0905 38.9467 17.9104 38.7784 17.7304 38.7041C17.5972 38.6492 17.5708 38.6477 16.6424 38.6403L15.691 38.6327V40.4459ZM18.6648 40.0004C18.6744 41.507 18.6766 41.5304 18.8298 41.7746C19.0502 42.126 19.426 42.2712 20.1071 42.2684C20.9607 42.2648 21.3478 42.039 21.4956 41.4586C21.5252 41.3426 21.5313 41.087 21.5313 39.9769V38.6353H21.0765H20.6217V39.8927V41.15L20.5679 41.231C20.4659 41.3842 20.4054 41.4117 20.1458 41.4224C19.8643 41.4339 19.7213 41.3853 19.6411 41.2508C19.5942 41.172 19.5927 41.1311 19.5926 39.9024L19.5925 38.6353H19.1243H18.6561L18.6648 40.0004ZM21.8425 39.0516V39.4678H22.2853H22.7281V40.8635V42.2591H23.1948H23.6616V40.8635V39.4678H24.1044H24.5472V39.0516V38.6353H23.1948H21.8425V39.0516ZM24.9541 40.413C24.6711 41.3907 24.436 42.206 24.4318 42.2248C24.4253 42.2533 24.5031 42.2591 24.8916 42.2591H25.3592L25.3857 42.155C25.4002 42.0978 25.4222 42.0097 25.4344 41.9592C25.4467 41.9087 25.4679 41.8233 25.4816 41.7694L25.5065 41.6715H26.0409H26.5753L26.6443 41.9431C26.6823 42.0926 26.7196 42.225 26.7271 42.2375C26.735 42.2505 26.939 42.2573 27.2069 42.2535L27.673 42.2469L27.1771 40.5329C26.9043 39.5902 26.6691 38.7777 26.6544 38.7271L26.6277 38.6353L26.0482 38.6354L25.4687 38.6355L24.9541 40.413ZM31.5484 38.6655C31.5424 38.6826 31.3102 39.4832 31.0323 40.4446C30.7544 41.4061 30.5214 42.2077 30.5145 42.2259C30.5043 42.2532 30.5876 42.2591 30.9789 42.2591H31.4557L31.5216 41.9648L31.5876 41.6706L32.1292 41.6771L32.6708 41.6837L32.7407 41.9714L32.8106 42.2591H33.2865C33.5483 42.2591 33.7622 42.2564 33.7618 42.253C33.7615 42.2496 33.5265 41.437 33.2397 40.4472L32.7183 38.6476L32.1388 38.641C31.6878 38.6359 31.5568 38.6414 31.5484 38.6655ZM9.7084 39.4678C9.81034 39.4968 9.90618 39.5934 9.95738 39.7187C10.018 39.8671 10.0509 40.3964 10.0205 40.7332C9.98821 41.0911 9.96324 41.1849 9.87207 41.2911C9.75921 41.4226 9.5318 41.4722 9.26061 41.4245C9.12053 41.3999 9.0842 41.3824 9.01091 41.3043C8.87577 41.1601 8.85731 41.0543 8.85731 40.4227C8.85731 39.958 8.86397 39.8523 8.89985 39.7472C8.94734 39.6081 9.04265 39.5007 9.14703 39.4687C9.24354 39.4392 9.60564 39.4386 9.7084 39.4678ZM26.1982 40.1044C26.2773 40.4478 26.3477 40.7536 26.3546 40.7839C26.3672 40.8389 26.367 40.839 26.0437 40.839C25.8657 40.839 25.7201 40.8343 25.7201 40.8286C25.7201 40.8115 26.0083 39.5329 26.0241 39.4801C26.0426 39.4183 26.0296 39.3719 26.1982 40.1044ZM32.2916 40.1303C32.3765 40.4978 32.446 40.8076 32.446 40.8188C32.446 40.8299 32.2999 40.839 32.1213 40.839C31.823 40.839 31.7976 40.8355 31.8095 40.7961C31.8285 40.7334 32.1109 39.4753 32.1109 39.4536C32.1109 39.3758 32.1582 39.5528 32.2916 40.1303ZM35.774 39.4984C35.9685 39.5988 36.0362 39.8379 36.0357 40.4227C36.035 41.2409 35.9178 41.439 35.4362 41.4359C34.9818 41.4331 34.8733 41.2779 34.8476 40.5941C34.8401 40.3963 34.8457 40.1365 34.8602 40.0075C34.9105 39.5591 35.029 39.4433 35.438 39.4433C35.6281 39.4433 35.6854 39.4527 35.774 39.4984ZM17.2752 39.5151C17.3541 39.5786 17.3904 39.7154 17.3903 39.9481C17.3901 40.2087 17.3584 40.3155 17.2633 40.3754C17.1968 40.4172 17.15 40.4225 16.8997 40.4169L16.6125 40.4105L16.606 39.9392L16.5995 39.4678H16.908C17.1766 39.4678 17.224 39.4739 17.2752 39.5151Z" fill="white"/>
</svg>
