<svg width="59" height="60" viewBox="0 0 59 60" fill="none" xmlns="http://www.w3.org/2000/svg">
<path d="M16.7701 2.1875C16.7701 0.979388 15.7907 0 14.5826 0C13.3745 0 12.3951 0.979388 12.3951 2.1875V6.79367C8.19708 7.12982 5.44112 7.95483 3.41637 9.97958C1.39162 12.0043 0.566615 14.7603 0.230469 18.9583H58.1013C57.7653 14.7603 56.9402 12.0043 54.9155 9.97958C52.8907 7.95483 50.1348 7.12982 45.9368 6.79367V2.1875C45.9368 0.979388 44.9574 0 43.7493 0C42.5412 0 41.5618 0.979388 41.5618 2.1875V6.60012C39.6213 6.5625 37.4464 6.5625 34.9993 6.5625H23.3326C20.8855 6.5625 18.7105 6.5625 16.7701 6.60012V2.1875Z" fill="#027BDF"/>
<path fill-rule="evenodd" clip-rule="evenodd" d="M0 29.8965C0 27.4494 3.31396e-07 25.2744 0.0376253 23.334H58.2957C58.3333 25.2744 58.3333 27.4494 58.3333 29.8965V35.7298C58.3333 46.7292 58.3333 52.2291 54.9162 55.646C51.4993 59.0632 45.9993 59.0632 35 59.0632H23.3333C12.3339 59.0632 6.83419 59.0632 3.41708 55.646C3.47694e-07 52.2291 0 46.7292 0 35.7298V29.8965ZM43.75 35.7298C45.3609 35.7298 46.6667 34.424 46.6667 32.8132C46.6667 31.2023 45.3609 29.8965 43.75 29.8965C42.1391 29.8965 40.8333 31.2023 40.8333 32.8132C40.8333 34.424 42.1391 35.7298 43.75 35.7298ZM43.75 47.3965C45.3609 47.3965 46.6667 46.0907 46.6667 44.4798C46.6667 42.8689 45.3609 41.5632 43.75 41.5632C42.1391 41.5632 40.8333 42.8689 40.8333 44.4798C40.8333 46.0907 42.1391 47.3965 43.75 47.3965ZM32.0833 32.8132C32.0833 34.424 30.7775 35.7298 29.1667 35.7298C27.5558 35.7298 26.25 34.424 26.25 32.8132C26.25 31.2023 27.5558 29.8965 29.1667 29.8965C30.7775 29.8965 32.0833 31.2023 32.0833 32.8132ZM32.0833 44.4798C32.0833 46.0907 30.7775 47.3965 29.1667 47.3965C27.5558 47.3965 26.25 46.0907 26.25 44.4798C26.25 42.8689 27.5558 41.5632 29.1667 41.5632C30.7775 41.5632 32.0833 42.8689 32.0833 44.4798ZM14.5833 35.7298C16.1941 35.7298 17.5 34.424 17.5 32.8132C17.5 31.2023 16.1941 29.8965 14.5833 29.8965C12.9725 29.8965 11.6667 31.2023 11.6667 32.8132C11.6667 34.424 12.9725 35.7298 14.5833 35.7298ZM14.5833 47.3965C16.1941 47.3965 17.5 46.0907 17.5 44.4798C17.5 42.8689 16.1941 41.5632 14.5833 41.5632C12.9725 41.5632 11.6667 42.8689 11.6667 44.4798C11.6667 46.0907 12.9725 47.3965 14.5833 47.3965Z" fill="#027BDF"/>
</svg>
