<svg width="27" height="23" viewBox="0 0 27 23" fill="none" xmlns="http://www.w3.org/2000/svg">
<path d="M5.81398 10.637C2.8025 13.6196 1.14157 20.6914 1.00028 21.3123C0.997718 21.3235 1.01335 21.3254 1.02031 21.3162C1.31188 20.9303 3.68587 17.836 5.81398 16.5324C8.51852 14.8758 13.6028 14.4107 13.8443 14.3894C13.8505 14.3889 13.8532 14.394 13.8532 14.4003V20.2614C13.8532 20.2705 13.8637 20.2755 13.8707 20.2697L25.6339 10.6453C25.6391 10.641 25.6391 10.633 25.6339 10.6287L13.8707 1.00427C13.8637 0.998548 13.8532 1.00353 13.8532 1.01257V6.87656C13.8532 6.88152 13.8532 6.88537 13.8483 6.88635C13.6667 6.92274 8.49972 7.97705 5.81398 10.637Z" stroke="#047CE0" stroke-width="2"/>
</svg>
