<svg width="54" height="39" viewBox="0 0 54 39" fill="none" xmlns="http://www.w3.org/2000/svg">
<path d="M24.0977 36.4149C24.0977 37.1059 24.3369 37.7039 24.8153 38.2089C25.2937 38.7139 25.8917 38.9531 26.6093 38.9265H51.5261C52.1905 38.9265 52.7752 38.6873 53.2802 38.2089C53.7852 37.7305 54.0244 37.1325 53.9978 36.4149C53.9978 35.2189 53.7187 34.0096 53.1606 32.787C52.6025 31.5644 51.8716 30.4747 50.9679 29.5179C50.0643 28.5611 49.0277 27.6707 47.8583 26.8468C46.6889 26.0229 45.4929 25.3983 44.2703 24.9731C45.7321 24.0694 46.8882 22.8601 47.7387 21.3452C48.5892 19.8302 49.0144 18.209 49.0144 16.4814V14.0097C49.0144 11.2456 48.0444 8.89344 46.1042 6.95325C44.164 5.01306 41.8118 4.04297 39.0477 4.04297C36.2836 4.04297 33.9315 5.01306 31.9913 6.95325C30.0511 8.89344 29.081 11.2456 29.081 14.0097V16.4814C29.081 18.2356 29.5063 19.8568 30.3568 21.3452C31.2072 22.8336 32.3634 24.0428 33.8252 24.9731C32.576 25.4249 31.38 26.0495 30.2372 26.8468C29.0943 27.6442 28.0578 28.5345 27.1275 29.5179C26.1973 30.5013 25.4664 31.591 24.9349 32.787C24.4033 33.983 24.1242 35.1923 24.0977 36.4149Z" fill="#027BDF"/>
<path d="M0 36.4149C0 37.1059 0.239201 37.7039 0.717604 38.2089C1.19601 38.7139 1.79401 38.9531 2.51161 38.9265H27.4284C28.0929 38.9265 28.6776 38.6873 29.1825 38.2089C29.6875 37.7305 29.9267 37.1325 29.9001 36.4149C29.9001 35.2189 29.6211 34.0096 29.0629 32.787C28.5048 31.5644 27.7739 30.4747 26.8703 29.5179C25.9666 28.5611 24.9301 27.6707 23.7607 26.8468C22.5912 26.0229 21.3952 25.3983 20.1726 24.9731C21.6344 24.0694 22.7906 22.8601 23.641 21.3452C24.4915 19.8302 24.9168 18.209 24.9168 16.4814V14.0097C24.9168 11.2456 23.9467 8.89344 22.0065 6.95325C20.0663 5.01306 17.7142 4.04297 14.9501 4.04297C12.186 4.04297 9.83383 5.01306 7.89364 6.95325C5.95345 8.89344 4.98336 11.2456 4.98336 14.0097V16.4814C4.98336 18.2356 5.4086 19.8568 6.2591 21.3452C7.10959 22.8336 8.26573 24.0428 9.72751 24.9731C8.47835 25.4249 7.28235 26.0495 6.1395 26.8468C4.99665 27.6442 3.96011 28.5345 3.02988 29.5179C2.09965 30.5013 1.36876 31.591 0.837204 32.787C0.305646 33.983 0.0265779 35.1923 0 36.4149Z" fill="#027BDF"/>
<path d="M27.001 1C30.028 1.00003 32.6354 2.07388 34.7646 4.20312C36.8939 6.33238 37.9678 8.93973 37.9678 11.9668V14.4385C37.9678 16.3385 37.4974 18.1284 36.5635 19.792C35.9368 20.9082 35.1546 21.8755 34.2217 22.6924C34.9565 23.0573 35.6796 23.4874 36.3877 23.9863C37.607 24.8454 38.6952 25.7788 39.6484 26.7881C40.629 27.8264 41.4207 29.0088 42.0234 30.3291C42.632 31.6623 42.9486 33.0089 42.9502 34.3613C42.98 35.3448 42.6357 36.2144 41.9209 36.8916C41.2399 37.5368 40.4126 37.8837 39.4795 37.8838H14.5625V37.8828C13.5833 37.9099 12.7168 37.5658 12.042 36.8535C11.3891 36.1643 11.0508 35.3206 11.0508 34.3721V34.3506C11.0804 32.9863 11.393 31.6464 11.9746 30.3379C12.5538 29.0348 13.3491 27.8509 14.3545 26.7881C15.3328 25.7538 16.4211 24.8185 17.6182 23.9834C18.3234 23.4914 19.0504 23.0613 19.7979 22.6914C18.86 21.8675 18.0725 20.9032 17.4414 19.7988C16.5025 18.1557 16.0342 16.3624 16.0342 14.4385V11.9668C16.0342 8.93968 17.108 6.3324 19.2373 4.20312C21.3666 2.07386 23.9739 1 27.001 1Z" fill="#027BDF" stroke="#02185E" stroke-width="2"/>
</svg>
