<svg width="54" height="55" viewBox="0 0 54 55" fill="none" xmlns="http://www.w3.org/2000/svg">
<path d="M15.5258 2.025C15.5258 0.906633 14.6192 0 13.5008 0C12.3825 0 11.4758 0.906633 11.4758 2.025V6.289C7.58965 6.60018 5.03842 7.3639 3.16408 9.23824C1.28974 11.1126 0.526019 13.6638 0.214844 17.55H53.7867C53.4757 13.6638 52.7119 11.1126 50.8375 9.23824C48.9632 7.3639 46.412 6.60018 42.5258 6.289V2.025C42.5258 0.906633 41.6192 0 40.5008 0C39.3825 0 38.4758 0.906633 38.4758 2.025V6.10983C36.6795 6.075 34.6661 6.075 32.4008 6.075H21.6008C19.3355 6.075 17.3221 6.075 15.5258 6.10983V2.025Z" fill="#027BDF"/>
<path fill-rule="evenodd" clip-rule="evenodd" d="M0 27.6766C0 25.4113 3.06778e-07 23.3979 0.0348303 21.6016H53.9652C54 23.3979 54 25.4113 54 27.6766V33.0766C54 43.2588 54 48.3502 50.8367 51.5132C47.6736 54.6766 42.5822 54.6766 32.4 54.6766H21.6C11.4177 54.6766 6.32651 54.6766 3.16324 51.5132C3.21865e-07 48.3502 0 43.2588 0 33.0766V27.6766ZM40.5 33.0766C41.9912 33.0766 43.2 31.8678 43.2 30.3766C43.2 28.8854 41.9912 27.6766 40.5 27.6766C39.0088 27.6766 37.8 28.8854 37.8 30.3766C37.8 31.8678 39.0088 33.0766 40.5 33.0766ZM40.5 43.8766C41.9912 43.8766 43.2 42.6678 43.2 41.1766C43.2 39.6854 41.9912 38.4766 40.5 38.4766C39.0088 38.4766 37.8 39.6854 37.8 41.1766C37.8 42.6678 39.0088 43.8766 40.5 43.8766ZM29.7 30.3766C29.7 31.8678 28.4912 33.0766 27 33.0766C25.5088 33.0766 24.3 31.8678 24.3 30.3766C24.3 28.8854 25.5088 27.6766 27 27.6766C28.4912 27.6766 29.7 28.8854 29.7 30.3766ZM29.7 41.1766C29.7 42.6678 28.4912 43.8766 27 43.8766C25.5088 43.8766 24.3 42.6678 24.3 41.1766C24.3 39.6854 25.5088 38.4766 27 38.4766C28.4912 38.4766 29.7 39.6854 29.7 41.1766ZM13.5 33.0766C14.9912 33.0766 16.2 31.8678 16.2 30.3766C16.2 28.8854 14.9912 27.6766 13.5 27.6766C12.0088 27.6766 10.8 28.8854 10.8 30.3766C10.8 31.8678 12.0088 33.0766 13.5 33.0766ZM13.5 43.8766C14.9912 43.8766 16.2 42.6678 16.2 41.1766C16.2 39.6854 14.9912 38.4766 13.5 38.4766C12.0088 38.4766 10.8 39.6854 10.8 41.1766C10.8 42.6678 12.0088 43.8766 13.5 43.8766Z" fill="#027BDF"/>
</svg>
