<svg width="94" height="58" viewBox="0 0 94 58" fill="none" xmlns="http://www.w3.org/2000/svg">
<path d="M49.832 53.8374C49.832 54.8581 50.1854 55.7414 50.892 56.4874C51.5987 57.2333 52.482 57.5866 53.542 57.5474H90.3476C91.3291 57.5474 92.1928 57.194 92.9388 56.4874C93.6847 55.7807 94.038 54.8974 93.9988 53.8374C93.9988 52.0707 93.5865 50.2844 92.7621 48.4785C91.9376 46.6725 90.858 45.0629 89.5232 43.6496C88.1884 42.2362 86.6573 40.9211 84.9299 39.704C83.2024 38.487 81.4358 37.5644 79.6298 36.9362C81.7891 35.6014 83.4969 33.8151 84.7532 31.5773C86.0095 29.3396 86.6376 26.9447 86.6376 24.3929V20.7418C86.6376 16.6588 85.2047 13.1844 82.3387 10.3184C79.4728 7.4525 75.9984 6.01953 71.9154 6.01953C67.8324 6.01953 64.358 7.4525 61.492 10.3184C58.6261 13.1844 57.1932 16.6588 57.1932 20.7418V24.3929C57.1932 26.984 57.8213 29.3788 59.0776 31.5773C60.3339 33.7759 62.0417 35.5622 64.2009 36.9362C62.3558 37.6036 60.5891 38.5262 58.9009 39.704C57.2128 40.8818 55.6817 42.197 54.3076 43.6496C52.9335 45.1022 51.8539 46.7118 51.0687 48.4785C50.2835 50.2451 49.8713 52.0314 49.832 53.8374Z" fill="#027BDF"/>
<path d="M0 53.8374C0 54.8581 0.353334 55.7414 1.06 56.4874C1.76667 57.2333 2.65 57.5866 3.71 57.5474H40.5156C41.4971 57.5474 42.3608 57.194 43.1067 56.4874C43.8526 55.7807 44.206 54.8974 44.1667 53.8374C44.1667 52.0707 43.7545 50.2844 42.9301 48.4785C42.1056 46.6725 41.026 45.0629 39.6912 43.6496C38.3563 42.2362 36.8252 40.9211 35.0978 39.704C33.3704 38.487 31.6037 37.5644 29.7978 36.9362C31.9571 35.6014 33.6649 33.8151 34.9212 31.5773C36.1775 29.3396 36.8056 26.9447 36.8056 24.3929V20.7418C36.8056 16.6588 35.3726 13.1844 32.5067 10.3184C29.6408 7.4525 26.1663 6.01953 22.0834 6.01953C18.0004 6.01953 14.5259 7.4525 11.66 10.3184C8.79409 13.1844 7.36112 16.6588 7.36112 20.7418V24.3929C7.36112 26.984 7.98927 29.3788 9.24557 31.5773C10.5019 33.7759 12.2096 35.5622 14.3689 36.9362C12.5237 37.6036 10.7571 38.5262 9.0689 39.704C7.38075 40.8818 5.84964 42.197 4.47556 43.6496C3.10149 45.1022 2.02185 46.7118 1.23667 48.4785C0.451482 50.2451 0.0392593 52.0314 0 53.8374Z" fill="#027BDF"/>
<path d="M47.7549 1.5C52.2324 1.5 56.0897 3.08872 59.2393 6.23828C62.3888 9.38784 63.9775 13.2452 63.9775 17.7227V21.373C63.9775 24.1835 63.2827 26.8314 61.9014 29.292C60.9803 30.9327 59.8313 32.356 58.4629 33.5596C59.5388 34.0959 60.5968 34.7274 61.6338 35.458C63.4361 36.7278 65.0439 38.1084 66.4531 39.6006C67.9034 41.1362 69.0754 42.8835 69.9668 44.8359C70.8693 46.813 71.3388 48.8108 71.3389 50.8174C71.3789 52.2697 70.8674 53.5553 69.8105 54.5566C68.8004 55.5136 67.5722 56.0283 66.1875 56.0283H29.3818V56.0264C27.9296 56.0663 26.6439 55.5559 25.6426 54.499C24.6742 53.4766 24.1719 52.2246 24.1719 50.8174V50.7852C24.2158 48.7667 24.6779 46.7851 25.5381 44.8496C26.3947 42.9224 27.5709 41.1714 29.0576 39.5996C30.5039 38.0707 32.1134 36.6886 33.8828 35.4541C34.9158 34.7334 35.9808 34.103 37.0752 33.5596C35.6988 32.3457 34.5432 30.9256 33.6152 29.3018C32.2264 26.8712 31.5332 24.2188 31.5332 21.373V17.7227C31.5332 13.2452 33.1219 9.38784 36.2715 6.23828C39.4209 3.08887 43.2776 1.50008 47.7549 1.5Z" fill="#027BDF" stroke="#02185E" stroke-width="3"/>
</svg>
