<svg width="54" height="54" viewBox="0 0 54 54" fill="none" xmlns="http://www.w3.org/2000/svg">
<path fill-rule="evenodd" clip-rule="evenodd" d="M35.7 7.5C35.7 3 31.254 0 27.78 0C25.362 0 25.173 1.836 24.801 5.46C24.636 7.05 24.438 8.982 24 11.25C22.842 17.256 18.84 24.93 15.012 27.225V45C15 51.75 17.25 54 27 54H38.319C44.847 54 46.428 49.701 47.016 48.108L47.055 48C47.397 47.082 48.129 46.359 48.969 45.54C49.899 44.622 50.961 43.581 51.75 42C52.683 40.131 52.56 38.469 52.449 36.99C52.38 36.093 52.317 35.265 52.5 34.5C52.692 33.69 52.938 33.075 53.175 32.487C53.604 31.419 54 30.429 54 28.5C54 24 51.756 21.006 47.055 21.006H34.5C34.5 21.006 35.7 12 35.7 7.5ZM4.5 24C3.30653 24 2.16193 24.4741 1.31802 25.318C0.474105 26.1619 0 27.3065 0 28.5V49.5C2.51506e-08 50.6935 0.474105 51.8381 1.31802 52.682C2.16193 53.5259 3.30653 54 4.5 54C5.69347 54 6.83807 53.5259 7.68198 52.682C8.5259 51.8381 9 50.6935 9 49.5V28.5C9 27.3065 8.5259 26.1619 7.68198 25.318C6.83807 24.4741 5.69347 24 4.5 24Z" fill="#027BDF"/>
</svg>
