<svg width="84" height="84" viewBox="0 0 84 84" fill="none" xmlns="http://www.w3.org/2000/svg">
<path fill-rule="evenodd" clip-rule="evenodd" d="M50.7 22.5C50.7 18 46.254 15 42.78 15C40.362 15 40.173 16.836 39.801 20.46C39.636 22.05 39.438 23.982 39 26.25C37.842 32.256 33.84 39.93 30.012 42.225V60C30 66.75 32.25 69 42 69H53.319C59.847 69 61.428 64.701 62.016 63.108L62.055 63C62.397 62.082 63.129 61.359 63.969 60.54C64.899 59.622 65.961 58.581 66.75 57C67.683 55.131 67.56 53.469 67.449 51.99C67.38 51.093 67.317 50.265 67.5 49.5C67.692 48.69 67.938 48.075 68.175 47.487C68.604 46.419 69 45.429 69 43.5C69 39 66.756 36.006 62.055 36.006H49.5C49.5 36.006 50.7 27 50.7 22.5ZM19.5 39C18.3065 39 17.1619 39.4741 16.318 40.318C15.4741 41.1619 15 42.3065 15 43.5V64.5C15 65.6935 15.4741 66.8381 16.318 67.682C17.1619 68.5259 18.3065 69 19.5 69C20.6935 69 21.8381 68.5259 22.682 67.682C23.5259 66.8381 24 65.6935 24 64.5V43.5C24 42.3065 23.5259 41.1619 22.682 40.318C21.8381 39.4741 20.6935 39 19.5 39Z" fill="#027BDF"/>
</svg>
