<?xml version="1.0" encoding="UTF-8"?>
<svg id="Camada_1" data-name="Camada 1" xmlns="http://www.w3.org/2000/svg" viewBox="0 0 1266.58 378.93">
  <defs>
    <style>
      .cls-1 {
        fill: #53007d;
      }

      .cls-2 {
        fill: #4e0579;
      }
    </style>
  </defs>
  <g>
    <path class="cls-2" d="M131.6,177l-4.75-31.75h-33.75l-4.75,31.75h-25.25L91.1,2h40.25l28,175h-27.75Zm-8.5-55.5l-13.25-88.5-13.25,88.5h26.5Z"/>
    <path class="cls-2" d="M272.35,135c0,14.17-3.5,25.04-10.5,32.62-7,7.59-17.17,11.38-30.5,11.38s-23.5-3.79-30.5-11.38c-7-7.58-10.5-18.46-10.5-32.62V44c0-14.16,3.5-25.04,10.5-32.62,7-7.58,17.16-11.38,30.5-11.38s23.5,3.79,30.5,11.38c7,7.59,10.5,18.46,10.5,32.62v17h-26v-18.75c0-11.5-4.75-17.25-14.25-17.25s-14.25,5.75-14.25,17.25v94.5c0,11.34,4.75,17,14.25,17s14.25-5.66,14.25-17v-25h26v23.25Z"/>
    <path class="cls-2" d="M370.84,177l-4.75-31.75h-33.75l-4.75,31.75h-25.25L330.34,2h40.25l28,175h-27.75Zm-8.5-55.5l-13.25-88.5-13.25,88.5h26.5Z"/>
    <path class="cls-2" d="M459.34,2V152h45.25v25h-72.75V2h27.5Z"/>
    <path class="cls-2" d="M545.59,11.5c7.16-7.66,17.5-11.5,31-11.5s23.83,3.84,31,11.5c7.16,7.67,10.75,18.5,10.75,32.5v91c0,14-3.59,24.84-10.75,32.5-7.17,7.67-17.5,11.5-31,11.5s-23.84-3.83-31-11.5c-7.17-7.66-10.75-18.5-10.75-32.5V44c0-14,3.58-24.83,10.75-32.5Zm31,142.5c9.5,0,14.25-5.75,14.25-17.25V42.25c0-11.5-4.75-17.25-14.25-17.25s-14.25,5.75-14.25,17.25v94.5c0,11.5,4.75,17.25,14.25,17.25Z"/>
    <path class="cls-2" d="M682.84,137c0,11.34,4.75,17,14.25,17s14.25-5.66,14.25-17V2h26V135.25c0,14.17-3.5,25.04-10.5,32.62-7,7.59-17.17,11.38-30.5,11.38s-23.5-3.79-30.5-11.38c-7-7.58-10.5-18.46-10.5-32.62V2h27.5V137Z"/>
    <path class="cls-2" d="M832.09,169c-.34-2.5-.5-7-.5-13.5v-27.5c0-8-1.42-13.71-4.25-17.12-2.84-3.41-7.42-5.12-13.75-5.12h-9.5v71.25h-27.5V2h41.5c14.16,0,24.5,3.29,31,9.88,6.5,6.59,9.75,16.71,9.75,30.38v13.75c0,18-6,29.84-18,35.5,6.5,2.67,11.16,7.12,14,13.38,2.83,6.25,4.25,14.21,4.25,23.88v27c0,5,.16,9.04,.5,12.12,.33,3.09,1.16,6.12,2.5,9.12h-28c-1-2.83-1.67-5.5-2-8Zm-28-88.25h10.75c5.5,0,9.62-1.41,12.38-4.25,2.75-2.83,4.12-7.58,4.12-14.25v-17.25c0-6.33-1.12-10.91-3.38-13.75-2.25-2.83-5.79-4.25-10.62-4.25h-13.25v53.75Z"/>
    <path class="cls-2" d="M958.84,177l-4.75-31.75h-33.75l-4.75,31.75h-25.25L918.34,2h40.25l28,175h-27.75Zm-8.5-55.5l-13.25-88.5-13.25,88.5h26.5Z"/>
    <path class="cls-2" d="M1063.34,2c13.66,0,23.91,3.67,30.75,11,6.83,7.34,10.25,18.09,10.25,32.25v88.5c0,14.17-3.42,24.92-10.25,32.25-6.84,7.34-17.09,11-30.75,11h-43.5V2h43.5Zm-16,150h15.5c4.5,0,7.96-1.33,10.38-4,2.41-2.66,3.62-7,3.62-13V44c0-6-1.21-10.33-3.62-13-2.42-2.66-5.88-4-10.38-4h-15.5v125Z"/>
    <path class="cls-2" d="M1203.58,177l-4.75-31.75h-33.75l-4.75,31.75h-25.25L1163.08,2h40.25l28,175h-27.75Zm-8.5-55.5l-13.25-88.5-13.25,88.5h26.5Z"/>
  </g>
  <g>
    <path class="cls-1" d="M40.58,257.81c3.85,4.65,5.77,11.03,5.77,19.12v52.8c0,8.1-1.93,14.47-5.77,19.12-3.85,4.65-9.68,6.97-17.48,6.97H0v-105H23.1c7.8,0,13.62,2.33,17.48,6.97Zm-5.18,86.55c2.7-3.45,4.05-8.22,4.05-14.33v-53.4c0-6-1.35-10.75-4.05-14.25-2.7-3.5-6.85-5.25-12.45-5.25H6.9v92.4H22.95c5.6,0,9.75-1.73,12.45-5.17Z"/>
    <path class="cls-1" d="M76.95,355.83h-6.9v-105h6.9v105Z"/>
    <path class="cls-1" d="M106.05,355.83h-6.3l22.95-105.15h10.05l23.4,105.15h-6.9l-5.25-23.25h-32.7l-5.25,23.25Zm36.9-29.25l-15.45-67.95-15.15,67.95h30.6Z"/>
    <path class="cls-1" d="M217.72,257.06c3.65,4.75,5.48,11.13,5.48,19.12v2.25h-6.6v-2.7c0-6-1.25-10.75-3.75-14.25-2.5-3.5-6.45-5.25-11.85-5.25s-9.35,1.75-11.85,5.25c-2.5,3.5-3.75,8.2-3.75,14.1,0,3.8,.8,7.18,2.4,10.12,1.6,2.95,3.57,5.5,5.92,7.65,2.35,2.15,5.57,4.72,9.68,7.72,4.3,3.1,7.8,5.85,10.5,8.25,2.7,2.4,4.95,5.35,6.75,8.85,1.8,3.5,2.7,7.6,2.7,12.3,0,8-1.85,14.38-5.55,19.12-3.7,4.75-9.4,7.12-17.1,7.12s-13.4-2.38-17.1-7.12c-3.7-4.75-5.55-11.12-5.55-19.12v-5.4h6.6v5.85c0,6,1.27,10.73,3.82,14.18,2.55,3.45,6.57,5.17,12.08,5.17s9.52-1.73,12.07-5.17c2.55-3.45,3.83-8.18,3.83-14.18,0-3.8-.8-7.15-2.4-10.05-1.6-2.9-3.58-5.42-5.93-7.58-2.35-2.15-5.53-4.67-9.52-7.57-4.3-3.1-7.8-5.87-10.5-8.33-2.7-2.45-4.98-5.45-6.82-9-1.85-3.55-2.78-7.67-2.78-12.38,0-8.1,1.85-14.45,5.55-19.05,3.7-4.6,9.3-6.95,16.8-7.05,7.6,0,13.22,2.38,16.88,7.12Z"/>
    <path class="cls-1" d="M322.12,257.13c3.65,4.8,5.47,11.3,5.47,19.5,0,4.7-.85,9.08-2.55,13.12-1.7,4.05-3.83,7.68-6.38,10.88-2.55,3.2-5.92,7.05-10.12,11.55-4.3,4.7-7.7,8.65-10.2,11.85-2.5,3.2-4.63,6.85-6.38,10.95-1.75,4.1-2.68,8.55-2.77,13.35v1.2h37.5v6.3h-44.4v-5.1c0-6.1,.98-11.6,2.92-16.5,1.95-4.9,4.32-9.17,7.12-12.83,2.8-3.65,6.45-7.82,10.95-12.53,4-4.3,7.12-7.85,9.38-10.65,2.25-2.8,4.15-6,5.7-9.6,1.55-3.6,2.32-7.5,2.32-11.7,0-13.8-5.35-20.7-16.05-20.7-5.5,0-9.5,1.85-12,5.55-2.5,3.7-3.75,8.6-3.75,14.7v7.2h-6.6v-6.75c0-8.1,1.85-14.62,5.55-19.57,3.7-4.95,9.4-7.43,17.1-7.43s13.52,2.4,17.18,7.2Z"/>
    <path class="cls-1" d="M390.97,257.13c3.65,4.8,5.47,11.3,5.47,19.5,0,4.7-.85,9.08-2.55,13.12-1.7,4.05-3.83,7.68-6.38,10.88-2.55,3.2-5.92,7.05-10.12,11.55-4.3,4.7-7.7,8.65-10.2,11.85-2.5,3.2-4.63,6.85-6.38,10.95-1.75,4.1-2.68,8.55-2.77,13.35v1.2h37.5v6.3h-44.4v-5.1c0-6.1,.98-11.6,2.92-16.5,1.95-4.9,4.32-9.17,7.12-12.83,2.8-3.65,6.45-7.82,10.95-12.53,4-4.3,7.12-7.85,9.38-10.65,2.25-2.8,4.15-6,5.7-9.6,1.55-3.6,2.32-7.5,2.32-11.7,0-13.8-5.35-20.7-16.05-20.7-5.5,0-9.5,1.85-12,5.55-2.5,3.7-3.75,8.6-3.75,14.7v7.2h-6.6v-6.75c0-8.1,1.85-14.62,5.55-19.57,3.7-4.95,9.4-7.43,17.1-7.43s13.52,2.4,17.18,7.2Z"/>
    <path class="cls-1" d="M460.34,355.83h-6.3l22.95-105.15h10.05l23.4,105.15h-6.9l-5.25-23.25h-32.7l-5.25,23.25Zm36.9-29.25l-15.45-67.95-15.15,67.95h30.6Z"/>
    <path class="cls-1" d="M608.62,257.13c3.65,4.8,5.47,11.3,5.47,19.5,0,4.7-.85,9.08-2.55,13.12-1.7,4.05-3.83,7.68-6.38,10.88-2.55,3.2-5.92,7.05-10.12,11.55-4.3,4.7-7.7,8.65-10.2,11.85-2.5,3.2-4.63,6.85-6.38,10.95-1.75,4.1-2.68,8.55-2.77,13.35v1.2h37.5v6.3h-44.4v-5.1c0-6.1,.97-11.6,2.92-16.5,1.95-4.9,4.32-9.17,7.12-12.83,2.8-3.65,6.45-7.82,10.95-12.53,4-4.3,7.12-7.85,9.38-10.65,2.25-2.8,4.15-6,5.7-9.6,1.55-3.6,2.33-7.5,2.33-11.7,0-13.8-5.35-20.7-16.05-20.7-5.5,0-9.5,1.85-12,5.55-2.5,3.7-3.75,8.6-3.75,14.7v7.2h-6.6v-6.75c0-8.1,1.85-14.62,5.55-19.57,3.7-4.95,9.4-7.43,17.1-7.43s13.52,2.4,17.17,7.2Z"/>
    <path class="cls-1" d="M678.89,355.83h-6.75v-23.25h-35.85v-6.45l34.8-75.45h7.8v75.6h8.85v6.3h-8.85v23.25Zm-6.75-29.55v-62.7l-29.55,62.7h29.55Z"/>
    <path class="cls-1" d="M786.52,257.81c3.85,4.65,5.77,11.03,5.77,19.12v52.8c0,8.1-1.93,14.47-5.77,19.12-3.85,4.65-9.67,6.97-17.48,6.97h-23.1v-105h23.1c7.8,0,13.62,2.33,17.48,6.97Zm-5.17,86.55c2.7-3.45,4.05-8.22,4.05-14.33v-53.4c0-6-1.35-10.75-4.05-14.25-2.7-3.5-6.85-5.25-12.45-5.25h-16.05v92.4h16.05c5.6,0,9.75-1.73,12.45-5.17Z"/>
    <path class="cls-1" d="M851.54,305.73h-28.65v43.8h34.5v6.3h-41.4v-105h41.4v6.3h-34.5v42.3h28.65v6.3Z"/>
    <path class="cls-1" d="M944.84,355.68l-22.2-92.85v93h-6.15v-105h9.9l22.05,92.85,21.9-92.85h9.9v105h-6.6v-93.3l-21.9,93.15h-6.9Z"/>
    <path class="cls-1" d="M1009.34,355.83h-6.3l22.95-105.15h10.05l23.4,105.15h-6.9l-5.25-23.25h-32.7l-5.25,23.25Zm36.9-29.25l-15.45-67.95-15.15,67.95h30.6Z"/>
    <path class="cls-1" d="M1126.64,274.53v9.15c0,6.2-1.23,11.08-3.68,14.62-2.45,3.55-6.28,5.93-11.47,7.12,10.1,2.2,15.15,9.35,15.15,21.45v16.35c0,5.8,.85,10,2.55,12.6h-7.2c-.9-1.5-1.5-3.22-1.8-5.17s-.45-4.42-.45-7.42v-16.5c0-6.6-1.65-11.22-4.95-13.88-3.3-2.65-8.2-3.98-14.7-3.98h-10.95v46.95h-6.9v-105h21.9c15,0,22.5,7.9,22.5,23.7Zm-11.7,24.3c3.2-2.5,4.8-7.1,4.8-13.8v-9.9c0-5.9-1.25-10.37-3.75-13.42-2.5-3.05-6.5-4.58-12-4.58h-14.85v45.45h11.1c6.6,0,11.5-1.25,14.7-3.75Z"/>
    <path class="cls-1" d="M1191.74,257.21c3.7,4.85,5.55,11.28,5.55,19.28v8.7h-6.6v-9.15c0-6-1.28-10.8-3.83-14.4-2.55-3.6-6.58-5.4-12.08-5.4s-9.52,1.8-12.07,5.4c-2.55,3.6-3.83,8.4-3.83,14.4v54.6c0,6,1.27,10.78,3.83,14.33,2.55,3.55,6.57,5.33,12.07,5.33s9.53-1.77,12.08-5.33c2.55-3.55,3.83-8.33,3.83-14.33v-12.45h6.6v12c0,7.7-1.72,13.95-5.17,18.75-3.45,4.8-8.73,7.4-15.83,7.8v4.2c3.5,.1,6.25,.88,8.25,2.33,2,1.45,3,3.47,3,6.08,0,3-1.15,5.35-3.45,7.05-2.3,1.7-5.45,2.55-9.45,2.55-4.3,0-7.65-.82-10.05-2.47-2.4-1.65-3.6-3.97-3.6-6.97v-.9h4.8v.75c0,1.7,.75,3.08,2.25,4.12s3.55,1.62,6.15,1.72c2.7,0,4.8-.52,6.3-1.57,1.5-1.05,2.25-2.53,2.25-4.43,0-1.7-.8-3.05-2.4-4.05-1.6-1-3.8-1.5-6.6-1.5h-1.05v-7.05c-7-.4-12.2-2.97-15.6-7.72-3.4-4.75-5.1-10.97-5.1-18.68v-53.7c0-8,1.85-14.42,5.55-19.28,3.7-4.85,9.4-7.28,17.1-7.28s13.4,2.43,17.1,7.28Z"/>
    <path class="cls-1" d="M1226.16,257.21c3.85-4.85,9.57-7.28,17.17-7.28s13.62,2.4,17.47,7.2c3.85,4.8,5.78,11.25,5.78,19.35v53.7c0,8.1-1.93,14.55-5.78,19.35-3.85,4.8-9.67,7.2-17.47,7.2s-13.33-2.42-17.17-7.28c-3.85-4.85-5.78-11.27-5.78-19.28v-53.7c0-8,1.92-14.42,5.78-19.28Zm5.02,87.9c2.6,3.55,6.65,5.32,12.15,5.32s9.72-1.77,12.38-5.32c2.65-3.55,3.97-8.38,3.97-14.48v-54.6c0-6.1-1.33-10.92-3.97-14.48-2.65-3.55-6.78-5.32-12.38-5.32s-9.55,1.78-12.15,5.32c-2.6,3.55-3.9,8.38-3.9,14.48v54.6c0,6.1,1.3,10.93,3.9,14.48Z"/>
  </g>
</svg>