<svg width="1427" height="273" viewBox="0 0 1427 273" fill="none" xmlns="http://www.w3.org/2000/svg">
<path d="M70.1344 0.999992H98.1344L150.334 143H121.934L108.734 107.6H59.1344L46.1344 143H17.7344L70.1344 0.999992ZM103.734 88.2L84.1344 29.6L63.7344 88.2H103.734ZM151.841 71C151.841 62.3333 153.374 53.8667 156.441 45.6C159.641 37.2 164.241 29.6 170.241 22.8C176.241 15.8667 183.574 10.4 192.241 6.39999C200.907 2.26666 210.774 0.199991 221.841 0.199991C234.907 0.199991 246.174 3.06666 255.641 8.8C265.241 14.5333 272.374 22 277.041 31.2L255.841 45.8C253.441 40.4667 250.307 36.2667 246.441 33.2C242.574 30 238.441 27.8 234.041 26.6C229.641 25.2667 225.307 24.6 221.041 24.6C214.107 24.6 208.041 26 202.841 28.8C197.774 31.6 193.507 35.2667 190.041 39.8C186.574 44.3333 183.974 49.4 182.241 55C180.641 60.6 179.841 66.2 179.841 71.8C179.841 78.0667 180.841 84.1333 182.841 90C184.841 95.7333 187.641 100.867 191.241 105.4C194.974 109.8 199.374 113.333 204.441 116C209.641 118.533 215.307 119.8 221.441 119.8C225.841 119.8 230.307 119.067 234.841 117.6C239.374 116.133 243.574 113.8 247.441 110.6C251.307 107.4 254.307 103.267 256.441 98.2L279.041 111.2C276.241 118.267 271.641 124.267 265.241 129.2C258.974 134.133 251.907 137.867 244.041 140.4C236.174 142.933 228.374 144.2 220.641 144.2C210.507 144.2 201.241 142.133 192.841 138C184.441 133.733 177.174 128.133 171.041 121.2C165.041 114.133 160.307 106.267 156.841 97.6C153.507 88.8 151.841 79.9333 151.841 71ZM334.197 0.999992H362.197L414.397 143H385.997L372.797 107.6H323.197L310.197 143H281.797L334.197 0.999992ZM367.797 88.2L348.197 29.6L327.797 88.2H367.797ZM429.972 143V0.999992H457.572V118.8H529.972V143H429.972ZM604.244 144C593.844 144 584.377 142 575.844 138C567.444 134 560.177 128.6 554.044 121.8C548.044 114.867 543.377 107.133 540.044 98.6C536.71 89.9333 535.044 81.0667 535.044 72C535.044 62.5333 536.777 53.5333 540.244 45C543.844 36.3333 548.71 28.6667 554.844 22C561.11 15.2 568.444 9.86666 576.844 5.99999C585.377 1.99999 594.71 -6.67572e-06 604.844 -6.67572e-06C615.11 -6.67572e-06 624.444 2.06666 632.844 6.2C641.377 10.3333 648.644 15.8667 654.644 22.8C660.644 29.7333 665.31 37.4667 668.644 46C671.977 54.5333 673.644 63.3333 673.644 72.4C673.644 81.7333 671.91 90.7333 668.444 99.4C664.977 107.933 660.11 115.6 653.844 122.4C647.71 129.067 640.377 134.333 631.844 138.2C623.444 142.067 614.244 144 604.244 144ZM563.044 72C563.044 78.1333 563.977 84.0667 565.844 89.8C567.71 95.5333 570.377 100.667 573.844 105.2C577.444 109.6 581.777 113.133 586.844 115.8C592.044 118.333 597.91 119.6 604.444 119.6C611.11 119.6 617.044 118.267 622.244 115.6C627.444 112.8 631.777 109.133 635.244 104.6C638.71 99.9333 641.31 94.8 643.044 89.2C644.91 83.4667 645.844 77.7333 645.844 72C645.844 65.8667 644.844 60 642.844 54.4C640.977 48.6667 638.244 43.6 634.644 39.2C631.177 34.6667 626.844 31.1333 621.644 28.6C616.577 25.9333 610.844 24.6 604.444 24.6C597.644 24.6 591.644 26 586.444 28.8C581.377 31.4667 577.11 35.0667 573.644 39.6C570.177 44.1333 567.51 49.2 565.644 54.8C563.91 60.4 563.044 66.1333 563.044 72ZM755.016 144C743.682 144 734.016 142.133 726.016 138.4C718.149 134.533 711.749 129.267 706.816 122.6C702.016 115.933 698.482 108.4 696.216 100C693.949 91.4667 692.816 82.6 692.816 73.4V0.999992H720.416V73.4C720.416 79.2667 720.949 85 722.016 90.6C723.216 96.0667 725.149 101 727.816 105.4C730.482 109.8 734.016 113.267 738.416 115.8C742.816 118.333 748.282 119.6 754.816 119.6C761.482 119.6 767.016 118.333 771.416 115.8C775.949 113.133 779.482 109.6 782.016 105.2C784.682 100.8 786.616 95.8667 787.816 90.4C789.016 84.8 789.616 79.1333 789.616 73.4V0.999992H817.016V73.4C817.016 83.1333 815.816 92.2667 813.416 100.8C811.149 109.333 807.482 116.867 802.416 123.4C797.482 129.8 791.082 134.867 783.216 138.6C775.349 142.2 765.949 144 755.016 144ZM844.816 143V0.999992H907.616C914.149 0.999992 920.149 2.33332 925.616 4.99999C931.216 7.66666 936.016 11.2667 940.016 15.8C944.149 20.3333 947.282 25.4 949.416 31C951.682 36.6 952.816 42.3333 952.816 48.2C952.816 54.2 951.749 60 949.616 65.6C947.616 71.0667 944.682 75.8667 940.816 80C936.949 84.1333 932.416 87.3333 927.216 89.6L959.616 143H929.216L900.016 95.4H872.416V143H844.816ZM872.416 71.2H907.016C910.482 71.2 913.549 70.2 916.216 68.2C918.882 66.0667 921.016 63.2667 922.616 59.8C924.216 56.3333 925.016 52.4667 925.016 48.2C925.016 43.6667 924.082 39.7333 922.216 36.4C920.349 32.9333 917.949 30.2 915.016 28.2C912.216 26.2 909.149 25.2 905.816 25.2H872.416V71.2ZM1016.42 0.999992H1044.42L1096.62 143H1068.22L1055.02 107.6H1005.42L992.423 143H964.023L1016.42 0.999992ZM1050.02 88.2L1030.42 29.6L1010.02 88.2H1050.02ZM1112.2 143V0.999992H1163.8C1179.27 0.999992 1192.2 4.19999 1202.6 10.6C1213 16.8667 1220.8 25.4 1226 36.2C1231.2 46.8667 1233.8 58.7333 1233.8 71.8C1233.8 86.2 1230.93 98.7333 1225.2 109.4C1219.47 120.067 1211.33 128.333 1200.8 134.2C1190.4 140.067 1178.07 143 1163.8 143H1112.2ZM1206 71.8C1206 62.6 1204.33 54.5333 1201 47.6C1197.67 40.5333 1192.87 35.0667 1186.6 31.2C1180.33 27.2 1172.73 25.2 1163.8 25.2H1139.8V118.8H1163.8C1172.87 118.8 1180.53 116.8 1186.8 112.8C1193.07 108.667 1197.8 103.067 1201 96C1204.33 88.8 1206 80.7333 1206 71.8ZM1288.49 0.999992H1316.49L1368.69 143H1340.29L1327.09 107.6H1277.49L1264.49 143H1236.09L1288.49 0.999992ZM1322.09 88.2L1302.49 29.6L1282.09 88.2H1322.09ZM36.8266 253.8V260H2.92656V253.8H17.1266V211C16.5932 211.8 15.6599 212.667 14.3266 213.6C13.0599 214.533 11.6266 215.4 10.0266 216.2C8.49323 217 6.89323 217.667 5.22656 218.2C3.5599 218.733 2.09323 219 0.826563 219V212.4C2.3599 212.4 4.02656 211.967 5.82656 211.1C7.69323 210.233 9.42656 209.233 11.0266 208.1C12.6932 206.967 14.0932 205.9 15.2266 204.9C16.3599 203.9 16.9932 203.233 17.1266 202.9H24.1266V253.8H36.8266ZM74.6 272.7V254.9H41.3V248.9L76.8 202.9H81.4V248.7H90.2V254.9H81.4V272.7H74.6ZM48.5 248.7H75.3V213.6L48.5 248.7ZM146.853 189H152.753L182.253 260H174.853L165.653 237.8H133.753L124.653 260H117.153L146.853 189ZM164.053 232.3L149.753 197.2L135.253 232.3H164.053ZM246.495 253.8V260H212.595V253.8H226.795V211C226.261 211.8 225.328 212.667 223.995 213.6C222.728 214.533 221.295 215.4 219.695 216.2C218.161 217 216.561 217.667 214.895 218.2C213.228 218.733 211.761 219 210.495 219V212.4C212.028 212.4 213.695 211.967 215.495 211.1C217.361 210.233 219.095 209.233 220.695 208.1C222.361 206.967 223.761 205.9 224.895 204.9C226.028 203.9 226.661 203.233 226.795 202.9H233.795V253.8H246.495ZM304.568 236.6C304.568 240 303.901 243.2 302.568 246.2C301.301 249.133 299.535 251.7 297.268 253.9C295.001 256.1 292.335 257.833 289.268 259.1C286.201 260.367 282.901 261 279.368 261C275.635 261 272.201 260.333 269.068 259C265.935 257.6 263.235 255.633 260.968 253.1C258.768 250.567 257.035 247.467 255.768 243.8C254.501 240.067 253.868 235.9 253.868 231.3C253.868 224.1 254.501 217.833 255.768 212.5C257.035 207.1 258.801 202.633 261.068 199.1C263.401 195.5 266.168 192.833 269.368 191.1C272.568 189.367 276.135 188.5 280.068 188.5C284.801 188.5 289.035 189.667 292.768 192C296.501 194.333 299.335 197.567 301.268 201.7L296.868 205.7C295.468 202.3 293.268 199.6 290.268 197.6C287.268 195.533 283.868 194.5 280.068 194.5C277.135 194.5 274.468 195.2 272.068 196.6C269.668 198 267.601 200.033 265.868 202.7C264.201 205.3 262.868 208.533 261.868 212.4C260.935 216.267 260.468 220.633 260.468 225.5C261.935 221.567 264.435 218.433 267.968 216.1C271.568 213.767 275.635 212.6 280.168 212.6C283.568 212.6 286.735 213.233 289.668 214.5C292.668 215.7 295.268 217.4 297.468 219.6C299.668 221.733 301.401 224.267 302.668 227.2C303.935 230.133 304.568 233.267 304.568 236.6ZM279.568 255C282.101 255 284.468 254.533 286.668 253.6C288.935 252.6 290.901 251.267 292.568 249.6C294.301 247.933 295.635 246 296.568 243.8C297.568 241.533 298.068 239.133 298.068 236.6C298.068 234.067 297.568 231.7 296.568 229.5C295.568 227.233 294.201 225.267 292.468 223.6C290.801 221.933 288.835 220.633 286.568 219.7C284.368 218.7 282.001 218.2 279.468 218.2C276.935 218.2 274.535 218.7 272.268 219.7C270.068 220.633 268.101 221.933 266.368 223.6C264.701 225.267 263.368 227.233 262.368 229.5C261.435 231.7 260.968 234.067 260.968 236.6C260.968 239.133 261.468 241.5 262.468 243.7C263.468 245.9 264.801 247.867 266.468 249.6C268.201 251.267 270.168 252.6 272.368 253.6C274.635 254.533 277.035 255 279.568 255ZM343.31 260V189H367.41C373.077 189 378.01 189.933 382.21 191.8C386.477 193.667 390.01 196.2 392.81 199.4C395.677 202.6 397.81 206.367 399.21 210.7C400.677 214.967 401.41 219.533 401.41 224.4C401.41 229.8 400.61 234.7 399.01 239.1C397.41 243.433 395.11 247.167 392.11 250.3C389.177 253.367 385.61 255.767 381.41 257.5C377.277 259.167 372.61 260 367.41 260H343.31ZM394.41 224.4C394.41 220.133 393.81 216.233 392.61 212.7C391.41 209.1 389.643 206 387.31 203.4C385.043 200.8 382.243 198.8 378.91 197.4C375.577 195.933 371.743 195.2 367.41 195.2H350.31V253.8H367.41C371.81 253.8 375.677 253.067 379.01 251.6C382.41 250.067 385.243 248 387.51 245.4C389.777 242.733 391.477 239.633 392.61 236.1C393.81 232.5 394.41 228.6 394.41 224.4ZM462.495 253.8V260H414.795V189H461.595V195.2H421.795V220.8H456.495V226.7H421.795V253.8H462.495ZM542.72 202.3C540.72 200.033 538.054 198.2 534.72 196.8C531.387 195.4 527.587 194.7 523.32 194.7C517.054 194.7 512.487 195.9 509.62 198.3C506.754 200.633 505.32 203.833 505.32 207.9C505.32 210.033 505.687 211.8 506.42 213.2C507.22 214.533 508.42 215.7 510.02 216.7C511.62 217.7 513.654 218.567 516.12 219.3C518.654 220.033 521.62 220.767 525.02 221.5C528.82 222.3 532.22 223.2 535.22 224.2C538.287 225.2 540.887 226.467 543.02 228C545.154 229.467 546.787 231.267 547.92 233.4C549.054 235.533 549.62 238.2 549.62 241.4C549.62 244.667 548.987 247.5 547.72 249.9C546.454 252.3 544.687 254.3 542.42 255.9C540.154 257.5 537.454 258.7 534.32 259.5C531.187 260.233 527.754 260.6 524.02 260.6C513.02 260.6 503.52 257.167 495.52 250.3L499.02 244.6C500.287 245.933 501.787 247.2 503.52 248.4C505.32 249.6 507.287 250.667 509.42 251.6C511.62 252.467 513.954 253.167 516.42 253.7C518.887 254.167 521.487 254.4 524.22 254.4C529.887 254.4 534.287 253.4 537.42 251.4C540.62 249.333 542.22 246.233 542.22 242.1C542.22 239.9 541.754 238.067 540.82 236.6C539.954 235.067 538.62 233.767 536.82 232.7C535.02 231.567 532.787 230.6 530.12 229.8C527.454 229 524.354 228.2 520.82 227.4C517.087 226.533 513.82 225.633 511.02 224.7C508.22 223.767 505.854 222.6 503.92 221.2C501.987 219.8 500.52 218.133 499.52 216.2C498.587 214.2 498.12 211.767 498.12 208.9C498.12 205.633 498.72 202.733 499.92 200.2C501.187 197.6 502.954 195.467 505.22 193.8C507.487 192.067 510.154 190.767 513.22 189.9C516.287 188.967 519.687 188.5 523.42 188.5C528.154 188.5 532.354 189.233 536.02 190.7C539.754 192.1 543.12 194.1 546.12 196.7L542.72 202.3ZM609.663 253.8V260H561.963V189H608.763V195.2H568.963V220.8H603.663V226.7H568.963V253.8H609.663ZM673.3 195.2H648V260H641V195.2H615.7V189H673.3V195.2ZM731.635 253.8V260H683.935V189H730.735V195.2H690.935V220.8H725.635V226.7H690.935V253.8H731.635ZM807.773 260V201.7L781.873 246.8H777.773L751.873 201.7V260H744.873V189H752.073L779.773 237.6L807.673 189H814.773V260H807.773ZM885.968 241.7C885.968 244.367 885.435 246.833 884.368 249.1C883.301 251.3 881.868 253.233 880.068 254.9C878.268 256.5 876.168 257.767 873.768 258.7C871.368 259.567 868.801 260 866.068 260H832.568V189H866.768C869.235 189 871.468 189.533 873.468 190.6C875.468 191.667 877.168 193.067 878.568 194.8C879.968 196.467 881.035 198.4 881.768 200.6C882.568 202.733 882.968 204.9 882.968 207.1C882.968 210.7 882.068 214 880.268 217C878.468 219.933 875.968 222.133 872.768 223.6C876.835 224.8 880.035 227.033 882.368 230.3C884.768 233.567 885.968 237.367 885.968 241.7ZM878.968 240.5C878.968 238.767 878.668 237.1 878.068 235.5C877.468 233.833 876.601 232.4 875.468 231.2C874.401 229.933 873.101 228.933 871.568 228.2C870.101 227.4 868.501 227 866.768 227H839.568V253.9H866.068C867.868 253.9 869.535 253.533 871.068 252.8C872.668 252.067 874.035 251.1 875.168 249.9C876.368 248.633 877.301 247.2 877.968 245.6C878.635 243.933 878.968 242.233 878.968 240.5ZM839.568 195.1V221.3H863.968C865.701 221.3 867.301 220.933 868.768 220.2C870.301 219.467 871.601 218.5 872.668 217.3C873.735 216.1 874.568 214.733 875.168 213.2C875.768 211.6 876.068 209.933 876.068 208.2C876.068 206.4 875.768 204.7 875.168 203.1C874.635 201.5 873.835 200.133 872.768 199C871.768 197.8 870.568 196.867 869.168 196.2C867.768 195.467 866.235 195.1 864.568 195.1H839.568ZM899.17 260V189H929.17C932.236 189 935.036 189.667 937.57 191C940.17 192.267 942.403 193.967 944.27 196.1C946.136 198.167 947.57 200.533 948.57 203.2C949.636 205.867 950.17 208.567 950.17 211.3C950.17 213.9 949.77 216.4 948.97 218.8C948.236 221.133 947.17 223.267 945.77 225.2C944.436 227.067 942.803 228.667 940.87 230C938.936 231.267 936.77 232.133 934.37 232.6L951.77 260H943.87L927.17 233.8H906.17V260H899.17ZM906.17 227.6H929.37C931.436 227.6 933.303 227.167 934.97 226.3C936.703 225.367 938.17 224.133 939.37 222.6C940.57 221.067 941.503 219.333 942.17 217.4C942.836 215.467 943.17 213.433 943.17 211.3C943.17 209.167 942.77 207.133 941.97 205.2C941.236 203.2 940.203 201.467 938.87 200C937.603 198.533 936.07 197.367 934.27 196.5C932.536 195.633 930.703 195.2 928.77 195.2H906.17V227.6ZM993.102 260.5C988.168 260.5 983.635 259.5 979.502 257.5C975.435 255.433 971.935 252.733 969.002 249.4C966.068 246 963.802 242.133 962.202 237.8C960.602 233.467 959.802 229.033 959.802 224.5C959.802 219.767 960.635 215.233 962.302 210.9C964.035 206.567 966.402 202.733 969.402 199.4C972.402 196.067 975.935 193.433 980.002 191.5C984.068 189.5 988.468 188.5 993.202 188.5C998.135 188.5 1002.63 189.567 1006.7 191.7C1010.83 193.767 1014.33 196.5 1017.2 199.9C1020.13 203.3 1022.4 207.167 1024 211.5C1025.6 215.767 1026.4 220.133 1026.4 224.6C1026.4 229.333 1025.53 233.867 1023.8 238.2C1022.13 242.533 1019.8 246.367 1016.8 249.7C1013.87 252.967 1010.37 255.6 1006.3 257.6C1002.23 259.533 997.835 260.5 993.102 260.5ZM966.802 224.5C966.802 228.367 967.435 232.1 968.702 235.7C969.968 239.233 971.768 242.4 974.102 245.2C976.435 247.933 979.202 250.133 982.402 251.8C985.602 253.4 989.168 254.2 993.102 254.2C997.102 254.2 1000.73 253.333 1004 251.6C1007.27 249.867 1010.03 247.6 1012.3 244.8C1014.57 242 1016.3 238.833 1017.5 235.3C1018.77 231.767 1019.4 228.167 1019.4 224.5C1019.4 220.633 1018.73 216.933 1017.4 213.4C1016.13 209.8 1014.33 206.633 1012 203.9C1009.67 201.167 1006.9 199 1003.7 197.4C1000.5 195.733 996.968 194.9 993.102 194.9C989.102 194.9 985.468 195.767 982.202 197.5C978.935 199.167 976.168 201.4 973.902 204.2C971.635 207 969.868 210.167 968.602 213.7C967.402 217.233 966.802 220.833 966.802 224.5ZM1065.09 260V189H1089.19C1094.85 189 1099.79 189.933 1103.99 191.8C1108.25 193.667 1111.79 196.2 1114.59 199.4C1117.45 202.6 1119.59 206.367 1120.99 210.7C1122.45 214.967 1123.19 219.533 1123.19 224.4C1123.19 229.8 1122.39 234.7 1120.79 239.1C1119.19 243.433 1116.89 247.167 1113.89 250.3C1110.95 253.367 1107.39 255.767 1103.19 257.5C1099.05 259.167 1094.39 260 1089.19 260H1065.09ZM1116.19 224.4C1116.19 220.133 1115.59 216.233 1114.39 212.7C1113.19 209.1 1111.42 206 1109.09 203.4C1106.82 200.8 1104.02 198.8 1100.69 197.4C1097.35 195.933 1093.52 195.2 1089.19 195.2H1072.09V253.8H1089.19C1093.59 253.8 1097.45 253.067 1100.79 251.6C1104.19 250.067 1107.02 248 1109.29 245.4C1111.55 242.733 1113.25 239.633 1114.39 236.1C1115.59 232.5 1116.19 228.6 1116.19 224.4ZM1184.27 253.8V260H1136.57V189H1183.37V195.2H1143.57V220.8H1178.27V226.7H1143.57V253.8H1184.27ZM1218.5 260C1218.5 257.733 1218.7 255.467 1219.1 253.2C1219.5 250.867 1220.26 248.567 1221.4 246.3C1222.6 244.033 1224.26 241.867 1226.4 239.8C1228.6 237.667 1231.5 235.667 1235.1 233.8C1237.03 232.8 1239.03 231.833 1241.1 230.9C1243.23 229.9 1245.16 228.8 1246.9 227.6C1248.7 226.4 1250.16 225.067 1251.3 223.6C1252.43 222.067 1253 220.3 1253 218.3C1253 217.033 1252.7 215.8 1252.1 214.6C1251.56 213.333 1250.73 212.233 1249.6 211.3C1248.53 210.3 1247.16 209.5 1245.5 208.9C1243.9 208.3 1242 208 1239.8 208C1237.6 208 1235.63 208.333 1233.9 209C1232.16 209.6 1230.63 210.333 1229.3 211.2C1228.03 212.067 1226.93 213 1226 214C1225.06 214.933 1224.36 215.7 1223.9 216.3L1219.4 211.4C1219.8 211 1220.56 210.267 1221.7 209.2C1222.83 208.133 1224.3 207.067 1226.1 206C1227.96 204.933 1230.13 204 1232.6 203.2C1235.06 202.333 1237.83 201.9 1240.9 201.9C1243.96 201.9 1246.7 202.333 1249.1 203.2C1251.5 204 1253.53 205.133 1255.2 206.6C1256.86 208.067 1258.13 209.767 1259 211.7C1259.86 213.567 1260.3 215.533 1260.3 217.6C1260.3 220.333 1259.7 222.7 1258.5 224.7C1257.3 226.7 1255.8 228.433 1254 229.9C1252.26 231.367 1250.4 232.633 1248.4 233.7C1246.4 234.7 1244.6 235.567 1243 236.3C1240.86 237.233 1238.76 238.3 1236.7 239.5C1234.7 240.633 1232.9 241.9 1231.3 243.3C1229.7 244.7 1228.36 246.267 1227.3 248C1226.3 249.733 1225.8 251.667 1225.8 253.8H1261.4V260H1218.5ZM1321.95 230.7C1321.95 235.1 1321.31 239.167 1320.05 242.9C1318.78 246.567 1317.01 249.767 1314.75 252.5C1312.55 255.167 1309.91 257.267 1306.85 258.8C1303.78 260.267 1300.45 261 1296.85 261C1293.25 261 1289.91 260.267 1286.85 258.8C1283.78 257.267 1281.11 255.167 1278.85 252.5C1276.65 249.767 1274.91 246.567 1273.65 242.9C1272.38 239.167 1271.75 235.1 1271.75 230.7C1271.75 226.3 1272.38 222.267 1273.65 218.6C1274.91 214.867 1276.65 211.667 1278.85 209C1281.11 206.267 1283.78 204.133 1286.85 202.6C1289.91 201.067 1293.25 200.3 1296.85 200.3C1300.45 200.3 1303.78 201.067 1306.85 202.6C1309.91 204.133 1312.55 206.267 1314.75 209C1317.01 211.667 1318.78 214.867 1320.05 218.6C1321.31 222.267 1321.95 226.3 1321.95 230.7ZM1315.05 230.7C1315.05 227.1 1314.58 223.833 1313.65 220.9C1312.78 217.967 1311.55 215.467 1309.95 213.4C1308.35 211.267 1306.41 209.633 1304.15 208.5C1301.95 207.3 1299.51 206.7 1296.85 206.7C1294.11 206.7 1291.61 207.3 1289.35 208.5C1287.15 209.633 1285.25 211.267 1283.65 213.4C1282.05 215.467 1280.78 217.967 1279.85 220.9C1278.98 223.833 1278.55 227.1 1278.55 230.7C1278.55 234.3 1278.98 237.567 1279.85 240.5C1280.78 243.433 1282.05 245.967 1283.65 248.1C1285.25 250.167 1287.15 251.767 1289.35 252.9C1291.61 254.033 1294.11 254.6 1296.85 254.6C1299.51 254.6 1301.95 254.033 1304.15 252.9C1306.41 251.767 1308.35 250.167 1309.95 248.1C1311.55 245.967 1312.78 243.433 1313.65 240.5C1314.58 237.567 1315.05 234.3 1315.05 230.7ZM1331.88 260C1331.88 257.733 1332.08 255.467 1332.48 253.2C1332.88 250.867 1333.64 248.567 1334.78 246.3C1335.98 244.033 1337.64 241.867 1339.78 239.8C1341.98 237.667 1344.88 235.667 1348.48 233.8C1350.41 232.8 1352.41 231.833 1354.48 230.9C1356.61 229.9 1358.54 228.8 1360.28 227.6C1362.08 226.4 1363.54 225.067 1364.68 223.6C1365.81 222.067 1366.38 220.3 1366.38 218.3C1366.38 217.033 1366.08 215.8 1365.48 214.6C1364.94 213.333 1364.11 212.233 1362.98 211.3C1361.91 210.3 1360.54 209.5 1358.88 208.9C1357.28 208.3 1355.38 208 1353.18 208C1350.98 208 1349.01 208.333 1347.28 209C1345.54 209.6 1344.01 210.333 1342.68 211.2C1341.41 212.067 1340.31 213 1339.38 214C1338.44 214.933 1337.74 215.7 1337.28 216.3L1332.78 211.4C1333.18 211 1333.94 210.267 1335.08 209.2C1336.21 208.133 1337.68 207.067 1339.48 206C1341.34 204.933 1343.51 204 1345.98 203.2C1348.44 202.333 1351.21 201.9 1354.28 201.9C1357.34 201.9 1360.08 202.333 1362.48 203.2C1364.88 204 1366.91 205.133 1368.58 206.6C1370.24 208.067 1371.51 209.767 1372.38 211.7C1373.24 213.567 1373.68 215.533 1373.68 217.6C1373.68 220.333 1373.08 222.7 1371.88 224.7C1370.68 226.7 1369.18 228.433 1367.38 229.9C1365.64 231.367 1363.78 232.633 1361.78 233.7C1359.78 234.7 1357.98 235.567 1356.38 236.3C1354.24 237.233 1352.14 238.3 1350.08 239.5C1348.08 240.633 1346.28 241.9 1344.68 243.3C1343.08 244.7 1341.74 246.267 1340.68 248C1339.68 249.733 1339.18 251.667 1339.18 253.8H1374.78V260H1331.88ZM1384.03 260C1384.03 257.733 1384.23 255.467 1384.63 253.2C1385.03 250.867 1385.79 248.567 1386.93 246.3C1388.13 244.033 1389.79 241.867 1391.93 239.8C1394.13 237.667 1397.03 235.667 1400.63 233.8C1402.56 232.8 1404.56 231.833 1406.63 230.9C1408.76 229.9 1410.69 228.8 1412.43 227.6C1414.23 226.4 1415.69 225.067 1416.83 223.6C1417.96 222.067 1418.53 220.3 1418.53 218.3C1418.53 217.033 1418.23 215.8 1417.63 214.6C1417.09 213.333 1416.26 212.233 1415.13 211.3C1414.06 210.3 1412.69 209.5 1411.03 208.9C1409.43 208.3 1407.53 208 1405.32 208C1403.13 208 1401.16 208.333 1399.43 209C1397.69 209.6 1396.16 210.333 1394.83 211.2C1393.56 212.067 1392.46 213 1391.53 214C1390.59 214.933 1389.89 215.7 1389.43 216.3L1384.93 211.4C1385.33 211 1386.09 210.267 1387.23 209.2C1388.36 208.133 1389.83 207.067 1391.63 206C1393.49 204.933 1395.66 204 1398.13 203.2C1400.59 202.333 1403.36 201.9 1406.43 201.9C1409.49 201.9 1412.23 202.333 1414.63 203.2C1417.03 204 1419.06 205.133 1420.73 206.6C1422.39 208.067 1423.66 209.767 1424.53 211.7C1425.39 213.567 1425.83 215.533 1425.83 217.6C1425.83 220.333 1425.23 222.7 1424.03 224.7C1422.83 226.7 1421.33 228.433 1419.53 229.9C1417.79 231.367 1415.93 232.633 1413.93 233.7C1411.93 234.7 1410.13 235.567 1408.53 236.3C1406.39 237.233 1404.29 238.3 1402.23 239.5C1400.23 240.633 1398.43 241.9 1396.83 243.3C1395.23 244.7 1393.89 246.267 1392.82 248C1391.83 249.733 1391.33 251.667 1391.33 253.8H1426.93V260H1384.03Z" fill="#510086"/>
</svg>
