<svg id="Camada_1" data-name="Camada 1" xmlns="http://www.w3.org/2000/svg" viewBox="0 0 1710.8 320.98"><defs><style>.cls-1{isolation:isolate;}.cls-2,.cls-3{fill:#4e0579;}.cls-3{font-size:139.72px;stroke:#54007d;stroke-width:5px;font-family:BebasNeue-Thin, Bebas Neue;font-weight:200;letter-spacing:0.04em;}</style></defs><g class="cls-1"><path class="cls-2" d="M240.54,331.76l-4.48-30H204.2l-4.48,30H175.89l26.43-165.18h38l26.43,165.18Zm-8-52.39L220,195.84l-12.5,83.53Z" transform="translate(-175.89 -164.69)"/><path class="cls-2" d="M363.25,292.12c0,26.42-13.21,41.53-38.7,41.53s-38.7-15.11-38.7-41.53v-85.9c0-26.43,13.21-41.53,38.7-41.53s38.7,15.1,38.7,41.53v16.05H338.71v-17.7c0-11.8-5.19-16.28-13.45-16.28s-13.45,4.48-13.45,16.28v89.2c0,11.8,5.19,16,13.45,16s13.45-4.24,13.45-16v-23.6h24.54Z" transform="translate(-175.89 -164.69)"/><path class="cls-2" d="M446.08,331.76l-4.49-30H409.73l-4.48,30H381.42l26.43-165.18h38l26.43,165.18Zm-8-52.39-12.5-83.53L413,279.37Z" transform="translate(-175.89 -164.69)"/><path class="cls-2" d="M519.46,166.58V308.16h42.71v23.6H493.51V166.58Z" transform="translate(-175.89 -164.69)"/><path class="cls-2" d="M620,164.69c25.48,0,39.4,15.1,39.4,41.53v85.9c0,26.42-13.92,41.53-39.4,41.53s-39.41-15.11-39.41-41.53v-85.9C580.58,179.79,594.5,164.69,620,164.69Zm0,145.36c8.26,0,13.45-4.48,13.45-16.28v-89.2c0-11.8-5.19-16.28-13.45-16.28s-13.45,4.48-13.45,16.28v89.2C606.54,305.57,611.73,310.05,620,310.05Z" transform="translate(-175.89 -164.69)"/><path class="cls-2" d="M710.13,294c0,11.8,5.19,16.05,13.45,16.05S737,305.8,737,294V166.58h24.54V292.35c0,26.43-13.21,41.53-38.7,41.53s-38.7-15.1-38.7-41.53V166.58h26Z" transform="translate(-175.89 -164.69)"/><path class="cls-2" d="M840.39,311.47v-26c0-15.34-5.2-21-17-21h-9v67.25h-26V166.58h39.17c26.9,0,38.47,12.5,38.47,38v13c0,17-5.43,28.08-17,33.51,13,5.42,17.22,17.93,17.22,35.16V311.7c0,8,.24,13.92,2.84,20.06H842.75C841.33,327.51,840.39,324.92,840.39,311.47Zm-26-70.56h10.15c9.67,0,15.57-4.25,15.57-17.46V207.16c0-11.79-4-17-13.21-17H814.43Z" transform="translate(-175.89 -164.69)"/><path class="cls-2" d="M950.35,331.76l-4.48-30H914l-4.48,30H885.69l26.43-165.18h38l26.43,165.18Zm-8-52.39-12.51-83.53-12.51,83.53Z" transform="translate(-175.89 -164.69)"/><path class="cls-2" d="M1038.84,166.58c26,0,38.7,14.39,38.7,40.82v83.54c0,26.43-12.74,40.82-38.7,40.82H997.78V166.58Zm-15.1,141.58h14.63c8.26,0,13.21-4.25,13.21-16v-85.9c0-11.8-4.95-16.05-13.21-16.05h-14.63Z" transform="translate(-175.89 -164.69)"/><path class="cls-2" d="M1161.07,331.76l-4.48-30h-31.86l-4.48,30h-23.83l26.42-165.18h38l26.43,165.18Zm-8-52.39-12.51-83.53L1128,279.37Z" transform="translate(-175.89 -164.69)"/><path class="cls-2" d="M1313.28,166.58h23.83l-25.49,165.18h-38.7l-25.48-165.18h26.19l19.83,134.74Z" transform="translate(-175.89 -164.69)"/><path class="cls-2" d="M1384.3,166.58V331.76h-26V166.58Z" transform="translate(-175.89 -164.69)"/><path class="cls-2" d="M1464.3,311.47v-26c0-15.34-5.2-21-17-21h-9v67.25h-26V166.58h39.17c26.91,0,38.47,12.5,38.47,38v13c0,17-5.43,28.08-17,33.51,13,5.42,17.22,17.93,17.22,35.16V311.7c0,8,.24,13.92,2.84,20.06h-26.43C1465.24,327.51,1464.3,324.92,1464.3,311.47Zm-26-70.56h10.15c9.67,0,15.57-4.25,15.57-17.46V207.16c0-11.79-4-17-13.21-17h-12.51Z" transform="translate(-175.89 -164.69)"/><path class="cls-2" d="M1589.13,166.58v23.59H1562V331.76h-26V190.17h-27.14V166.58Z" transform="translate(-175.89 -164.69)"/><path class="cls-2" d="M1634.43,294c0,11.8,5.19,16.05,13.45,16.05s13.45-4.25,13.45-16.05V166.58h24.54V292.35c0,26.43-13.21,41.53-38.7,41.53s-38.7-15.1-38.7-41.53V166.58h26Z" transform="translate(-175.89 -164.69)"/><path class="cls-2" d="M1770.59,331.76l-4.49-30h-31.85l-4.49,30h-23.83l26.43-165.18h38l26.43,165.18Zm-8-52.39-12.51-83.53-12.51,83.53Z" transform="translate(-175.89 -164.69)"/><path class="cls-2" d="M1844,166.58V308.16h42.71v23.6H1818V166.58Z" transform="translate(-175.89 -164.69)"/></g><text class="cls-3" transform="translate(317.62 293.47) scale(0.79 1)">13 A 16 DE SETEMBRO DE 2022</text></svg>