<?xml version="1.0" encoding="utf-8"?>
<!-- Generator: Adobe Illustrator 26.0.2, SVG Export Plug-In . SVG Version: 6.00 Build 0)  -->
<svg version="1.1" id="Camada_1" xmlns="http://www.w3.org/2000/svg" xmlns:xlink="http://www.w3.org/1999/xlink" x="0px" y="0px"
	 viewBox="0 0 2061.9 663.5" style="enable-background:new 0 0 2061.9 663.5;" xml:space="preserve">
<style type="text/css">
	.st0{enable-background:new    ;}
	.st1{fill:#4E0579;}
	.st2{fill:#4E0579;stroke:#54007D;stroke-width:5;}
</style>
<g class="st0">
	<path class="st1" d="M240.5,331.8l-4.5-30h-31.9l-4.5,30h-23.8l26.4-165.2h38l26.4,165.2H240.5z M232.5,279.4L220,195.8l-12.5,83.5
		H232.5z"/>
	<path class="st1" d="M363.3,292.1c0,26.4-13.2,41.5-38.7,41.5c-25.5,0-38.7-15.1-38.7-41.5v-85.9c0-26.4,13.2-41.5,38.7-41.5
		c25.5,0,38.7,15.1,38.7,41.5v16h-24.5v-17.7c0-11.8-5.2-16.3-13.5-16.3s-13.5,4.5-13.5,16.3v89.2c0,11.8,5.2,16,13.5,16
		s13.5-4.2,13.5-16v-23.6h24.5V292.1z"/>
	<path class="st1" d="M446.1,331.8l-4.5-30h-31.9l-4.5,30h-23.8l26.4-165.2h38l26.4,165.2H446.1z M438.1,279.4l-12.5-83.5L413,279.4
		H438.1z"/>
	<path class="st1" d="M519.5,166.6v141.6h42.7v23.6h-68.7V166.6H519.5z"/>
	<path class="st1" d="M620,164.7c25.5,0,39.4,15.1,39.4,41.5v85.9c0,26.4-13.9,41.5-39.4,41.5s-39.4-15.1-39.4-41.5v-85.9
		C580.6,179.8,594.5,164.7,620,164.7z M620,310c8.3,0,13.5-4.5,13.5-16.3v-89.2c0-11.8-5.2-16.3-13.5-16.3
		c-8.3,0-13.5,4.5-13.5,16.3v89.2C606.5,305.6,611.7,310,620,310z"/>
	<path class="st1" d="M710.1,294c0,11.8,5.2,16,13.5,16c8.3,0,13.5-4.2,13.5-16V166.6h24.5v125.8c0,26.4-13.2,41.5-38.7,41.5
		c-25.5,0-38.7-15.1-38.7-41.5V166.6h26V294z"/>
	<path class="st1" d="M840.4,311.5v-26c0-15.3-5.2-21-17-21h-9v67.3h-26V166.6h39.2c26.9,0,38.5,12.5,38.5,38v13
		c0,17-5.4,28.1-17,33.5c13,5.4,17.2,17.9,17.2,35.2v25.5c0,8,0.2,13.9,2.8,20.1h-26.4C841.3,327.5,840.4,324.9,840.4,311.5z
		 M814.4,240.9h10.1c9.7,0,15.6-4.2,15.6-17.5v-16.3c0-11.8-4-17-13.2-17h-12.5V240.9z"/>
	<path class="st1" d="M950.3,331.8l-4.5-30H914l-4.5,30h-23.8l26.4-165.2h38l26.4,165.2H950.3z M942.3,279.4l-12.5-83.5l-12.5,83.5
		H942.3z"/>
	<path class="st1" d="M1038.8,166.6c26,0,38.7,14.4,38.7,40.8v83.5c0,26.4-12.7,40.8-38.7,40.8h-41.1V166.6H1038.8z M1023.7,308.2
		h14.6c8.3,0,13.2-4.2,13.2-16v-85.9c0-11.8-5-16-13.2-16h-14.6V308.2z"/>
	<path class="st1" d="M1161.1,331.8l-4.5-30h-31.9l-4.5,30h-23.8l26.4-165.2h38l26.4,165.2H1161.1z M1153,279.4l-12.5-83.5
		l-12.5,83.5H1153z"/>
	<path class="st1" d="M1313.3,166.6h23.8l-25.5,165.2h-38.7l-25.5-165.2h26.2l19.8,134.7L1313.3,166.6z"/>
	<path class="st1" d="M1384.3,166.6v165.2h-26V166.6H1384.3z"/>
	<path class="st1" d="M1464.3,311.5v-26c0-15.3-5.2-21-17-21h-9v67.3h-26V166.6h39.2c26.9,0,38.5,12.5,38.5,38v13
		c0,17-5.4,28.1-17,33.5c13,5.4,17.2,17.9,17.2,35.2v25.5c0,8,0.2,13.9,2.8,20.1h-26.4C1465.2,327.5,1464.3,324.9,1464.3,311.5z
		 M1438.3,240.9h10.1c9.7,0,15.6-4.2,15.6-17.5v-16.3c0-11.8-4-17-13.2-17h-12.5V240.9z"/>
	<path class="st1" d="M1589.1,166.6v23.6H1562v141.6h-26V190.2h-27.1v-23.6H1589.1z"/>
	<path class="st1" d="M1634.4,294c0,11.8,5.2,16,13.5,16c8.3,0,13.5-4.2,13.5-16V166.6h24.5v125.8c0,26.4-13.2,41.5-38.7,41.5
		c-25.5,0-38.7-15.1-38.7-41.5V166.6h26V294z"/>
	<path class="st1" d="M1770.6,331.8l-4.5-30h-31.9l-4.5,30h-23.8l26.4-165.2h38l26.4,165.2H1770.6z M1762.6,279.4l-12.5-83.5
		l-12.5,83.5H1762.6z"/>
	<path class="st1" d="M1844,166.6v141.6h42.7v23.6H1818V166.6H1844z"/>
</g>
<g>
	<path class="st2" d="M497.9,376v-1.4c6.5-1,10.8-6.7,12.9-14.4h1.5v97.9h-1.1v-95.4C508.8,370,504.2,375,497.9,376z"/>
	<path class="st2" d="M557.4,384.4v2.4c0,9.2-4.3,17.6-11.3,20.3c7.5,2.4,11.3,10.1,11.3,19.6v7.4c0,13.4-4.1,24.9-15.8,24.9
		c-11.8,0-15.8-11.5-15.8-24.9v-4.1h1.1v4.1c0,12.6,3.6,23.5,14.7,23.5c11.1,0,14.7-10.9,14.7-23.5v-7.4c0-10.8-4.8-18.2-13.4-18.9
		h-5.8v-1.3h5.8c8.2-0.8,13.4-9.5,13.4-19.7v-2.4c0-12.6-3.6-23.5-14.7-23.5c-11.1,0-14.7,10.9-14.7,23.5v2.5h-1.1v-2.5
		c0-13.4,4.1-24.7,15.8-24.7C553.3,359.7,557.4,371,557.4,384.4z"/>
	<path class="st2" d="M592.5,458.2h-1.1l19.5-97.9h1.5l19.9,97.9h-1.1l-4.8-23.8h-29.2L592.5,458.2z M626.1,433l-14.4-71l-14.1,71
		H626.1z"/>
	<path class="st2" d="M666.3,376v-1.4c6.5-1,10.8-6.7,12.9-14.4h1.5v97.9h-1.1v-95.4C677.2,370,672.6,375,666.3,376z"/>
	<path class="st2" d="M726.2,383.8v0.4H725v-0.4c0-12.6-3.6-22.9-14.7-22.9c-11.1,0-15.1,10.8-15.1,23.5v30.3
		c2.2-9.1,7.4-14.1,15.1-14.1c11.8,0,16.2,11.3,16.2,24.7v8.7c0,13.6-4.4,24.9-16.2,24.9c-11.8,0-16.2-11.3-16.2-24.9v-49.6
		c0-13.6,4.4-24.7,16.2-24.7C722,359.7,726.2,370.4,726.2,383.8z M695.2,425.3v8.7c0,12.7,4,23.5,15.1,23.5
		c11.1,0,15.1-10.8,15.1-23.5v-8.7c0-12.6-4-23.3-15.1-23.3C699.2,402,695.2,412.8,695.2,425.3z"/>
	<path class="st2" d="M792.6,384.8v49c0,13.6-4.7,24.3-16.4,24.3h-15.7v-97.8h15.6C787.9,360.4,792.6,371.1,792.6,384.8z
		 M791.5,433.9v-49c0-13-4.3-23.1-15.4-23.1h-14.5v95h14.6C787.3,456.8,791.5,446.7,791.5,433.9z"/>
	<path class="st2" d="M830,409.3h-23.4v47.5h27.7v1.4h-28.8v-97.8h28.8v1.4h-27.7v46.1H830V409.3z"/>
	<path class="st2" d="M899.8,384v1.7h-1.1V384c0-12.3-3.6-22.9-14.5-22.9c-10.9,0-14.5,10.5-14.5,22.8c0,25.7,30.2,24.3,30.2,50.7
		c0,13.3-4.2,24.3-15.8,24.3s-15.8-11-15.8-24.3v-4.6h1.1v4.6c0,12.6,3.7,22.9,14.7,22.9s14.7-10.3,14.7-22.9
		c0-25.3-30.2-23.9-30.2-50.7c0-14.1,4.5-24,15.6-24.2C895.8,359.7,899.8,370.8,899.8,384z"/>
	<path class="st2" d="M937.3,409.3h-23.4v47.5h27.7v1.4h-28.8v-97.8h28.8v1.4h-27.7v46.1h23.4V409.3z"/>
	<path class="st2" d="M970.1,361.8h-17.4v-1.4h35.9v1.4h-17.4v96.4h-1.1V361.8z"/>
	<path class="st2" d="M1024.6,409.3h-23.4v47.5h27.7v1.4H1000v-97.8h28.8v1.4h-27.7v46.1h23.4V409.3z"/>
	<path class="st2" d="M1063.2,457.9l-20.4-96.1v96.4h-1.1v-97.8h2l20.2,96l20.5-96h1.9v97.8h-1.1v-96.4l-20.5,96.1H1063.2z"/>
	<path class="st2" d="M1128.6,380.3v6.7c0,10.9-2.3,17.6-11.4,19c9.5,1.4,13,9.5,13,21v8.8c0,13.7-4.4,22.4-16,22.4h-15.1v-97.8
		h15.1C1125.2,360.4,1128.6,367.5,1128.6,380.3z M1127.5,387v-6.7c0-12.2-3-18.6-13.3-18.6h-14v43.6h10.7
		C1122.5,405.3,1127.5,402.1,1127.5,387z M1129.1,435.8V427c0-14.8-5.7-20.3-16.9-20.3h-11.9v50h14
		C1125.1,456.8,1129.1,448.8,1129.1,435.8z"/>
	<path class="st2" d="M1173.5,382.3v8.8c0,12.3-4,19-12.9,20.7c8.9,1.5,12.9,8.5,12.9,19.4v15.4c0,3.6,0.3,8.7,2.2,11.6h-1.3
		c-1.6-3.2-2-7.8-2-11.6v-15.4c0-15.1-7.5-18.9-18.2-18.9h-10.1v45.8h-1.1v-97.8h14.8C1169.2,360.4,1173.5,369,1173.5,382.3z
		 M1172.4,391.1v-8.8c0-12.6-3.9-20.5-14.5-20.5h-13.8v49.2h10.1C1165.7,410.9,1172.4,407.3,1172.4,391.1z"/>
	<path class="st2" d="M1204.6,359.7c11.8,0,16.2,11.3,16.2,24.7v49.7c0,13.4-4.4,24.7-16.2,24.7c-11.7,0-16.1-11.3-16.1-24.7v-49.7
		C1188.6,371,1193,359.7,1204.6,359.7z M1204.6,457.5c11.1,0,15.1-10.6,15.1-23.3v-49.7c0-12.6-4-23.3-15.1-23.3s-15,10.8-15,23.3
		v49.7C1189.7,446.8,1193.5,457.5,1204.6,457.5z"/>
	<path class="st2" d="M1286.9,384.8v49c0,13.6-4.7,24.3-16.4,24.3h-15.7v-97.8h15.6C1282.2,360.4,1286.9,371.1,1286.9,384.8z
		 M1285.8,433.9v-49c0-13-4.3-23.1-15.4-23.1h-14.5v95h14.6C1281.6,456.8,1285.8,446.7,1285.8,433.9z"/>
	<path class="st2" d="M1324.3,409.3h-23.4v47.5h27.7v1.4h-28.8v-97.8h28.8v1.4h-27.7v46.1h23.4V409.3z"/>
	<path class="st2" d="M1394.2,384.8c0,26.7-29.9,35.5-30.5,71.5v0.4h30.1v1.4h-31.2v-0.7c0-37.7,30.5-46.7,30.5-72.6
		c0-12.7-3.2-23.9-14.7-23.9c-11.2,0-14.6,11.7-14.6,24.2v4.6h-1.1v-4.6c0-13.3,3.8-25.4,15.7-25.4
		C1390.5,359.7,1394.2,371.3,1394.2,384.8z"/>
	<path class="st2" d="M1423.2,359.7c11.7,0,16.1,11.2,16.1,24.7V434c0,13.6-4.4,24.9-16.1,24.9c-11.8,0-16.2-11.3-16.2-24.9v-49.6
		C1407,370.8,1411.4,359.7,1423.2,359.7z M1423.2,457.5c11.1,0,15-10.8,15-23.5v-49.6c0-12.7-3.8-23.5-15-23.5s-15.1,10.8-15.1,23.5
		V434C1408.1,446.7,1412.1,457.5,1423.2,457.5z"/>
	<path class="st2" d="M1483.7,384.8c0,26.7-29.9,35.5-30.5,71.5v0.4h30.1v1.4h-31.2v-0.7c0-37.7,30.5-46.7,30.5-72.6
		c0-12.7-3.2-23.9-14.7-23.9c-11.2,0-14.6,11.7-14.6,24.2v4.6h-1.1v-4.6c0-13.3,3.8-25.4,15.7-25.4
		C1480.1,359.7,1483.7,371.3,1483.7,384.8z"/>
	<path class="st2" d="M1528.1,384.8c0,26.7-29.9,35.5-30.5,71.5v0.4h30.1v1.4h-31.2v-0.7c0-37.7,30.5-46.7,30.5-72.6
		c0-12.7-3.2-23.9-14.7-23.9c-11.2,0-14.6,11.7-14.6,24.2v4.6h-1.1v-4.6c0-13.3,3.8-25.4,15.7-25.4
		C1524.5,359.7,1528.1,371.3,1528.1,384.8z"/>
</g>
</svg>
