<svg id="Camada_1" data-name="Camada 1" xmlns="http://www.w3.org/2000/svg" viewBox="0 0 1710.8 391.14"><defs><style>.cls-1{fill:#54007d;stroke:#54007d;}.cls-1,.cls-2{isolation:isolate;}.cls-3{fill:#4e0579;}</style></defs><path class="cls-1" d="M304.23,469v50.51c0,14.78-6.74,25-22.24,25H259.9V444H282C297.49,444,304.23,454.18,304.23,469Zm-6.6,50.8V468.67c0-11.05-4.73-18.66-15.78-18.66H266.5V538.4h15.35C293,538.4,297.63,530.79,297.63,519.75Z" transform="translate(-175.89 -164.69)"/><path class="cls-1" d="M321.73,544.42h-6.6V444h6.6Z" transform="translate(-175.89 -164.69)"/><path class="cls-1" d="M337.8,544.42h-6l22-100.57h9.61l22.38,100.57h-6.6l-5-22.24H342.82Zm35.3-28-14.78-65-14.49,65Z" transform="translate(-175.89 -164.69)"/><path class="cls-1" d="M438.09,468.24v2.15h-6.32v-2.58c0-10.62-4-18.66-14.92-18.66s-14.92,7.9-14.92,18.51c0,24.39,36.3,24.82,36.3,52.52,0,14.49-6.31,25.11-21.66,25.11s-21.67-10.62-21.67-25.11V515h6.31v5.6c0,10.76,4.16,18.51,15.21,18.51s15.21-7.75,15.21-18.51c0-24.11-36.3-24.54-36.3-52.52,0-15.06,6.6-24.82,21.38-25C431.92,443.13,438.09,453.75,438.09,468.24Z" transform="translate(-175.89 -164.69)"/><path class="cls-1" d="M474.53,463.65v-5.74c9.9-.72,14.49-6.6,17.07-14.06h5.17V544.42h-6.6V455.18A21.39,21.39,0,0,1,474.53,463.65Z" transform="translate(-175.89 -164.69)"/><path class="cls-1" d="M554.73,468.67c0,29-36.3,39-36.73,68.58v1.15h35.87v6H511.4v-4.87c0-35.44,36.73-43,36.73-70.6,0-11.62-3.87-19.8-15.35-19.8-11,0-15.07,8.61-15.07,19.37v6.89H511.4V469c0-14.49,6.17-25.82,21.66-25.82C548.7,443.13,554.73,454,554.73,468.67Z" transform="translate(-175.89 -164.69)"/><path class="cls-1" d="M566.92,544.42V531.8h6.32v12.05l-4.16,11.48h-2.87l2.87-10.91Z" transform="translate(-175.89 -164.69)"/><path class="cls-1" d="M610.39,463.65v-5.74c9.9-.72,14.49-6.6,17.08-14.06h5.16V544.42H626V455.18A21.35,21.35,0,0,1,610.39,463.65Z" transform="translate(-175.89 -164.69)"/><path class="cls-1" d="M690.31,468.52V471c0,9.9-4.74,17.79-13.35,20.81,9,2.72,13.35,10.47,13.35,20.37v7.75c0,14.63-6.31,25.4-21.67,25.4S647,534.52,647,519.89v-5.74h6.31v6c0,10.9,4.16,19.08,15.21,19.08s15.21-8,15.21-19.51V512c0-10.48-5.17-16.5-14.92-16.93H662v-6h7c9-.57,14.64-7.17,14.64-16.79v-3.58c0-11.48-4.16-19.52-15.21-19.52s-15.21,8-15.21,18.94v4H647v-3.59c0-14.63,6.31-25.39,21.66-25.39S690.31,453.89,690.31,468.52Z" transform="translate(-175.89 -164.69)"/><path class="cls-1" d="M702.93,544.42V531.8h6.31v12.05l-4.16,11.48h-2.87l2.87-10.91Z" transform="translate(-175.89 -164.69)"/><path class="cls-1" d="M746.4,463.65v-5.74c9.9-.72,14.49-6.6,17.08-14.06h5.16V544.42H762V455.18A21.39,21.39,0,0,1,746.4,463.65Z" transform="translate(-175.89 -164.69)"/><path class="cls-1" d="M822.73,544.42h-6.46V522.18H782V516l33.29-72.16h7.46v72.31h8.47v6h-8.47Zm-6.46-28.26v-60l-28.26,60Z" transform="translate(-175.89 -164.69)"/><path class="cls-1" d="M897.33,496.5h-27.4v41.9h33v6h-39.6V444h39.6v6h-33v40.47h27.4Z" transform="translate(-175.89 -164.69)"/><path class="cls-1" d="M939.37,463.65v-5.74c9.9-.72,14.49-6.6,17.08-14.06h5.16V544.42H955V455.18A21.37,21.37,0,0,1,939.37,463.65Z" transform="translate(-175.89 -164.69)"/><path class="cls-1" d="M1021.15,467.52v3.16c0,10.33-3.87,18.5-13.34,21.09,9.75,2.87,13.34,11.05,13.34,21.52v7.17c0,14.78-7.46,24.83-22.81,24.83s-22.81-10-22.81-24.83v-7.17c0-10.62,3.44-18.51,13.48-21.52-9.75-2.73-13.48-10.48-13.48-21.09v-3.16c0-14.92,7.6-24.39,22.81-24.39C1013.4,443.13,1021.15,452.6,1021.15,467.52Zm-39,.14v4.16c0,11.34,5.59,17.22,16.21,17.22s16.21-5.88,16.21-17.22v-4.16c0-11.76-5.59-18.51-16.21-18.51S982.13,455.9,982.13,467.66Zm0,45.05v7.61c0,11.62,5.3,18.94,16.21,18.94s16.07-7.32,16.21-18.94v-7.61c0-11.76-5.31-17.64-16.21-17.64C987.29,495.07,982.13,501,982.13,512.71Z" transform="translate(-175.89 -164.69)"/><path class="cls-1" d="M1098.48,469v50.51c0,14.78-6.74,25-22.24,25h-22.09V444h22.09C1091.74,444,1098.48,454.18,1098.48,469Zm-6.6,50.8V468.67c0-11.05-4.73-18.66-15.78-18.66h-15.35V538.4h15.35C1087.29,538.4,1091.88,530.79,1091.88,519.75Z" transform="translate(-175.89 -164.69)"/><path class="cls-1" d="M1143.39,496.5H1116v41.9h33v6h-39.6V444H1149v6h-33v40.47h27.41Z" transform="translate(-175.89 -164.69)"/><path class="cls-1" d="M1186.57,544.42h-6l22-100.57h9.61l22.38,100.57h-6.6l-5-22.24h-31.28Zm35.3-28-14.78-65-14.49,65Z" transform="translate(-175.89 -164.69)"/><path class="cls-1" d="M1286.14,465.37v5.74c0,10.9-3,17.64-13.2,19.8,10.91,2.15,15.07,10.18,15.07,21.52v8.75c0,14.49-6.6,23.24-22,23.24h-21.52V444h21.09C1280.69,444,1286.14,451.45,1286.14,465.37Zm-6.6,7v-6.46c0-10.47-3.3-15.93-14.06-15.93h-14.35v38.31h11.19C1274.09,488.32,1279.54,485.17,1279.54,472.4Zm1.87,48.64v-9c0-13.06-5.89-17.65-17.79-17.65h-12.49v44h14.92C1277.1,538.4,1281.41,532.23,1281.41,521Z" transform="translate(-175.89 -164.69)"/><path class="cls-1" d="M1341.23,466.66v8.75c0,11.77-4.59,18.51-14.49,20.8,10.33,2.3,14.49,9.62,14.49,20.52v15.64c0,4.16.29,8.75,2.44,12h-6.88c-1.73-3-2.16-6.6-2.16-12V516.59c0-13.34-7.31-17.08-18.79-17.08h-10.48v44.91h-6.6V444h21C1335.06,444,1341.23,452.45,1341.23,466.66Zm-6.6,10v-9.47c0-10.76-4.16-17.22-15.06-17.22h-14.21v43.48H1316C1327.75,493.49,1334.63,490.19,1334.63,476.7Z" transform="translate(-175.89 -164.69)"/><path class="cls-1" d="M1360.74,544.42h-6.6V444h6.6Z" transform="translate(-175.89 -164.69)"/><path class="cls-1" d="M1372.22,444h6.6V538.4h31.57v6h-38.17Z" transform="translate(-175.89 -164.69)"/><path class="cls-1" d="M1486.86,469v50.51c0,14.78-6.75,25-22.24,25h-22.1V444h22.1C1480.11,444,1486.86,454.18,1486.86,469Zm-6.6,50.8V468.67c0-11.05-4.74-18.66-15.79-18.66h-15.35V538.4h15.35C1475.67,538.4,1480.26,530.79,1480.26,519.75Z" transform="translate(-175.89 -164.69)"/><path class="cls-1" d="M1531.76,496.5h-27.4v41.9h33v6h-39.6V444h39.6v6h-33v40.47h27.4Z" transform="translate(-175.89 -164.69)"/><path class="cls-1" d="M1613.68,468.67c0,29-36.3,39-36.73,68.58v1.15h35.87v6h-42.47v-4.87c0-35.44,36.73-43,36.73-70.6,0-11.62-3.87-19.8-15.35-19.8-11,0-15.06,8.61-15.06,19.37v6.89h-6.32V469c0-14.49,6.17-25.82,21.67-25.82S1613.68,454,1613.68,468.67Z" transform="translate(-175.89 -164.69)"/><path class="cls-1" d="M1646.11,443.13c15.35,0,22.1,10.62,22.1,25.39v51.37c0,14.63-6.75,25.4-22.1,25.4s-22.1-10.77-22.1-25.4V468.52C1624,453.75,1630.76,443.13,1646.11,443.13Zm0,96.13c11.05,0,15.5-8,15.5-19.08V468.09c0-10.9-4.45-18.94-15.5-18.94s-15.5,8-15.5,18.94v52.09C1630.61,531.22,1635.06,539.26,1646.11,539.26Z" transform="translate(-175.89 -164.69)"/><path class="cls-1" d="M1722.44,468.67c0,29-36.3,39-36.73,68.58v1.15h35.87v6h-42.47v-4.87c0-35.44,36.73-43,36.73-70.6,0-11.62-3.88-19.8-15.35-19.8-11,0-15.07,8.61-15.07,19.37v6.89h-6.31V469c0-14.49,6.17-25.82,21.66-25.82C1716.41,443.13,1722.44,454,1722.44,468.67Z" transform="translate(-175.89 -164.69)"/><path class="cls-1" d="M1776.53,468.67c0,29-36.3,39-36.73,68.58v1.15h35.87v6H1733.2v-4.87c0-35.44,36.73-43,36.73-70.6,0-11.62-3.88-19.8-15.36-19.8-11,0-15.06,8.61-15.06,19.37v6.89h-6.31V469c0-14.49,6.17-25.82,21.66-25.82C1770.5,443.13,1776.53,454,1776.53,468.67Z" transform="translate(-175.89 -164.69)"/><g class="cls-2"><path class="cls-3" d="M240.54,331.76l-4.48-30H204.2l-4.48,30H175.89l26.43-165.18h38l26.43,165.18Zm-8-52.39L220,195.84l-12.5,83.53Z" transform="translate(-175.89 -164.69)"/><path class="cls-3" d="M363.25,292.12c0,26.42-13.21,41.53-38.7,41.53s-38.7-15.11-38.7-41.53v-85.9c0-26.43,13.21-41.53,38.7-41.53s38.7,15.1,38.7,41.53v16.05H338.71v-17.7c0-11.8-5.19-16.28-13.45-16.28s-13.45,4.48-13.45,16.28v89.2c0,11.8,5.19,16,13.45,16s13.45-4.24,13.45-16v-23.6h24.54Z" transform="translate(-175.89 -164.69)"/><path class="cls-3" d="M446.08,331.76l-4.49-30H409.73l-4.48,30H381.42l26.43-165.18h38l26.43,165.18Zm-8-52.39-12.5-83.53L413,279.37Z" transform="translate(-175.89 -164.69)"/><path class="cls-3" d="M519.46,166.58V308.16h42.71v23.6H493.51V166.58Z" transform="translate(-175.89 -164.69)"/><path class="cls-3" d="M620,164.69c25.48,0,39.4,15.1,39.4,41.53v85.9c0,26.42-13.92,41.53-39.4,41.53s-39.41-15.11-39.41-41.53v-85.9C580.58,179.79,594.5,164.69,620,164.69Zm0,145.36c8.26,0,13.45-4.48,13.45-16.28v-89.2c0-11.8-5.19-16.28-13.45-16.28s-13.45,4.48-13.45,16.28v89.2C606.54,305.57,611.73,310.05,620,310.05Z" transform="translate(-175.89 -164.69)"/><path class="cls-3" d="M710.13,294c0,11.8,5.19,16.05,13.45,16.05S737,305.8,737,294V166.58h24.54V292.35c0,26.43-13.21,41.53-38.7,41.53s-38.7-15.1-38.7-41.53V166.58h26Z" transform="translate(-175.89 -164.69)"/><path class="cls-3" d="M840.39,311.47v-26c0-15.34-5.2-21-17-21h-9v67.25h-26V166.58h39.17c26.9,0,38.47,12.5,38.47,38v13c0,17-5.43,28.08-17,33.51,13,5.42,17.22,17.93,17.22,35.16V311.7c0,8,.24,13.92,2.84,20.06H842.75C841.33,327.51,840.39,324.92,840.39,311.47Zm-26-70.56h10.15c9.67,0,15.57-4.25,15.57-17.46V207.16c0-11.79-4-17-13.21-17H814.43Z" transform="translate(-175.89 -164.69)"/><path class="cls-3" d="M950.35,331.76l-4.48-30H914l-4.48,30H885.69l26.43-165.18h38l26.43,165.18Zm-8-52.39-12.51-83.53-12.51,83.53Z" transform="translate(-175.89 -164.69)"/><path class="cls-3" d="M1038.84,166.58c26,0,38.7,14.39,38.7,40.82v83.54c0,26.43-12.74,40.82-38.7,40.82H997.78V166.58Zm-15.1,141.58h14.63c8.26,0,13.21-4.25,13.21-16v-85.9c0-11.8-4.95-16.05-13.21-16.05h-14.63Z" transform="translate(-175.89 -164.69)"/><path class="cls-3" d="M1161.07,331.76l-4.48-30h-31.86l-4.48,30h-23.83l26.42-165.18h38l26.43,165.18Zm-8-52.39-12.51-83.53L1128,279.37Z" transform="translate(-175.89 -164.69)"/><path class="cls-3" d="M1313.28,166.58h23.83l-25.49,165.18h-38.7l-25.48-165.18h26.19l19.83,134.74Z" transform="translate(-175.89 -164.69)"/><path class="cls-3" d="M1384.3,166.58V331.76h-26V166.58Z" transform="translate(-175.89 -164.69)"/><path class="cls-3" d="M1464.3,311.47v-26c0-15.34-5.2-21-17-21h-9v67.25h-26V166.58h39.17c26.91,0,38.47,12.5,38.47,38v13c0,17-5.43,28.08-17,33.51,13,5.42,17.22,17.93,17.22,35.16V311.7c0,8,.24,13.92,2.84,20.06h-26.43C1465.24,327.51,1464.3,324.92,1464.3,311.47Zm-26-70.56h10.15c9.67,0,15.57-4.25,15.57-17.46V207.16c0-11.79-4-17-13.21-17h-12.51Z" transform="translate(-175.89 -164.69)"/><path class="cls-3" d="M1589.13,166.58v23.59H1562V331.76h-26V190.17h-27.14V166.58Z" transform="translate(-175.89 -164.69)"/><path class="cls-3" d="M1634.43,294c0,11.8,5.19,16.05,13.45,16.05s13.45-4.25,13.45-16.05V166.58h24.54V292.35c0,26.43-13.21,41.53-38.7,41.53s-38.7-15.1-38.7-41.53V166.58h26Z" transform="translate(-175.89 -164.69)"/><path class="cls-3" d="M1770.59,331.76l-4.49-30h-31.85l-4.49,30h-23.83l26.43-165.18h38l26.43,165.18Zm-8-52.39-12.51-83.53-12.51,83.53Z" transform="translate(-175.89 -164.69)"/><path class="cls-3" d="M1844,166.58V308.16h42.71v23.6H1818V166.58Z" transform="translate(-175.89 -164.69)"/></g></svg>