<svg width="2339" height="490" viewBox="0 0 2339 490" fill="none" xmlns="http://www.w3.org/2000/svg">
<path d="M427.404 0.999992H455.404L507.604 143H479.204L466.004 107.6H416.404L403.404 143H375.004L427.404 0.999992ZM461.004 88.2L441.404 29.6L421.004 88.2H461.004ZM509.11 71C509.11 62.3333 510.643 53.8667 513.71 45.6C516.91 37.2 521.51 29.6 527.51 22.8C533.51 15.8667 540.843 10.4 549.51 6.39999C558.177 2.26666 568.043 0.199991 579.11 0.199991C592.177 0.199991 603.443 3.06666 612.91 8.8C622.51 14.5333 629.643 22 634.31 31.2L613.11 45.8C610.71 40.4667 607.577 36.2667 603.71 33.2C599.843 30 595.71 27.8 591.31 26.6C586.91 25.2667 582.577 24.6 578.31 24.6C571.377 24.6 565.31 26 560.11 28.8C555.043 31.6 550.777 35.2667 547.31 39.8C543.843 44.3333 541.243 49.4 539.51 55C537.91 60.6 537.11 66.2 537.11 71.8C537.11 78.0667 538.11 84.1333 540.11 90C542.11 95.7333 544.91 100.867 548.51 105.4C552.243 109.8 556.643 113.333 561.71 116C566.91 118.533 572.577 119.8 578.71 119.8C583.11 119.8 587.577 119.067 592.11 117.6C596.643 116.133 600.843 113.8 604.71 110.6C608.577 107.4 611.577 103.267 613.71 98.2L636.31 111.2C633.51 118.267 628.91 124.267 622.51 129.2C616.243 134.133 609.177 137.867 601.31 140.4C593.443 142.933 585.643 144.2 577.91 144.2C567.777 144.2 558.51 142.133 550.11 138C541.71 133.733 534.443 128.133 528.31 121.2C522.31 114.133 517.577 106.267 514.11 97.6C510.777 88.8 509.11 79.9333 509.11 71ZM691.466 0.999992H719.466L771.666 143H743.266L730.066 107.6H680.466L667.466 143H639.066L691.466 0.999992ZM725.066 88.2L705.466 29.6L685.066 88.2H725.066ZM787.241 143V0.999992H814.841V118.8H887.241V143H787.241ZM961.513 144C951.113 144 941.647 142 933.113 138C924.713 134 917.447 128.6 911.313 121.8C905.313 114.867 900.647 107.133 897.313 98.6C893.98 89.9333 892.313 81.0667 892.313 72C892.313 62.5333 894.047 53.5333 897.513 45C901.113 36.3333 905.98 28.6667 912.113 22C918.38 15.2 925.713 9.86666 934.113 5.99999C942.647 1.99999 951.98 -6.67572e-06 962.113 -6.67572e-06C972.38 -6.67572e-06 981.713 2.06666 990.113 6.2C998.647 10.3333 1005.91 15.8667 1011.91 22.8C1017.91 29.7333 1022.58 37.4667 1025.91 46C1029.25 54.5333 1030.91 63.3333 1030.91 72.4C1030.91 81.7333 1029.18 90.7333 1025.71 99.4C1022.25 107.933 1017.38 115.6 1011.11 122.4C1004.98 129.067 997.647 134.333 989.113 138.2C980.713 142.067 971.513 144 961.513 144ZM920.313 72C920.313 78.1333 921.247 84.0667 923.113 89.8C924.98 95.5333 927.647 100.667 931.113 105.2C934.713 109.6 939.047 113.133 944.113 115.8C949.313 118.333 955.18 119.6 961.713 119.6C968.38 119.6 974.313 118.267 979.513 115.6C984.713 112.8 989.047 109.133 992.513 104.6C995.98 99.9333 998.58 94.8 1000.31 89.2C1002.18 83.4667 1003.11 77.7333 1003.11 72C1003.11 65.8667 1002.11 60 1000.11 54.4C998.247 48.6667 995.513 43.6 991.913 39.2C988.447 34.6667 984.113 31.1333 978.913 28.6C973.847 25.9333 968.113 24.6 961.713 24.6C954.913 24.6 948.913 26 943.713 28.8C938.647 31.4667 934.38 35.0667 930.913 39.6C927.447 44.1333 924.78 49.2 922.913 54.8C921.18 60.4 920.313 66.1333 920.313 72ZM1112.29 144C1100.95 144 1091.29 142.133 1083.29 138.4C1075.42 134.533 1069.02 129.267 1064.09 122.6C1059.29 115.933 1055.75 108.4 1053.49 100C1051.22 91.4667 1050.09 82.6 1050.09 73.4V0.999992H1077.69V73.4C1077.69 79.2667 1078.22 85 1079.29 90.6C1080.49 96.0667 1082.42 101 1085.09 105.4C1087.75 109.8 1091.29 113.267 1095.69 115.8C1100.09 118.333 1105.55 119.6 1112.09 119.6C1118.75 119.6 1124.29 118.333 1128.69 115.8C1133.22 113.133 1136.75 109.6 1139.29 105.2C1141.95 100.8 1143.89 95.8667 1145.09 90.4C1146.29 84.8 1146.89 79.1333 1146.89 73.4V0.999992H1174.29V73.4C1174.29 83.1333 1173.09 92.2667 1170.69 100.8C1168.42 109.333 1164.75 116.867 1159.69 123.4C1154.75 129.8 1148.35 134.867 1140.49 138.6C1132.62 142.2 1123.22 144 1112.29 144ZM1202.09 143V0.999992H1264.89C1271.42 0.999992 1277.42 2.33332 1282.89 4.99999C1288.49 7.66666 1293.29 11.2667 1297.29 15.8C1301.42 20.3333 1304.55 25.4 1306.69 31C1308.95 36.6 1310.09 42.3333 1310.09 48.2C1310.09 54.2 1309.02 60 1306.89 65.6C1304.89 71.0667 1301.95 75.8667 1298.09 80C1294.22 84.1333 1289.69 87.3333 1284.49 89.6L1316.89 143H1286.49L1257.29 95.4H1229.69V143H1202.09ZM1229.69 71.2H1264.29C1267.75 71.2 1270.82 70.2 1273.49 68.2C1276.15 66.0667 1278.29 63.2667 1279.89 59.8C1281.49 56.3333 1282.29 52.4667 1282.29 48.2C1282.29 43.6667 1281.35 39.7333 1279.49 36.4C1277.62 32.9333 1275.22 30.2 1272.29 28.2C1269.49 26.2 1266.42 25.2 1263.09 25.2H1229.69V71.2ZM1373.69 0.999992H1401.69L1453.89 143H1425.49L1412.29 107.6H1362.69L1349.69 143H1321.29L1373.69 0.999992ZM1407.29 88.2L1387.69 29.6L1367.29 88.2H1407.29ZM1469.47 143V0.999992H1521.07C1536.53 0.999992 1549.47 4.19999 1559.87 10.6C1570.27 16.8667 1578.07 25.4 1583.27 36.2C1588.47 46.8667 1591.07 58.7333 1591.07 71.8C1591.07 86.2 1588.2 98.7333 1582.47 109.4C1576.73 120.067 1568.6 128.333 1558.07 134.2C1547.67 140.067 1535.33 143 1521.07 143H1469.47ZM1563.27 71.8C1563.27 62.6 1561.6 54.5333 1558.27 47.6C1554.93 40.5333 1550.13 35.0667 1543.87 31.2C1537.6 27.2 1530 25.2 1521.07 25.2H1497.07V118.8H1521.07C1530.13 118.8 1537.8 116.8 1544.07 112.8C1550.33 108.667 1555.07 103.067 1558.27 96C1561.6 88.8 1563.27 80.7333 1563.27 71.8ZM1645.76 0.999992H1673.76L1725.96 143H1697.56L1684.36 107.6H1634.76L1621.76 143H1593.36L1645.76 0.999992ZM1679.36 88.2L1659.76 29.6L1639.36 88.2H1679.36ZM1779.64 143V36.5H1818.34C1829.94 36.5 1839.64 38.9 1847.44 43.7C1855.24 48.4 1861.09 54.8 1864.99 62.9C1868.89 70.9 1870.84 79.8 1870.84 89.6C1870.84 100.4 1868.69 109.8 1864.39 117.8C1860.09 125.8 1853.99 132 1846.09 136.4C1838.29 140.8 1829.04 143 1818.34 143H1779.64ZM1849.99 89.6C1849.99 82.7 1848.74 76.65 1846.24 71.45C1843.74 66.15 1840.14 62.05 1835.44 59.15C1830.74 56.15 1825.04 54.65 1818.34 54.65H1800.34V124.85H1818.34C1825.14 124.85 1830.89 123.35 1835.59 120.35C1840.29 117.25 1843.84 113.05 1846.24 107.75C1848.74 102.35 1849.99 96.3 1849.99 89.6ZM1960.96 124.85V143H1887.01V36.5H1959.61V54.65H1907.71V80.3H1952.56V97.1H1907.71V124.85H1960.96ZM0.876602 293.4C0.876602 285.383 2.29494 277.552 5.1316 269.905C8.0916 262.135 12.3466 255.105 17.8966 248.815C23.4466 242.402 30.2299 237.345 38.2466 233.645C46.2633 229.822 55.3899 227.91 65.6266 227.91C77.7133 227.91 88.1349 230.562 96.8916 235.865C105.772 241.168 112.37 248.075 116.687 256.585L97.0766 270.09C94.8566 265.157 91.9583 261.272 88.3816 258.435C84.8049 255.475 80.9816 253.44 76.9116 252.33C72.8416 251.097 68.8333 250.48 64.8866 250.48C58.4733 250.48 52.8616 251.775 48.0516 254.365C43.3649 256.955 39.4183 260.347 36.2116 264.54C33.0049 268.733 30.5999 273.42 28.9966 278.6C27.5166 283.78 26.7766 288.96 26.7766 294.14C26.7766 299.937 27.7016 305.548 29.5516 310.975C31.4016 316.278 33.9916 321.027 37.3216 325.22C40.7749 329.29 44.8449 332.558 49.5316 335.025C54.3416 337.368 59.5833 338.54 65.2566 338.54C69.3266 338.54 73.4583 337.862 77.6516 336.505C81.8449 335.148 85.7299 332.99 89.3066 330.03C92.8833 327.07 95.6583 323.247 97.6316 318.56L118.537 330.585C115.947 337.122 111.692 342.672 105.772 347.235C99.9749 351.798 93.4383 355.252 86.1616 357.595C78.8849 359.938 71.6699 361.11 64.5166 361.11C55.1433 361.11 46.5716 359.198 38.8016 355.375C31.0316 351.428 24.3099 346.248 18.6366 339.835C13.0866 333.298 8.70827 326.022 5.5016 318.005C2.41827 309.865 0.876602 301.663 0.876602 293.4ZM135.658 360V228.65H161.188V360H135.658ZM279.797 337.615V360H188.592V228.65H278.132V251.035H214.122V282.67H269.437V303.39H214.122V337.615H279.797ZM206.537 209.41L226.147 190.725H244.092L263.702 209.41L250.937 215.33L235.212 203.675L219.487 215.33L206.537 209.41ZM325.231 275.64V360H299.701V228.65H320.051L387.946 315.23V228.835H413.476V360H392.201L325.231 275.64ZM432.844 293.4C432.844 285.383 434.263 277.552 437.099 269.905C440.059 262.135 444.314 255.105 449.864 248.815C455.414 242.402 462.198 237.345 470.214 233.645C478.231 229.822 487.358 227.91 497.594 227.91C509.681 227.91 520.103 230.562 528.859 235.865C537.739 241.168 544.338 248.075 548.654 256.585L529.044 270.09C526.824 265.157 523.926 261.272 520.349 258.435C516.773 255.475 512.949 253.44 508.879 252.33C504.809 251.097 500.801 250.48 496.854 250.48C490.441 250.48 484.829 251.775 480.019 254.365C475.333 256.955 471.386 260.347 468.179 264.54C464.973 268.733 462.568 273.42 460.964 278.6C459.484 283.78 458.744 288.96 458.744 294.14C458.744 299.937 459.669 305.548 461.519 310.975C463.369 316.278 465.959 321.027 469.289 325.22C472.743 329.29 476.813 332.558 481.499 335.025C486.309 337.368 491.551 338.54 497.224 338.54C501.294 338.54 505.426 337.862 509.619 336.505C513.813 335.148 517.698 332.99 521.274 330.03C524.851 327.07 527.626 323.247 529.599 318.56L550.504 330.585C547.914 337.122 543.659 342.672 537.739 347.235C531.943 351.798 525.406 355.252 518.129 357.595C510.853 359.938 503.638 361.11 496.484 361.11C487.111 361.11 478.539 359.198 470.769 355.375C462.999 351.428 456.278 346.248 450.604 339.835C445.054 333.298 440.676 326.022 437.469 318.005C434.386 309.865 432.844 301.663 432.844 293.4ZM567.626 360V228.65H593.156V360H567.626ZM656.265 228.65H682.165L730.45 360H704.18L691.97 327.255H646.09L634.065 360H607.795L656.265 228.65ZM687.345 309.31L669.215 255.105L650.345 309.31H687.345ZM783.519 360V228.65H831.249C845.556 228.65 857.519 231.61 867.139 237.53C876.759 243.327 883.974 251.22 888.784 261.21C893.594 271.077 895.999 282.053 895.999 294.14C895.999 307.46 893.347 319.053 888.044 328.92C882.741 338.787 875.217 346.433 865.474 351.86C855.854 357.287 844.446 360 831.249 360H783.519ZM870.284 294.14C870.284 285.63 868.742 278.168 865.659 271.755C862.576 265.218 858.136 260.162 852.339 256.585C846.542 252.885 839.512 251.035 831.249 251.035H809.049V337.615H831.249C839.636 337.615 846.727 335.765 852.524 332.065C858.321 328.242 862.699 323.062 865.659 316.525C868.742 309.865 870.284 302.403 870.284 294.14ZM946.592 228.65H972.492L1020.78 360H994.507L982.297 327.255H936.417L924.392 360H898.122L946.592 228.65ZM977.672 309.31L959.542 255.105L940.672 309.31H977.672ZM1065.89 293.4C1065.89 285.383 1067.31 277.552 1070.15 269.905C1073.11 262.135 1077.36 255.105 1082.91 248.815C1088.46 242.402 1095.24 237.345 1103.26 233.645C1111.28 229.822 1120.4 227.91 1130.64 227.91C1142.73 227.91 1153.15 230.562 1161.91 235.865C1170.79 241.168 1177.38 248.075 1181.7 256.585L1162.09 270.09C1159.87 265.157 1156.97 261.272 1153.4 258.435C1149.82 255.475 1146 253.44 1141.93 252.33C1137.86 251.097 1133.85 250.48 1129.9 250.48C1123.49 250.48 1117.88 251.775 1113.07 254.365C1108.38 256.955 1104.43 260.347 1101.23 264.54C1098.02 268.733 1095.61 273.42 1094.01 278.6C1092.53 283.78 1091.79 288.96 1091.79 294.14C1091.79 299.937 1092.72 305.548 1094.57 310.975C1096.42 316.278 1099.01 321.027 1102.34 325.22C1105.79 329.29 1109.86 332.558 1114.55 335.025C1119.36 337.368 1124.6 338.54 1130.27 338.54C1134.34 338.54 1138.47 337.862 1142.67 336.505C1146.86 335.148 1150.74 332.99 1154.32 330.03C1157.9 327.07 1160.67 323.247 1162.65 318.56L1183.55 330.585C1180.96 337.122 1176.71 342.672 1170.79 347.235C1164.99 351.798 1158.45 355.252 1151.18 357.595C1143.9 359.938 1136.68 361.11 1129.53 361.11C1120.16 361.11 1111.59 359.198 1103.82 355.375C1096.05 351.428 1089.32 346.248 1083.65 339.835C1078.1 333.298 1073.72 326.022 1070.52 318.005C1067.43 309.865 1065.89 301.663 1065.89 293.4ZM1255.1 360.925C1245.48 360.925 1236.72 359.075 1228.83 355.375C1221.06 351.675 1214.34 346.68 1208.67 340.39C1203.12 333.977 1198.8 326.823 1195.72 318.93C1192.63 310.913 1191.09 302.712 1191.09 294.325C1191.09 285.568 1192.69 277.243 1195.9 269.35C1199.23 261.333 1203.73 254.242 1209.41 248.075C1215.2 241.785 1221.99 236.852 1229.76 233.275C1237.65 229.575 1246.28 227.725 1255.66 227.725C1265.15 227.725 1273.79 229.637 1281.56 233.46C1289.45 237.283 1296.17 242.402 1301.72 248.815C1307.27 255.228 1311.59 262.382 1314.67 270.275C1317.75 278.168 1319.3 286.308 1319.3 294.695C1319.3 303.328 1317.69 311.653 1314.49 319.67C1311.28 327.563 1306.78 334.655 1300.98 340.945C1295.31 347.112 1288.52 351.983 1280.63 355.56C1272.86 359.137 1264.35 360.925 1255.1 360.925ZM1216.99 294.325C1216.99 299.998 1217.85 305.487 1219.58 310.79C1221.31 316.093 1223.77 320.842 1226.98 325.035C1230.31 329.105 1234.32 332.373 1239.01 334.84C1243.82 337.183 1249.24 338.355 1255.29 338.355C1261.45 338.355 1266.94 337.122 1271.75 334.655C1276.56 332.065 1280.57 328.673 1283.78 324.48C1286.98 320.163 1289.39 315.415 1290.99 310.235C1292.72 304.932 1293.58 299.628 1293.58 294.325C1293.58 288.652 1292.66 283.225 1290.81 278.045C1289.08 272.742 1286.55 268.055 1283.22 263.985C1280.01 259.792 1276.01 256.523 1271.2 254.18C1266.51 251.713 1261.21 250.48 1255.29 250.48C1249 250.48 1243.45 251.775 1238.64 254.365C1233.95 256.832 1230 260.162 1226.8 264.355C1223.59 268.548 1221.12 273.235 1219.4 278.415C1217.79 283.595 1216.99 288.898 1216.99 294.325ZM1446 360V273.79L1412.33 337.985H1398.08L1364.41 273.79V360H1338.88V228.65H1366.26L1405.11 303.39L1444.33 228.65H1471.53V360H1446ZM1498.95 360V228.65H1554.63C1560.68 228.65 1566.23 229.883 1571.28 232.35C1576.34 234.817 1580.72 238.147 1584.42 242.34C1588.24 246.533 1591.2 251.22 1593.3 256.4C1595.4 261.58 1596.44 266.883 1596.44 272.31C1596.44 279.71 1594.72 286.74 1591.26 293.4C1587.81 300.06 1583.06 305.487 1577.02 309.68C1570.98 313.873 1563.82 315.97 1555.56 315.97H1524.48V360H1498.95ZM1524.48 293.585H1554.08C1557.16 293.585 1559.94 292.722 1562.4 290.995C1564.87 289.268 1566.84 286.802 1568.32 283.595C1569.8 280.265 1570.54 276.503 1570.54 272.31C1570.54 267.747 1569.68 263.862 1567.95 260.655C1566.35 257.448 1564.19 255.043 1561.48 253.44C1558.89 251.837 1556.05 251.035 1552.97 251.035H1524.48V293.585ZM1669.9 360.925C1659.41 360.925 1650.47 359.198 1643.07 355.745C1635.8 352.168 1629.88 347.297 1625.31 341.13C1620.87 334.963 1617.6 327.995 1615.51 320.225C1613.41 312.332 1612.36 304.13 1612.36 295.62V228.65H1637.89V295.62C1637.89 301.047 1638.39 306.35 1639.37 311.53C1640.48 316.587 1642.27 321.15 1644.74 325.22C1647.2 329.29 1650.47 332.497 1654.54 334.84C1658.61 337.183 1663.67 338.355 1669.71 338.355C1675.88 338.355 1681 337.183 1685.07 334.84C1689.26 332.373 1692.53 329.105 1694.87 325.035C1697.34 320.965 1699.13 316.402 1700.24 311.345C1701.35 306.165 1701.9 300.923 1701.9 295.62V228.65H1727.25V295.62C1727.25 304.623 1726.14 313.072 1723.92 320.965C1721.82 328.858 1718.43 335.827 1713.74 341.87C1709.18 347.79 1703.26 352.477 1695.98 355.93C1688.71 359.26 1680.01 360.925 1669.9 360.925ZM1851.2 251.035H1809.2V360H1783.86V251.035H1741.86V228.65H1851.2V251.035ZM1890.92 228.65H1916.82L1965.11 360H1938.84L1926.63 327.255H1880.75L1868.72 360H1842.45L1890.92 228.65ZM1922 309.31L1903.87 255.105L1885 309.31H1922ZM1966.5 293.4C1966.5 285.383 1967.92 277.552 1970.76 269.905C1973.72 262.135 1977.97 255.105 1983.52 248.815C1989.07 242.402 1995.85 237.345 2003.87 233.645C2011.89 229.822 2021.01 227.91 2031.25 227.91C2043.34 227.91 2053.76 230.562 2062.52 235.865C2071.4 241.168 2077.99 248.075 2082.31 256.585L2062.7 270.09C2060.48 265.157 2057.58 261.272 2054.01 258.435C2050.43 255.475 2046.61 253.44 2042.54 252.33C2038.47 251.097 2034.46 250.48 2030.51 250.48C2024.1 250.48 2018.49 251.775 2013.68 254.365C2008.99 256.955 2005.04 260.347 2001.84 264.54C1998.63 268.733 1996.22 273.42 1994.62 278.6C1993.14 283.78 1992.4 288.96 1992.4 294.14C1992.4 299.937 1993.33 305.548 1995.18 310.975C1997.03 316.278 1999.62 321.027 2002.95 325.22C2006.4 329.29 2010.47 332.558 2015.16 335.025C2019.97 337.368 2025.21 338.54 2030.88 338.54C2034.95 338.54 2039.08 337.862 2043.28 336.505C2047.47 335.148 2051.35 332.99 2054.93 330.03C2058.51 327.07 2061.28 323.247 2063.26 318.56L2084.16 330.585C2081.57 337.122 2077.32 342.672 2071.4 347.235C2065.6 351.798 2059.06 355.252 2051.79 357.595C2044.51 359.938 2037.29 361.11 2030.14 361.11C2020.77 361.11 2012.2 359.198 2004.43 355.375C1996.66 351.428 1989.93 346.248 1984.26 339.835C1978.71 333.298 1974.33 326.022 1971.13 318.005C1968.04 309.865 1966.5 301.663 1966.5 293.4ZM2027.74 397.185C2024.41 397.185 2020.83 396.692 2017.01 395.705C2013.18 394.842 2009.36 393.485 2005.54 391.635L2011.83 378.5C2013.68 379.733 2015.53 380.658 2017.38 381.275C2019.35 382.015 2021.38 382.385 2023.48 382.385C2026.69 382.385 2029.15 381.645 2030.88 380.165C2032.73 378.808 2033.66 376.773 2033.66 374.06C2033.66 371.47 2032.73 369.003 2030.88 366.66C2029.15 364.44 2026.63 362.22 2023.3 360L2031.62 354.635C2036.55 357.842 2040.62 361.295 2043.83 364.995C2047.04 368.818 2048.64 373.443 2048.64 378.87C2048.64 384.05 2046.85 388.367 2043.28 391.82C2039.82 395.397 2034.64 397.185 2027.74 397.185ZM2135.18 228.65H2161.08L2209.37 360H2183.1L2170.89 327.255H2125.01L2112.98 360H2086.71L2135.18 228.65ZM2166.26 309.31L2148.13 255.105L2129.26 309.31H2166.26ZM2160.16 214.405C2156.46 214.405 2153.25 213.727 2150.54 212.37C2147.95 210.89 2145.54 209.472 2143.32 208.115C2141.1 206.758 2138.63 206.08 2135.92 206.08C2133.21 206.08 2131.17 206.82 2129.82 208.3C2128.58 209.657 2127.78 211.075 2127.41 212.555C2127.16 214.035 2127.04 214.837 2127.04 214.96H2113.35C2113.35 213.85 2113.72 212 2114.46 209.41C2115.2 206.82 2116.37 204.168 2117.98 201.455C2119.7 198.618 2121.92 196.213 2124.64 194.24C2127.47 192.267 2130.93 191.28 2135 191.28C2138.82 191.28 2141.96 192.02 2144.43 193.5C2146.9 194.98 2149.24 196.46 2151.46 197.94C2153.8 199.297 2156.46 199.975 2159.42 199.975C2162.38 199.975 2164.53 199.235 2165.89 197.755C2167.25 196.275 2168.11 194.795 2168.48 193.315C2168.97 191.835 2169.22 190.972 2169.22 190.725H2182.91C2182.91 191.588 2182.54 193.253 2181.8 195.72C2181.06 198.187 2179.77 200.9 2177.92 203.86C2176.19 206.697 2173.85 209.163 2170.89 211.26C2168.05 213.357 2164.47 214.405 2160.16 214.405ZM2274.77 360.925C2265.15 360.925 2256.39 359.075 2248.5 355.375C2240.73 351.675 2234.01 346.68 2228.33 340.39C2222.78 333.977 2218.47 326.823 2215.38 318.93C2212.3 310.913 2210.76 302.712 2210.76 294.325C2210.76 285.568 2212.36 277.243 2215.57 269.35C2218.9 261.333 2223.4 254.242 2229.07 248.075C2234.87 241.785 2241.65 236.852 2249.42 233.275C2257.32 229.575 2265.95 227.725 2275.32 227.725C2284.82 227.725 2293.45 229.637 2301.22 233.46C2309.12 237.283 2315.84 242.402 2321.39 248.815C2326.94 255.228 2331.26 262.382 2334.34 270.275C2337.42 278.168 2338.96 286.308 2338.96 294.695C2338.96 303.328 2337.36 311.653 2334.15 319.67C2330.95 327.563 2326.45 334.655 2320.65 340.945C2314.98 347.112 2308.19 351.983 2300.3 355.56C2292.53 359.137 2284.02 360.925 2274.77 360.925ZM2236.66 294.325C2236.66 299.998 2237.52 305.487 2239.25 310.79C2240.98 316.093 2243.44 320.842 2246.65 325.035C2249.98 329.105 2253.99 332.373 2258.67 334.84C2263.48 337.183 2268.91 338.355 2274.95 338.355C2281.12 338.355 2286.61 337.122 2291.42 334.655C2296.23 332.065 2300.24 328.673 2303.44 324.48C2306.65 320.163 2309.06 315.415 2310.66 310.235C2312.39 304.932 2313.25 299.628 2313.25 294.325C2313.25 288.652 2312.32 283.225 2310.47 278.045C2308.75 272.742 2306.22 268.055 2302.89 263.985C2299.68 259.792 2295.67 256.523 2290.86 254.18C2286.18 251.713 2280.87 250.48 2274.95 250.48C2268.66 250.48 2263.11 251.775 2258.3 254.365C2253.62 256.832 2249.67 260.162 2246.46 264.355C2243.26 268.548 2240.79 273.235 2239.06 278.415C2237.46 283.595 2236.66 288.898 2236.66 294.325ZM492.827 470.8V477H458.927V470.8H473.127V428C472.593 428.8 471.66 429.667 470.327 430.6C469.06 431.533 467.627 432.4 466.027 433.2C464.493 434 462.893 434.667 461.227 435.2C459.56 435.733 458.093 436 456.827 436V429.4C458.36 429.4 460.027 428.967 461.827 428.1C463.693 427.233 465.427 426.233 467.027 425.1C468.693 423.967 470.093 422.9 471.227 421.9C472.36 420.9 472.993 420.233 473.127 419.9H480.127V470.8H492.827ZM530.6 489.7V471.9H497.3V465.9L532.8 419.9H537.4V465.7H546.2V471.9H537.4V489.7H530.6ZM504.5 465.7H531.3V430.6L504.5 465.7ZM602.853 406H608.753L638.253 477H630.853L621.653 454.8H589.753L580.653 477H573.153L602.853 406ZM620.053 449.3L605.753 414.2L591.253 449.3H620.053ZM702.495 470.8V477H668.595V470.8H682.795V428C682.261 428.8 681.328 429.667 679.995 430.6C678.728 431.533 677.295 432.4 675.695 433.2C674.161 434 672.561 434.667 670.895 435.2C669.228 435.733 667.761 436 666.495 436V429.4C668.028 429.4 669.695 428.967 671.495 428.1C673.361 427.233 675.095 426.233 676.695 425.1C678.361 423.967 679.761 422.9 680.895 421.9C682.028 420.9 682.661 420.233 682.795 419.9H689.795V470.8H702.495ZM760.568 453.6C760.568 457 759.901 460.2 758.568 463.2C757.301 466.133 755.535 468.7 753.268 470.9C751.001 473.1 748.335 474.833 745.268 476.1C742.201 477.367 738.901 478 735.368 478C731.635 478 728.201 477.333 725.068 476C721.935 474.6 719.235 472.633 716.968 470.1C714.768 467.567 713.035 464.467 711.768 460.8C710.501 457.067 709.868 452.9 709.868 448.3C709.868 441.1 710.501 434.833 711.768 429.5C713.035 424.1 714.801 419.633 717.068 416.1C719.401 412.5 722.168 409.833 725.368 408.1C728.568 406.367 732.135 405.5 736.068 405.5C740.801 405.5 745.035 406.667 748.768 409C752.501 411.333 755.335 414.567 757.268 418.7L752.868 422.7C751.468 419.3 749.268 416.6 746.268 414.6C743.268 412.533 739.868 411.5 736.068 411.5C733.135 411.5 730.468 412.2 728.068 413.6C725.668 415 723.601 417.033 721.868 419.7C720.201 422.3 718.868 425.533 717.868 429.4C716.935 433.267 716.468 437.633 716.468 442.5C717.935 438.567 720.435 435.433 723.968 433.1C727.568 430.767 731.635 429.6 736.168 429.6C739.568 429.6 742.735 430.233 745.668 431.5C748.668 432.7 751.268 434.4 753.468 436.6C755.668 438.733 757.401 441.267 758.668 444.2C759.935 447.133 760.568 450.267 760.568 453.6ZM735.568 472C738.101 472 740.468 471.533 742.668 470.6C744.935 469.6 746.901 468.267 748.568 466.6C750.301 464.933 751.635 463 752.568 460.8C753.568 458.533 754.068 456.133 754.068 453.6C754.068 451.067 753.568 448.7 752.568 446.5C751.568 444.233 750.201 442.267 748.468 440.6C746.801 438.933 744.835 437.633 742.568 436.7C740.368 435.7 738.001 435.2 735.468 435.2C732.935 435.2 730.535 435.7 728.268 436.7C726.068 437.633 724.101 438.933 722.368 440.6C720.701 442.267 719.368 444.233 718.368 446.5C717.435 448.7 716.968 451.067 716.968 453.6C716.968 456.133 717.468 458.5 718.468 460.7C719.468 462.9 720.801 464.867 722.468 466.6C724.201 468.267 726.168 469.6 728.368 470.6C730.635 471.533 733.035 472 735.568 472ZM799.31 477V406H823.41C829.077 406 834.01 406.933 838.21 408.8C842.477 410.667 846.01 413.2 848.81 416.4C851.677 419.6 853.81 423.367 855.21 427.7C856.677 431.967 857.41 436.533 857.41 441.4C857.41 446.8 856.61 451.7 855.01 456.1C853.41 460.433 851.11 464.167 848.11 467.3C845.177 470.367 841.61 472.767 837.41 474.5C833.277 476.167 828.61 477 823.41 477H799.31ZM850.41 441.4C850.41 437.133 849.81 433.233 848.61 429.7C847.41 426.1 845.643 423 843.31 420.4C841.043 417.8 838.243 415.8 834.91 414.4C831.577 412.933 827.743 412.2 823.41 412.2H806.31V470.8H823.41C827.81 470.8 831.677 470.067 835.01 468.6C838.41 467.067 841.243 465 843.51 462.4C845.777 459.733 847.477 456.633 848.61 453.1C849.81 449.5 850.41 445.6 850.41 441.4ZM918.495 470.8V477H870.795V406H917.595V412.2H877.795V437.8H912.495V443.7H877.795V470.8H918.495ZM998.72 419.3C996.72 417.033 994.054 415.2 990.72 413.8C987.387 412.4 983.587 411.7 979.32 411.7C973.054 411.7 968.487 412.9 965.62 415.3C962.754 417.633 961.32 420.833 961.32 424.9C961.32 427.033 961.687 428.8 962.42 430.2C963.22 431.533 964.42 432.7 966.02 433.7C967.62 434.7 969.654 435.567 972.12 436.3C974.654 437.033 977.62 437.767 981.02 438.5C984.82 439.3 988.22 440.2 991.22 441.2C994.287 442.2 996.887 443.467 999.02 445C1001.15 446.467 1002.79 448.267 1003.92 450.4C1005.05 452.533 1005.62 455.2 1005.62 458.4C1005.62 461.667 1004.99 464.5 1003.72 466.9C1002.45 469.3 1000.69 471.3 998.42 472.9C996.154 474.5 993.454 475.7 990.32 476.5C987.187 477.233 983.754 477.6 980.02 477.6C969.02 477.6 959.52 474.167 951.52 467.3L955.02 461.6C956.287 462.933 957.787 464.2 959.52 465.4C961.32 466.6 963.287 467.667 965.42 468.6C967.62 469.467 969.954 470.167 972.42 470.7C974.887 471.167 977.487 471.4 980.22 471.4C985.887 471.4 990.287 470.4 993.42 468.4C996.62 466.333 998.22 463.233 998.22 459.1C998.22 456.9 997.754 455.067 996.82 453.6C995.954 452.067 994.62 450.767 992.82 449.7C991.02 448.567 988.787 447.6 986.12 446.8C983.454 446 980.354 445.2 976.82 444.4C973.087 443.533 969.82 442.633 967.02 441.7C964.22 440.767 961.854 439.6 959.92 438.2C957.987 436.8 956.52 435.133 955.52 433.2C954.587 431.2 954.12 428.767 954.12 425.9C954.12 422.633 954.72 419.733 955.92 417.2C957.187 414.6 958.954 412.467 961.22 410.8C963.487 409.067 966.154 407.767 969.22 406.9C972.287 405.967 975.687 405.5 979.42 405.5C984.154 405.5 988.354 406.233 992.02 407.7C995.754 409.1 999.12 411.1 1002.12 413.7L998.72 419.3ZM1065.66 470.8V477H1017.96V406H1064.76V412.2H1024.96V437.8H1059.66V443.7H1024.96V470.8H1065.66ZM1129.3 412.2H1104V477H1097V412.2H1071.7V406H1129.3V412.2ZM1187.64 470.8V477H1139.94V406H1186.74V412.2H1146.94V437.8H1181.64V443.7H1146.94V470.8H1187.64ZM1263.77 477V418.7L1237.87 463.8H1233.77L1207.87 418.7V477H1200.87V406H1208.07L1235.77 454.6L1263.67 406H1270.77V477H1263.77ZM1341.97 458.7C1341.97 461.367 1341.43 463.833 1340.37 466.1C1339.3 468.3 1337.87 470.233 1336.07 471.9C1334.27 473.5 1332.17 474.767 1329.77 475.7C1327.37 476.567 1324.8 477 1322.07 477H1288.57V406H1322.77C1325.23 406 1327.47 406.533 1329.47 407.6C1331.47 408.667 1333.17 410.067 1334.57 411.8C1335.97 413.467 1337.03 415.4 1337.77 417.6C1338.57 419.733 1338.97 421.9 1338.97 424.1C1338.97 427.7 1338.07 431 1336.27 434C1334.47 436.933 1331.97 439.133 1328.77 440.6C1332.83 441.8 1336.03 444.033 1338.37 447.3C1340.77 450.567 1341.97 454.367 1341.97 458.7ZM1334.97 457.5C1334.97 455.767 1334.67 454.1 1334.07 452.5C1333.47 450.833 1332.6 449.4 1331.47 448.2C1330.4 446.933 1329.1 445.933 1327.57 445.2C1326.1 444.4 1324.5 444 1322.77 444H1295.57V470.9H1322.07C1323.87 470.9 1325.53 470.533 1327.07 469.8C1328.67 469.067 1330.03 468.1 1331.17 466.9C1332.37 465.633 1333.3 464.2 1333.97 462.6C1334.63 460.933 1334.97 459.233 1334.97 457.5ZM1295.57 412.1V438.3H1319.97C1321.7 438.3 1323.3 437.933 1324.77 437.2C1326.3 436.467 1327.6 435.5 1328.67 434.3C1329.73 433.1 1330.57 431.733 1331.17 430.2C1331.77 428.6 1332.07 426.933 1332.07 425.2C1332.07 423.4 1331.77 421.7 1331.17 420.1C1330.63 418.5 1329.83 417.133 1328.77 416C1327.77 414.8 1326.57 413.867 1325.17 413.2C1323.77 412.467 1322.23 412.1 1320.57 412.1H1295.57ZM1355.17 477V406H1385.17C1388.24 406 1391.04 406.667 1393.57 408C1396.17 409.267 1398.4 410.967 1400.27 413.1C1402.14 415.167 1403.57 417.533 1404.57 420.2C1405.64 422.867 1406.17 425.567 1406.17 428.3C1406.17 430.9 1405.77 433.4 1404.97 435.8C1404.24 438.133 1403.17 440.267 1401.77 442.2C1400.44 444.067 1398.8 445.667 1396.87 447C1394.94 448.267 1392.77 449.133 1390.37 449.6L1407.77 477H1399.87L1383.17 450.8H1362.17V477H1355.17ZM1362.17 444.6H1385.37C1387.44 444.6 1389.3 444.167 1390.97 443.3C1392.7 442.367 1394.17 441.133 1395.37 439.6C1396.57 438.067 1397.5 436.333 1398.17 434.4C1398.84 432.467 1399.17 430.433 1399.17 428.3C1399.17 426.167 1398.77 424.133 1397.97 422.2C1397.24 420.2 1396.2 418.467 1394.87 417C1393.6 415.533 1392.07 414.367 1390.27 413.5C1388.54 412.633 1386.7 412.2 1384.77 412.2H1362.17V444.6ZM1449.1 477.5C1444.17 477.5 1439.63 476.5 1435.5 474.5C1431.43 472.433 1427.93 469.733 1425 466.4C1422.07 463 1419.8 459.133 1418.2 454.8C1416.6 450.467 1415.8 446.033 1415.8 441.5C1415.8 436.767 1416.63 432.233 1418.3 427.9C1420.03 423.567 1422.4 419.733 1425.4 416.4C1428.4 413.067 1431.93 410.433 1436 408.5C1440.07 406.5 1444.47 405.5 1449.2 405.5C1454.13 405.5 1458.63 406.567 1462.7 408.7C1466.83 410.767 1470.33 413.5 1473.2 416.9C1476.13 420.3 1478.4 424.167 1480 428.5C1481.6 432.767 1482.4 437.133 1482.4 441.6C1482.4 446.333 1481.53 450.867 1479.8 455.2C1478.13 459.533 1475.8 463.367 1472.8 466.7C1469.87 469.967 1466.37 472.6 1462.3 474.6C1458.23 476.533 1453.83 477.5 1449.1 477.5ZM1422.8 441.5C1422.8 445.367 1423.43 449.1 1424.7 452.7C1425.97 456.233 1427.77 459.4 1430.1 462.2C1432.43 464.933 1435.2 467.133 1438.4 468.8C1441.6 470.4 1445.17 471.2 1449.1 471.2C1453.1 471.2 1456.73 470.333 1460 468.6C1463.27 466.867 1466.03 464.6 1468.3 461.8C1470.57 459 1472.3 455.833 1473.5 452.3C1474.77 448.767 1475.4 445.167 1475.4 441.5C1475.4 437.633 1474.73 433.933 1473.4 430.4C1472.13 426.8 1470.33 423.633 1468 420.9C1465.67 418.167 1462.9 416 1459.7 414.4C1456.5 412.733 1452.97 411.9 1449.1 411.9C1445.1 411.9 1441.47 412.767 1438.2 414.5C1434.93 416.167 1432.17 418.4 1429.9 421.2C1427.63 424 1425.87 427.167 1424.6 430.7C1423.4 434.233 1422.8 437.833 1422.8 441.5ZM1521.09 477V406H1545.19C1550.85 406 1555.79 406.933 1559.99 408.8C1564.25 410.667 1567.79 413.2 1570.59 416.4C1573.45 419.6 1575.59 423.367 1576.99 427.7C1578.45 431.967 1579.19 436.533 1579.19 441.4C1579.19 446.8 1578.39 451.7 1576.79 456.1C1575.19 460.433 1572.89 464.167 1569.89 467.3C1566.95 470.367 1563.39 472.767 1559.19 474.5C1555.05 476.167 1550.39 477 1545.19 477H1521.09ZM1572.19 441.4C1572.19 437.133 1571.59 433.233 1570.39 429.7C1569.19 426.1 1567.42 423 1565.09 420.4C1562.82 417.8 1560.02 415.8 1556.69 414.4C1553.35 412.933 1549.52 412.2 1545.19 412.2H1528.09V470.8H1545.19C1549.59 470.8 1553.45 470.067 1556.79 468.6C1560.19 467.067 1563.02 465 1565.29 462.4C1567.55 459.733 1569.25 456.633 1570.39 453.1C1571.59 449.5 1572.19 445.6 1572.19 441.4ZM1640.27 470.8V477H1592.57V406H1639.37V412.2H1599.57V437.8H1634.27V443.7H1599.57V470.8H1640.27ZM1674.5 477C1674.5 474.733 1674.7 472.467 1675.1 470.2C1675.5 467.867 1676.26 465.567 1677.4 463.3C1678.6 461.033 1680.26 458.867 1682.4 456.8C1684.6 454.667 1687.5 452.667 1691.1 450.8C1693.03 449.8 1695.03 448.833 1697.1 447.9C1699.23 446.9 1701.16 445.8 1702.9 444.6C1704.7 443.4 1706.16 442.067 1707.3 440.6C1708.43 439.067 1709 437.3 1709 435.3C1709 434.033 1708.7 432.8 1708.1 431.6C1707.56 430.333 1706.73 429.233 1705.6 428.3C1704.53 427.3 1703.16 426.5 1701.5 425.9C1699.9 425.3 1698 425 1695.8 425C1693.6 425 1691.63 425.333 1689.9 426C1688.16 426.6 1686.63 427.333 1685.3 428.2C1684.03 429.067 1682.93 430 1682 431C1681.06 431.933 1680.36 432.7 1679.9 433.3L1675.4 428.4C1675.8 428 1676.56 427.267 1677.7 426.2C1678.83 425.133 1680.3 424.067 1682.1 423C1683.96 421.933 1686.13 421 1688.6 420.2C1691.06 419.333 1693.83 418.9 1696.9 418.9C1699.96 418.9 1702.7 419.333 1705.1 420.2C1707.5 421 1709.53 422.133 1711.2 423.6C1712.86 425.067 1714.13 426.767 1715 428.7C1715.86 430.567 1716.3 432.533 1716.3 434.6C1716.3 437.333 1715.7 439.7 1714.5 441.7C1713.3 443.7 1711.8 445.433 1710 446.9C1708.26 448.367 1706.4 449.633 1704.4 450.7C1702.4 451.7 1700.6 452.567 1699 453.3C1696.86 454.233 1694.76 455.3 1692.7 456.5C1690.7 457.633 1688.9 458.9 1687.3 460.3C1685.7 461.7 1684.36 463.267 1683.3 465C1682.3 466.733 1681.8 468.667 1681.8 470.8H1717.4V477H1674.5ZM1777.95 447.7C1777.95 452.1 1777.31 456.167 1776.05 459.9C1774.78 463.567 1773.01 466.767 1770.75 469.5C1768.55 472.167 1765.91 474.267 1762.85 475.8C1759.78 477.267 1756.45 478 1752.85 478C1749.25 478 1745.91 477.267 1742.85 475.8C1739.78 474.267 1737.11 472.167 1734.85 469.5C1732.65 466.767 1730.91 463.567 1729.65 459.9C1728.38 456.167 1727.75 452.1 1727.75 447.7C1727.75 443.3 1728.38 439.267 1729.65 435.6C1730.91 431.867 1732.65 428.667 1734.85 426C1737.11 423.267 1739.78 421.133 1742.85 419.6C1745.91 418.067 1749.25 417.3 1752.85 417.3C1756.45 417.3 1759.78 418.067 1762.85 419.6C1765.91 421.133 1768.55 423.267 1770.75 426C1773.01 428.667 1774.78 431.867 1776.05 435.6C1777.31 439.267 1777.95 443.3 1777.95 447.7ZM1771.05 447.7C1771.05 444.1 1770.58 440.833 1769.65 437.9C1768.78 434.967 1767.55 432.467 1765.95 430.4C1764.35 428.267 1762.41 426.633 1760.15 425.5C1757.95 424.3 1755.51 423.7 1752.85 423.7C1750.11 423.7 1747.61 424.3 1745.35 425.5C1743.15 426.633 1741.25 428.267 1739.65 430.4C1738.05 432.467 1736.78 434.967 1735.85 437.9C1734.98 440.833 1734.55 444.1 1734.55 447.7C1734.55 451.3 1734.98 454.567 1735.85 457.5C1736.78 460.433 1738.05 462.967 1739.65 465.1C1741.25 467.167 1743.15 468.767 1745.35 469.9C1747.61 471.033 1750.11 471.6 1752.85 471.6C1755.51 471.6 1757.95 471.033 1760.15 469.9C1762.41 468.767 1764.35 467.167 1765.95 465.1C1767.55 462.967 1768.78 460.433 1769.65 457.5C1770.58 454.567 1771.05 451.3 1771.05 447.7ZM1787.88 477C1787.88 474.733 1788.08 472.467 1788.48 470.2C1788.88 467.867 1789.64 465.567 1790.78 463.3C1791.98 461.033 1793.64 458.867 1795.78 456.8C1797.98 454.667 1800.88 452.667 1804.48 450.8C1806.41 449.8 1808.41 448.833 1810.48 447.9C1812.61 446.9 1814.54 445.8 1816.28 444.6C1818.08 443.4 1819.54 442.067 1820.68 440.6C1821.81 439.067 1822.38 437.3 1822.38 435.3C1822.38 434.033 1822.08 432.8 1821.48 431.6C1820.94 430.333 1820.11 429.233 1818.98 428.3C1817.91 427.3 1816.54 426.5 1814.88 425.9C1813.28 425.3 1811.38 425 1809.18 425C1806.98 425 1805.01 425.333 1803.28 426C1801.54 426.6 1800.01 427.333 1798.68 428.2C1797.41 429.067 1796.31 430 1795.38 431C1794.44 431.933 1793.74 432.7 1793.28 433.3L1788.78 428.4C1789.18 428 1789.94 427.267 1791.08 426.2C1792.21 425.133 1793.68 424.067 1795.48 423C1797.34 421.933 1799.51 421 1801.98 420.2C1804.44 419.333 1807.21 418.9 1810.28 418.9C1813.34 418.9 1816.08 419.333 1818.48 420.2C1820.88 421 1822.91 422.133 1824.58 423.6C1826.24 425.067 1827.51 426.767 1828.38 428.7C1829.24 430.567 1829.68 432.533 1829.68 434.6C1829.68 437.333 1829.08 439.7 1827.88 441.7C1826.68 443.7 1825.18 445.433 1823.38 446.9C1821.64 448.367 1819.78 449.633 1817.78 450.7C1815.78 451.7 1813.98 452.567 1812.38 453.3C1810.24 454.233 1808.14 455.3 1806.08 456.5C1804.08 457.633 1802.28 458.9 1800.68 460.3C1799.08 461.7 1797.74 463.267 1796.68 465C1795.68 466.733 1795.18 468.667 1795.18 470.8H1830.78V477H1787.88ZM1840.03 477C1840.03 474.733 1840.23 472.467 1840.63 470.2C1841.03 467.867 1841.79 465.567 1842.93 463.3C1844.13 461.033 1845.79 458.867 1847.93 456.8C1850.13 454.667 1853.03 452.667 1856.63 450.8C1858.56 449.8 1860.56 448.833 1862.63 447.9C1864.76 446.9 1866.69 445.8 1868.43 444.6C1870.23 443.4 1871.69 442.067 1872.83 440.6C1873.96 439.067 1874.53 437.3 1874.53 435.3C1874.53 434.033 1874.23 432.8 1873.63 431.6C1873.09 430.333 1872.26 429.233 1871.13 428.3C1870.06 427.3 1868.69 426.5 1867.03 425.9C1865.43 425.3 1863.53 425 1861.32 425C1859.13 425 1857.16 425.333 1855.43 426C1853.69 426.6 1852.16 427.333 1850.83 428.2C1849.56 429.067 1848.46 430 1847.53 431C1846.59 431.933 1845.89 432.7 1845.43 433.3L1840.93 428.4C1841.33 428 1842.09 427.267 1843.23 426.2C1844.36 425.133 1845.83 424.067 1847.63 423C1849.49 421.933 1851.66 421 1854.13 420.2C1856.59 419.333 1859.36 418.9 1862.43 418.9C1865.49 418.9 1868.23 419.333 1870.63 420.2C1873.03 421 1875.06 422.133 1876.73 423.6C1878.39 425.067 1879.66 426.767 1880.53 428.7C1881.39 430.567 1881.83 432.533 1881.83 434.6C1881.83 437.333 1881.23 439.7 1880.03 441.7C1878.83 443.7 1877.33 445.433 1875.53 446.9C1873.79 448.367 1871.93 449.633 1869.93 450.7C1867.93 451.7 1866.13 452.567 1864.53 453.3C1862.39 454.233 1860.29 455.3 1858.23 456.5C1856.23 457.633 1854.43 458.9 1852.83 460.3C1851.23 461.7 1849.89 463.267 1848.82 465C1847.83 466.733 1847.33 468.667 1847.33 470.8H1882.93V477H1840.03Z" fill="#510086"/>
</svg>
