<svg width="297" height="297" viewBox="0 0 297 297" fill="none" xmlns="http://www.w3.org/2000/svg">
<path d="M84.7781 160.241H193.671V136.907C193.671 135.714 193.173 134.617 192.178 133.617C191.182 132.616 190.083 132.118 188.88 132.123H89.5694C88.3716 132.123 87.2723 132.621 86.2715 133.617C85.2707 134.612 84.7729 135.711 84.7781 136.914V160.241ZM89.5694 248.794C85.9863 248.794 82.9969 247.597 80.6012 245.201C78.2056 242.805 77.0052 239.816 77 236.233V136.907C77 133.329 78.2004 130.342 80.6012 127.946C83.0021 125.551 85.9915 124.35 89.5694 124.345H103.329V107H111.706V124.345H167.35V107H175.128V124.345H188.888C192.466 124.345 195.455 125.546 197.856 127.946C200.257 130.347 201.454 133.337 201.449 136.914V177.757C200.184 177.291 198.903 176.943 197.607 176.715C196.311 176.487 194.999 176.277 193.671 176.085V168.027H84.7781V236.233C84.7781 237.425 85.2759 238.522 86.2715 239.523C87.2671 240.524 88.3638 241.022 89.5616 241.016H141.706C142.115 242.468 142.637 243.819 143.269 245.069C143.902 246.313 144.563 247.555 145.253 248.794H89.5694ZM166.829 247.519C160.793 241.473 157.775 234.12 157.775 225.46C157.775 216.801 160.793 209.45 166.829 203.409C172.865 197.368 180.215 194.348 188.88 194.348C197.55 194.348 204.903 197.368 210.939 203.409C216.98 209.445 220 216.795 220 225.46C220 234.125 216.98 241.478 210.939 247.519C204.898 253.56 197.547 256.578 188.888 256.572C180.228 256.567 172.875 253.549 166.829 247.519ZM201.768 242.587L206.015 238.341L191.874 224.2V203.028H185.893V226.72L201.768 242.587Z" fill="#01204C"/>
</svg>
